<?xml version="1.0" encoding="UTF-8"?>
<svg width="44px" height="30px" viewBox="0 0 44 30" version="1.1" xmlns="http://www.w3.org/2000/svg" xmlns:xlink="http://www.w3.org/1999/xlink">
    <!-- Generator: Sketch 61 (89581) - https://sketch.com -->
    <title>Elite</title>
    <desc>Created with Sketch.</desc>
    <g id="Elite" stroke="none" stroke-width="1" fill="none" fill-rule="evenodd">
        <path d="M2.20608897,24.906627 C3.98033995,24.4382601 7.43379273,23.6264243 9.2080437,23.6576487 C9.58824034,23.6576487 9.61992339,23.470302 9.52487423,23.1892819 C9.17636065,22.2525482 8.38428432,21.7529569 6.83181472,21.8154058 C5.53280955,21.8778547 3.44172804,22.3149971 1.9209415,22.783364 C2.58628561,21.3158145 3.44172804,19.5984694 4.36053658,17.8498999 C6.13478755,17.4127575 8.51101654,16.9756151 10.2219014,16.9756151 C10.6337811,16.9756151 10.6337811,16.7882684 10.5387319,16.5072483 C10.2219014,15.5392901 9.52487423,15.0396989 7.94072158,15.1021478 C7.37042662,15.1333722 6.54666724,15.1958211 5.69122481,15.3519434 C7.24369441,12.5729668 8.79616401,9.85643914 10.0634861,7.98297178 C11.9961524,7.67072721 14.2139661,7.108687 16.4951459,7.13991146 C16.8753425,7.20236037 16.9387087,6.98378918 16.8436595,6.73399353 C16.4634629,5.70358648 15.7664357,5.17277073 14.4357475,5.20399518 C12.6614965,5.23521964 9.17636065,6.14072887 6.54666724,5.98460659 C6.22983671,5.95338213 6.13478755,6.07827995 6.19815366,6.35930006 C6.38825198,7.01501364 6.73676556,7.63950276 7.52884189,7.95174732 C4.86746543,12.0109266 1.69916012,17.8186754 0.241739683,21.6592835 C-0.075090848,22.5023439 -0.075090848,22.9082618 0.21005663,23.4390775 C0.431838001,23.8449955 0.62193632,24.3133623 0.875400744,24.5943824 C1.25559738,25.0627493 1.60411097,25.0627493 2.20608897,24.906627 Z M14.9426763,24.7505047 C17.4773206,24.8129536 19.7901834,22.2213238 20.2337462,21.2845901 C20.5822598,20.5352031 20.708992,19.8482651 20.5505767,19.3486738 C20.4238445,18.9115314 20.0753309,18.9427559 19.8535495,19.3486738 C18.6179105,21.7529569 16.4000968,24.0011178 14.8793102,23.8762199 C13.4535728,23.7513221 13.8020864,21.1596922 15.0694085,18.0996955 C17.8892002,16.2886771 21.4377022,12.5417424 22.4198768,8.70113427 C22.8000735,7.23358483 22.6099752,6.07827995 21.6911666,5.2664441 C21.2476039,4.86052617 20.8040411,4.92297508 20.3287953,5.42256638 C17.0971239,8.73235872 13.4852559,14.3839853 12.3129829,19.8170406 C11.5842727,23.1892819 12.7565456,24.6880558 14.9426763,24.7505047 Z M15.6397035,16.7570439 C15.8614848,16.2574526 16.1149493,15.7578613 16.4000968,15.25827 C18.5862274,11.2615397 20.9307733,7.79562504 21.342653,8.04542069 C21.7545327,8.29521634 19.9802817,13.2911293 15.6397035,16.7570439 Z M26.3802585,12.1046 C26.7921382,11.6674576 27.0139195,10.8243973 26.6020398,10.0125614 C26.1901602,9.16950111 25.2713516,8.79480763 24.7644228,9.32562339 C24.2574939,9.85643914 24.0990786,10.7931728 24.6060075,11.6362331 C25.0812533,12.448069 25.9683788,12.5417424 26.3802585,12.1046 Z M21.4377022,24.8129536 C23.2119532,24.8129536 25.2079855,23.5015265 26.1584771,21.5656102 C26.5386737,20.7849988 26.6337229,20.1292852 26.3802585,19.6296939 C26.2535263,19.3798982 26.0317449,19.3486738 25.8733296,19.6296939 C24.922838,21.7841814 23.1802701,23.8449955 21.7545327,23.9074444 C20.740675,23.9698933 20.6773089,22.7521395 21.4377022,20.9411211 C22.1030463,19.3798982 23.4337345,17.2566352 24.0990786,15.8827592 C24.8594719,14.3215364 24.6060075,12.9788848 24.1307617,12.4792935 C23.8772973,12.1982733 23.6555159,12.2919467 23.3703684,12.6666402 C22.1980955,14.2903119 20.107014,17.9747977 19.3149376,20.254183 C18.4278121,22.8145884 19.0297902,24.8129536 21.4377022,24.8129536 Z M33.5089454,21.2533656 C33.8257759,20.5352031 33.9841912,19.9731629 33.8257759,19.4735716 C33.6990437,19.0364292 33.3505301,19.0988781 33.1604318,19.4735716 C31.9881589,21.8154058 30.1822248,24.0323422 28.7564875,23.9698933 C27.4257992,23.9074444 27.0772856,21.9715281 28.1228264,19.6921428 C29.3267824,17.0692885 31.1327164,14.0405163 32.3683555,11.9484777 C33.1604318,11.8235799 34.1426065,11.7299065 34.8396336,11.8235799 C35.3148794,11.8235799 35.4416117,11.6050087 35.2198303,11.2303152 C34.9663659,10.8243973 34.4911201,10.2623571 33.255481,10.2935815 C34.0158743,8.66990981 34.0158743,7.63950276 33.6673607,6.76521799 C33.5089454,6.39052451 33.1921149,6.35930006 32.9069674,6.76521799 C32.3683555,7.45215602 31.48123,8.91970546 30.4990554,10.6370505 C29.6436129,10.7307239 28.7564875,10.7931728 27.869362,10.7619484 C27.3941162,10.7307239 27.2040179,10.9492951 27.5208484,11.3864375 C27.7743128,11.7299065 28.503023,12.1982733 29.5802468,12.1982733 C28.2178755,14.6650054 26.8871873,17.2878597 26.2218432,18.8490825 C24.7010567,22.4398949 26.3802585,24.7505047 28.47134,24.8129536 C31.0059842,24.906627 33.0970657,22.1588748 33.5089454,21.2533656 Z M36.2020049,24.8441781 C38.6416,24.8129536 41.0811951,23.3766286 42.4118833,21.4719368 C42.9821783,20.6601009 43.0772274,19.7858162 42.9504952,19.5360205 C42.823763,19.2550004 42.5702986,19.2550004 42.4118833,19.5047961 C41.049512,21.5656102 38.7366492,24.0635667 36.1069558,23.9386688 C34.427754,23.8449955 33.6673607,21.8778547 34.6812184,19.0052048 C36.8990321,20.7849988 39.0217966,19.9731629 40.5742662,18.0996955 C41.9049545,16.5072483 42.1584189,14.6025565 41.5881239,13.8531695 C41.0811951,13.1662315 40.5109001,12.6978646 39.7188238,12.2294978 C38.1346712,11.3239886 34.9029997,12.9476603 32.8436013,16.9756151 C30.7842028,21.00357 32.1782572,24.906627 36.2020049,24.8441781 Z M34.9663659,18.3182667 C35.029732,18.1621445 35.1247811,17.9747977 35.2198303,17.787451 C36.7089338,14.8211277 39.3386272,12.9476603 40.0039713,13.478476 C40.447534,13.8219451 39.7505069,15.4456168 38.7366492,16.7570439 C37.8178406,17.9435733 36.5188355,19.2862249 34.9663659,18.3182667 Z" fill="#958356" fill-rule="nonzero"></path>
    </g>
</svg>