<?xml version="1.0" encoding="UTF-8"?>
<svg width="34px" height="30px" viewBox="0 0 34 30" version="1.1" xmlns="http://www.w3.org/2000/svg" xmlns:xlink="http://www.w3.org/1999/xlink">
    <!-- Generator: Sketch 61 (89581) - https://sketch.com -->
    <title>Firefighters</title>
    <desc>Created with Sketch.</desc>
    <defs>
        <polygon id="path-1" points="0.882352941 0.663578809 1.703945 0.663578809 1.703945 1.96226471 0.882352941 1.96226471"></polygon>
    </defs>
    <g id="Firefighters" stroke="none" stroke-width="1" fill="none" fill-rule="evenodd">
        <g id="Group-184" transform="translate(1.000000, 0.000000)">
            <path d="M0.948441176,0 L9.14814706,7.47441176 L8.3355,8.36470588 L3.80285294,4.23352941 C3.80285294,4.23352941 3.00255882,3.58411765 2.21373529,4.50794118 C1.55197059,5.28176471 1.23873529,5.92941176 1.15667647,6.615 C1.15667647,6.615 0.413735294,5.93735294 1.37461765,4.33323529 C2.06285294,3.18529412 2.84020588,3.38558824 2.63020588,2.59235294 L2.30991176,2.73794118 L0.948441176,0 Z" id="Fill-1" fill="#231F20"></path>
            <polygon id="Fill-3" fill="#FEFEFE" points="2.02208824 1.55364706 1.59591176 0.880411765 2.4165 1.67011765"></polygon>
            <g id="Group-7" transform="translate(0.000000, 3.926471)">
                <mask id="mask-2" fill="white">
                    <use xlink:href="#path-1"></use>
                </mask>
                <g id="Clip-6"></g>
                <path d="M1.09402941,1.96226471 L1.0905,1.96226471 C1.03667647,1.9605 0.992558824,1.91461765 0.994323529,1.85991176 C1.01108824,1.21932353 1.33402941,0.728735294 1.34814706,0.707558824 C1.37902941,0.661676471 1.44079412,0.650205882 1.48667647,0.680205882 C1.53255882,0.711088235 1.54491176,0.771970588 1.51491176,0.818735294 C1.51138235,0.823147059 1.20961765,1.28373529 1.19285294,1.86520588 C1.19108824,1.91902941 1.14785294,1.96226471 1.09402941,1.96226471" id="Fill-5" fill="#FEFEFE" mask="url(#mask-2)"></path>
            </g>
            <path d="M6.82932353,4.97364706 C7.21491176,5.32394118 7.26079412,5.90188235 6.93167647,6.26276471 C6.60344118,6.62276471 6.02461765,6.63070588 5.63902941,6.27952941 C5.25432353,5.92835294 5.20755882,5.35129412 5.53667647,4.99129412 C5.86491176,4.62952941 6.44373529,4.62247059 6.82932353,4.97364706" id="Fill-8" fill="#231F20"></path>
            <polygon id="Fill-10" fill="#231F20" points="9.35232353 7.27252941 8.16114706 8.57841176 5.63938235 6.27988235 6.82967647 4.974"></polygon>
            <path d="M3.20258824,2.56958824 L5.79052941,4.92811765 L5.66170588,5.06929412 L5.57170588,4.99076471 L4.14141176,3.74929412 C4.14141176,3.74929412 3.79023529,3.39105882 3.36935294,3.41135294 C3.36935294,3.41135294 2.79847059,3.65929412 2.53023529,3.84370588 C2.53023529,3.84370588 3.28817647,3.23135294 3.33670588,3.07605882 C3.42141176,2.80782353 3.09405882,2.56341176 3.01552941,2.45135294 C2.937,2.33929412 3.20258824,2.56958824 3.20258824,2.56958824" id="Fill-12" fill="#FEFEFE"></path>
            <path d="M5.85220588,4.85991176 L5.84161765,4.86344118 L5.72073529,4.99579412 C6.32073529,4.96491176 6.61632353,5.22608824 6.61632353,5.22608824 L7.84985294,6.36697059 L7.9725,6.23285294 C7.9725,6.23285294 7.02132353,5.34785294 6.74426471,5.09461765 C6.38161765,4.76461765 5.85220588,4.85991176 5.85220588,4.85991176" id="Fill-14" fill="#FEFEFE"></path>
            <path d="M28.5968824,24.8092941 C28.5968824,24.8092941 28.6127647,25.1295882 28.2351176,25.5442941 C27.8565882,25.9598824 27.5327647,25.9757647 27.5327647,25.9757647 L25.0101176,23.6772353 L26.0742353,22.5098824 L28.5968824,24.8092941 Z" id="Fill-16" fill="#915946"></path>
            <path d="M25.4294118,23.6572941 L27.615,25.6487647 C27.7041176,25.6108235 27.8488235,25.5261176 28.0155882,25.3443529 C28.1788235,25.1643529 28.2485294,25.0143529 28.2785294,24.9208235 L26.0938235,22.9293529 L25.4294118,23.6572941 Z M27.4244118,26.2796471 L24.5902941,23.6961176 L26.055,22.0902353 L28.8873529,24.672 L28.8935294,24.7946471 C28.8961765,24.8405294 28.9032353,25.2534706 28.4541176,25.7449412 C28.0067647,26.2355294 27.5938235,26.2708235 27.5479412,26.2734706 L27.4244118,26.2796471 Z" id="Fill-18" fill="#563416"></path>
            <path d="M25.5259412,23.2807059 L25.6724118,23.4748235 L25.7332941,23.6512941 L25.9106471,23.8127647 L26.0756471,23.9618824 L26.2494706,24.081 L26.0694706,23.8365882 L26.043,23.7104118 L26.1056471,23.7077647 L26.1532941,23.8118824 L26.253,23.9230588 L26.3985882,24.096 L26.5600588,24.1621765 L26.7471176,24.3121765 L26.7885882,24.5318824 L26.6465294,24.4224706 L26.5256471,24.3324706 L26.7268235,24.5768824 L26.9227059,24.6951176 L26.9606471,24.6086471 L27.0232941,24.5848235 L27.3091765,24.8248235 L27.5712353,25.0242353 L27.5315294,24.846 L27.333,24.6439412 L27.4265294,24.6289412 L27.5685882,24.7383529 L27.6921176,24.891 C27.6921176,24.891 27.7521176,25.0471765 27.7856471,25.0771765 C27.8191765,25.1071765 27.9815294,25.1954118 27.9815294,25.1954118 L28.0697647,25.2757059 C28.0697647,25.2757059 28.2418235,25.3524706 28.2021176,25.3957059 C28.1615294,25.4398235 27.7000588,25.9683529 27.7000588,25.9683529 L27.4327059,25.9074706 L26.0103529,24.6104118 L25.1765294,23.7298235 L25.1032941,23.5004118 L25.5259412,23.2807059 Z" id="Fill-20" fill="#563416"></path>
            <polygon id="Fill-22" fill="#563416" points="26.0325882 23.0351471 26.2196471 23.2054412 26.3758235 23.3677941 26.4464118 23.5327941 26.5575882 23.6554412 26.6537647 23.6819118 26.8046471 23.7392647 26.7790588 23.6342647 26.5946471 23.5275 26.4905294 23.3307353 26.3687647 23.2204412 26.1367059 23.0095588 26.007 22.9310294"></polygon>
            <polygon id="Fill-24" fill="#563416" points="27.0157059 23.9717647 27.3368824 24.2841176 27.5248235 24.4764706 27.6395294 24.6608824 27.8107059 24.7173529 27.7957059 24.6017647 27.6527647 24.4923529 27.5389412 24.3070588 27.3192353 24.1270588 27.1083529 23.9152941 26.9768824 23.8147059"></polygon>
            <polygon id="Fill-26" fill="#563416" points="25.9438235 23.3376176 26.0029412 23.2599706 26.0902941 23.2846765 26.1247059 23.4037941 26.2094118 23.4920294 26.3108824 23.5846765 26.4308824 23.6826176 26.5402941 23.8035 26.4794118 23.8705588 26.3805882 23.8458529 26.3188235 23.7452647 26.2102941 23.6235 26.0717647 23.4867353"></polygon>
            <path d="M26.5866176,4.77458824 C26.5866176,4.77458824 25.3680882,5.61547059 24.6066176,6.70958824 C24.6066176,6.70958824 23.0210294,8.03576471 22.0266176,8.58988235 L23.2910294,10.2557647 C23.2910294,10.2557647 25.9663235,8.17870588 26.2830882,7.93341176 C26.2830882,7.93341176 27.8475,7.18870588 28.1907353,6.86047059 L26.5866176,4.77458824 Z" id="Fill-28" fill="#915946"></path>
            <path d="M22.4643529,8.67626471 L23.3458235,9.83655882 C24.0075882,9.32302941 25.842,7.89979412 26.1014118,7.6995 L26.1261176,7.67920588 L26.1561176,7.66508824 C26.6290588,7.44008824 27.3790588,7.05714706 27.7725882,6.80391176 L26.5284706,5.18744118 C26.1508235,5.47861765 25.3787647,6.12097059 24.8502353,6.87979412 L24.8281765,6.91244118 L24.7972941,6.93714706 C24.7372941,6.98744118 23.4543529,8.05861765 22.4643529,8.67626471 L22.4643529,8.67626471 Z M23.2355294,10.6747941 L21.5828824,8.49802941 L21.882,8.33038235 C22.7678824,7.83714706 24.1655294,6.68920588 24.3861176,6.50655882 C25.1696471,5.39744118 26.367,4.56538235 26.4172941,4.53008824 L26.6502353,4.3695 L28.5887647,6.89126471 L28.3964118,7.07567647 C28.0452353,7.41097059 26.7022941,8.06302941 26.4402353,8.18744118 C26.0281765,8.50773529 23.4728824,10.4912647 23.4728824,10.4912647 L23.2355294,10.6747941 Z" id="Fill-30" fill="#563416"></path>
            <path d="M27.5378824,0.966 C28.4140588,1.56688235 28.8243529,2.511 29.8831765,4.01188235 C30.9684706,5.54894118 32.6978824,7.131 32.6978824,7.131 C32.6978824,7.131 32.4146471,9.19217647 28.8728824,10.1636471 C28.8728824,10.1636471 28.6249412,10.2015882 28.6072941,10.0383529 C28.6072941,10.0383529 28.8675882,6.49923529 26.7755294,6.15776471 C26.7755294,6.15776471 26.8955294,5.21629412 25.7193529,3.70482353 L27.5414118,2.26394118 L26.2664118,0.653647059 C26.2664118,0.653647059 26.9061176,0.533647059 27.5378824,0.966" id="Fill-32" fill="#E82E30"></path>
            <polygon id="Fill-34" fill="#563416" points="22.4497059 9.04155882 22.2220588 8.85626471 22.0473529 8.49979412 24.435 6.85155882 25.0544118 6.1245 26.3205882 5.03655882 26.4291176 5.19008824 26.2773529 5.35508824 25.8176471 5.73802941 25.9164706 5.82273529 26.1555882 5.67185294 26.4017647 5.47773529 26.4635294 5.64538235 26.3902941 5.81302941 25.9544118 5.93038235 25.6191176 6.24361765 25.7241176 6.28420588 25.9305882 6.19508824 26.1723529 6.10244118 26.3691176 6.00097059 26.4714706 5.92861765 26.475 6.04155882 25.6429412 6.63097059 25.4735294 6.9195 25.9491176 6.68214706 26.1811765 6.57626471 26.1485294 6.6945 25.4576471 7.17185294 25.4629412 7.34126471 25.17 7.51861765 25.0438235 7.3695 24.8497059 7.31920588 24.2929412 7.71273529 24.5082353 7.70832353 24.6802941 7.58744118 24.7332353 7.68891176 24.5479412 7.82038235 24.2320588 7.96420588 24.0017647 7.92008824 23.7229412 8.11597059 23.8358824 8.30391176 24.0308824 8.18567647 23.8429412 8.39832353 23.4670588 8.62508824 23.0576471 8.49714706 23.0797059 8.7795 23.2720588 8.74332353 23.3858824 8.76273529 23.4070588 8.90655882 23.2517647 8.99567647 23.4008824 8.98597059 23.0655882 9.24273529 23.0391176 9.28508824 23.2111765 9.30361765 23.0805882 9.45538235 23.2085294 9.36008824 23.1591176 9.85244118 22.9147059 9.64773529"></polygon>
            <polygon id="Fill-36" fill="#563416" points="25.7999118 7.39058824 25.5819706 7.57058824 25.4063824 7.59352941 25.1778529 7.70558824 25.2863824 7.80529412 25.4760882 7.74617647 25.7928529 7.59794118 25.9596176 7.48058824"></polygon>
            <polygon id="Fill-38" fill="#563416" points="26.3685882 7.35529412 25.9212353 7.56794118 25.7553529 7.755 25.5824118 7.80794118 25.7138824 7.99235294 25.9485882 7.86 26.1744706 7.63058824 26.3703529 7.52647059 26.5300588 7.41352941"></polygon>
            <polygon id="Fill-40" fill="#231F20" points="24.3255882 8.99329412 23.8747059 9.26241176 23.7 9.45917647 23.5288235 9.53594118 23.6444118 9.68064706 23.8826471 9.52270588 24.1182353 9.27564706 24.315 9.14947059 24.4782353 9.01976471"></polygon>
            <polygon id="Fill-42" fill="#563416" points="25.164 7.92308824 24.9575294 8.06955882 24.7625294 8.1825 24.5692941 8.19397059 24.4228235 8.2725 24.3857647 8.37397059 24.3107647 8.5275 24.4316471 8.54161765 24.5666471 8.37132353 24.7969412 8.33426471 24.9301765 8.23897059 25.1860588 8.05808824 25.2848824 7.93897059"></polygon>
            <polygon id="Fill-44" fill="#563416" points="25.3001471 7.57755882 24.9225 7.81844118 24.6922059 7.95785294 24.4733824 8.01079412 24.3992647 8.18991176 24.5316176 8.22167647 24.6657353 8.10167647 24.8836765 8.04785294 25.1033824 7.86697059 25.3583824 7.71167647 25.4810294 7.59961765"></polygon>
            <polygon id="Fill-46" fill="#563416" points="26.9847353 6.52464706 27.0597353 6.61288235 27.0226765 6.69935294 26.8929706 6.70023529 26.7879706 6.76376471 26.6767941 6.84582353 26.5585588 6.94552941 26.4156176 7.02494118 26.3529706 6.94023529 26.3909118 6.83964706 26.5056176 6.80435294 26.6476765 6.72405882 26.8109118 6.61641176"></polygon>
            <polygon id="Fill-48" fill="#563416" points="25.0269706 8.142 24.7966765 8.33435294 24.3202059 8.44111765 24.1560882 8.55758824 24.2381471 8.61052941 24.5469706 8.57082353 24.8134412 8.47288235 25.0560882 8.27788235 25.4205 8.06435294 25.3560882 7.90905882 25.1637353 7.92317647"></polygon>
            <path d="M7.02838235,23.2057941 C6.74691176,23.4907941 3.95955882,26.2225588 3.95955882,26.2225588 C3.95955882,26.2225588 2.41897059,26.0319706 2.48691176,24.7393235 L5.68191176,21.6043235 L7.02838235,23.2057941 Z" id="Fill-50" fill="#915946"></path>
            <path d="M2.78294118,24.8644412 C2.81470588,25.5888529 3.55058824,25.8323824 3.86294118,25.9029706 C4.31294118,25.4609118 6.02029412,23.7862059 6.62470588,23.1879706 L5.66029412,22.0409118 L2.78294118,24.8644412 Z M4.06588235,26.5356176 L3.92382353,26.5179706 C3.29558824,26.4394412 2.12558824,25.9647353 2.19,24.7241471 L2.19617647,24.6085588 L5.70264706,21.1682647 L7.43029412,23.2215 L7.24058824,23.4138529 C6.95911765,23.6979706 4.28205882,26.3229706 4.16823529,26.4350294 L4.06588235,26.5356176 Z" id="Fill-52" fill="#563416"></path>
            <polygon id="Fill-54" fill="#563416" points="2.82344118 25.6968529 2.59667647 25.2353824 2.37608824 24.9053824 4.93402941 22.6350882 5.45197059 21.8330294 6.56197059 20.5871471 6.69079412 20.7247941 6.56108824 20.9083235 6.15697059 21.3486176 6.2655 21.4192059 6.48255882 21.2383235 6.70226471 21.0133235 6.78520588 21.1721471 6.73491176 21.3477353 6.31755882 21.5215588 6.02726471 21.8771471 6.13667647 21.9027353 6.32991176 21.7880294 6.55579412 21.6636176 6.73844118 21.5365588 6.83020588 21.4509706 6.84873529 21.5621471 6.10226471 22.2574412 5.97167647 22.5653824 6.41197059 22.2680294 6.62814706 22.1321471 6.61226471 22.2539118 5.99020588 22.8177353 6.01667647 22.9853824 5.75020588 23.2006765 5.6055 23.0683235 5.40697059 23.0445 4.90667647 23.5086176 5.12108824 23.4750882 5.27461765 23.3321471 5.34079412 23.4265588 5.17402941 23.5818529 4.88020588 23.7662647 4.64461765 23.7512647 4.39579412 23.9842059 4.53255882 24.1545 4.71079412 24.0124412 4.55197059 24.2471471 4.20873529 24.5215588 3.78697059 24.4492059 3.84520588 24.7262647 4.03138235 24.6645 4.14608824 24.6689118 4.18667647 24.8083235 4.0455 24.9177353 3.78167647 25.2062647 3.48344118 25.5062647 3.87255882 25.2336176 4.0455 25.2283235 3.93608824 25.3959706 3.64138235 25.6042059 3.65726471 26.0983235 3.38814706 25.9280294"></polygon>
            <polygon id="Fill-56" fill="#563416" points="6.33988235 22.8593824 6.14752941 23.0667353 5.97635294 23.1135 5.76458824 23.2537941 5.88547059 23.3385 6.06547059 23.2546765 6.36017647 23.0649706 6.50929412 22.9264412"></polygon>
            <polygon id="Fill-58" fill="#563416" points="6.89911765 22.7490882 6.48352941 23.0199706 6.34323529 23.2264412 6.18088235 23.3014412 6.33352941 23.4664412 6.54970588 23.3049706 6.74294118 23.0482059 6.92294118 22.9185 7.06588235 22.7861471"></polygon>
            <polygon id="Fill-60" fill="#563416" points="4.86388235 24.4620882 4.43594118 24.7656176 4.27711765 24.9756176 4.11211765 25.0656176 4.23829412 25.2015 4.46329412 25.0241471 4.67947059 24.7603235 4.86652941 24.6182647 5.01829412 24.4762059"></polygon>
            <polygon id="Fill-62" fill="#563416" points="5.77985294 23.4711176 5.59455882 23.6440588 5.41632353 23.7817059 5.22661765 23.8187647 5.0925 23.9149412 5.06779412 24.0208235 5.01485294 24.1831765 5.13661765 24.1822941 5.24691176 23.9943529 5.47014706 23.9272941 5.59014706 23.8161176 5.82044118 23.6017059 5.90161765 23.4702353"></polygon>
            <polygon id="Fill-64" fill="#563416" points="5.86941176 23.1101471 5.52705882 23.4004412 5.31617647 23.5680882 5.10794118 23.6501471 5.05676471 23.8363235 5.19176471 23.8513235 5.31 23.7145588 5.51911765 23.6325 5.71235294 23.4233824 5.94529412 23.2363235 6.05117647 23.1092647"></polygon>
            <polygon id="Fill-66" fill="#563416" points="5.67379412 23.7063529 5.47085294 23.9269412 5.01202941 24.0954706 4.86467647 24.2331176 4.95379412 24.2754706 5.25379412 24.1960588 5.50526471 24.0619412 5.72055882 23.8369412 6.05408824 23.5775294 5.9685 23.4319412 5.77967647 23.4707647"></polygon>
            <path d="M25.7422059,16.5967059 C25.7422059,22.0575882 21.3295588,26.4852353 15.8845588,26.4852353 C10.4404412,26.4852353 6.02779412,22.0575882 6.02779412,16.5967059 C6.02779412,11.1358235 10.4404412,6.70817647 15.8845588,6.70817647 C21.3295588,6.70817647 25.7422059,11.1358235 25.7422059,16.5967059" id="Fill-68" fill="#1059A0"></path>
            <path d="M31.0828235,5.48973529 C30.114,6.62444118 28.8407647,7.15385294 28.2010588,7.36120588 C28.7198824,8.5065 28.6069412,10.0382647 28.6069412,10.0382647 C28.6254706,10.2015 28.8725294,10.1635588 28.8725294,10.1635588 C32.4151765,9.19208824 32.6975294,7.13091176 32.6975294,7.13091176 C32.6975294,7.13091176 31.9210588,6.4215 31.0828235,5.48973529" id="Fill-70" fill="#9C9EA1"></path>
            <path d="M16.2413824,18.3416471 L16.7257941,18.2269412 L16.2272647,18.1095882 C16.2202059,17.9851765 16.2113824,17.8625294 16.2016765,17.7407647 L16.5590294,17.4045882 L16.1822647,17.4928235 C16.1796176,17.4654706 16.1769706,17.4372353 16.1743235,17.409 L16.6155,16.9731176 L16.5043235,16.8160588 L16.1363824,17.0295882 C16.0993235,16.7013529 16.0560882,16.3925294 16.0040294,16.1110588 L15.0069706,16.4242941 C15.0069706,16.4242941 15.0096176,16.5107647 15.0131471,16.6669412 L14.4519706,16.5813529 L14.1740294,16.7384118 L15.0193235,16.914 C15.0210882,17.0066471 15.0237353,17.1107647 15.0263824,17.2263529 L14.5066765,17.0119412 L14.3963824,17.2475294 L15.0343235,17.6234118 L15.0343235,17.634 L14.6743235,17.5607647 L14.6178529,17.7963529 L15.0396176,17.9454706 C15.0422647,18.1219412 15.0449118,18.3116471 15.0466765,18.5101765 L14.8402059,18.4237059 L14.6178529,18.5807647 L15.0069706,18.9328235 L15.0493235,18.9107647 C15.0625588,20.6595882 15.0431471,23.0066471 14.8922647,24.8375294 L16.3799118,24.8375294 C16.4734412,22.9245882 16.3552059,20.4213529 16.2413824,18.3416471" id="Fill-72" fill="#FEFEFE"></path>
            <polygon id="Fill-74" fill="#FEFEFE" points="13.7295882 9.44055882 14.0551765 9.96467647 14.2625294 9.88614706"></polygon>
            <polygon id="Fill-76" fill="#FEFEFE" points="14.0165294 15.1456765 13.9574118 15.5127353 14.3121176 15.0406765"></polygon>
            <polygon id="Fill-78" fill="#FEFEFE" points="13.9570588 14.5425 13.7205882 14.8566176 13.7805882 14.2283824"></polygon>
            <path d="M15.4159412,26.4224118 L19.3538824,25.1641765 C19.3538824,25.1641765 19.0918235,24.3815294 18.9003529,24.2500588 C18.7088824,24.1185882 18.4741765,24.0585882 18.5297647,23.9147647 C18.5518235,23.8600588 18.7432941,23.7356471 18.7432941,23.7356471 C18.7432941,23.7356471 18.5297647,23.6871176 18.4406471,23.8432941 C18.4406471,23.8432941 18.3727059,23.5318235 18.4177059,23.3156471 C18.4177059,23.3156471 18.2271176,23.6871176 18.2491765,23.8671176 C18.2491765,23.8671176 18.0691765,23.5071176 18.1371176,23.3527059 C18.1371176,23.3527059 18.0003529,23.5988824 17.9915294,23.8318235 C17.9906471,23.8397647 17.9906471,23.8477059 17.9906471,23.8556471 C17.9906471,24.0947647 17.6985882,23.5194706 17.6421176,23.5194706 C17.5865294,23.5194706 17.6765294,23.6756471 17.6650588,23.8432941 L17.4621176,23.7585882 L17.1365294,23.5556471 C17.1365294,23.5556471 17.0244706,23.2565294 16.5974118,23.2327059 C16.1703529,23.208 15.3956471,23.0050588 15.3956471,23.0050588 L15.0356471,22.9812353 L14.7215294,23.1841765 L14.0809412,23.3888824 C14.0809412,23.3888824 13.7438824,23.2327059 13.6424118,23.2203529 C13.6424118,23.2203529 13.7668235,23.3403529 13.8003529,23.4603529 C13.8003529,23.4603529 13.4297647,23.3994706 13.3838824,23.4241765 C13.3388824,23.448 13.8338824,23.5918235 13.8903529,23.6156471 C13.8903529,23.6156471 13.3741765,23.6041765 13.1932941,23.6394706 C13.1932941,23.6394706 13.6882941,23.7832941 13.7103529,23.8909412 L13.2382941,23.7709412 L12.9462353,23.9394706 L12.7212353,24.0585882 L12.5085882,24.2377059 L11.8415294,25.0997647 L15.4159412,26.4224118 Z" id="Fill-80" fill="#FEFEFE"></path>
            <path d="M18.5660294,11.7673235 L18.5951471,11.5564412 L19.1572059,11.6093824 L18.5660294,11.7673235 Z M17.1780882,13.8152647 L17.1586765,13.7032059 L17.5151471,13.4199706 L17.1780882,13.8152647 Z M17.0325,9.99644118 L17.2098529,9.65497059 L17.2389706,10.0485 L17.0325,9.99644118 Z M16.0116176,15.6170294 L16.4422059,15.9037941 C16.4730882,16.0343824 16.4889706,16.1852647 16.4942647,16.3317353 L16.0116176,15.6170294 Z M15.4054412,9.32585294 L15.2201471,9.03467647 L15.6825,9.2985 L15.4054412,9.32585294 Z M12.7769118,13.1085 C12.4566176,13.1085 12.1636765,12.9964412 11.9316176,12.8102647 C11.9977941,12.8208529 12.0657353,12.8261471 12.1354412,12.8261471 C12.8907353,12.8261471 13.5048529,12.2014412 13.5048529,11.4302647 C13.5048529,10.9846765 13.2992647,10.5876176 12.9798529,10.3326176 C13.6398529,10.4323235 14.1454412,11.0120294 14.1454412,11.7126176 C14.1454412,12.4829118 13.5330882,13.1085 12.7769118,13.1085 L12.7769118,13.1085 Z M11.5027941,11.6817353 C11.5195588,11.7699706 11.4533824,11.6129118 11.3572059,11.3640882 L11.4551471,11.4267353 L11.5133824,11.4646765 C11.4975,11.5326176 11.4877941,11.5987941 11.5027941,11.6817353 L11.5027941,11.6817353 Z M21.7310294,11.5837941 C21.5836765,11.3235 19.9575,10.8399706 19.9575,10.8399706 C20.2530882,10.7649706 22.0566176,11.1002647 22.0566176,11.1002647 C21.7901471,10.6537941 19.6027941,10.3935 19.6027941,10.3935 C19.8092647,10.1702647 21.9083824,10.3564412 21.9083824,10.3564412 C21.6427941,9.94702941 19.9283824,10.0211471 19.9283824,10.0211471 C20.5195588,9.72379412 21.3463235,9.72379412 21.3463235,9.72379412 C20.2019118,9.18379412 18.9357353,9.54997059 18.0119118,10.0043824 L17.9854412,9.89497059 C17.9854412,9.89497059 18.8016176,9.35497059 19.1801471,9.32673529 C19.1801471,9.32673529 18.2192647,9.12820588 17.7225,9.2985 L17.8892647,9.02408824 L18.9683824,8.70555882 C18.9683824,8.70555882 18.1504412,8.58114706 17.5927941,8.66320588 L17.3925,8.52997059 L18.2792647,7.58320588 C18.2792647,7.58320588 17.0969118,7.95467647 16.8304412,8.36055882 C16.8304412,8.36055882 16.9522059,7.72173529 17.0633824,7.52673529 C16.9627941,7.66085294 16.6627941,8.07467647 16.5648529,8.32702941 C16.5648529,8.32702941 16.4757353,7.88761765 16.2692647,7.48173529 C16.2692647,7.48173529 16.3575,8.1585 16.2692647,8.39408824 L15.1742647,7.61761765 L15.7645588,8.29173529 C15.4804412,8.23879412 15.1513235,8.18320588 14.9872059,8.18320588 C14.9872059,8.18320588 15.6869118,8.50526471 15.7054412,9.08408824 L15.2095588,9.01791176 L14.8433824,8.44173529 L14.9907353,9.29055882 C14.9907353,9.29055882 14.3598529,8.52026471 13.9063235,8.32526471 C13.9063235,8.32526471 14.7092647,9.0735 14.5892647,9.39820588 C14.5892647,9.39820588 13.4051471,8.02791176 12.9516176,7.83379412 C12.9516176,7.83379412 13.8154412,8.51938235 13.8101471,8.94202941 C13.8092647,8.98526471 13.8110294,9.03291176 13.8145588,9.08408824 C13.6530882,8.83438235 13.4333824,8.61820588 13.1342647,8.47791176 C13.1342647,8.47791176 12.5527941,8.22379412 11.9272059,8.33673529 C11.9272059,8.33673529 12.9833824,8.55202941 13.2675,8.84938235 C13.2675,8.84938235 12.1839706,8.58026471 11.9730882,8.65261765 C11.9730882,8.65261765 12.9366176,8.99673529 13.0795588,9.13173529 C13.0795588,9.13173529 11.8751471,8.91202941 11.4569118,9.03026471 C11.4569118,9.03026471 12.5519118,9.25261765 12.9419118,9.36644118 C12.9419118,9.36644118 11.6563235,9.21997059 11.1754412,9.41585294 C11.1754412,9.41585294 11.9280882,9.60644118 12.4857353,9.7335 L12.5466176,9.7935 C12.2201471,9.84379412 11.3501471,9.99555882 11.1754412,10.2029118 C11.1754412,10.2029118 11.7410294,10.1146765 12.2104412,10.2073235 C12.2104412,10.2073235 12.1848529,10.2161471 12.1433824,10.2293824 L11.3960294,10.1782059 L11.8319118,10.3379118 C11.6316176,10.4111471 11.4163235,10.4976176 11.3686765,10.5496765 C11.2760294,10.6520294 12.2254412,10.6008529 12.4575,10.6873235 C12.5633824,10.7261471 12.5007353,10.8849706 12.4001471,11.0455588 L11.9166176,10.8717353 C11.9166176,10.8717353 12.0869118,10.9837941 12.2739706,11.1205588 L12.0675,11.1717353 L11.8019118,11.0879118 C11.6192647,10.8849706 11.4304412,10.6908529 11.4772059,10.8152647 C11.5027941,10.8858529 11.5213235,10.9476176 11.5336765,11.0032059 L11.1789706,10.8911471 C11.0175,10.4561471 10.8569118,10.0087941 10.8569118,10.0087941 L10.8992647,10.8037941 L10.0848529,10.5470294 L10.9133824,11.0790882 L10.9539706,11.8432059 L9.08955882,11.5740882 L9.99485294,11.8846765 C9.27926471,12.0840882 8.71544118,12.5870294 8.64926471,12.6646765 C8.64926471,12.6646765 9.64720588,12.1273235 9.95602941,12.1343824 C9.95602941,12.1343824 9.15220588,12.5552647 8.86985294,12.9937941 C8.86985294,12.9937941 10.1042647,12.1440882 10.3495588,12.1529118 C10.3495588,12.1529118 9.29602941,12.9011471 9.15661765,13.2099706 C9.15661765,13.2099706 10.2454412,12.4202647 10.5277941,12.3858529 C10.5277941,12.3858529 9.63132353,13.0599706 9.53602941,13.3537941 C9.53602941,13.3537941 10.2666176,12.7935 10.6927941,12.7220294 L10.2666176,13.0811471 L11.1586765,12.7476176 C11.1586765,12.7476176 10.4695588,13.4790882 10.3672059,13.9158529 C10.3672059,13.9158529 10.9901471,13.0432059 11.3748529,13.0670294 C11.3748529,13.0670294 10.1642647,14.4196765 10.0610294,14.8573235 C10.0610294,14.8573235 10.6010294,13.9458529 11.0651471,13.8479118 C11.2619118,13.8064412 11.5354412,13.7093824 11.7877941,13.6114412 L11.7922059,13.6246765 L10.7995588,14.2537941 L11.6377941,13.9652647 L11.2027941,14.4637941 L12.2475,14.4135 C11.1507353,14.8061471 10.2551471,15.6540882 10.1536765,15.7749706 C10.1536765,15.7749706 11.5848529,14.8617353 12.0233824,14.8035 C12.0233824,14.8035 10.8701471,15.5235 10.4589706,16.1490882 C10.4589706,16.1490882 12.2333824,14.7840882 12.5819118,14.7408529 C12.5819118,14.7408529 11.0669118,15.9355588 10.8595588,16.3652647 C10.8595588,16.3652647 12.4275,15.1079118 12.8280882,15.0011471 C12.8280882,15.0011471 11.5389706,16.0670294 11.3951471,16.4667353 C11.3951471,16.4667353 12.4407353,15.5879118 13.0495588,15.3982059 C13.0133824,15.4282059 12.9789706,15.4590882 12.9463235,15.4926176 C12.3207353,16.1332059 12.1786765,17.1046765 12.1786765,17.2290882 C12.1786765,17.2290882 12.6622059,16.1120294 12.9463235,15.9267353 C12.9463235,15.9267353 12.5483824,16.8152647 12.6330882,17.3949706 C12.6330882,17.3949706 13.0883824,15.8437941 13.3160294,15.6990882 C13.3160294,15.6990882 12.9463235,17.0429118 13.0601471,17.4152647 C13.0601471,17.4152647 13.4298529,16.0087941 13.6575,15.8032059 C13.6575,15.8032059 13.3725,16.9811471 13.5154412,17.3120294 C13.5154412,17.3120294 13.7510294,16.2814412 14.0986765,15.9805588 L14.1189706,16.4040882 L14.3977941,15.9055588 L14.6157353,16.4305588 L15.0189706,16.6652647 L16.0116176,16.4305588 L16.4969118,16.5126176 C16.4969118,16.7367353 16.4810294,16.9114412 16.4810294,16.9114412 C16.6919118,16.6679118 16.7766176,15.6293824 16.7766176,15.6293824 C16.9116176,15.8508529 16.8375,17.0976176 16.8375,17.0976176 C17.0360294,16.8135 17.0933824,15.6187941 17.0933824,15.6187941 C17.2460294,15.7882059 17.2036765,17.1743824 17.2036765,17.1743824 C17.4348529,16.7129118 17.3430882,15.8887941 17.3430882,15.8887941 C17.5319118,16.1058529 17.6333824,17.1382059 17.6333824,17.1382059 C17.6607353,17.0561471 17.7586765,16.5117353 17.6219118,15.9558529 C17.8910294,16.2849706 18.1204412,16.8373235 18.1204412,16.8373235 C18.1972059,16.5382059 17.7798529,15.5632059 17.7798529,15.5632059 C18.0075,15.7140882 18.5325,16.8726176 18.5325,16.8726176 C18.5783824,16.5417353 18.0622059,15.4361471 18.0622059,15.4361471 C18.2810294,15.5332059 18.9013235,16.8055588 18.9013235,16.8055588 C18.8916176,16.3008529 18.4169118,15.5879118 18.4169118,15.5879118 C18.6913235,15.7132059 19.2736765,16.6114412 19.2736765,16.6114412 C19.2551471,16.5055588 18.9913235,15.6920294 18.3542647,15.2173235 C18.3013235,15.1776176 18.2457353,15.1440882 18.1875,15.1140882 L19.7219118,15.2243824 C19.7219118,15.2243824 17.5627941,14.5423235 17.8592647,14.5952647 C18.1548529,14.6473235 18.2730882,14.4637941 18.8351471,14.6473235 C19.0910294,14.7311471 18.1548529,14.0702647 18.1548529,14.0702647 C18.1548529,14.0702647 18.9233824,13.5726176 19.0125,13.7826176 C19.1016176,13.9917353 19.0125,14.8308529 19.1307353,14.7514412 C19.2489706,14.6737941 19.5445588,14.0173235 19.5445588,14.0173235 C19.6327941,14.4373235 19.5145588,14.9349706 19.5145588,14.9349706 C19.8101471,14.7514412 20.0466176,13.6246765 20.0466176,13.6246765 C20.1657353,14.1232059 20.4013235,14.9623235 20.4013235,14.9623235 C20.6386765,14.5423235 20.5169118,13.3979118 20.5169118,13.3979118 C20.6325,13.7482059 20.8451471,14.7258529 20.8451471,14.7258529 C20.9933824,14.3587941 20.7860294,13.2832059 20.7860294,13.2832059 C20.9342647,13.4155588 21.2889706,14.2802647 21.2889706,14.2802647 C21.3772059,14.0967353 21.1116176,13.1270294 21.1116176,13.1270294 C21.4363235,13.3890882 21.6427941,14.3323235 21.6427941,14.3323235 C21.7910294,13.7817353 21.5254412,13.2576176 21.5254412,13.2576176 C21.2669118,12.7882059 20.7445588,12.5217353 20.2107353,12.3717353 L20.9042647,12.0673235 L19.5736765,11.8070294 L20.7260294,11.6949706 L19.6027941,11.4717353 C19.6919118,11.1743824 21.7310294,11.5837941 21.7310294,11.5837941 L21.7310294,11.5837941 Z" id="Fill-82" fill="#FEFEFE"></path>
            <path d="M15.7915588,25.5236471 C10.7109706,25.5236471 6.59214706,21.4048235 6.59214706,16.3242353 C6.59214706,11.2436471 10.7109706,7.12482353 15.7915588,7.12482353 C20.8721471,7.12482353 24.9909706,11.2436471 24.9909706,16.3242353 C24.9909706,21.4048235 20.8721471,25.5236471 15.7915588,25.5236471 M15.7915588,3.48070588 C8.69744118,3.48070588 2.94714706,9.231 2.94714706,16.3242353 C2.94714706,23.4174706 8.69744118,29.1686471 15.7915588,29.1686471 C22.8847941,29.1686471 28.6359706,23.4174706 28.6359706,16.3242353 C28.6359706,9.231 22.8847941,3.48070588 15.7915588,3.48070588" id="Fill-84" fill="#F4C02B"></path>
            <path d="M15.7915588,7.47158824 C10.9103824,7.47158824 6.93891176,11.4430588 6.93891176,16.3242353 C6.93891176,21.2054118 10.9103824,25.176 15.7915588,25.176 C20.6727353,25.176 24.6442059,21.2054118 24.6442059,16.3242353 C24.6442059,11.4430588 20.6727353,7.47158824 15.7915588,7.47158824 M15.7915588,25.8704118 C10.5274412,25.8704118 6.24626471,21.5874706 6.24626471,16.3242353 C6.24626471,11.0601176 10.5274412,6.77894118 15.7915588,6.77894118 C21.0547941,6.77894118 25.3368529,11.0601176 25.3368529,16.3242353 C25.3368529,21.5874706 21.0547941,25.8704118 15.7915588,25.8704118 M15.7915588,3.82747059 C8.90038235,3.82747059 3.29391176,9.43394118 3.29391176,16.3242353 C3.29391176,23.2154118 8.90038235,28.821 15.7915588,28.821 C22.6827353,28.821 28.2883235,23.2154118 28.2883235,16.3242353 C28.2883235,9.43394118 22.6827353,3.82747059 15.7915588,3.82747059 M15.7915588,29.5145294 C8.51832353,29.5145294 2.60126471,23.5974706 2.60126471,16.3242353 C2.60126471,9.051 8.51832353,3.13394118 15.7915588,3.13394118 C23.0647941,3.13394118 28.9818529,9.051 28.9818529,16.3242353 C28.9818529,23.5974706 23.0647941,29.5145294 15.7915588,29.5145294" id="Fill-86" fill="#231F20"></path>
            <path d="M5.91079412,11.1725294 L5.82344118,11.364 C5.71932353,11.3313529 5.67785294,11.3251765 5.59932353,11.3384118 C5.47314706,11.3631176 5.34520588,11.4637059 5.28785294,11.5907647 C5.21373529,11.7548824 5.23579412,11.9013529 5.34432353,11.9507647 C5.64608824,12.0875294 5.81991176,11.0657647 6.39079412,11.3242941 C6.68902941,11.4592941 6.76402941,11.7354706 6.59991176,12.0963529 C6.52844118,12.2551765 6.40579412,12.3945882 6.24697059,12.4660588 L6.33785294,12.5587059 L6.26461765,12.7219412 L5.7555,12.4907647 L5.84285294,12.2975294 C5.98667647,12.3257647 6.01755882,12.3275294 6.08638235,12.3116471 C6.20726471,12.2851765 6.33785294,12.1660588 6.40579412,12.0187059 C6.4755,11.8642941 6.44902941,11.724 6.34667647,11.6772353 C6.24432353,11.6313529 6.20285294,11.6569412 6.03697059,11.8757647 L5.89314706,12.0610588 C5.73608824,12.2710588 5.58344118,12.4069412 5.31167647,12.2851765 C5.03108824,12.1572353 4.95255882,11.8616471 5.10697059,11.5210588 C5.18197059,11.3551765 5.27991176,11.2484118 5.42373529,11.1822353 L5.34520588,11.1098824 L5.41755882,10.9492941 L5.91079412,11.1725294 Z" id="Fill-88" fill="#1059A0"></path>
            <path d="M7.28770588,10.4917941 C7.44476471,10.2632647 7.35829412,10.0117941 7.04682353,9.79738235 C6.72652941,9.57767647 6.45123529,9.57679412 6.30035294,9.79561765 C6.14329412,10.0241471 6.23594118,10.2844412 6.54476471,10.4979706 C6.86329412,10.7159118 7.13417647,10.7141471 7.28770588,10.4917941 M6.13976471,9.68797059 C6.42211765,9.27767647 6.873,9.17885294 7.25594118,9.44179412 C7.68035294,9.73385294 7.75182353,10.1626765 7.44652941,10.6065 C7.15888235,11.0247353 6.72476471,11.1138529 6.32417647,10.8385588 C5.91564706,10.5570882 5.84594118,10.1150294 6.13976471,9.68797059" id="Fill-90" fill="#1059A0"></path>
            <path d="M7.00597059,8.60294118 L7.59714706,8.02235294 L7.72685294,8.15382353 L7.64391176,8.23588235 C7.57861765,8.29852941 7.57685294,8.34176471 7.63067647,8.39735294 L8.10891176,8.88352941 C8.26861765,9.04588235 8.43891176,9.05205882 8.59332353,8.90117647 C8.71244118,8.78382353 8.74685294,8.64264706 8.68420588,8.53323529 C8.66038235,8.49352941 8.62420588,8.45029412 8.57391176,8.39911765 L8.10979412,7.92529412 C8.05597059,7.87147059 8.01361765,7.87323529 7.94832353,7.93588235 L7.8795,8.00382353 L7.75067647,7.87235294 L8.21567647,7.41352941 L8.34626471,7.54588235 L8.29420588,7.59617647 C8.22714706,7.66323529 8.2245,7.70558824 8.27832353,7.76029412 L8.75655882,8.24735294 C9.05302941,8.54911765 9.00361765,8.81294118 8.70802941,9.10411765 C8.45038235,9.35647059 8.17067647,9.47647059 7.88479412,9.18617647 L7.36508824,8.65764706 C7.31214706,8.60205882 7.26891176,8.60382353 7.2045,8.66647059 L7.13479412,8.73441176 L7.00597059,8.60294118 Z" id="Fill-92" fill="#1059A0"></path>
            <path d="M10.0347353,7.59652941 C10.0779706,7.65917647 10.1194412,7.66358824 10.1944412,7.61329412 L10.3126765,7.53123529 L10.4185588,7.68564706 L9.67032353,8.20005882 L9.56444118,8.04564706 L9.68620588,7.96094118 C9.76032353,7.90976471 9.77179412,7.87005882 9.72855882,7.80652941 L9.1515,6.96741176 C8.91238235,7.13241176 8.95561765,7.24358824 9.10120588,7.48270588 L8.93267647,7.59917647 L8.59826471,7.11211765 L9.78855882,6.29417647 L10.1229706,6.78123529 L9.95179412,6.89858824 C9.94032353,6.87741176 9.93238235,6.86594118 9.92885294,6.85976471 C9.79561765,6.66652941 9.65355882,6.61976471 9.50885294,6.71947059 C9.49473529,6.73005882 9.47708824,6.74417647 9.45855882,6.75652941 L10.0347353,7.59652941 Z" id="Fill-94" fill="#1059A0"></path>
            <path d="M11.1506471,6.52032353 L11.3068235,6.87502941 C11.3377059,6.94473529 11.3782941,6.95973529 11.4612353,6.92355882 L11.5485882,6.88385294 L11.6235882,7.05326471 L10.8647647,7.38679412 L10.7906471,7.21826471 L10.8974118,7.17061765 C10.9803529,7.13444118 10.9971176,7.09473529 10.9662353,7.02502941 L10.5956471,6.18414706 C10.5638824,6.11179412 10.5241765,6.09944118 10.4412353,6.13561765 L10.3344706,6.18326471 L10.2585882,6.01208824 L11.0182941,5.67767647 L11.0932941,5.84885294 L11.0041765,5.88767647 C10.9221176,5.92473529 10.9044706,5.96179412 10.9362353,6.03414706 L11.0677059,6.33326471 L11.6156471,6.0915 L11.4841765,5.79238235 C11.4524118,5.72091176 11.4127059,5.70855882 11.3306471,5.74473529 L11.2424118,5.78355882 L11.1665294,5.61326471 L11.9253529,5.27885294 L12.0003529,5.44914706 L11.8935882,5.49679412 C11.8106471,5.53297059 11.793,5.57091176 11.8247647,5.64238235 L12.1953529,6.48414706 C12.2262353,6.55385294 12.2668235,6.56885294 12.3488824,6.53179412 L12.4556471,6.48502941 L12.5306471,6.65355882 L11.7718235,6.98797059 L11.6977059,6.81855882 L11.7868235,6.77973529 C11.868,6.74355882 11.8856471,6.70385294 11.8547647,6.63414706 L11.6985882,6.27944118 L11.1506471,6.52032353 Z" id="Fill-96" fill="#1059A0"></path>
            <path d="M14.8153235,5.28035294 L14.6000294,5.313 C14.5409118,5.05094118 14.3688529,4.92035294 14.1332647,4.95652941 C13.8650294,4.99711765 13.7291471,5.23888235 13.7812059,5.58476471 C13.8376765,5.95182353 14.0247353,6.13270588 14.3035588,6.09035294 C14.5329706,6.05505882 14.6573824,5.88741176 14.6662059,5.613 L14.8929706,5.57858824 C14.9062059,5.98976471 14.6803235,6.26064706 14.2726765,6.32329412 C13.8270882,6.39123529 13.4520882,6.11241176 13.3841471,5.66682353 C13.3117941,5.19035294 13.5826765,4.81270588 14.0450294,4.74211765 C14.2232647,4.71388235 14.3476765,4.73682353 14.5144412,4.82947059 L14.5444412,4.69711765 L14.7226765,4.67064706 L14.8153235,5.28035294 Z" id="Fill-98" fill="#1059A0"></path>
            <path d="M16.1276471,5.00373529 L15.9176471,5.49255882 L16.3208824,5.50755882 L16.1276471,5.00373529 Z M15.8382353,5.68402941 C15.8117647,5.74755882 15.7579412,5.84020588 15.7552941,5.90991176 C15.7535294,5.95491176 15.7764706,5.9655 15.8797059,5.96902941 L15.945,5.97167647 L15.9379412,6.1605 L15.2691176,6.13491176 L15.2761765,5.94608824 C15.3952941,5.9505 15.4561765,5.94167647 15.5135294,5.82697059 C15.5426471,5.75991176 15.5832353,5.69814706 15.6123529,5.62932353 L16.0455882,4.6605 L16.3879412,4.67373529 L16.8158824,5.76961765 C16.8864706,5.94255882 16.9041176,6.00785294 17.0938235,6.01491176 L17.0867647,6.20285294 L16.2538235,6.17197059 L16.26,5.98314706 L16.3385294,5.98579412 C16.4294118,5.98932353 16.4708824,5.97344118 16.4717647,5.93285294 C16.4744118,5.86932353 16.4214706,5.76608824 16.3994118,5.70432353 L15.8382353,5.68402941 Z" id="Fill-100" fill="#1059A0"></path>
            <path d="M18.4110882,5.58458824 C18.5955,5.62958824 18.6969706,5.58105882 18.7322647,5.43458824 C18.7657941,5.29252941 18.6996176,5.22282353 18.4799118,5.16988235 L18.2522647,5.11605882 L18.1552059,5.52370588 L18.4110882,5.58458824 Z M18.0157941,6.10694118 C17.9972647,6.18105882 18.0219706,6.21723529 18.1084412,6.23752941 L18.2231471,6.26488235 L18.1799118,6.44488235 L17.3540294,6.24723529 L17.3972647,6.06723529 L17.5102059,6.09458824 C17.5984412,6.11576471 17.6355,6.09458824 17.6540294,6.01958824 L17.8675588,5.12576471 C17.8860882,5.04988235 17.8613824,5.01547059 17.7740294,4.99429412 L17.6593235,4.96782353 L17.7034412,4.78605882 L18.7640294,5.03929412 C19.0446176,5.10635294 19.1707941,5.27488235 19.1160882,5.50517647 C19.0737353,5.68252941 18.9396176,5.769 18.7128529,5.76811765 C18.8575588,5.86076471 18.9007941,5.94017647 18.8707941,6.06547059 L18.8187353,6.28429412 C18.8107941,6.33635294 18.7816765,6.41929412 18.8513824,6.43605882 C18.8955,6.44752941 18.9263824,6.40605882 18.9475588,6.31517647 L18.9775588,6.19252941 L19.1505,6.234 L19.1213824,6.35664706 C19.0657941,6.58517647 18.9378529,6.66811765 18.7163824,6.61429412 C18.5072647,6.56488235 18.4119706,6.44223529 18.4455,6.26488235 L18.4905,6.01870588 C18.5213824,5.85017647 18.4957941,5.80429412 18.3378529,5.76635294 L18.1093235,5.71252941 L18.0157941,6.10694118 Z" id="Fill-102" fill="#1059A0"></path>
            <path d="M20.0973529,6.95285294 C20.3488235,7.06932353 20.5826471,6.9405 20.7405882,6.59726471 C20.9029412,6.24520588 20.8570588,5.97344118 20.6152941,5.86226471 C20.3638235,5.74579412 20.1229412,5.88079412 19.9658824,6.22226471 C19.8044118,6.57167647 19.8520588,6.83991176 20.0973529,6.95285294 M20.6947059,5.68491176 C21.1464706,5.89402941 21.3220588,6.32197059 21.1270588,6.74373529 C20.9117647,7.21138235 20.5005882,7.35432353 20.0108824,7.12932353 C19.5511765,6.91667647 19.3888235,6.50461765 19.5926471,6.06255882 C19.8,5.61255882 20.2244118,5.46785294 20.6947059,5.68491176" id="Fill-104" fill="#1059A0"></path>
            <path d="M21.9309706,7.98167647 C22.1886176,8.16344118 22.3271471,8.00726471 22.4806765,7.79814706 L22.6545,7.92255882 L22.2742059,8.46079412 L21.0671471,7.60755882 L21.1739118,7.45667647 L21.2692059,7.52373529 C21.3433235,7.57667647 21.3856765,7.5705 21.4306765,7.50873529 L21.9609706,6.75785294 C22.0059706,6.69344118 21.9962647,6.65285294 21.9221471,6.60167647 L21.8268529,6.53285294 L21.9353824,6.38108824 L22.6430294,6.88138235 L22.5353824,7.03402941 L22.4250882,6.95638235 C22.3518529,6.90344118 22.3103824,6.90785294 22.2645,6.97226471 L21.6777353,7.80167647 L21.9309706,7.98167647 Z" id="Fill-106" fill="#1059A0"></path>
            <path d="M23.4587647,7.52329412 L24.0649412,8.08976471 L23.9361176,8.22652941 L23.8655294,8.16035294 C23.8002353,8.09858824 23.7587647,8.09594118 23.7040588,8.15417647 L23.0758235,8.82564706 C23.0237647,8.88123529 23.0272941,8.92447059 23.0925882,8.98535294 L23.1631765,9.05152941 L23.037,9.18741176 L22.4317059,8.62005882 L22.5578824,8.48594118 L22.6434706,8.56623529 C22.7087647,8.62711765 22.752,8.62711765 22.8049412,8.57064706 L23.4331765,7.90005882 C23.487,7.84270588 23.4817059,7.80123529 23.4164118,7.73947059 L23.3308235,7.65917647 L23.4587647,7.52329412 Z" id="Fill-108" fill="#1059A0"></path>
            <path d="M24.4608529,10.1488235 L25.0432059,9.69352941 C25.1049706,9.64588235 25.1067353,9.60441176 25.0520294,9.53294118 L24.9867353,9.45 L25.1340882,9.33441176 L25.5487941,9.86558824 L25.4014412,9.98117647 L25.3476176,9.91058824 C25.2911471,9.84 25.2514412,9.83205882 25.1887941,9.88058824 L24.2349706,10.6252941 L24.0117353,10.3394118 L24.3779118,9.09617647 L23.7770294,9.56558824 C23.7161471,9.61323529 23.7126176,9.65558824 23.7682059,9.72617647 L23.8405588,9.81882353 L23.6949706,9.93264706 L23.2555588,9.36970588 L23.4002647,9.25588235 L23.4726176,9.34852941 C23.5282059,9.42 23.5705588,9.42705882 23.6314412,9.37941176 L24.3558529,8.81294118 C24.4176176,8.76529412 24.4193824,8.72382353 24.3646765,8.65235294 L24.2923235,8.55970588 L24.4396765,8.445 L24.8208529,8.93294118 L24.4608529,10.1488235 Z" id="Fill-110" fill="#1059A0"></path>
            <path d="M25.9076471,11.2276765 L25.3773529,11.2762059 L25.5573529,11.6370882 L25.9076471,11.2276765 Z M25.1726471,11.2965 C25.1029412,11.3035588 24.9961765,11.3009118 24.9335294,11.3317941 C24.8938235,11.3520882 24.8955882,11.3759118 24.9405882,11.4685588 L24.9705882,11.5276765 L24.8002941,11.6115 L24.5038235,11.0115 L24.6732353,10.9276765 C24.7261765,11.0344412 24.7632353,11.0847353 24.8911765,11.0785588 C24.9644118,11.0732647 25.0376471,11.0794412 25.1126471,11.0723824 L26.1705882,10.9912059 L26.3223529,11.2991471 L25.5617647,12.1973824 C25.4435294,12.3420882 25.395,12.3879706 25.4797059,12.5573824 L25.3094118,12.6420882 L24.9397059,11.8947353 L25.11,11.8100294 L25.1444118,11.8806176 C25.185,11.9617941 25.2185294,11.9900294 25.2555882,11.9723824 C25.3111765,11.9441471 25.3773529,11.8488529 25.4205882,11.7994412 L25.1726471,11.2965 Z" id="Fill-112" fill="#1059A0"></path>
            <path d="M5.09135294,16.9448824 C5.22988235,16.9263529 5.26694118,16.8513529 5.26429412,16.7878235 C5.26076471,16.6987059 5.19988235,16.6510588 5.09929412,16.6554706 C4.82135294,16.6678235 4.71370588,17.2404706 4.27252941,17.259 C4.00517647,17.2713529 3.849,17.0975294 3.83664706,16.8363529 C3.82517647,16.5778235 4.02635294,16.4198824 4.269,16.3987059 L4.31929412,16.6625294 C4.15429412,16.6801765 4.07752941,16.749 4.08017647,16.8398824 C4.08458824,16.9360588 4.13929412,16.9995882 4.23635294,16.9951765 C4.55841176,16.9810588 4.61929412,16.4110588 5.08517647,16.3898824 C5.34370588,16.3784118 5.49723529,16.5292941 5.50958824,16.8045882 C5.51841176,17.0322353 5.36047059,17.1742941 5.13194118,17.2087059 L5.09135294,16.9448824 Z" id="Fill-114" fill="#1059A0"></path>
            <polygon id="Fill-116" fill="#1059A0" points="5.32570588 17.7444706 5.286 17.4771176 5.52688235 17.4418235 5.64688235 18.2527059 5.406 18.2888824 5.36629412 18.0206471 3.99776471 18.2235882 3.95717647 17.9465294"></polygon>
            <path d="M4.77079412,19.0076471 L4.8255,19.2255882 L5.47667647,18.9476471 L5.47579412,18.9432353 L4.77079412,19.0076471 Z M4.16373529,19.0676471 L4.09667647,18.8055882 L5.74755882,18.6970588 L5.83314706,19.0332353 L4.32961765,19.7241176 L4.26344118,19.4620588 L4.6005,19.3244118 L4.5255,19.0279412 L4.16373529,19.0676471 Z" id="Fill-118" fill="#1059A0"></path>
            <polygon id="Fill-120" fill="#1059A0" points="5.8065 19.7728235 5.71473529 19.5187059 5.94326471 19.4366471 6.22208824 20.2078235 5.99355882 20.2907647 5.90091176 20.0357647 4.60032353 20.5051765 4.50502941 20.2422353"></polygon>
            <polygon id="Fill-122" fill="#1059A0" points="4.87420588 21.1868824 6.33802941 20.4792353 6.66361765 21.1524706 6.44479412 21.2583529 6.24097059 20.8365882 5.86332353 21.0192353 6.02126471 21.3439412 5.80155882 21.4498235 5.6445 21.1251176 5.21479412 21.3324706 5.43273529 21.7833529 5.21391176 21.8892353"></polygon>
            <polygon id="Fill-124" fill="#1059A0" points="5.91079412 23.0437941 7.2255 22.0873235 7.68520588 22.7182059 7.48755882 22.8611471 7.19373529 22.4570294 6.85402941 22.7032059 7.07461765 23.0058529 6.87785294 23.1487941 6.65814706 22.8461471 6.07491176 23.2705588"></polygon>
            <polygon id="Fill-126" fill="#1059A0" points="6.73455882 24.1104706 7.95573529 23.0348824 8.14014706 23.2448824 6.91985294 24.3195882"></polygon>
            <path d="M8.15373529,24.3052059 L8.22608824,24.3731471 C8.33638235,24.4755 8.41667647,24.4728529 8.54814706,24.3316765 C8.6805,24.1896176 8.67785294,24.1102059 8.56755882,24.0069706 L8.49520588,23.9399118 L8.15373529,24.3052059 Z M7.54314706,24.9616765 L7.33755882,24.7710882 L8.44755882,23.5816765 L8.73344118,23.8481471 C8.96285294,24.0625588 8.98932353,24.2681471 8.75285294,24.5222647 C8.5755,24.7128529 8.42902941,24.7216765 8.32932353,24.6890294 L8.00020588,25.3887353 L7.79285294,25.1955 L8.10697059,24.5672647 C8.07785294,24.5452059 8.03285294,24.5072647 7.99667647,24.4737353 L7.54314706,24.9616765 Z" id="Fill-128" fill="#1059A0"></path>
            <polygon id="Fill-130" fill="#1059A0" points="8.40017647 25.7123824 9.36811765 24.4056176 9.969 24.8494412 9.82429412 25.0453235 9.44752941 24.7673824 9.19782353 25.1044412 9.48723529 25.3179706 9.34252941 25.5129706 9.05311765 25.2994412 8.769 25.6832647 9.17135294 25.9806176 9.02664706 26.1756176"></polygon>
            <polygon id="Fill-132" fill="#1059A0" points="9.46005882 26.4594706 10.2815294 25.0547647 10.9538824 25.4482941 10.8312353 25.6582941 10.3988824 25.4059412 10.188 25.7677059 10.5109412 25.9565294 10.3882941 26.1665294 10.0653529 25.9777059 9.70094118 26.5997647"></polygon>
            <polygon id="Fill-134" fill="#1059A0" points="10.6431176 27.1048235 11.3278235 25.6286471 11.5810588 25.7468824 10.8963529 27.2221765"></polygon>
            <path d="M12.0941471,26.8135588 L12.5256176,26.9635588 L12.2556176,27.7426765 L12.1276765,27.6976765 L12.1179706,27.5662059 C12.0067941,27.6323824 11.9291471,27.6526765 11.8056176,27.6094412 C11.5973824,27.5370882 11.5038529,27.3376765 11.5894412,27.0923824 L11.8638529,26.3017941 C11.9397353,26.0847353 12.1294412,25.9515 12.3888529,26.0423824 C12.6526765,26.1341471 12.7179706,26.3715 12.6376765,26.6017941 L12.6032647,26.6997353 L12.3526765,26.6115 C12.4329706,26.3829706 12.4065,26.3070882 12.3023824,26.2700294 C12.2388529,26.2479706 12.1717941,26.2682647 12.1267941,26.3970882 L11.8523824,27.1867941 C11.8179706,27.2847353 11.8276765,27.3597353 11.9194412,27.3915 C12.0253235,27.4285588 12.0844412,27.3826765 12.1382647,27.2291471 L12.1894412,27.0809118 L12.0217941,27.0217941 L12.0941471,26.8135588 Z" id="Fill-136" fill="#1059A0"></path>
            <polygon id="Fill-138" fill="#1059A0" points="12.8041765 27.8984118 13.1527059 26.3092941 13.4253529 26.3692941 13.2832941 27.0160588 13.5735882 27.0795882 13.7156471 26.4328235 13.9891765 26.4928235 13.6406471 28.0819412 13.368 28.0219412 13.5215294 27.3178235 13.2312353 27.2542941 13.0777059 27.9575294"></polygon>
            <polygon id="Fill-140" fill="#1059A0" points="14.5111765 26.8075588 14.2420588 26.7793235 14.2685294 26.5366765 15.0829412 26.6240294 15.0573529 26.8657941 14.7882353 26.8375588 14.6408824 28.2131471 14.3629412 28.1840294"></polygon>
            <polygon id="Fill-142" fill="#1059A0" points="15.3866471 28.2611471 15.4131176 26.6340882 16.1604706 26.6464412 16.1569412 26.8899706 15.6884118 26.8829118 15.6813529 27.3011471 16.0422353 27.3073235 16.0378235 27.5499706 15.6778235 27.5446765 15.6698824 28.0220294 16.1701765 28.0299706 16.1657647 28.2735"></polygon>
            <path d="M16.8505588,27.3210882 L16.9485,27.3105 C17.0985,27.2946176 17.1487941,27.2319706 17.1276176,27.0396176 C17.1073235,26.8472647 17.0455588,26.7969706 16.8955588,26.8137353 L16.7958529,26.8243235 L16.8505588,27.3210882 Z M16.9467353,28.2131471 L16.6687941,28.2431471 L16.4940882,26.6257941 L16.8832059,26.5834412 C17.1955588,26.5499118 17.3685,26.6646176 17.4055588,27.0087353 C17.4337941,27.2690294 17.3446765,27.3855 17.2555588,27.4384412 L17.5696765,28.1452059 L17.2873235,28.1760882 L17.0173235,27.5266765 C16.9820294,27.5355 16.9246765,27.5443235 16.8752647,27.5496176 L16.9467353,28.2131471 Z" id="Fill-144" fill="#1059A0"></path>
            <path d="M18.3016765,26.7472059 C18.2602059,26.6139706 18.1781471,26.5901471 18.1172647,26.6042647 C18.0290294,26.6236765 17.9937353,26.6925 18.0166765,26.7913235 C18.0766765,27.0604412 18.6599118,27.0657353 18.7578529,27.4972059 C18.8160882,27.7583824 18.6731471,27.9427941 18.4181471,28.0001471 C18.1657941,28.0575 17.9752059,27.8880882 17.9107941,27.6525 L18.1613824,27.5572059 C18.2090294,27.7151471 18.2893235,27.7795588 18.3775588,27.7592647 C18.4719706,27.7389706 18.5249118,27.6736765 18.5037353,27.5792647 C18.4322647,27.2651471 17.8596176,27.3066176 17.7572647,26.8513235 C17.6999118,26.5989706 17.8216765,26.4216176 18.0899118,26.3607353 C18.3122647,26.3104412 18.4799118,26.4410294 18.5549118,26.6598529 L18.3016765,26.7472059 Z" id="Fill-146" fill="#1059A0"></path>
            <polygon id="Fill-148" fill="#1059A0" points="19.1659412 26.3577353 19.1041765 26.6709706 18.9903529 26.7080294 19.0097647 26.4089118 18.9135882 26.4397941 18.8315294 26.1865588 19.0847647 26.1053824"></polygon>
            <path d="M20.8315588,26.4853235 L21.0327353,26.3829706 L20.6171471,25.8103235 L20.6127353,25.8129706 L20.8315588,26.4853235 Z M21.0256765,27.0641471 L20.7839118,27.1867941 L20.3127353,25.6012059 L20.6224412,25.4441471 L21.6274412,26.7579706 L21.3865588,26.8797353 L21.1792059,26.5815 L20.9056765,26.7209118 L21.0256765,27.0641471 Z" id="Fill-150" fill="#1059A0"></path>
            <path d="M21.7767353,25.2169412 C21.6902647,25.1066471 21.6064412,25.1137059 21.5535,25.1481176 C21.4776176,25.1975294 21.4687941,25.2725294 21.5243824,25.3581176 C21.6761471,25.5901765 22.2240882,25.3898824 22.4658529,25.7587059 C22.6132059,25.9837059 22.5435,26.2069412 22.3246765,26.3498824 C22.1085,26.4919412 21.8702647,26.4001765 21.7273235,26.2025294 L21.9293824,26.0251765 C22.0282059,26.1557647 22.1270294,26.1884118 22.2029118,26.139 C22.2840882,26.0851765 22.3096765,26.0075294 22.2576176,25.9263529 C22.0811471,25.6563529 21.5587941,25.8963529 21.3029118,25.5054706 C21.1617353,25.2892941 21.2129118,25.0801765 21.4423235,24.9292941 C21.6329118,24.8048824 21.8358529,24.8675294 21.9823235,25.0475294 L21.7767353,25.2169412 Z" id="Fill-152" fill="#1059A0"></path>
            <path d="M22.7047941,24.5146765 C22.6077353,24.4140882 22.5247941,24.4299706 22.4753824,24.4696765 C22.4056765,24.5279118 22.4047941,24.6046765 22.4692059,24.6823235 C22.6456765,24.8967353 23.1680294,24.6390882 23.4495,24.9787941 C23.6189118,25.1870294 23.5739118,25.4155588 23.3727353,25.5814412 C23.1724412,25.7464412 22.9262647,25.6802647 22.7621471,25.5002647 L22.9439118,25.3017353 C23.0568529,25.4208529 23.1592059,25.4429118 23.2289118,25.3846765 C23.3039118,25.3237941 23.3206765,25.2417353 23.2597941,25.1676176 C23.0542059,24.9187941 22.5618529,25.2135 22.2653824,24.8535 C22.1003824,24.6523235 22.1303824,24.4396765 22.3421471,24.2649706 C22.5177353,24.1202647 22.7259706,24.1617353 22.8918529,24.3232059 L22.7047941,24.5146765 Z" id="Fill-154" fill="#1059A0"></path>
            <path d="M23.9766176,24.4629706 C24.0648529,24.5476765 24.1319118,24.5617941 24.2095588,24.4815 C24.2880882,24.4003235 24.2713235,24.3341471 24.1830882,24.2494412 L23.5910294,23.6750294 C23.5045588,23.5903235 23.4375,23.5753235 23.3589706,23.6565 C23.2804412,23.7376765 23.2972059,23.8038529 23.3845588,23.8894412 L23.9766176,24.4629706 Z M23.1860294,24.0844412 C23.0201471,23.9247353 22.9804412,23.6979706 23.1842647,23.4879706 C23.3880882,23.2762059 23.6166176,23.3097353 23.7807353,23.4694412 L24.3833824,24.0526765 C24.5475,24.2132647 24.5880882,24.4409118 24.3842647,24.6509118 C24.1804412,24.8609118 23.9527941,24.8273824 23.7869118,24.6676765 L23.1860294,24.0844412 Z" id="Fill-156" fill="#1059A0"></path>
            <path d="M24.5108824,22.7990294 L24.4111765,22.7222647 C24.3017647,22.6384412 24.2161765,22.6534412 24.1729412,22.7107941 C24.1041176,22.8007941 24.1288235,22.8643235 24.2258824,22.9384412 L24.8814706,23.4396176 C24.9776471,23.5128529 25.0464706,23.5190294 25.1152941,23.4299118 C25.1761765,23.3496176 25.1505882,23.2869706 25.0658824,23.2225588 L24.9105882,23.1043235 L25.08,22.8819706 L25.2282353,22.9957941 C25.4117647,23.1352059 25.4779412,23.3557941 25.3076471,23.5781471 C25.1302941,23.8102059 24.8991176,23.8049118 24.7164706,23.6646176 L24.0511765,23.1563824 C23.8676471,23.0169706 23.8014706,22.7963824 23.9788235,22.5625588 C24.1491176,22.3410882 24.3917647,22.3569706 24.5858824,22.5043235 L24.6802941,22.5766765 L24.5108824,22.7990294 Z" id="Fill-158" fill="#1059A0"></path>
            <polygon id="Fill-160" fill="#1059A0" points="25.8869118 22.7094706 24.5033824 21.8544706 24.6498529 21.6171176 26.0342647 22.4712353"></polygon>
            <path d="M25.9127647,21.4427647 L26.0124706,21.2407059 L25.3383529,21.0298235 L25.3365882,21.0342353 L25.9127647,21.4427647 Z M26.4139412,21.7912941 L26.2948235,22.0330588 L24.9695294,21.0439412 L25.1221765,20.7324706 L26.7139412,21.1851176 L26.5939412,21.4268824 L26.2489412,21.3121765 L26.1139412,21.5865882 L26.4139412,21.7912941 Z" id="Fill-162" fill="#1059A0"></path>
            <polygon id="Fill-164" fill="#1059A0" points="25.6232647 20.1864706 25.5288529 20.4397059 25.3003235 20.3532353 25.5906176 19.5864706 25.8182647 19.6729412 25.7220882 19.9252941 27.0165 20.4141176 26.9176765 20.6761765"></polygon>
            <polygon id="Fill-166" fill="#1059A0" points="27.2613529 19.6668529 25.6942941 19.2309706 25.7692941 18.9618529 27.3363529 19.3977353"></polygon>
            <path d="M27.1372059,18.4588235 C27.2572059,18.4791176 27.3207353,18.4544118 27.3401471,18.3432353 C27.3595588,18.2320588 27.3075,18.1861765 27.1883824,18.1658824 L26.3757353,18.0247059 C26.2557353,18.0035294 26.1922059,18.03 26.1727941,18.1411765 C26.1533824,18.2514706 26.2045588,18.2964706 26.3245588,18.3176471 L27.1372059,18.4588235 Z M26.2707353,18.5920588 C26.0439706,18.5523529 25.8825,18.3873529 25.9327941,18.0988235 C25.9822059,17.8102941 26.1904412,17.7088235 26.4172059,17.7485294 L27.2422059,17.8914706 C27.4689706,17.9302941 27.6304412,18.0961765 27.5801471,18.3847059 C27.5298529,18.6732353 27.3225,18.7738235 27.0966176,18.735 L26.2707353,18.5920588 Z" id="Fill-168" fill="#1059A0"></path>
            <polygon id="Fill-170" fill="#1059A0" points="27.6938824 17.4032647 26.0694706 17.3150294 26.0835882 17.0565 27.0303529 16.7670882 27.0312353 16.7626765 26.1012353 16.7132647 26.1153529 16.4609118 27.7397647 16.5473824 27.7265294 16.7909118 26.6924118 17.0917941 26.6924118 17.0962059 27.708 17.1509118"></polygon>
            <path d="M14.9144118,24.1467353 L14.8279412,24.1467353 L14.8279412,24.0885 C14.8764706,24.0629118 14.9214706,24.0373235 14.9567647,24.0064412 L15.0123529,24.0064412 L15.0123529,24.6487941 L14.9144118,24.6487941 L14.9144118,24.1467353 Z" id="Fill-172" fill="#1059A0"></path>
            <path d="M15.5262353,24.1527353 C15.5262353,24.1112647 15.5077059,24.0927353 15.4750588,24.0927353 C15.4424118,24.0927353 15.4247647,24.1112647 15.4247647,24.1527353 L15.4247647,24.2586176 C15.4247647,24.3000882 15.4424118,24.3186176 15.4706471,24.3186176 C15.4891765,24.3186176 15.513,24.3009706 15.5262353,24.2895 L15.5262353,24.1527353 Z M15.4291765,24.4792059 L15.4291765,24.5109706 C15.4291765,24.5524412 15.4424118,24.5727353 15.4750588,24.5727353 C15.5077059,24.5727353 15.5262353,24.5524412 15.5262353,24.5109706 L15.5262353,24.3627353 C15.498,24.3918529 15.4803529,24.4050882 15.4362353,24.4050882 C15.3735882,24.4050882 15.3215294,24.3680294 15.3215294,24.2753824 L15.3215294,24.1995 C15.3215294,24.0653824 15.3665294,24.0062647 15.4750588,24.0062647 C15.5835882,24.0062647 15.6294706,24.0609706 15.6294706,24.1800882 L15.6294706,24.4845 C15.6294706,24.6036176 15.5835882,24.6583235 15.4750588,24.6583235 C15.3894706,24.6600882 15.3338824,24.5983235 15.3338824,24.5171471 L15.3338824,24.4792059 L15.4291765,24.4792059 Z" id="Fill-174" fill="#1059A0"></path>
            <path d="M16.0484118,24.1527353 C16.0484118,24.1112647 16.0298824,24.0927353 15.9963529,24.0927353 C15.9645882,24.0927353 15.9460588,24.1112647 15.9460588,24.1527353 L15.9460588,24.5109706 C15.9460588,24.5524412 15.9645882,24.5727353 15.9963529,24.5727353 C16.0298824,24.5727353 16.0484118,24.5524412 16.0484118,24.5109706 L16.0484118,24.1527353 Z M15.8428235,24.1800882 C15.8428235,24.0609706 15.8878235,24.0062647 15.9963529,24.0062647 C16.1057647,24.0062647 16.1516471,24.0609706 16.1516471,24.1800882 L16.1516471,24.4845 C16.1516471,24.6036176 16.1057647,24.6583235 15.9963529,24.6583235 C15.8878235,24.6583235 15.8428235,24.6036176 15.8428235,24.4845 L15.8428235,24.1800882 Z" id="Fill-176" fill="#1059A0"></path>
            <path d="M16.4662941,24.4655294 L16.4662941,24.5167059 C16.4662941,24.5511176 16.4848235,24.5722941 16.5148235,24.5722941 C16.5492353,24.5722941 16.5677647,24.552 16.5677647,24.4946471 L16.5677647,24.3508235 C16.5677647,24.3093529 16.5474706,24.2925882 16.5218824,24.2925882 C16.4883529,24.2925882 16.4733529,24.3146471 16.4636471,24.3411176 L16.3789412,24.3411176 C16.3824706,24.2422941 16.3868824,24.1655294 16.3868824,24.0146471 L16.6515882,24.0146471 L16.6480588,24.1046471 L16.4768824,24.1046471 L16.4707059,24.2414118 L16.4724706,24.2431765 C16.4998235,24.2114118 16.5218824,24.207 16.5562941,24.207 C16.6392353,24.207 16.671,24.267 16.671,24.3737647 L16.671,24.4611176 C16.671,24.5943529 16.6295294,24.6587647 16.5236471,24.6587647 C16.4362941,24.6587647 16.3683529,24.6199412 16.3683529,24.5140588 L16.3683529,24.4655294 L16.4662941,24.4655294 Z" id="Fill-178" fill="#1059A0"></path>
            <path d="M26.8822059,14.2185 C26.8822059,14.3843824 26.7480882,14.5202647 26.5813235,14.5202647 C26.4154412,14.5202647 26.2795588,14.3843824 26.2795588,14.2185 C26.2795588,14.0526176 26.4154412,13.9167353 26.5813235,13.9167353 C26.7480882,13.9167353 26.8822059,14.0526176 26.8822059,14.2185" id="Fill-180" fill="#1059A0"></path>
            <path d="M5.16458824,14.2185 C5.16458824,14.3843824 5.03047059,14.5202647 4.86370588,14.5202647 C4.69782353,14.5202647 4.56194118,14.3843824 4.56194118,14.2185 C4.56194118,14.0526176 4.69782353,13.9167353 4.86370588,13.9167353 C5.03047059,13.9167353 5.16458824,14.0526176 5.16458824,14.2185" id="Fill-182" fill="#1059A0"></path>
        </g>
    </g>
</svg>