<svg id="SvgjsSvg1011" width="288" height="288" xmlns="http://www.w3.org/2000/svg" version="1.1" xmlns:xlink="http://www.w3.org/1999/xlink" xmlns:svgjs="http://svgjs.com/svgjs"><defs id="SvgjsDefs1012"></defs><g id="SvgjsG1013"><svg xmlns="http://www.w3.org/2000/svg" viewBox="0 0 20 20" width="288" height="288"><path d="M4.765001 13.43c-.566 0-1.027.46-1.027 1.026 0 .565.461 1.025 1.027 1.025.565 0 1.025-.46 1.025-1.025 0-.566-.46-1.026-1.025-1.026M14.515001 13.43c-.566 0-1.027.46-1.027 1.026 0 .565.461 1.025 1.027 1.025.565 0 1.025-.46 1.025-1.025 0-.566-.46-1.026-1.025-1.026M10.854001 7.157l-1.771 0c-.253 0-.46.207-.46.461l0 1.019c0 .255.207.461.46.461l1.771 0c.254 0 .461-.206.461-.461l0-1.019c0-.254-.207-.461-.461-.461" fill="#ffffff" class="color000 svgShape"></path><path d="m18.325001,11.917l-0.565,0c-0.142,0 -0.256,-0.113 -0.256,-0.256c0,-0.141 0.114,-0.256 0.256,-0.256l0.565,0l0,0.512zm-2.11,3.695c-0.382,0.569 -1.018,0.908 -1.701,0.908c-0.683,0 -1.319,-0.339 -1.701,-0.908c-0.226,-0.338 -0.345,-0.73 -0.345,-1.138c0,-0.1 0.01,-0.207 0.029,-0.328c0.161,-0.997 1.01,-1.719 2.017,-1.719c1.007,0 1.856,0.722 2.017,1.719c0.02,0.121 0.03,0.228 0.03,0.328c0,0.408 -0.12,0.8 -0.346,1.138l0,0zm-14.541,-10.921l0,-0.319c0,-0.493 0.359,-0.894 0.801,-0.894l11.088,0c0.523,0 0.988,0.37 1.156,0.917l0.09,0.296l-13.135,0zm10.569,4.236c0,0.614 -0.5,1.113 -1.114,1.113l-2.32,0c-0.615,0 -1.115,-0.499 -1.115,-1.113l0,-1.336c0,-0.614 0.5,-1.114 1.115,-1.114l2.32,0c0.614,0 1.114,0.5 1.114,1.114l0,1.336zm-5.753,6.685c-0.382,0.569 -1.018,0.908 -1.7,0.908c-0.684,0 -1.319,-0.339 -1.7,-0.908c-0.227,-0.338 -0.347,-0.73 -0.347,-1.138c0,-0.1 0.01,-0.207 0.029,-0.328c0.162,-0.997 1.01,-1.719 2.018,-1.719c1.007,0 1.855,0.722 2.016,1.719c0.021,0.121 0.03,0.228 0.03,0.328c0,0.408 -0.119,0.8 -0.346,1.138l0,0zm-3.97,-6.942l0,-1.04c0,-0.14 0.114,-0.255 0.255,-0.255l1.016,0l0,-1.015c0,-0.141 0.114,-0.255 0.255,-0.255l1.04,0c0.141,0 0.255,0.114 0.255,0.255l0,1.015l1.015,0c0.141,0 0.255,0.115 0.255,0.255l0,1.04c0,0.141 -0.114,0.255 -0.255,0.255l-1.015,0l0,1.016c0,0.141 -0.114,0.254 -0.255,0.254l-1.04,0c-0.141,0 -0.255,-0.113 -0.255,-0.254l0,-1.016l-1.016,0c-0.141,0 -0.255,-0.114 -0.255,-0.255l0,0zm13.011,-1.63l0.763,2.484l-2.514,0c-0.328,0 -0.594,-0.303 -0.594,-0.676l0,-1.131c0,-0.185 0.064,-0.358 0.182,-0.487c0.111,-0.123 0.258,-0.19 0.412,-0.19l1.751,0zm3.273,3.996c-0.143,-0.871 -0.849,-1.537 -1.701,-1.537l-0.284,0l-1.613,-5.252c-0.235,-0.765 -0.894,-1.277 -1.643,-1.277l-11.088,0c-0.723,0 -1.31,0.629 -1.31,1.402l0,8.584c0,0.69 0.468,1.262 1.081,1.377c-0.003,0.047 -0.013,0.098 -0.013,0.141c0,0.509 0.15,1.002 0.433,1.422c0.477,0.71 1.27,1.134 2.124,1.134c0.853,0 1.646,-0.424 2.123,-1.134c0.283,-0.42 0.433,-0.913 0.433,-1.422c0,-0.036 -0.008,-0.078 -0.01,-0.116l4.632,0c-0.002,0.038 -0.01,0.08 -0.01,0.116c0,0.509 0.149,1.002 0.432,1.422c0.477,0.71 1.271,1.134 2.124,1.134c0.853,0 1.647,-0.424 2.124,-1.134c0.283,-0.42 0.432,-0.913 0.432,-1.422c0,-0.036 -0.008,-0.078 -0.009,-0.116l0.119,0c0.913,0 1.655,-0.796 1.655,-1.775l0,-1.432c0,-0.041 -0.013,-0.08 -0.031,-0.115l0,0z" fill="#ffffff" class="color000 svgShape"></path></svg></g></svg>