<svg id="SvgjsSvg1017" width="288" height="288" xmlns="http://www.w3.org/2000/svg" version="1.1" xmlns:xlink="http://www.w3.org/1999/xlink" xmlns:svgjs="http://svgjs.com/svgjs"><defs id="SvgjsDefs1018"></defs><g id="SvgjsG1019"><svg xmlns="http://www.w3.org/2000/svg" viewBox="0 0 20 20" width="288" height="288"><path fill-rule="evenodd" d="m16.55,16.406l-6.681,0l0,-2.07c0.022,0 0.042,0.004 0.064,0.004l6.617,0l0,2.066zm-7.436,-5.47l0,-0.919c0,-0.165 0.134,-0.299 0.299,-0.299l0.823,0l0,-0.823c0,-0.165 0.134,-0.299 0.299,-0.299l0.918,0c0.165,0 0.299,0.134 0.299,0.299l0,0.823l0.822,0c0.166,0 0.3,0.134 0.3,0.299l0,0.919c0,0.164 -0.134,0.298 -0.3,0.298l-0.822,0l0,0.823c0,0.166 -0.134,0.298 -0.299,0.298l-0.918,0c-0.165,0 -0.299,-0.132 -0.299,-0.298l0,-0.823l-0.823,0c-0.165,0 -0.299,-0.134 -0.299,-0.298l0,0zm2.682,-4.582l1.823,0l0,-2.763l-1.823,0l0,2.763zm2.531,0.765c1.753,0.425 3.224,1.646 3.965,3.291l-2.066,0c-1.047,0 -1.899,-0.852 -1.899,-1.899l0,-1.392zm5.325,7.522c-0.164,0 -0.299,0.132 -0.299,0.298c0,0.809 -0.658,1.467 -1.468,1.467l-0.736,0l0,-2.066l0.738,0c0.838,0 1.52,-0.682 1.52,-1.52c0,-0.76 -0.13,-1.506 -0.389,-2.215c-0.771,-2.112 -2.603,-3.679 -4.801,-4.12l0,-2.894l5.297,0c0.165,0 0.299,-0.134 0.299,-0.299c0,-0.164 -0.134,-0.298 -0.299,-0.298l-13.612,0c-0.165,0 -0.299,0.134 -0.299,0.298c0,0.165 0.134,0.299 0.299,0.299l5.296,0l0,2.763l-0.031,0c-1.787,0 -3.338,1.214 -3.781,2.922l-5.093,-0.208l-1.664,-4.496c-0.05,-0.136 -0.19,-0.216 -0.333,-0.19c-0.142,0.025 -0.246,0.149 -0.246,0.293l0,5.878c0,0.133 0.087,0.25 0.214,0.287l7.368,2.189c0.367,0.617 0.959,1.053 1.639,1.227l0,2.15l-2.905,0c-0.165,0 -0.298,0.135 -0.298,0.301c0,0.164 0.133,0.299 0.298,0.299l11.519,0c1.139,0 2.065,-0.928 2.065,-2.067c0,-0.166 -0.133,-0.298 -0.298,-0.298l0,0z" fill="#ffffff" class="color000 svgShape"></path></svg></g></svg>