<svg id="SvgjsSvg1001" width="288" height="288" xmlns="http://www.w3.org/2000/svg" version="1.1" xmlns:xlink="http://www.w3.org/1999/xlink" xmlns:svgjs="http://svgjs.com/svgjs"><defs id="SvgjsDefs1002"></defs><g id="SvgjsG1008" transform="matrix(1,0,0,1,0,0)"><svg xmlns="http://www.w3.org/2000/svg" viewBox="0 0 20 20" width="288" height="288"><path fill-rule="evenodd" d="m16.541381,5.690679c-1.025072,0.348815 -2.921647,1.108628 -2.921647,1.108628c0,0 -2.771918,-1.05033 -4.254817,-1.742129c-1.483859,-0.690827 -3.028185,-1.425378 -3.712527,-1.606101c-0.684341,-0.182666 -0.953086,-0.04178 -1.187279,0.219588c-0.235152,0.263311 -0.270665,0.514963 0,0.666537c0.271625,0.153517 1.206476,0.6986 2.453263,1.585696c1.244867,0.886125 1.972399,1.582782 2.283376,1.866497c0.310017,0.284687 0.274505,0.512048 -0.060468,0.655849c-0.288901,0.124368 -1.434908,0.612125 -2.587634,1.105712l-0.039352,-0.101049c0.155488,-0.118538 0.267785,-0.37602 0.141091,-0.73455c-0.125735,-0.356588 -0.311937,-0.406141 -0.546129,-0.31578l-1.267903,0.502332c-0.155488,0.061213 -0.205398,0.249708 -0.144931,0.407112c0.060468,0.157404 0.094061,0.302176 0.242831,0.309949c0.14877,0.010688 0.426154,-0.020404 0.426154,-0.020404l0.156448,0.403226c-0.927172,0.427516 -1.228551,0.664593 -1.228551,0.664593c0,0 -1.419552,-0.670423 -1.732448,-0.786047c-0.310977,-0.112709 -0.488541,-0.16712 -0.633472,-0.108822l-0.804316,0.316751c-0.154529,0.061212 -0.173725,0.158375 0.000959,0.350757c0.174685,0.189468 1.547206,1.404974 1.547206,1.404974c0,0 -0.197719,1.834433 -0.197719,2.096773c0,0.259424 0.078704,0.317722 0.234192,0.256509l0.804317,-0.317722c0.14589,-0.057326 0.238991,-0.217645 0.39256,-0.516906c0.152609,-0.29829 0.748648,-1.765447 0.748648,-1.765447c0,0 0.380083,-0.032064 1.346607,-0.35173l0.179484,0.461523c0,0 -0.225555,0.169064 -0.329214,0.278858c-0.102699,0.105907 -0.029754,0.236105 0.030714,0.392537c0.060468,0.157404 0.223635,0.264283 0.379123,0.200156l1.267903,-0.499417c0.233233,-0.092305 0.336892,-0.258453 0.190041,-0.606296c-0.14493,-0.351729 -0.400238,-0.462495 -0.596039,-0.444034l-0.059508,-0.16129c1.176722,-0.426545 2.346724,-0.853089 2.643304,-0.96094c0.34265,-0.124368 0.520214,0.020404 0.482782,0.443062c-0.038392,0.420715 -0.107498,1.430236 -0.430953,2.937231c-0.322494,1.506995 -0.645948,2.549552 -0.742889,2.848813c-0.09694,0.297318 0.09886,0.458608 0.44631,0.4897c0.346489,0.033036 0.63923,-0.049553 1.021232,-0.651962c0.381043,-0.602409 1.026032,-2.201708 1.654705,-3.728136c0.629632,-1.525455 1.999274,-4.108042 1.999274,-4.108042c0,0 1.902334,-0.74038 2.890933,-1.187329c0.9886,-0.447921 2.157642,-1.079479 1.948405,-1.547803c-0.086383,-0.226389 -1.408034,-0.060241 -2.434066,0.288573" fill="#ffffff" class="color000 svgShape"></path></svg></g></svg>