<?xml version="1.0" encoding="UTF-8"?>
<svg width="154px" height="30px" viewBox="0 0 154 30" version="1.1" xmlns="http://www.w3.org/2000/svg" xmlns:xlink="http://www.w3.org/1999/xlink">
    <!-- Generator: Sketch 60 (88103) - https://sketch.com -->
    <title>Masa-medical-transport-white</title>
    <desc>Created with Sketch.</desc>
    <defs>
        <polygon id="path-1" points="0.0122295727 0.184258895 72.0136349 0.184258895 72.0136349 20.4123798 0.0122295727 20.4123798"></polygon>
    </defs>
    <g id="Masa-medical-transport-white" stroke="none" stroke-width="1" fill="none" fill-rule="evenodd">
        <g id="MASAMTS-logo-vector-2">
            <g id="MASAMTS-logo-vector">
                <polyline id="Fill-1" fill="#FFFFFF" points="149.308611 2.0996138 148.462324 2.0996138 148.462324 1.79387449 150.522396 1.79387449 150.522396 2.0996138 149.672237 2.0996138 149.672237 4.57650992 149.308611 4.57650992 149.308611 2.0996138"></polyline>
                <path d="M153.176417,3.35436796 C153.155831,2.96648668 153.13076,2.49585196 153.13076,2.1532201 L153.122607,2.1532201 C153.023955,2.47526551 152.912258,2.82605042 152.771618,3.210059 L152.280397,4.56 L152.007881,4.56 L151.553756,3.2349258 C151.421677,2.83848382 151.314261,2.48341856 151.235788,2.1532201 L151.227838,2.1532201 C151.219074,2.49992848 151.198691,2.96241016 151.174232,3.38351511 L151.099632,4.57650992 L150.757204,4.57650992 L150.951042,1.79387449 L151.409244,1.79387449 L151.883955,3.13994279 C151.999728,3.48257465 152.090431,3.78811014 152.164827,4.07693188 L152.173184,4.07693188 C152.247581,3.79626319 152.34664,3.4907277 152.470159,3.13994279 L152.966068,1.79387449 L153.42427,1.79387449 L153.597318,4.57650992 L153.242253,4.57650992 L153.176417,3.35436796" id="Fill-2" fill="#FFFFFF"></path>
                <path d="M109.97749,4.8718541 C109.919603,3.78668335 109.850302,2.48239943 109.86192,1.51239049 L109.82727,1.51239049 C109.562296,2.42471661 109.23862,3.39411407 108.84605,4.46787055 L107.472262,8.24293581 L106.710767,8.24293581 L105.451733,4.53737529 C105.082399,3.44058645 104.770953,2.43592705 104.551432,1.51239049 L104.527992,1.51239049 C104.505367,2.48239943 104.447685,3.78668335 104.37818,4.95277311 L104.170481,8.28920436 L103.21209,8.28920436 L103.754675,0.508342571 L105.036539,0.508342571 L106.364059,4.27178974 C106.687327,5.22997676 106.953116,6.08441623 107.149197,6.89238334 L107.183848,6.89238334 C107.380336,6.10724477 107.657336,5.25300912 108.003229,4.27178974 L109.388636,0.508342571 L110.669887,0.508342571 L111.155198,8.28920436 L110.173978,8.28920436 L109.97749,4.8718541" id="Fill-3" fill="#FFFFFF"></path>
                <path d="M113.071368,5.68022886 C113.094604,7.05360987 113.972076,7.61963526 114.987742,7.61963526 C115.715401,7.61963526 116.154035,7.49265153 116.534579,7.33122117 L116.707627,8.05826927 C116.35032,8.22010728 115.738026,8.40477382 114.849344,8.40477382 C113.129254,8.40477382 112.101766,7.27353835 112.101766,5.58769176 C112.101766,3.90225282 113.094604,2.57493653 114.722156,2.57493653 C116.546197,2.57493653 117.031303,4.17925264 117.031303,5.20674057 C117.031303,5.4146433 117.008271,5.57627749 116.996653,5.68022886 L113.071368,5.68022886 Z M116.050084,4.95277311 C116.061294,4.30644019 115.784702,3.30198462 114.641645,3.30198462 C113.613749,3.30198462 113.163905,4.24855355 113.082782,4.95277311 L116.050084,4.95277311 L116.050084,4.95277311 Z" id="Fill-6" fill="#FFFFFF"></path>
                <path d="M122.884785,0.0925370999 L122.884785,6.84611479 C122.884785,7.34263544 122.895995,7.90804935 122.930645,8.28920436 L122.018931,8.28920436 L121.972866,7.31939925 L121.94963,7.31939925 C121.63798,7.9426998 120.956385,8.41639192 120.044466,8.41639192 C118.693914,8.41639192 117.654808,7.27333453 117.654808,5.57607366 C117.643801,3.71758627 118.797865,2.5747327 120.16024,2.5747327 C121.014475,2.5747327 121.591507,2.97871625 121.845882,3.42896835 L121.868915,3.42896835 L121.868915,0.0925370999 L122.884785,0.0925370999 Z M121.868915,4.9760093 C121.868915,4.84882174 121.857093,4.67597711 121.822442,4.54878956 C121.672426,3.90225282 121.118223,3.37108171 120.355913,3.37108171 C119.305596,3.37108171 118.6825,4.2948221 118.6825,5.53021277 C118.6825,6.66144824 119.236499,7.5966029 120.333492,7.5966029 C121.014475,7.5966029 121.63798,7.14614697 121.822442,6.38444842 C121.857093,6.24564277 121.868915,6.10724477 121.868915,5.94540676 L121.868915,4.9760093 L121.868915,4.9760093 Z" id="Fill-8" fill="#FFFFFF"></path>
                <polygon id="Fill-11" fill="#FFFFFF" points="124.339288 8.28920436 125.355158 8.28920436 125.355158 2.70151261 124.339288 2.70151261"></polygon>
                <path d="M130.793038,8.08150545 C130.527656,8.21990345 129.938598,8.40457 129.18811,8.40457 C127.502875,8.40457 126.405882,7.26192026 126.405882,5.5530413 C126.405882,3.83315573 127.583183,2.58614697 129.407427,2.58614697 C130.007695,2.58614697 130.538663,2.73616306 130.815866,2.87496871 L130.585543,3.65969962 C130.342582,3.52150545 129.961631,3.3943179 129.407427,3.3943179 C128.125972,3.3943179 127.433778,4.34109065 127.433778,5.50697658 C127.433778,6.80005006 128.26437,7.5966029 129.372777,7.5966029 C129.950624,7.5966029 130.331168,7.4465868 130.620193,7.31939925 L130.793038,8.08150545" id="Fill-13" fill="#FFFFFF"></path>
                <path d="M134.844695,8.28920436 L134.764388,7.5849848 L134.729737,7.5849848 C134.418087,8.02382264 133.817819,8.41639192 133.021062,8.41639192 C131.889215,8.41639192 131.312183,7.61963526 131.312183,6.81146433 C131.312183,5.46091185 132.513127,4.72204184 134.671851,4.73345611 L134.671851,4.61809047 C134.671851,4.1564241 134.544663,3.32501699 133.401606,3.32501699 C132.88246,3.32501699 132.340079,3.486855 131.947509,3.74061863 L131.71637,3.07104953 C132.178241,2.77081352 132.848014,2.5747327 133.552029,2.5747327 C135.260704,2.5747327 135.676102,3.74061863 135.676102,4.86064366 L135.676102,6.95006615 C135.676102,7.43496871 135.699338,7.90804935 135.768639,8.28920436 L134.844695,8.28920436 Z M134.695087,5.43767567 C133.586884,5.4146433 132.328053,5.61072412 132.328053,6.69609869 C132.328053,7.3540497 132.766891,7.66569998 133.286648,7.66569998 C134.013492,7.66569998 134.475362,7.20382979 134.6372,6.73074915 C134.671851,6.62679778 134.695087,6.51143215 134.695087,6.40727695 L134.695087,5.43767567 L134.695087,5.43767567 Z" id="Fill-15" fill="#FFFFFF"></path>
                <polygon id="Fill-17" fill="#FFFFFF" points="137.084745 8.28920436 138.100411 8.28920436 138.100411 0.0925370999 137.084745 0.0925370999"></polygon>
                <polyline id="Fill-20" fill="#FFFFFF" points="104.897529 11.2010656 102.531107 11.2010656 102.531107 10.34683 108.292255 10.34683 108.292255 11.2010656 105.913807 11.2010656 105.913807 18.1274879 104.897529 18.1274879 104.897529 11.2010656"></polyline>
                <path d="M107.761491,14.2833256 C107.761491,13.6251707 107.750281,13.059553 107.715834,12.54 L108.604109,12.54 L108.638759,13.6369927 L108.685639,13.6369927 C108.939403,12.8865046 109.551085,12.4132201 110.232476,12.4132201 C110.347638,12.4132201 110.428557,12.4244305 110.520687,12.4478706 L110.520687,13.4060576 C110.416735,13.3826176 110.312988,13.3714071 110.174386,13.3714071 C109.458956,13.3714071 108.950817,13.9137887 108.812215,14.675691 C108.789387,14.8144967 108.765947,14.9757232 108.765947,15.1493832 L108.765947,18.1276918 L107.761491,18.1276918 L107.761491,14.2833256" id="Fill-22" fill="#FFFFFF"></path>
                <path d="M114.953295,18.1274879 L114.87258,17.4232684 L114.83793,17.4232684 C114.526483,17.8621062 113.926215,18.2546755 113.129458,18.2546755 C111.997815,18.2546755 111.420783,17.4579188 111.420783,16.6497479 C111.420783,15.2991954 112.62132,14.5603254 114.780247,14.5719435 L114.780247,14.456374 C114.780247,13.9947077 114.653059,13.1633006 113.510002,13.1633006 C112.990856,13.1633006 112.448475,13.3251386 112.055498,13.5789022 L111.824767,12.9093331 C112.286637,12.6093009 112.956206,12.4130163 113.660426,12.4130163 C115.369304,12.4130163 115.784702,13.5789022 115.784702,14.6989272 L115.784702,16.7883497 C115.784702,17.2732523 115.807735,17.7463329 115.877036,18.1274879 L114.953295,18.1274879 Z M114.803279,15.2761631 C113.695076,15.2531307 112.436449,15.4490077 112.436449,16.5343823 C112.436449,17.1923333 112.875083,17.5041874 113.39484,17.5041874 C114.121684,17.5041874 114.583758,17.0421134 114.745596,16.5690327 C114.780247,16.4650814 114.803279,16.3497157 114.803279,16.2457643 L114.803279,15.2761631 L114.803279,15.2761631 Z" id="Fill-24" fill="#FFFFFF"></path>
                <path d="M117.193753,14.0523905 C117.193753,13.4751547 117.182135,13.0018702 117.147688,12.54 L118.048192,12.54 L118.105468,13.4635366 L118.128908,13.4635366 C118.4055,12.9327731 119.052036,12.4132201 119.975777,12.4132201 C120.749297,12.4132201 121.950241,12.8746826 121.950241,14.7912605 L121.950241,18.1274879 L120.93376,18.1274879 L120.93376,14.9066261 C120.93376,14.0065296 120.599689,13.2558377 119.641094,13.2558377 C118.971321,13.2558377 118.45238,13.7293259 118.278516,14.2949437 C118.232451,14.4217236 118.209419,14.5949759 118.209419,14.7682281 L118.209419,18.1274879 L117.193753,18.1274879 L117.193753,14.0523905" id="Fill-26" fill="#FFFFFF"></path>
                <path d="M123.231493,17.0885857 C123.531525,17.2850742 124.0629,17.4925693 124.570631,17.4925693 C125.309501,17.4925693 125.655802,17.1232362 125.655802,16.6615698 C125.655802,16.1766673 125.367388,15.9108779 124.6169,15.6342857 C123.61224,15.2761631 123.13916,14.7219596 123.13916,14.0523905 C123.13916,13.1518863 123.866412,12.4130163 125.067356,12.4130163 C125.632566,12.4130163 126.128883,12.5746505 126.441348,12.759317 L126.186973,13.498187 C125.967452,13.359789 125.563265,13.1751225 125.043916,13.1751225 C124.443444,13.1751225 124.108761,13.5214232 124.108761,13.936821 C124.108761,14.398895 124.443444,14.6063901 125.171103,14.8835938 C126.140908,15.2531307 126.637021,15.7380333 126.637021,16.5690327 C126.637021,17.5504559 125.875527,18.2430574 124.547599,18.2430574 C123.935712,18.2430574 123.369891,18.0928375 122.977322,17.8621062 L123.231493,17.0885857" id="Fill-28" fill="#FFFFFF"></path>
                <path d="M127.710574,14.3640408 C127.710574,13.6484069 127.687134,13.0711711 127.664509,12.54 L128.576632,12.54 L128.622492,13.498187 L128.645729,13.498187 C129.061126,12.8172036 129.719485,12.4132201 130.631404,12.4132201 C131.981752,12.4132201 132.998437,13.5560737 132.998437,15.2531307 C132.998437,17.2616342 131.774257,18.2546755 130.458355,18.2546755 C129.719485,18.2546755 129.072948,17.9312033 128.738062,17.3772036 L128.71503,17.3772036 L128.71503,20.4131951 L127.710574,20.4131951 L127.710574,14.3640408 Z M128.71503,15.8533989 C128.71503,16.003415 128.738062,16.1420168 128.76089,16.2687967 C128.945761,16.9730163 129.557647,17.4581227 130.285103,17.4581227 C131.358859,17.4581227 131.981752,16.5806508 131.981752,15.2991954 C131.981752,14.179578 131.39351,13.221391 130.319753,13.221391 C129.626948,13.221391 128.980615,13.7173002 128.78433,14.4796102 C128.74968,14.6061863 128.71503,14.75661 128.71503,14.8952119 L128.71503,15.8533989 L128.71503,15.8533989 Z" id="Fill-30" fill="#FFFFFF"></path>
                <path d="M139.105682,15.2877812 C139.105682,17.3541713 137.673599,18.2544717 136.323047,18.2544717 C134.810656,18.2544717 133.644566,17.1462685 133.644566,15.3799106 C133.644566,13.5098051 134.868135,12.4132201 136.41538,12.4132201 C138.020104,12.4132201 139.105682,13.579106 139.105682,15.2877812 M134.672462,15.3452601 C134.672462,16.5690327 135.376682,17.4925693 136.368908,17.4925693 C137.338917,17.4925693 138.066372,16.5806508 138.066372,15.3224316 C138.066372,14.3758627 137.593292,13.1751225 136.392348,13.1751225 C135.191607,13.1751225 134.672462,14.2833256 134.672462,15.3452601" id="Fill-32" fill="#FFFFFF"></path>
                <path d="M140.155795,14.2833256 C140.155795,13.6251707 140.144584,13.059553 140.109934,12.54 L140.998412,12.54 L141.033063,13.6369927 L141.079535,13.6369927 C141.333299,12.8865046 141.945185,12.4132201 142.62678,12.4132201 C142.741942,12.4132201 142.822453,12.4244305 142.914786,12.4478706 L142.914786,13.4060576 C142.810835,13.3826176 142.707291,13.3714071 142.568689,13.3714071 C141.853056,13.3714071 141.344713,13.9137887 141.206315,14.675691 C141.18369,14.8144967 141.16025,14.9757232 141.16025,15.1493832 L141.16025,18.1276918 L140.155795,18.1276918 L140.155795,14.2833256" id="Fill-34" fill="#FFFFFF"></path>
                <path d="M145.81238,10.9354801 L145.81238,12.54 L147.26668,12.54 L147.26668,13.3133166 L145.81238,13.3133166 L145.81238,16.3266834 C145.81238,17.0194886 146.008053,17.4118541 146.573874,17.4118541 C146.83946,17.4118541 147.035949,17.3772036 147.162932,17.3425532 L147.208997,18.1044556 C147.012712,18.1853746 146.701062,18.2432612 146.308493,18.2432612 C145.835004,18.2432612 145.454461,18.0930413 145.212112,17.8158377 C144.92329,17.5160093 144.819338,17.0194886 144.819338,16.3613338 L144.819338,13.3133166 L143.953281,13.3133166 L143.953281,12.54 L144.819338,12.54 L144.819338,11.2008618 L145.81238,10.9354801" id="Fill-36" fill="#FFFFFF"></path>
                <path d="M103.281391,27.9645485 C103.732051,28.2417522 104.389594,28.4722796 105.082399,28.4722796 C106.109684,28.4722796 106.710767,27.9298981 106.710767,27.1449633 C106.710767,26.4175076 106.294758,26.001906 105.244237,25.5979224 C103.9744,25.1476703 103.189465,24.4895155 103.189465,23.3929304 C103.189465,22.1809798 104.193309,21.2802718 105.705496,21.2802718 C106.502457,21.2802718 107.080304,21.4649383 107.426197,21.661223 L107.149197,22.4812158 C106.894822,22.3422063 106.375881,22.1116789 105.67105,22.1116789 C104.609523,22.1116789 104.205131,22.7463937 104.205131,23.2775648 C104.205131,24.0046129 104.67862,24.3625317 105.752376,24.7781334 C107.068278,25.2862721 107.737847,25.9211908 107.737847,27.0640443 C107.737847,28.2647846 106.849165,29.3034829 105.013506,29.3034829 C104.262407,29.3034829 103.443229,29.0845736 103.027627,28.8071661 L103.281391,27.9645485" id="Fill-38" fill="#FFFFFF"></path>
                <path d="M113.972076,26.3482067 C113.972076,28.4150045 112.540401,29.3153048 111.189644,29.3153048 C109.677254,29.3153048 108.511164,28.2071017 108.511164,26.4407438 C108.511164,24.5706383 109.735344,23.4738495 111.282181,23.4738495 C112.886497,23.4738495 113.972076,24.6399392 113.972076,26.3482067 M109.538856,26.4060933 C109.538856,27.6298659 110.243075,28.5534025 111.235505,28.5534025 C112.205514,28.5534025 112.932766,27.6412802 112.932766,26.383061 C112.932766,25.436492 112.459685,24.2357518 111.259149,24.2357518 C110.058205,24.2357518 109.538856,25.3441588 109.538856,26.4060933" id="Fill-41" fill="#FFFFFF"></path>
                <polygon id="Fill-44" fill="#FFFFFF" points="115.0228 29.1881173 116.038874 29.1881173 116.038874 20.9916539 115.0228 20.9916539"></polygon>
                <path d="M122.191775,27.6643125 C122.191775,28.2417522 122.203801,28.7496871 122.238655,29.1881173 L121.337947,29.1881173 L121.280061,28.2761988 L121.256417,28.2761988 C120.991647,28.7262471 120.402589,29.3153048 119.409751,29.3153048 C118.532076,29.3153048 117.481963,28.8304023 117.481963,26.8677597 L117.481963,23.6006294 L118.497425,23.6006294 L118.497425,26.6949151 C118.497425,27.7568496 118.821101,28.4724835 119.744434,28.4724835 C120.426029,28.4724835 120.89911,27.999199 121.083572,27.5489469 C121.141459,27.3989308 121.176109,27.2142643 121.176109,27.0293939 L121.176109,23.6006294 L122.191775,23.6006294 L122.191775,27.6643125" id="Fill-46" fill="#FFFFFF"></path>
                <path d="M124.871071,21.9961094 L124.871071,23.6008332 L126.325371,23.6008332 L126.325371,24.373946 L124.871071,24.373946 L124.871071,27.3873127 C124.871071,28.080118 125.066744,28.4724835 125.632362,28.4724835 C125.897947,28.4724835 126.094436,28.4376292 126.221623,28.4031825 L126.267281,29.1652888 C126.0712,29.2460039 125.759549,29.3036868 125.36698,29.3036868 C124.893492,29.3036868 124.512948,29.1536707 124.270395,28.8766708 C123.981573,28.5766387 123.877826,28.080118 123.877826,27.4219632 L123.877826,24.373946 L123.011768,24.373946 L123.011768,23.6008332 L123.877826,23.6008332 L123.877826,22.261695 L124.871071,21.9961094" id="Fill-49" fill="#FFFFFF"></path>
                <polygon id="Fill-52" fill="#FFFFFF" points="127.237086 29.1881173 128.253159 29.1881173 128.253159 23.6006294 127.237086 23.6006294"></polygon>
                <path d="M134.764388,26.3482067 C134.764388,28.4150045 133.332305,29.3153048 131.981752,29.3153048 C130.469566,29.3153048 129.303476,28.2071017 129.303476,26.4407438 C129.303476,24.5706383 130.526841,23.4738495 132.074493,23.4738495 C133.678809,23.4738495 134.764388,24.6399392 134.764388,26.3482067 M130.331168,26.4060933 C130.331168,27.6298659 131.035387,28.5534025 132.028021,28.5534025 C132.997826,28.5534025 133.725078,27.6412802 133.725078,26.383061 C133.725078,25.436492 133.251997,24.2357518 132.051053,24.2357518 C130.850517,24.2357518 130.331168,25.3441588 130.331168,26.4060933" id="Fill-54" fill="#FFFFFF"></path>
                <path d="M135.815316,25.1130198 C135.815316,24.5359878 135.803901,24.0624996 135.769455,23.6006294 L136.669755,23.6006294 L136.727234,24.5241659 L136.75047,24.5241659 C137.027266,23.9936063 137.673599,23.4740533 138.597543,23.4740533 C139.37086,23.4740533 140.571804,23.9355158 140.571804,25.8518899 L140.571804,29.1881173 L139.555527,29.1881173 L139.555527,25.9672555 C139.555527,25.0669551 139.221252,24.3166708 138.262657,24.3166708 C137.593088,24.3166708 137.073942,24.7899553 136.900282,25.3553692 C136.854218,25.4823529 136.831185,25.6556052 136.831185,25.8290613 L136.831185,29.1881173 L135.815316,29.1881173 L135.815316,25.1130198" id="Fill-57" fill="#FFFFFF"></path>
                <path d="M141.853056,28.1492151 C142.153292,28.3457036 142.684463,28.5534025 143.192194,28.5534025 C143.931064,28.5534025 144.277568,28.1838655 144.277568,27.7221992 C144.277568,27.2375004 143.989358,26.9717111 143.238462,26.6951189 C142.233803,26.3367924 141.760722,25.782589 141.760722,25.1130198 C141.760722,24.2125156 142.487974,23.4736456 143.688918,23.4736456 C144.254128,23.4736456 144.750649,23.6352798 145.062911,23.8199464 L144.808536,24.5588164 C144.589015,24.4204184 144.185031,24.2357518 143.665682,24.2357518 C143.065006,24.2357518 142.730324,24.5818487 142.730324,24.9974504 C142.730324,25.4595244 143.065006,25.6672233 143.79287,25.944427 C144.762675,26.3139639 145.258584,26.7984588 145.258584,27.6298659 C145.258584,28.6110853 144.497089,29.3034829 143.169161,29.3034829 C142.557275,29.3034829 141.991454,29.1536707 141.598884,28.9227356 L141.853056,28.1492151" id="Fill-59" fill="#FFFFFF"></path>
                <polyline id="Fill-62" fill="#D8252D" points="88.9695298 13.007985 94.4294225 13.007985 94.4294225 1.80060075 83.2222421 1.80060075 83.2222421 7.54849991 88.9695298 7.54849991 88.9695298 13.007985"></polyline>
                <polyline id="Fill-63" fill="#D8252D" points="83.2210191 13.0155266 83.2210191 7.55563383 72.0136349 7.55563383 72.0136349 18.7630181 77.7615341 18.7630181 77.7615341 13.0155266 83.2210191 13.0155266"></polyline>
                <polyline id="Fill-64" fill="#D8252D" points="83.2202038 18.754865 77.7603111 18.754865 77.7603111 29.9624531 88.9674915 29.9624531 88.9674915 24.2145539 83.2202038 24.2145539 83.2202038 18.754865"></polyline>
                <polyline id="Fill-65" fill="#D8252D" points="88.9729948 18.7556803 88.9729948 24.2159807 100.180379 24.2159807 100.180379 13.0083926 94.4324799 13.0083926 94.4324799 18.7556803 88.9729948 18.7556803"></polyline>
                <path d="M52.421248,10.2530699 C51.6365171,9.06680136 50.69484,8.38255677 49.0202038,8.38255677 C47.2670946,8.38255677 45.7500161,9.47730735 45.7500161,11.0514572 C45.7500161,12.534089 47.5027177,13.2185375 48.8369641,13.7431861 L50.1453245,14.2450063 C52.7088468,15.225818 54.8806151,16.3433971 54.8806151,19.0809869 C54.8806151,22.0917039 52.1073556,24.3953478 48.6802217,24.3953478 C45.5145968,24.3953478 43.1597926,22.6165564 42.531804,19.947656 L44.6770749,19.4232112 C44.9648775,21.1793778 46.5086573,22.6165564 48.6280422,22.6165564 C50.7468157,22.6165564 52.6829608,21.2020025 52.6829608,19.2634114 C52.6829608,17.2559271 50.8776721,16.5716825 49.0462936,15.8417808 L47.8426998,15.3856177 C45.5404827,14.4732916 43.5521581,13.4464152 43.5521581,10.9829716 C43.5521581,8.31407116 46.1423815,6.60315394 49.0723833,6.60315394 C51.2700375,6.60315394 53.1277096,7.5841695 54.1743572,9.27205435 L52.421248,10.2530699" id="Fill-66" fill="#FFFFFF"></path>
                <g id="Group-70" transform="translate(0.000000, 6.114786)">
                    <mask id="mask-2" fill="white">
                        <use xlink:href="#path-1"></use>
                    </mask>
                    <g id="Clip-68"></g>
                    <path d="M58.8279135,13.323508 L56.4470195,18.2051457 L54.0402396,18.2051457 L63.1443411,0.184462721 L72.0136349,18.2051457 L69.5805614,18.2051457 L67.2522546,13.323508 L58.8279135,13.323508 Z M63.0925693,4.65539067 L59.717411,11.544309 L66.3888468,11.544309 L63.0925693,4.65539067 L63.0925693,4.65539067 Z" id="Fill-67" fill="#FFFFFF" mask="url(#mask-2)"></path>
                    <polyline id="Fill-69" fill="#FFFFFF" mask="url(#mask-2)" points="40.7817522 18.2049419 43.2148257 18.2049419 34.3457357 0.184258895 26.7346612 15.6159414 20.2745932 0.372390488 20.000447 0.372390488 14.2413374 14.1235258 9.04499195 0.372390488 8.71968532 0.372390488 0 18.1739603 2.25982121 18.1739603 8.54887896 5.06263544 14.2415412 19.3677704 20.0615949 5.04123368 26.4788593 20.4123798 30.0293081 13.323508 37.2449598 13.323508 36.285346 11.544309 30.918398 11.544309 34.2937601 4.65518684 40.7817522 18.2049419"></polyline>
                </g>
                <polygon id="Fill-71" fill="#FFFFFF" points="127.031017 23.0763883 128.459431 23.0763883 128.459431 21.6479743 127.031017 21.6479743"></polygon>
                <polygon id="Fill-72" fill="#FFFFFF" points="124.133016 1.90332916 125.561227 1.90332916 125.561227 0.475118899 124.133016 0.475118899"></polygon>
            </g>
        </g>
    </g>
</svg>