<?xml version="1.0" encoding="UTF-8"?>
<svg width="154px" height="30px" viewBox="0 0 154 30" version="1.1" xmlns="http://www.w3.org/2000/svg" xmlns:xlink="http://www.w3.org/1999/xlink">
    <!-- Generator: Sketch 60 (88103) - https://sketch.com -->
    <title>Masa-green</title>
    <desc>Created with Sketch.</desc>
    <defs>
        <polygon id="path-1" points="0.177972466 0.186232791 5.46871089 0.186232791 5.46871089 5.25657071 0.177972466 5.25657071"></polygon>
        <polygon id="path-3" points="0.0683354193 0.169524406 21.6884641 0.169524406 21.6884641 27.229224 0.0683354193 27.229224"></polygon>
    </defs>
    <g id="Masa-green" stroke="none" stroke-width="1" fill="none" fill-rule="evenodd">
        <g id="MASATRS-logo-vector">
            <polyline id="Fill-1" fill="#231F20" points="146.361139 1.35093867 145.666896 1.35093867 145.666896 1.10012516 147.356884 1.10012516 147.356884 1.35093867 146.659262 1.35093867 146.659262 3.38316646 146.361139 3.38316646 146.361139 1.35093867"></polyline>
            <path d="M149.534418,2.38047559 C149.517522,2.0620776 149.496683,1.67628285 149.496683,1.39486859 L149.490113,1.39486859 C149.409011,1.659199 149.317397,1.94680851 149.202315,2.26201502 L148.799249,3.36964956 L148.575657,3.36964956 L148.203004,2.2824781 C148.094869,1.95713392 148.006633,1.66595745 147.94224,1.39486859 L147.93567,1.39486859 C147.928723,1.67947434 147.911827,2.05869837 147.89174,2.40450563 L147.830538,3.38316646 L147.549499,3.38316646 L147.708511,1.10012516 L148.084543,1.10012516 L148.473717,2.20456821 C148.569086,2.48560701 148.643242,2.73623279 148.704255,2.97334168 L148.711389,2.97334168 C148.772403,2.74299124 148.853692,2.49236546 148.954881,2.20456821 L149.361702,1.10012516 L149.737547,1.10012516 L149.879662,3.38316646 L149.588298,3.38316646 L149.534418,2.38047559" id="Fill-2" fill="#231F20"></path>
            <path d="M55.0800375,4.75588235 C54.2588861,3.51439299 53.2730914,2.79837297 51.520776,2.79837297 C49.6864205,2.79837297 48.0987484,3.94430538 48.0987484,5.59111389 C48.0987484,7.14292866 49.9329161,7.85894869 51.3290989,8.40826033 L52.6982478,8.93316646 C55.381164,9.96007509 57.6536921,11.1292866 57.6536921,13.9939299 C57.6536921,17.1450563 54.7515019,19.5559449 51.1650188,19.5559449 C47.8522528,19.5559449 45.3880476,17.6939925 44.731164,14.9012516 L46.9760951,14.3521277 C47.2774093,16.1900501 48.8924906,17.6939925 51.1105757,17.6939925 C53.3277222,17.6939925 55.3539424,16.2138924 55.3539424,14.1852315 C55.3539424,12.0842929 53.4651439,11.3682728 51.548373,10.6041927 L50.2890488,10.1267835 C47.8794743,9.17196496 45.7989987,8.09774718 45.7989987,5.51958698 C45.7989987,2.72665832 48.5095119,0.93660826 51.5755945,0.93660826 C53.8755319,0.93660826 55.8195244,1.96276596 56.9147685,3.72934919 L55.0800375,4.75588235" id="Fill-3" fill="#231F20"></path>
            <path d="M61.784418,14.3680851 L59.2929912,19.4769086 L56.7741552,19.4769086 L66.3020651,0.618397997 L75.5831039,19.4769086 L73.0370463,19.4769086 L70.6006258,14.3680851 L61.784418,14.3680851 Z M66.2472466,5.29693367 L62.7152065,12.5059449 L69.6972466,12.5059449 L66.2472466,5.29693367 L66.2472466,5.29693367 Z" id="Fill-4" fill="#231F20"></path>
            <polyline id="Fill-5" fill="#231F20" points="42.8996245 19.4767209 45.4456821 19.4767209 36.1640801 0.618210263 28.1992491 16.7669587 21.4391114 0.814768461 21.1522528 0.814768461 15.1254068 15.205194 9.68748436 0.814768461 9.34693367 0.814768461 0.222090113 19.4442428 2.58679599 19.4442428 9.16821026 5.72346683 15.1254068 20.693617 21.2162703 5.70093867 27.9315394 21.7866083 31.6469962 14.3680851 39.1980601 14.3680851 38.1942428 12.5059449 32.577597 12.5059449 36.1098248 5.29674593 42.8996245 19.4767209"></polyline>
            <polyline id="Fill-6" fill="#231F20" points="97.4070713 1.65 95.2359199 1.65 95.2359199 0.866020025 100.521589 0.866020025 100.521589 1.65 98.3397372 1.65 98.3397372 8.00500626 97.4070713 8.00500626 97.4070713 1.65"></polyline>
            <polygon id="Stroke-7" points="97.4070713 1.65 95.2359199 1.65 95.2359199 0.866020025 100.521589 0.866020025 100.521589 1.65 98.3397372 1.65 98.3397372 8.00500626 97.4070713 8.00500626"></polygon>
            <path d="M100.034981,4.47784731 C100.034981,3.87428035 100.024656,3.35519399 99.9927409,2.8787234 L100.807885,2.8787234 L100.839612,3.88479349 L100.882791,3.88479349 C101.115019,3.1965582 101.676533,2.76232791 102.30169,2.76232791 C102.407572,2.76232791 102.482103,2.77227785 102.566208,2.79386733 L102.566208,3.67321652 C102.471026,3.65162703 102.375657,3.64130163 102.248936,3.64130163 C101.592053,3.64130163 101.126095,4.1387985 100.998623,4.8379224 C100.977972,4.96501877 100.956571,5.11332916 100.956571,5.27252816 L100.956571,8.00500626 L100.034981,8.00500626 L100.034981,4.47784731" id="Fill-9" fill="#231F20"></path>
            <path d="M100.034981,4.47784731 C100.034981,3.87428035 100.024656,3.35519399 99.9927409,2.8787234 L100.807885,2.8787234 L100.839612,3.88479349 L100.882791,3.88479349 C101.115019,3.1965582 101.676533,2.76232791 102.30169,2.76232791 C102.407572,2.76232791 102.482103,2.77227785 102.566208,2.79386733 L102.566208,3.67321652 C102.471026,3.65162703 102.375657,3.64130163 102.248936,3.64130163 C101.592053,3.64130163 101.126095,4.1387985 100.998623,4.8379224 C100.977972,4.96501877 100.956571,5.11332916 100.956571,5.27252816 L100.956571,8.00500626 L100.034981,8.00500626 L100.034981,4.47784731 Z" id="Stroke-10"></path>
            <path d="M106.633104,8.00500626 L106.559136,7.35882353 L106.527409,7.35882353 C106.241302,7.76151439 105.690864,8.12177722 104.959825,8.12177722 C103.921464,8.12177722 103.391677,7.39055069 103.391677,6.64937422 C103.391677,5.41032541 104.493867,4.73222778 106.473905,4.74274093 L106.473905,4.63667084 C106.473905,4.21332916 106.357509,3.45037547 105.309011,3.45037547 C104.832728,3.45037547 104.335044,3.59868586 103.974781,3.83166458 L103.762641,3.21758448 C104.186546,2.94217772 104.801001,2.76214018 105.447184,2.76214018 C107.014581,2.76214018 107.396058,3.83166458 107.396058,4.85913642 L107.396058,6.77628285 C107.396058,7.22121402 107.417084,7.65563204 107.480726,8.00500626 L106.633104,8.00500626 Z M106.495682,5.38873592 C105.478723,5.36770964 104.323967,5.54755945 104.323967,6.5431164 C104.323967,7.14687109 104.726283,7.43297872 105.203317,7.43297872 C105.870526,7.43297872 106.294055,7.00926158 106.442178,6.57503129 C106.473905,6.47966208 106.495682,6.37396746 106.495682,6.27859825 L106.495682,5.38873592 L106.495682,5.38873592 Z" id="Fill-11" fill="#231F20"></path>
            <path d="M106.633104,8.00500626 L106.559136,7.35882353 L106.527409,7.35882353 C106.241302,7.76151439 105.690864,8.12177722 104.959825,8.12177722 C103.921464,8.12177722 103.391677,7.39055069 103.391677,6.64937422 C103.391677,5.41032541 104.493867,4.73222778 106.473905,4.74274093 L106.473905,4.63667084 C106.473905,4.21332916 106.357509,3.45037547 105.309011,3.45037547 C104.832728,3.45037547 104.335044,3.59868586 103.974781,3.83166458 L103.762641,3.21758448 C104.186546,2.94217772 104.801001,2.76214018 105.447184,2.76214018 C107.014581,2.76214018 107.396058,3.83166458 107.396058,4.85913642 L107.396058,6.77628285 C107.396058,7.22121402 107.417084,7.65563204 107.480726,8.00500626 L106.633104,8.00500626 Z M106.495682,5.38873592 C105.478723,5.36770964 104.323967,5.54755945 104.323967,6.5431164 C104.323967,7.14687109 104.726283,7.43297872 105.203317,7.43297872 C105.870526,7.43297872 106.294055,7.00926158 106.442178,6.57503129 C106.473905,6.47966208 106.495682,6.37396746 106.495682,6.27859825 L106.495682,5.38873592 Z" id="Stroke-12"></path>
            <path d="M108.688423,4.2660826 C108.688423,3.73629537 108.678285,3.30225282 108.64637,2.87834793 L109.472778,2.87834793 L109.525156,3.72578223 L109.546558,3.72578223 C109.800563,3.23861076 110.393617,2.76214018 111.241051,2.76214018 C111.950876,2.76214018 113.052315,3.18585732 113.052315,4.94380476 L113.052315,8.00500626 L112.120025,8.00500626 L112.120025,5.05006258 C112.120025,4.2238423 111.813454,3.53523154 110.934105,3.53523154 C110.319462,3.53523154 109.843367,3.96964956 109.684168,4.48873592 C109.64174,4.60513141 109.620338,4.76433041 109.620338,4.92277847 L109.620338,8.00500626 L108.688423,8.00500626 L108.688423,4.2660826" id="Fill-13" fill="#231F20"></path>
            <path d="M108.688423,4.2660826 C108.688423,3.73629537 108.678285,3.30225282 108.64637,2.87834793 L109.472778,2.87834793 L109.525156,3.72578223 L109.546558,3.72578223 C109.800563,3.23861076 110.393617,2.76214018 111.241051,2.76214018 C111.950876,2.76214018 113.052315,3.18585732 113.052315,4.94380476 L113.052315,8.00500626 L112.120025,8.00500626 L112.120025,5.05006258 C112.120025,4.2238423 111.813454,3.53523154 110.934105,3.53523154 C110.319462,3.53523154 109.843367,3.96964956 109.684168,4.48873592 C109.64174,4.60513141 109.620338,4.76433041 109.620338,4.92277847 L109.620338,8.00500626 L108.688423,8.00500626 L108.688423,4.2660826 Z" id="Stroke-14"></path>
            <path d="M114.228098,7.05168961 C114.503692,7.23191489 114.990864,7.42246558 115.456821,7.42246558 C116.134543,7.42246558 116.452378,7.08341677 116.452378,6.66007509 C116.452378,6.21514393 116.188048,5.97165207 115.499061,5.71745932 C114.577284,5.38892365 114.143242,4.88053817 114.143242,4.26589487 C114.143242,3.43986233 114.810638,2.76232791 115.912453,2.76232791 C116.430976,2.76232791 116.886421,2.91007509 117.173091,3.07978723 L116.939737,3.75769712 C116.737922,3.63060075 116.36771,3.46126408 115.891051,3.46126408 C115.340238,3.46126408 115.032916,3.77909887 115.032916,4.16020025 C115.032916,4.5839174 115.340238,4.77428035 116.007822,5.02866083 C116.897497,5.36770964 117.352566,5.8126408 117.352566,6.57521902 C117.352566,7.47559449 116.65363,8.11070088 115.435607,8.11070088 C114.874093,8.11070088 114.355194,7.9732791 113.994931,7.76113892 L114.228098,7.05168961" id="Fill-15" fill="#231F20"></path>
            <path d="M114.228098,7.05168961 C114.503692,7.23191489 114.990864,7.42246558 115.456821,7.42246558 C116.134543,7.42246558 116.452378,7.08341677 116.452378,6.66007509 C116.452378,6.21514393 116.188048,5.97165207 115.499061,5.71745932 C114.577284,5.38892365 114.143242,4.88053817 114.143242,4.26589487 C114.143242,3.43986233 114.810638,2.76232791 115.912453,2.76232791 C116.430976,2.76232791 116.886421,2.91007509 117.173091,3.07978723 L116.939737,3.75769712 C116.737922,3.63060075 116.36771,3.46126408 115.891051,3.46126408 C115.340238,3.46126408 115.032916,3.77909887 115.032916,4.16020025 C115.032916,4.5839174 115.340238,4.77428035 116.007822,5.02866083 C116.897497,5.36770964 117.352566,5.8126408 117.352566,6.57521902 C117.352566,7.47559449 116.65363,8.11070088 115.435607,8.11070088 C114.874093,8.11070088 114.355194,7.9732791 113.994931,7.76113892 L114.228098,7.05168961 Z" id="Stroke-16"></path>
            <path d="M118.33761,4.5520025 C118.33761,3.89530663 118.31602,3.3660826 118.295369,2.87834793 L119.132103,2.87834793 L119.174343,3.75769712 L119.195557,3.75769712 C119.576658,3.13272841 120.180788,2.76214018 121.017334,2.76214018 C122.256571,2.76214018 123.189237,3.81101377 123.189237,5.36770964 C123.189237,7.21070088 122.06602,8.12177722 120.858323,8.12177722 C120.180788,8.12177722 119.587735,7.82478098 119.280225,7.31639549 L119.259199,7.31639549 L119.259199,10.1021902 L118.33761,10.1021902 L118.33761,4.5520025 Z M119.259199,5.91852315 C119.259199,6.05594493 119.280225,6.18322904 119.301252,6.29962453 C119.471339,6.94599499 120.032103,7.39092616 120.699687,7.39092616 C121.684731,7.39092616 122.256571,6.58573217 122.256571,5.41013767 C122.256571,4.38285357 121.716458,3.50350438 120.731602,3.50350438 C120.095745,3.50350438 119.503066,3.95894869 119.322841,4.65788486 C119.290926,4.77428035 119.259199,4.9120776 119.259199,5.0393617 L119.259199,5.91852315 L119.259199,5.91852315 Z" id="Fill-17" fill="#231F20"></path>
            <path d="M118.33761,4.5520025 C118.33761,3.89530663 118.31602,3.3660826 118.295369,2.87834793 L119.132103,2.87834793 L119.174343,3.75769712 L119.195557,3.75769712 C119.576658,3.13272841 120.180788,2.76214018 121.017334,2.76214018 C122.256571,2.76214018 123.189237,3.81101377 123.189237,5.36770964 C123.189237,7.21070088 122.06602,8.12177722 120.858323,8.12177722 C120.180788,8.12177722 119.587735,7.82478098 119.280225,7.31639549 L119.259199,7.31639549 L119.259199,10.1021902 L118.33761,10.1021902 L118.33761,4.5520025 Z M119.259199,5.91852315 C119.259199,6.05594493 119.280225,6.18322904 119.301252,6.29962453 C119.471339,6.94599499 120.032103,7.39092616 120.699687,7.39092616 C121.684731,7.39092616 122.256571,6.58573217 122.256571,5.41013767 C122.256571,4.38285357 121.716458,3.50350438 120.731602,3.50350438 C120.095745,3.50350438 119.503066,3.95894869 119.322841,4.65788486 C119.290926,4.77428035 119.259199,4.9120776 119.259199,5.0393617 L119.259199,5.91852315 Z" id="Stroke-18"></path>
            <path d="M128.792178,5.3994368 C128.792178,7.29536921 127.478411,8.12158949 126.239549,8.12158949 C124.851815,8.12158949 123.781915,7.10481852 123.781915,5.4839174 C123.781915,3.76821026 124.90438,2.76214018 126.324218,2.76214018 C127.796058,2.76214018 128.792178,3.83185232 128.792178,5.3994368 M124.724906,5.45237797 C124.724906,6.57503129 125.371089,7.42227785 126.281414,7.42227785 C127.171277,7.42227785 127.838673,6.5859199 127.838673,5.43116395 C127.838673,4.56289111 127.405006,3.46107635 126.303004,3.46107635 C125.201189,3.46107635 124.724906,4.47803504 124.724906,5.45237797" id="Fill-19" fill="#231F20"></path>
            <path d="M128.792178,5.3994368 C128.792178,7.29536921 127.478411,8.12158949 126.239549,8.12158949 C124.851815,8.12158949 123.781915,7.10481852 123.781915,5.4839174 C123.781915,3.76821026 124.90438,2.76214018 126.324218,2.76214018 C127.796058,2.76214018 128.792178,3.83185232 128.792178,5.3994368 Z M124.724906,5.45237797 C124.724906,6.57503129 125.371089,7.42227785 126.281414,7.42227785 C127.171277,7.42227785 127.838673,6.5859199 127.838673,5.43116395 C127.838673,4.56289111 127.405006,3.46107635 126.303004,3.46107635 C125.201189,3.46107635 124.724906,4.47803504 124.724906,5.45237797 Z" id="Stroke-20"></path>
            <path d="M129.75582,4.47784731 C129.75582,3.87428035 129.745494,3.35519399 129.713767,2.8787234 L130.528911,2.8787234 L130.560451,3.88479349 L130.603817,3.88479349 C130.836045,3.1965582 131.397372,2.76232791 132.022528,2.76232791 C132.128598,2.76232791 132.20219,2.77227785 132.287234,2.79386733 L132.287234,3.67321652 C132.192053,3.65162703 132.096683,3.64130163 131.969775,3.64130163 C131.313079,3.64130163 130.846934,4.1387985 130.71965,4.8379224 C130.698999,4.96501877 130.677409,5.11332916 130.677409,5.27252816 L130.677409,8.00500626 L129.75582,8.00500626 L129.75582,4.47784731" id="Fill-21" fill="#231F20"></path>
            <path d="M129.75582,4.47784731 C129.75582,3.87428035 129.745494,3.35519399 129.713767,2.8787234 L130.528911,2.8787234 L130.560451,3.88479349 L130.603817,3.88479349 C130.836045,3.1965582 131.397372,2.76232791 132.022528,2.76232791 C132.128598,2.76232791 132.20219,2.77227785 132.287234,2.79386733 L132.287234,3.67321652 C132.192053,3.65162703 132.096683,3.64130163 131.969775,3.64130163 C131.313079,3.64130163 130.846934,4.1387985 130.71965,4.8379224 C130.698999,4.96501877 130.677409,5.11332916 130.677409,5.27252816 L130.677409,8.00500626 L129.75582,8.00500626 L129.75582,4.47784731 Z" id="Stroke-22"></path>
            <path d="M134.945745,1.4063204 L134.945745,2.8787234 L136.279975,2.8787234 L136.279975,3.58798498 L134.945745,3.58798498 L134.945745,6.35275344 C134.945745,6.98823529 135.125219,7.34849812 135.644305,7.34849812 C135.887985,7.34849812 136.068398,7.31639549 136.184606,7.28485607 L136.227034,7.98360451 C136.046809,8.0577597 135.760889,8.11107635 135.400626,8.11107635 C134.966583,8.11107635 134.617209,7.97309136 134.394931,7.71871089 C134.130038,7.4436796 134.034481,6.98823529 134.034481,6.38429287 L134.034481,3.58798498 L133.239987,3.58798498 L133.239987,2.8787234 L134.034481,2.8787234 L134.034481,1.65018773 L134.945745,1.4063204" id="Fill-23" fill="#231F20"></path>
            <path d="M134.945745,1.4063204 L134.945745,2.8787234 L136.279975,2.8787234 L136.279975,3.58798498 L134.945745,3.58798498 L134.945745,6.35275344 C134.945745,6.98823529 135.125219,7.34849812 135.644305,7.34849812 C135.887985,7.34849812 136.068398,7.31639549 136.184606,7.28485607 L136.227034,7.98360451 C136.046809,8.0577597 135.760889,8.11107635 135.400626,8.11107635 C134.966583,8.11107635 134.617209,7.97309136 134.394931,7.71871089 C134.130038,7.4436796 134.034481,6.98823529 134.034481,6.38429287 L134.034481,3.58798498 L133.239987,3.58798498 L133.239987,2.8787234 L134.034481,2.8787234 L134.034481,1.65018773 L134.945745,1.4063204 Z" id="Stroke-24"></path>
            <path d="M97.037234,26.2015645 C97.4508135,26.4559449 98.054005,26.6675219 98.6898623,26.6675219 C99.6321026,26.6675219 100.183479,26.1698373 100.183479,25.4493116 C100.183479,24.7822904 99.8018148,24.4008135 98.8383605,24.030413 C97.6729036,23.6170213 96.9531289,23.0134543 96.9531289,22.0071965 C96.9531289,20.8948686 97.8737797,20.0686483 99.2613267,20.0686483 C99.9923655,20.0686483 100.522528,20.2383605 100.840175,20.418398 L100.58617,21.1704631 C100.352628,21.043179 99.8763454,20.8314143 99.2295995,20.8314143 C98.2554443,20.8314143 97.8850438,21.4141427 97.8850438,21.9013141 C97.8850438,22.5685232 98.3190864,22.8972466 99.3039424,23.2783479 C100.511827,23.7443054 101.125907,24.3268461 101.125907,25.3755319 C101.125907,26.4771589 100.310576,27.4302879 98.6262203,27.4302879 C97.937234,27.4302879 97.1857322,27.2290363 96.8044431,26.9744681 L97.037234,26.2015645" id="Fill-25" fill="#231F20"></path>
            <path d="M97.037234,26.2015645 C97.4508135,26.4559449 98.054005,26.6675219 98.6898623,26.6675219 C99.6321026,26.6675219 100.183479,26.1698373 100.183479,25.4493116 C100.183479,24.7822904 99.8018148,24.4008135 98.8383605,24.030413 C97.6729036,23.6170213 96.9531289,23.0134543 96.9531289,22.0071965 C96.9531289,20.8948686 97.8737797,20.0686483 99.2613267,20.0686483 C99.9923655,20.0686483 100.522528,20.2383605 100.840175,20.418398 L100.58617,21.1704631 C100.352628,21.043179 99.8763454,20.8314143 99.2295995,20.8314143 C98.2554443,20.8314143 97.8850438,21.4141427 97.8850438,21.9013141 C97.8850438,22.5685232 98.3190864,22.8972466 99.3039424,23.2783479 C100.511827,23.7443054 101.125907,24.3268461 101.125907,25.3755319 C101.125907,26.4771589 100.310576,27.4302879 98.6262203,27.4302879 C97.937234,27.4302879 97.1857322,27.2290363 96.8044431,26.9744681 L97.037234,26.2015645 Z" id="Stroke-26"></path>
            <path d="M106.845432,24.718836 C106.845432,26.6145807 105.53204,27.4409887 104.292804,27.4409887 C102.905444,27.4409887 101.835169,26.4242178 101.835169,24.8033166 C101.835169,23.0876095 102.958573,22.0813517 104.37766,22.0813517 C105.849499,22.0813517 106.845432,23.1512516 106.845432,24.718836 M102.778348,24.7715895 C102.778348,25.8942428 103.424343,26.7416771 104.335044,26.7416771 C105.224718,26.7416771 105.892303,25.9053191 105.892303,24.7505632 C105.892303,23.8822904 105.45826,22.7802879 104.356446,22.7802879 C103.254819,22.7802879 102.778348,23.7972466 102.778348,24.7715895" id="Fill-27" fill="#231F20"></path>
            <path d="M106.845432,24.718836 C106.845432,26.6145807 105.53204,27.4409887 104.292804,27.4409887 C102.905444,27.4409887 101.835169,26.4242178 101.835169,24.8033166 C101.835169,23.0876095 102.958573,22.0813517 104.37766,22.0813517 C105.849499,22.0813517 106.845432,23.1512516 106.845432,24.718836 Z M102.778348,24.7715895 C102.778348,25.8942428 103.424343,26.7416771 104.335044,26.7416771 C105.224718,26.7416771 105.892303,25.9053191 105.892303,24.7505632 C105.892303,23.8822904 105.45826,22.7802879 104.356446,22.7802879 C103.254819,22.7802879 102.778348,23.7972466 102.778348,24.7715895 Z" id="Stroke-28"></path>
            <polygon id="Fill-29" fill="#231F20" points="107.810013 27.3244055 108.741927 27.3244055 108.741927 19.8041302 107.810013 19.8041302"></polygon>
            <polygon id="Stroke-30" points="107.810013 27.3244055 108.741927 27.3244055 108.741927 19.8041302 107.810013 19.8041302"></polygon>
            <path d="M114.387297,25.9261577 C114.387297,26.4561327 114.398185,26.9219024 114.429912,27.3244055 L113.603692,27.3244055 L113.550751,26.4876721 L113.529161,26.4876721 C113.286233,26.9005006 112.745557,27.4411765 111.834668,27.4411765 C111.029474,27.4411765 110.06602,26.9960576 110.06602,25.1954944 L110.06602,22.1977472 L110.997935,22.1977472 L110.997935,25.0366708 C110.997935,26.0110138 111.294556,26.6675219 112.141615,26.6675219 C112.767146,26.6675219 113.200814,26.2334793 113.370338,25.8202753 C113.423467,25.6822904 113.455382,25.5131414 113.455382,25.3438048 L113.455382,22.1977472 L114.387297,22.1977472 L114.387297,25.9261577" id="Fill-31" fill="#231F20"></path>
            <path d="M114.387297,25.9261577 C114.387297,26.4561327 114.398185,26.9219024 114.429912,27.3244055 L113.603692,27.3244055 L113.550751,26.4876721 L113.529161,26.4876721 C113.286233,26.9005006 112.745557,27.4411765 111.834668,27.4411765 C111.029474,27.4411765 110.06602,26.9960576 110.06602,25.1954944 L110.06602,22.1977472 L110.997935,22.1977472 L110.997935,25.0366708 C110.997935,26.0110138 111.294556,26.6675219 112.141615,26.6675219 C112.767146,26.6675219 113.200814,26.2334793 113.370338,25.8202753 C113.423467,25.6822904 113.455382,25.5131414 113.455382,25.3438048 L113.455382,22.1977472 L114.387297,22.1977472 L114.387297,25.9261577 Z" id="Stroke-32"></path>
            <path d="M116.845307,20.7257196 L116.845307,22.1979349 L118.179537,22.1979349 L118.179537,22.9073842 L116.845307,22.9073842 L116.845307,25.6721527 C116.845307,26.3076345 117.024781,26.6677096 117.54368,26.6677096 C117.787547,26.6677096 117.967772,26.6359825 118.084168,26.6042553 L118.126596,27.3033792 C117.94637,27.3771589 117.660263,27.4304756 117.300188,27.4304756 C116.866145,27.4304756 116.516771,27.2924906 116.294493,27.0379224 C116.029224,26.7628911 115.934043,26.3076345 115.934043,25.7036921 L115.934043,22.9073842 L115.139362,22.9073842 L115.139362,22.1979349 L115.934043,22.1979349 L115.934043,20.969587 L116.845307,20.7257196" id="Fill-33" fill="#231F20"></path>
            <path d="M116.845307,20.7257196 L116.845307,22.1979349 L118.179537,22.1979349 L118.179537,22.9073842 L116.845307,22.9073842 L116.845307,25.6721527 C116.845307,26.3076345 117.024781,26.6677096 117.54368,26.6677096 C117.787547,26.6677096 117.967772,26.6359825 118.084168,26.6042553 L118.126596,27.3033792 C117.94637,27.3771589 117.660263,27.4304756 117.300188,27.4304756 C116.866145,27.4304756 116.516771,27.2924906 116.294493,27.0379224 C116.029224,26.7628911 115.934043,26.3076345 115.934043,25.7036921 L115.934043,22.9073842 L115.139362,22.9073842 L115.139362,22.1979349 L115.934043,22.1979349 L115.934043,20.969587 L116.845307,20.7257196 Z" id="Stroke-34"></path>
            <polygon id="Fill-35" fill="#231F20" points="119.01627 27.3245932 119.948185 27.3245932 119.948185 22.1979349 119.01627 22.1979349"></polygon>
            <polygon id="Stroke-36" points="119.01627 27.3245932 119.948185 27.3245932 119.948185 22.1979349 119.01627 22.1979349"></polygon>
            <path d="M125.921715,24.718836 C125.921715,26.6145807 124.608323,27.4409887 123.369274,27.4409887 C121.981727,27.4409887 120.91164,26.4242178 120.91164,24.8033166 C120.91164,23.0876095 122.034293,22.0813517 123.45413,22.0813517 C124.925782,22.0813517 125.921715,23.1512516 125.921715,24.718836 M121.854819,24.7715895 C121.854819,25.8942428 122.500814,26.7416771 123.411327,26.7416771 C124.301189,26.7416771 124.968586,25.9053191 124.968586,24.7505632 C124.968586,23.8822904 124.534543,22.7802879 123.432916,22.7802879 C122.331101,22.7802879 121.854819,23.7972466 121.854819,24.7715895" id="Fill-37" fill="#231F20"></path>
            <path d="M125.921715,24.718836 C125.921715,26.6145807 124.608323,27.4409887 123.369274,27.4409887 C121.981727,27.4409887 120.91164,26.4242178 120.91164,24.8033166 C120.91164,23.0876095 122.034293,22.0813517 123.45413,22.0813517 C124.925782,22.0813517 125.921715,23.1512516 125.921715,24.718836 Z M121.854819,24.7715895 C121.854819,25.8942428 122.500814,26.7416771 123.411327,26.7416771 C124.301189,26.7416771 124.968586,25.9053191 124.968586,24.7505632 C124.968586,23.8822904 124.534543,22.7802879 123.432916,22.7802879 C122.331101,22.7802879 121.854819,23.7972466 121.854819,24.7715895 Z" id="Stroke-38"></path>
            <path d="M126.886295,23.5854819 C126.886295,23.0556946 126.875782,22.6216521 126.844055,22.1977472 L127.670651,22.1977472 L127.722841,23.0451815 L127.744243,23.0451815 C127.998436,22.55801 128.591489,22.0813517 129.438924,22.0813517 C130.148748,22.0813517 131.250188,22.5052566 131.250188,24.2630163 L131.250188,27.3244055 L130.317522,27.3244055 L130.317522,24.3692741 C130.317522,23.5430538 130.011139,22.8546308 129.13179,22.8546308 C128.517146,22.8546308 128.041051,23.2888611 127.88204,23.8079474 C127.839612,23.9243429 127.81821,24.0835419 127.81821,24.2421777 L127.81821,27.3244055 L126.886295,27.3244055 L126.886295,23.5854819" id="Fill-39" fill="#231F20"></path>
            <path d="M126.886295,23.5854819 C126.886295,23.0556946 126.875782,22.6216521 126.844055,22.1977472 L127.670651,22.1977472 L127.722841,23.0451815 L127.744243,23.0451815 C127.998436,22.55801 128.591489,22.0813517 129.438924,22.0813517 C130.148748,22.0813517 131.250188,22.5052566 131.250188,24.2630163 L131.250188,27.3244055 L130.317522,27.3244055 L130.317522,24.3692741 C130.317522,23.5430538 130.011139,22.8546308 129.13179,22.8546308 C128.517146,22.8546308 128.041051,23.2888611 127.88204,23.8079474 C127.839612,23.9243429 127.81821,24.0835419 127.81821,24.2421777 L127.81821,27.3244055 L126.886295,27.3244055 L126.886295,23.5854819 Z" id="Stroke-40"></path>
            <path d="M132.42597,26.3709011 C132.701377,26.5511264 133.188548,26.7418648 133.654693,26.7418648 C134.332603,26.7418648 134.650063,26.4026283 134.650063,25.9792866 C134.650063,25.5343554 134.385732,25.2908636 133.696746,25.0366708 C132.775156,24.7081352 132.341114,24.1999374 132.341114,23.5852941 C132.341114,22.7592616 133.008323,22.0815394 134.110138,22.0815394 C134.628849,22.0815394 135.084293,22.2294743 135.370776,22.3989987 L135.13761,23.0770964 C134.935795,22.9498123 134.565394,22.7804756 134.088736,22.7804756 C133.53811,22.7804756 133.230601,23.0983104 133.230601,23.4794118 C133.230601,23.9033166 133.53811,24.0936796 134.205507,24.3478723 C135.095181,24.6871089 135.55025,25.1320401 135.55025,25.8944305 C135.55025,26.794806 134.851502,27.4301001 133.633292,27.4301001 C133.071965,27.4301001 132.552879,27.2926783 132.192616,27.0805382 L132.42597,26.3709011" id="Fill-41" fill="#231F20"></path>
            <path d="M132.42597,26.3709011 C132.701377,26.5511264 133.188548,26.7418648 133.654693,26.7418648 C134.332603,26.7418648 134.650063,26.4026283 134.650063,25.9792866 C134.650063,25.5343554 134.385732,25.2908636 133.696746,25.0366708 C132.775156,24.7081352 132.341114,24.1999374 132.341114,23.5852941 C132.341114,22.7592616 133.008323,22.0815394 134.110138,22.0815394 C134.628849,22.0815394 135.084293,22.2294743 135.370776,22.3989987 L135.13761,23.0770964 C134.935795,22.9498123 134.565394,22.7804756 134.088736,22.7804756 C133.53811,22.7804756 133.230601,23.0983104 133.230601,23.4794118 C133.230601,23.9033166 133.53811,24.0936796 134.205507,24.3478723 C135.095181,24.6871089 135.55025,25.1320401 135.55025,25.8944305 C135.55025,26.794806 134.851502,27.4301001 133.633292,27.4301001 C133.071965,27.4301001 132.552879,27.2926783 132.192616,27.0805382 L132.42597,26.3709011 Z" id="Stroke-42"></path>
            <polygon id="Fill-43" fill="#231F20" points="118.827034 21.1764706 120.13761 21.1764706 120.13761 19.8662703 118.827034 19.8662703"></polygon>
            <path d="M101.452941,17.0915519 C101.25826,16.9086984 101.073717,16.7260325 100.806383,16.4556946 C100.211827,16.9759074 99.5446183,17.1972466 98.7859825,17.1972466 C97.4421777,17.1972466 96.6623279,16.35 96.6623279,15.3775344 C96.6623279,14.49199 97.2264706,13.8854193 98.0168335,13.4802879 L98.0168335,13.4517522 C97.6573217,13.028035 97.4421777,12.5556946 97.4421777,12.0936796 C97.4421777,11.3040676 98.0470588,10.4956821 99.1958073,10.4956821 C100.058073,10.4956821 100.725094,11.0344806 100.725094,11.8721527 C100.725094,12.5556946 100.30363,13.0952441 99.2063204,13.6058824 L99.2063204,13.6347935 C99.7911139,14.2700876 100.44781,14.9827284 100.888048,15.4453066 C101.206446,14.9923029 101.422528,14.3665832 101.555257,13.5476846 L102.37622,13.5476846 C102.191865,14.5687735 101.893742,15.3775344 101.381602,15.9450563 C101.750313,16.3115144 102.109637,16.6779725 102.51965,17.0915519 L101.452941,17.0915519 Z M100.365582,15.9741552 C99.9559449,15.5510013 99.1854819,14.7612015 98.4161452,13.9331039 C98.0470588,14.1544431 97.5232791,14.5687735 97.5232791,15.2523154 C97.5232791,15.9934919 98.1084481,16.561577 98.9399249,16.561577 C99.5342929,16.561577 100.037046,16.3115144 100.365582,15.9741552 L100.365582,15.9741552 Z M98.2622028,12.0168961 C98.2622028,12.4790989 98.4880476,12.8354193 98.7859825,13.1817897 C99.4834168,12.8063204 99.9343554,12.4597622 99.9343554,11.910826 C99.9343554,11.5162078 99.6987484,11.0729662 99.1346058,11.0729662 C98.5603254,11.0729662 98.2622028,11.5162078 98.2622028,12.0168961 L98.2622028,12.0168961 Z" id="Fill-44" fill="#231F20"></path>
            <path d="M101.452941,17.0915519 C101.25826,16.9086984 101.073717,16.7260325 100.806383,16.4556946 C100.211827,16.9759074 99.5446183,17.1972466 98.7859825,17.1972466 C97.4421777,17.1972466 96.6623279,16.35 96.6623279,15.3775344 C96.6623279,14.49199 97.2264706,13.8854193 98.0168335,13.4802879 L98.0168335,13.4517522 C97.6573217,13.028035 97.4421777,12.5556946 97.4421777,12.0936796 C97.4421777,11.3040676 98.0470588,10.4956821 99.1958073,10.4956821 C100.058073,10.4956821 100.725094,11.0344806 100.725094,11.8721527 C100.725094,12.5556946 100.30363,13.0952441 99.2063204,13.6058824 L99.2063204,13.6347935 C99.7911139,14.2700876 100.44781,14.9827284 100.888048,15.4453066 C101.206446,14.9923029 101.422528,14.3665832 101.555257,13.5476846 L102.37622,13.5476846 C102.191865,14.5687735 101.893742,15.3775344 101.381602,15.9450563 C101.750313,16.3115144 102.109637,16.6779725 102.51965,17.0915519 L101.452941,17.0915519 Z M100.365582,15.9741552 C99.9559449,15.5510013 99.1854819,14.7612015 98.4161452,13.9331039 C98.0470588,14.1544431 97.5232791,14.5687735 97.5232791,15.2523154 C97.5232791,15.9934919 98.1084481,16.561577 98.9399249,16.561577 C99.5342929,16.561577 100.037046,16.3115144 100.365582,15.9741552 Z M98.2622028,12.0168961 C98.2622028,12.4790989 98.4880476,12.8354193 98.7859825,13.1817897 C99.4834168,12.8063204 99.9343554,12.4597622 99.9343554,11.910826 C99.9343554,11.5162078 99.6987484,11.0729662 99.1346058,11.0729662 C98.5603254,11.0729662 98.2622028,11.5162078 98.2622028,12.0168961 Z" id="Stroke-45"></path>
            <path d="M104.681602,10.6877347 C105.132728,10.601189 105.778723,10.5531289 106.394305,10.5531289 C107.349124,10.5531289 107.96433,10.7166458 108.395181,11.0825407 C108.743992,11.3712766 108.939049,11.8147059 108.939049,12.3152065 C108.939049,13.1722153 108.363642,13.7406758 107.635419,13.9715895 L107.635419,14.0005006 C108.1699,14.1743429 108.486796,14.6363579 108.651627,15.3101377 C108.876909,16.2153942 109.041364,16.8413016 109.184606,17.0913642 L108.261514,17.0913642 C108.14831,16.9088861 107.994931,16.3498123 107.800063,15.5414268 C107.594305,14.6455569 107.225782,14.3085732 106.415144,14.2798498 L105.574093,14.2798498 L105.574093,17.0913642 L104.681602,17.0913642 L104.681602,10.6877347 Z M105.574093,13.644368 L106.486859,13.644368 C107.440551,13.644368 108.04637,13.1528786 108.04637,12.4118899 C108.04637,11.5738423 107.399437,11.2077597 106.45607,11.198373 C106.025219,11.198373 105.717522,11.2368586 105.574093,11.2751564 L105.574093,13.644368 L105.574093,13.644368 Z" id="Fill-46" fill="#231F20"></path>
            <path d="M104.681602,10.6877347 C105.132728,10.601189 105.778723,10.5531289 106.394305,10.5531289 C107.349124,10.5531289 107.96433,10.7166458 108.395181,11.0825407 C108.743992,11.3712766 108.939049,11.8147059 108.939049,12.3152065 C108.939049,13.1722153 108.363642,13.7406758 107.635419,13.9715895 L107.635419,14.0005006 C108.1699,14.1743429 108.486796,14.6363579 108.651627,15.3101377 C108.876909,16.2153942 109.041364,16.8413016 109.184606,17.0913642 L108.261514,17.0913642 C108.14831,16.9088861 107.994931,16.3498123 107.800063,15.5414268 C107.594305,14.6455569 107.225782,14.3085732 106.415144,14.2798498 L105.574093,14.2798498 L105.574093,17.0913642 L104.681602,17.0913642 L104.681602,10.6877347 Z M105.574093,13.644368 L106.486859,13.644368 C107.440551,13.644368 108.04637,13.1528786 108.04637,12.4118899 C108.04637,11.5738423 107.399437,11.2077597 106.45607,11.198373 C106.025219,11.198373 105.717522,11.2368586 105.574093,11.2751564 L105.574093,13.644368 Z" id="Stroke-47"></path>
            <path d="M110.302003,14.9153317 C110.32209,16.0616395 111.101752,16.5328536 112.004005,16.5328536 C112.650751,16.5328536 113.040488,16.4271589 113.378974,16.2923655 L113.532916,16.8987484 C113.214706,17.0337297 112.670839,17.1872966 111.881602,17.1872966 C110.352503,17.1872966 109.439737,16.2443054 109.439737,14.8387359 C109.439737,13.4322278 110.32209,12.3249687 111.768586,12.3249687 C113.389487,12.3249687 113.819587,13.6633292 113.819587,14.5209011 C113.819587,14.6938048 113.799687,14.828786 113.788798,14.9153317 L110.302003,14.9153317 Z M112.948123,14.308761 C112.958636,13.7692115 112.712328,12.9313517 111.69612,12.9313517 C110.783166,12.9313517 110.383292,13.7211514 110.311577,14.308761 L112.948123,14.308761 L112.948123,14.308761 Z" id="Fill-48" fill="#231F20"></path>
            <path d="M110.302003,14.9153317 C110.32209,16.0616395 111.101752,16.5328536 112.004005,16.5328536 C112.650751,16.5328536 113.040488,16.4271589 113.378974,16.2923655 L113.532916,16.8987484 C113.214706,17.0337297 112.670839,17.1872966 111.881602,17.1872966 C110.352503,17.1872966 109.439737,16.2443054 109.439737,14.8387359 C109.439737,13.4322278 110.32209,12.3249687 111.768586,12.3249687 C113.389487,12.3249687 113.819587,13.6633292 113.819587,14.5209011 C113.819587,14.6938048 113.799687,14.828786 113.788798,14.9153317 L110.302003,14.9153317 Z M112.948123,14.308761 C112.958636,13.7692115 112.712328,12.9313517 111.69612,12.9313517 C110.783166,12.9313517 110.383292,13.7211514 110.311577,14.308761 L112.948123,14.308761 Z" id="Stroke-49"></path>
            <polygon id="Fill-50" fill="#231F20" points="114.526971 17.0915519 115.429224 17.0915519 115.429224 10.2546308 114.526971 10.2546308"></polygon>
            <polygon id="Stroke-51" points="114.526971 17.0915519 115.429224 17.0915519 115.429224 10.2546308 114.526971 10.2546308"></polygon>
            <path d="M121.569274,14.7225282 C121.569274,16.4463079 120.297184,17.1968711 119.096809,17.1968711 C117.753191,17.1968711 116.717459,16.2730288 116.717459,14.8000626 C116.717459,13.2399875 117.804819,12.3249687 119.179036,12.3249687 C120.604881,12.3249687 121.569274,13.2978098 121.569274,14.7225282 M117.630038,14.7705882 C117.630038,15.7913016 118.255757,16.5613892 119.13811,16.5613892 C119.999812,16.5613892 120.645995,15.8010638 120.645995,14.7518148 C120.645995,13.9623905 120.225657,12.960826 119.158949,12.960826 C118.091489,12.960826 117.630038,13.8850438 117.630038,14.7705882" id="Fill-52" fill="#231F20"></path>
            <path d="M121.569274,14.7225282 C121.569274,16.4463079 120.297184,17.1968711 119.096809,17.1968711 C117.753191,17.1968711 116.717459,16.2730288 116.717459,14.8000626 C116.717459,13.2399875 117.804819,12.3249687 119.179036,12.3249687 C120.604881,12.3249687 121.569274,13.2978098 121.569274,14.7225282 Z M117.630038,14.7705882 C117.630038,15.7913016 118.255757,16.5613892 119.13811,16.5613892 C119.999812,16.5613892 120.645995,15.8010638 120.645995,14.7518148 C120.645995,13.9623905 120.225657,12.960826 119.158949,12.960826 C118.091489,12.960826 117.630038,13.8850438 117.630038,14.7705882 Z" id="Stroke-53"></path>
            <path d="M126.375094,16.9182728 C126.139299,17.0337297 125.616458,17.1876721 124.949249,17.1876721 C123.451877,17.1876721 122.477159,16.2345432 122.477159,14.8094493 C122.477159,13.3745932 123.523592,12.3349186 125.144493,12.3349186 C125.677472,12.3349186 126.149437,12.4597622 126.395369,12.575219 L126.190738,13.2302253 C125.974468,13.1147685 125.63617,13.0088861 125.144493,13.0088861 C124.005131,13.0088861 123.389737,13.7983104 123.389737,14.7705882 C123.389737,15.8493116 124.128285,16.5137046 125.113517,16.5137046 C125.626033,16.5137046 125.965269,16.3884856 126.221151,16.282791 L126.375094,16.9182728" id="Fill-54" fill="#231F20"></path>
            <path d="M126.375094,16.9182728 C126.139299,17.0337297 125.616458,17.1876721 124.949249,17.1876721 C123.451877,17.1876721 122.477159,16.2345432 122.477159,14.8094493 C122.477159,13.3745932 123.523592,12.3349186 125.144493,12.3349186 C125.677472,12.3349186 126.149437,12.4597622 126.395369,12.575219 L126.190738,13.2302253 C125.974468,13.1147685 125.63617,13.0088861 125.144493,13.0088861 C124.005131,13.0088861 123.389737,13.7983104 123.389737,14.7705882 C123.389737,15.8493116 124.128285,16.5137046 125.113517,16.5137046 C125.626033,16.5137046 125.965269,16.3884856 126.221151,16.282791 L126.375094,16.9182728 Z" id="Stroke-55"></path>
            <path d="M130.308698,17.0915519 L130.236984,16.5039424 L130.206571,16.5039424 C129.929287,16.8704005 129.39612,17.1970588 128.687985,17.1970588 C127.682666,17.1970588 127.170338,16.5326658 127.170338,15.8585106 C127.170338,14.7322904 128.236671,14.1159574 130.154944,14.1255319 L130.154944,14.0295995 C130.154944,13.644368 130.041927,12.9510638 129.027034,12.9510638 C128.565582,12.9510638 128.082916,13.0858573 127.734293,13.2978098 L127.528911,12.7392991 C127.939675,12.4886733 128.534043,12.3249687 129.15995,12.3249687 C130.678536,12.3249687 131.047434,13.2978098 131.047434,14.2317897 L131.047434,15.9739675 C131.047434,16.3790989 131.068273,16.7739049 131.129474,17.0915519 L130.308698,17.0915519 Z M130.175782,14.7131414 C129.190363,14.6939925 128.072403,14.8578849 128.072403,15.762766 C128.072403,16.3115144 128.462516,16.5711514 128.92378,16.5711514 C129.570901,16.5711514 129.980726,16.1866708 130.124155,15.7914894 C130.154944,15.7053191 130.175782,15.6084481 130.175782,15.5220901 L130.175782,14.7131414 L130.175782,14.7131414 Z" id="Fill-56" fill="#231F20"></path>
            <path d="M130.308698,17.0915519 L130.236984,16.5039424 L130.206571,16.5039424 C129.929287,16.8704005 129.39612,17.1970588 128.687985,17.1970588 C127.682666,17.1970588 127.170338,16.5326658 127.170338,15.8585106 C127.170338,14.7322904 128.236671,14.1159574 130.154944,14.1255319 L130.154944,14.0295995 C130.154944,13.644368 130.041927,12.9510638 129.027034,12.9510638 C128.565582,12.9510638 128.082916,13.0858573 127.734293,13.2978098 L127.528911,12.7392991 C127.939675,12.4886733 128.534043,12.3249687 129.15995,12.3249687 C130.678536,12.3249687 131.047434,13.2978098 131.047434,14.2317897 L131.047434,15.9739675 C131.047434,16.3790989 131.068273,16.7739049 131.129474,17.0915519 L130.308698,17.0915519 Z M130.175782,14.7131414 C129.190363,14.6939925 128.072403,14.8578849 128.072403,15.762766 C128.072403,16.3115144 128.462516,16.5711514 128.92378,16.5711514 C129.570901,16.5711514 129.980726,16.1866708 130.124155,15.7914894 C130.154944,15.7053191 130.175782,15.6084481 130.175782,15.5220901 L130.175782,14.7131414 Z" id="Stroke-57"></path>
            <path d="M133.679287,11.0924906 L133.679287,12.4308511 L134.972403,12.4308511 L134.972403,13.0760951 L133.679287,13.0760951 L133.679287,15.5894869 C133.679287,16.1671464 133.854068,16.494368 134.356821,16.494368 C134.592991,16.494368 134.766646,16.4652691 134.879474,16.4365457 L134.920776,17.0720275 C134.746558,17.1392365 134.46965,17.1874844 134.120651,17.1874844 C133.700313,17.1874844 133.362015,17.0624531 133.145932,16.8317272 C132.889862,16.5807259 132.797497,16.1671464 132.797497,15.618398 L132.797497,13.0760951 L132.027785,13.0760951 L132.027785,12.4308511 L132.797497,12.4308511 L132.797497,11.3138298 L133.679287,11.0924906" id="Fill-58" fill="#231F20"></path>
            <path d="M133.679287,11.0924906 L133.679287,12.4308511 L134.972403,12.4308511 L134.972403,13.0760951 L133.679287,13.0760951 L133.679287,15.5894869 C133.679287,16.1671464 133.854068,16.494368 134.356821,16.494368 C134.592991,16.494368 134.766646,16.4652691 134.879474,16.4365457 L134.920776,17.0720275 C134.746558,17.1392365 134.46965,17.1874844 134.120651,17.1874844 C133.700313,17.1874844 133.362015,17.0624531 133.145932,16.8317272 C132.889862,16.5807259 132.797497,16.1671464 132.797497,15.618398 L132.797497,13.0760951 L132.027785,13.0760951 L132.027785,12.4308511 L132.797497,12.4308511 L132.797497,11.3138298 L133.679287,11.0924906 Z" id="Stroke-59"></path>
            <polygon id="Fill-60" fill="#231F20" points="136.11627 17.0913642 137.018523 17.0913642 137.018523 12.4308511 136.11627 12.4308511"></polygon>
            <polygon id="Stroke-61" points="136.11627 17.0913642 137.018523 17.0913642 137.018523 12.4308511 136.11627 12.4308511"></polygon>
            <path d="M143.085544,14.6697747 C143.085544,16.3933667 141.813642,17.1441176 140.612891,17.1441176 C139.269462,17.1441176 138.23373,16.2202753 138.23373,14.7471214 C138.23373,13.1870463 139.321089,12.2722153 140.695494,12.2722153 C142.121151,12.2722153 143.085544,13.2448686 143.085544,14.6697747 M139.146308,14.7178348 C139.146308,15.7385482 139.772215,16.5086358 140.654568,16.5086358 C141.51627,16.5086358 142.162265,15.7479349 142.162265,14.6988736 C142.162265,13.9094493 141.742115,12.9078849 140.675219,12.9078849 C139.607947,12.9078849 139.146308,13.8322904 139.146308,14.7178348" id="Fill-62" fill="#231F20"></path>
            <path d="M143.085544,14.6697747 C143.085544,16.3933667 141.813642,17.1441176 140.612891,17.1441176 C139.269462,17.1441176 138.23373,16.2202753 138.23373,14.7471214 C138.23373,13.1870463 139.321089,12.2722153 140.695494,12.2722153 C142.121151,12.2722153 143.085544,13.2448686 143.085544,14.6697747 Z M139.146308,14.7178348 C139.146308,15.7385482 139.772215,16.5086358 140.654568,16.5086358 C141.51627,16.5086358 142.162265,15.7479349 142.162265,14.6988736 C142.162265,13.9094493 141.742115,12.9078849 140.675219,12.9078849 C139.607947,12.9078849 139.146308,13.8322904 139.146308,14.7178348 Z" id="Stroke-63"></path>
            <path d="M143.86577,13.692428 C143.86577,13.2107009 143.855257,12.8158949 143.824656,12.4308511 L144.624406,12.4308511 L144.676408,13.2011264 L144.695932,13.2011264 C144.942616,12.7582603 145.517272,12.3251564 146.33786,12.3251564 C147.024969,12.3251564 148.091677,12.7100125 148.091677,14.3085732 L148.091677,17.0913642 L147.189424,17.0913642 L147.189424,14.4050688 C147.189424,13.6539424 146.891489,13.028035 146.039925,13.028035 C145.445369,13.028035 144.983917,13.4228411 144.829975,13.8949937 C144.788861,14.0006884 144.767835,14.1448686 144.767835,14.289612 L144.767835,17.0913642 L143.86577,17.0913642 L143.86577,13.692428" id="Fill-64" fill="#231F20"></path>
            <path d="M143.86577,13.692428 C143.86577,13.2107009 143.855257,12.8158949 143.824656,12.4308511 L144.624406,12.4308511 L144.676408,13.2011264 L144.695932,13.2011264 C144.942616,12.7582603 145.517272,12.3251564 146.33786,12.3251564 C147.024969,12.3251564 148.091677,12.7100125 148.091677,14.3085732 L148.091677,17.0913642 L147.189424,17.0913642 L147.189424,14.4050688 C147.189424,13.6539424 146.891489,13.028035 146.039925,13.028035 C145.445369,13.028035 144.983917,13.4228411 144.829975,13.8949937 C144.788861,14.0006884 144.767835,14.1448686 144.767835,14.289612 L144.767835,17.0913642 L143.86577,17.0913642 L143.86577,13.692428 Z" id="Stroke-65"></path>
            <polygon id="Fill-66" fill="#231F20" points="135.912203 11.2081352 137.222403 11.2081352 137.222403 9.89774718 135.912203 9.89774718"></polygon>
            <path d="M1.13279099,25.6569462 L0.637171464,27.1584481 L0,27.1584481 L1.6218398,22.3847309 L2.36545682,22.3847309 L3.9942428,27.1584481 L3.33585732,27.1584481 L2.8261577,25.6569462 L1.13279099,25.6569462 Z M2.69793492,25.1755945 L2.23047559,23.8017522 C2.12459324,23.4901126 2.0534418,23.2066333 1.98266583,22.9302879 L1.96858573,22.9302879 C1.8979975,23.2137672 1.81989987,23.5038173 1.72828536,23.7946183 L1.26082603,25.1755945 L2.69793492,25.1755945 L2.69793492,25.1755945 Z" id="Fill-67" fill="#231F20"></path>
            <path d="M6.24086358,27.1584481 L6.24086358,24.205194 L5.75951189,24.205194 L5.75951189,23.7302253 L6.24086358,23.7302253 L6.24086358,23.5682103 C6.24086358,23.0862954 6.34749687,22.647184 6.63773467,22.3708385 C6.8712766,22.1444305 7.18272841,22.0522528 7.47334168,22.0522528 C7.69299124,22.0522528 7.88429287,22.1020025 8.00463079,22.151189 L7.91902378,22.6331039 C7.82740926,22.5903004 7.69956195,22.5550063 7.52290363,22.5550063 C6.99161452,22.5550063 6.85700876,23.0224656 6.85700876,23.546433 L6.85700876,23.7302253 L7.68548185,23.7302253 L7.68548185,24.205194 L6.85700876,24.205194 L6.85700876,27.1584481 L6.24086358,27.1584481" id="Fill-68" fill="#231F20"></path>
            <path d="M11.1138924,26.2235294 C11.1138924,26.5777847 11.1214018,26.8890488 11.1429912,27.1586358 L10.5899249,27.1586358 L10.5550063,26.598811 L10.5405507,26.598811 C10.3777847,26.874781 10.016771,27.2361702 9.40738423,27.2361702 C8.86933667,27.2361702 8.22465582,26.9389862 8.22465582,25.7348561 L8.22465582,23.730413 L8.84774718,23.730413 L8.84774718,25.6285982 C8.84774718,26.280413 9.04618273,26.7195244 9.61276596,26.7195244 C10.0310388,26.7195244 10.3210889,26.4290989 10.4346683,26.1529412 C10.4699625,26.0607635 10.490801,25.9475594 10.490801,25.8343554 L10.490801,23.730413 L11.1138924,23.730413 L11.1138924,26.2235294" id="Fill-69" fill="#231F20"></path>
            <path d="M12.1501877,24.6583855 C12.1501877,24.3045056 12.1426783,24.0138924 12.1218398,23.730413 L12.6741552,23.730413 L12.7090738,24.2973717 L12.7235294,24.2973717 C12.8938048,23.9716521 13.2903004,23.6528786 13.8566959,23.6528786 C14.3309136,23.6528786 15.0677722,23.9359825 15.0677722,25.111577 L15.0677722,27.1584481 L14.4444931,27.1584481 L14.4444931,25.1823529 C14.4444931,24.6300375 14.2394869,24.1697121 13.6513141,24.1697121 C13.240363,24.1697121 12.9217772,24.4605131 12.8157071,24.8072591 C12.7873592,24.8847935 12.7732791,24.9910513 12.7732791,25.0974969 L12.7732791,27.1584481 L12.1501877,27.1584481 L12.1501877,24.6583855" id="Fill-70" fill="#231F20"></path>
            <path d="M16.4286608,25.5574468 C16.4427409,26.4007509 16.9807885,26.7474969 17.6044431,26.7474969 C18.0501252,26.7474969 18.3195244,26.6693992 18.5536295,26.5704631 L18.6593242,27.0168961 C18.4396746,27.11602 18.064393,27.2288486 17.518836,27.2288486 C16.4635795,27.2288486 15.8339174,26.5353567 15.8339174,25.5011264 C15.8339174,24.4670839 16.4427409,23.6530663 17.4414894,23.6530663 C18.560388,23.6530663 18.857572,24.6366083 18.857572,25.2673967 C18.857572,25.3950563 18.8436796,25.4941802 18.8361702,25.5574468 L16.4286608,25.5574468 Z M18.2556946,25.111577 C18.2624531,24.7148936 18.0929287,24.0985607 17.3913642,24.0985607 C16.7613267,24.0985607 16.485169,24.6801627 16.435607,25.111577 L18.2556946,25.111577 L18.2556946,25.111577 Z" id="Fill-71" fill="#231F20"></path>
            <path d="M19.6308511,24.7999374 C19.6308511,24.3963079 19.6233417,24.049562 19.6025031,23.7306008 L20.1473091,23.7306008 L20.1688986,24.4030663 L20.1972466,24.4030663 C20.3528786,23.9434919 20.7285357,23.6530663 21.1460576,23.6530663 C21.2166458,23.6530663 21.2665832,23.6598248 21.3232791,23.6739049 L21.3232791,24.2617021 C21.2592616,24.2478098 21.195995,24.2410513 21.1105757,24.2410513 C20.6714643,24.2410513 20.3602003,24.5733417 20.2753442,25.040801 C20.2610763,25.1262203 20.246433,25.2249687 20.246433,25.3310388 L20.246433,27.1580726 L19.6308511,27.1580726 L19.6308511,24.7999374" id="Fill-72" fill="#231F20"></path>
            <path d="M23.8102003,27.1586358 L23.7602628,26.7264706 L23.739612,26.7264706 C23.5483104,26.9953066 23.1797872,27.2365457 22.6907384,27.2365457 C21.9970588,27.2365457 21.6429912,26.7473091 21.6429912,26.2520651 C21.6429912,25.423592 22.3798498,24.9702128 23.7039424,24.9771589 L23.7039424,24.9065707 C23.7039424,24.6227159 23.6256571,24.1128285 22.9244681,24.1128285 C22.6058824,24.1128285 22.2734043,24.2117647 22.0323529,24.3683354 L21.890801,23.9571965 C22.1742804,23.7734043 22.5850438,23.6530663 23.0170213,23.6530663 C24.0647685,23.6530663 24.3198999,24.3683354 24.3198999,25.0552566 L24.3198999,26.3367334 C24.3198999,26.6342929 24.3341677,26.9247184 24.3765957,27.1586358 L23.8102003,27.1586358 Z M23.7178348,25.4093242 C23.0386108,25.3952441 22.2658949,25.5152065 22.2658949,26.1809136 C22.2658949,26.5845432 22.5352941,26.7758448 22.8536921,26.7758448 C23.3005006,26.7758448 23.5836045,26.4931164 23.6827284,26.2021277 C23.7039424,26.1386733 23.7178348,26.0680851 23.7178348,26.0042553 L23.7178348,25.4093242 L23.7178348,25.4093242 Z" id="Fill-73" fill="#231F20"></path>
            <polygon id="Fill-74" fill="#231F20" points="25.3274718 27.1584481 25.9505632 27.1584481 25.9505632 22.1303504 25.3274718 22.1303504"></polygon>
            <polygon id="Fill-75" fill="#231F20" points="28.5005632 27.1586358 29.1236546 27.1586358 29.1236546 23.7306008 28.5005632 23.7306008"></polygon>
            <path d="M30.1586358,24.6583855 C30.1586358,24.3045056 30.1511264,24.0138924 30.1302879,23.730413 L30.6826033,23.730413 L30.7177096,24.2973717 L30.7319775,24.2973717 C30.9022528,23.9716521 31.2985607,23.6528786 31.8651439,23.6528786 C32.3393617,23.6528786 33.0762203,23.9359825 33.0762203,25.111577 L33.0762203,27.1584481 L32.4529412,27.1584481 L32.4529412,25.1823529 C32.4529412,24.6300375 32.2477472,24.1697121 31.6597622,24.1697121 C31.248811,24.1697121 30.9302253,24.4605131 30.8241552,24.8072591 C30.7958073,24.8847935 30.7815394,24.9910513 30.7815394,25.0974969 L30.7815394,27.1584481 L30.1586358,27.1584481 L30.1586358,24.6583855" id="Fill-76" fill="#231F20"></path>
            <path d="M37.0501877,22.1305382 L37.0501877,26.2734668 C37.0501877,26.5779725 37.0575094,26.9247184 37.0783479,27.1584481 L36.5185232,27.1584481 L36.4907384,26.5637046 L36.4760951,26.5637046 C36.285169,26.9459324 35.8674593,27.2367334 35.30801,27.2367334 C34.4795369,27.2367334 33.8425532,26.535169 33.8425532,25.4941802 C33.8350438,24.3542553 34.5433667,23.6528786 35.3785982,23.6528786 C35.9031289,23.6528786 36.2566333,23.9008761 36.4130163,24.1770338 L36.4270964,24.1770338 L36.4270964,22.1305382 L37.0501877,22.1305382 Z M36.4270964,25.1258448 C36.4270964,25.0477472 36.419587,24.9418648 36.3987484,24.8639549 C36.3065707,24.4670839 35.9663955,24.1411765 35.4989362,24.1411765 C34.8544431,24.1411765 34.4720275,24.7083229 34.4720275,25.4658323 C34.4720275,26.1596996 34.8122028,26.733229 35.4852315,26.733229 C35.9031289,26.733229 36.285169,26.4572591 36.3987484,25.9901752 C36.419587,25.9049437 36.4270964,25.8202753 36.4270964,25.720776 L36.4270964,25.1258448 L36.4270964,25.1258448 Z" id="Fill-77" fill="#231F20"></path>
            <path d="M40.9539424,26.2235294 C40.9539424,26.5777847 40.9614518,26.8890488 40.9830413,27.1586358 L40.429975,27.1586358 L40.3948686,26.598811 L40.3806008,26.598811 C40.2178348,26.874781 39.856821,27.2361702 39.2474343,27.2361702 C38.7093867,27.2361702 38.0647059,26.9389862 38.0647059,25.7348561 L38.0647059,23.730413 L38.6877972,23.730413 L38.6877972,25.6285982 C38.6877972,26.280413 38.8862328,26.7195244 39.452816,26.7195244 C39.8709011,26.7195244 40.1613267,26.4290989 40.2745307,26.1529412 C40.3100125,26.0607635 40.3310388,25.9475594 40.3310388,25.8343554 L40.3310388,23.730413 L40.9539424,23.730413 L40.9539424,26.2235294" id="Fill-78" fill="#231F20"></path>
            <path d="M41.9040676,26.5210889 C42.0886108,26.641239 42.4145181,26.7690864 42.7255945,26.7690864 C43.1789737,26.7690864 43.3916771,26.5421151 43.3916771,26.2593867 C43.3916771,25.9616395 43.2144556,25.7986859 42.7537547,25.6289737 C42.1376095,25.4091364 41.8473717,25.0691489 41.8473717,24.6583855 C41.8473717,24.1062578 42.2941802,23.6528786 43.0301001,23.6528786 C43.3777847,23.6528786 43.6819149,23.7518148 43.8732165,23.8652065 L43.717209,24.318398 C43.5829787,24.2337297 43.335169,24.1203379 43.0162078,24.1203379 C42.6480601,24.1203379 42.4428661,24.3326658 42.4428661,24.5877972 C42.4428661,24.8707134 42.6480601,24.9985607 43.0941176,25.1680851 C43.6886733,25.3952441 43.9935544,25.6920526 43.9935544,26.2021277 C43.9935544,26.8041927 43.5260951,27.2290363 42.7117021,27.2290363 C42.3364205,27.2290363 41.9894869,27.1368586 41.7482478,26.9954944 L41.9040676,26.5210889" id="Fill-79" fill="#231F20"></path>
            <path d="M45.5453692,22.7464956 L45.5453692,23.730413 L46.4374844,23.730413 L46.4374844,24.205194 L45.5453692,24.205194 L45.5453692,26.0538173 C45.5453692,26.4786608 45.6660826,26.7195244 46.0128285,26.7195244 C46.1755945,26.7195244 46.2961202,26.6977472 46.3744055,26.6767209 L46.4025657,27.1441802 C46.2822278,27.1939299 46.0909262,27.229224 45.8500626,27.229224 C45.5594493,27.229224 45.3257196,27.1368586 45.1770338,26.9669587 C45.0005632,26.7833542 44.9367334,26.4786608 44.9367334,26.0746558 L44.9367334,24.205194 L44.4054443,24.205194 L44.4054443,23.730413 L44.9367334,23.730413 L44.9367334,22.9092616 L45.5453692,22.7464956" id="Fill-80" fill="#231F20"></path>
            <g id="Group-84" transform="translate(46.933667, 23.466834)">
                <mask id="mask-2" fill="white">
                    <use xlink:href="#path-1"></use>
                </mask>
                <g id="Clip-82"></g>
                <path d="M0.206320401,1.33310388 C0.206320401,0.929474343 0.198811014,0.582728411 0.177972466,0.263767209 L0.722966208,0.263767209 L0.74436796,0.936232791 L0.77290363,0.936232791 C0.928347935,0.476658323 1.30419274,0.186232791 1.72152691,0.186232791 C1.79230288,0.186232791 1.8422403,0.192991239 1.89874844,0.207071339 L1.89874844,0.794868586 C1.83473091,0.78097622 1.77165207,0.774217772 1.68623279,0.774217772 C1.2471214,0.774217772 0.935669587,1.10650814 0.851001252,1.57396746 C0.836733417,1.65938673 0.821902378,1.75813517 0.821902378,1.86420526 L0.821902378,3.69123905 L0.206320401,3.69123905 L0.206320401,1.33310388" id="Fill-81" fill="#231F20" mask="url(#mask-2)"></path>
                <path d="M2.92640801,0.263579474 L3.67715895,2.28923655 C3.75469337,2.51564456 3.84048811,2.78523154 3.89680851,2.9902378 L3.91107635,2.9902378 C3.97415519,2.78523154 4.04549437,2.52277847 4.13072591,2.27553191 L4.81013767,0.263579474 L5.46871089,0.263579474 L4.53379224,2.70713392 C4.0879224,3.88291615 3.78360451,4.48479349 3.35876095,4.85312891 C3.05387985,5.12196496 2.74918648,5.22841051 2.59392991,5.25675845 L2.43811014,4.73279099 C2.59392991,4.68285357 2.79893617,4.5839174 2.98291615,4.42809762 C3.15337922,4.2936796 3.3655194,4.05262829 3.50669587,3.73385482 C3.53523154,3.67002503 3.55663329,3.62102628 3.55663329,3.58498123 C3.55663329,3.54987484 3.54274093,3.50031289 3.51420526,3.42221527 L2.24699625,0.263579474 L2.92640801,0.263579474" id="Fill-83" fill="#231F20" mask="url(#mask-2)"></path>
            </g>
            <path d="M54.4439925,27.1584481 C54.4584481,26.9245307 54.4723404,26.577597 54.4723404,26.2734668 L54.4723404,22.1303504 L55.0886733,22.1303504 L55.0886733,24.2832916 L55.1027534,24.2832916 C55.3222153,23.9006884 55.7181477,23.6530663 56.2714018,23.6530663 C57.1203379,23.6530663 57.7225907,24.3606383 57.71602,25.4020025 C57.71602,26.6271589 56.9438673,27.2367334 56.1790363,27.2367334 C55.6834168,27.2367334 55.2867334,27.0450563 55.0314143,26.5918648 L55.010388,26.5918648 L54.9822278,27.1584481 L54.4439925,27.1584481 Z M55.0886733,25.784418 C55.0886733,25.8625156 55.1027534,25.9402378 55.1170213,26.010826 C55.236796,26.443179 55.598373,26.7407384 56.0517522,26.7407384 C56.7030038,26.7407384 57.0921777,26.2094493 57.0921777,25.423592 C57.0921777,24.7366708 56.7388611,24.1486859 56.0725907,24.1486859 C55.6477472,24.1486859 55.2508761,24.4387359 55.1237797,24.9138924 C55.1095119,24.9844806 55.0886733,25.0691489 55.0886733,25.1682728 L55.0886733,25.784418 L55.0886733,25.784418 Z" id="Fill-85" fill="#231F20"></path>
            <path d="M58.8505006,25.5574468 C58.864393,26.4007509 59.4026283,26.7474969 60.0255319,26.7474969 C60.471965,26.7474969 60.7413642,26.6693992 60.9752816,26.5704631 L61.081164,27.0168961 C60.8615144,27.11602 60.4862328,27.2288486 59.9406758,27.2288486 C58.8854193,27.2288486 58.2557572,26.5353567 58.2557572,25.5011264 C58.2557572,24.4670839 58.864393,23.6530663 59.8633292,23.6530663 C60.9822278,23.6530663 61.2794118,24.6366083 61.2794118,25.2673967 C61.2794118,25.3950563 61.2653317,25.4941802 61.2578223,25.5574468 L58.8505006,25.5574468 Z M60.6775344,25.111577 C60.6842929,24.7148936 60.5145807,24.0985607 59.813204,24.0985607 C59.1831665,24.0985607 58.9070088,24.6801627 58.8574468,25.111577 L60.6775344,25.111577 L60.6775344,25.111577 Z" id="Fill-86" fill="#231F20"></path>
            <path d="M62.0526909,24.6583855 C62.0526909,24.3045056 62.0451815,24.0138924 62.0241552,23.730413 L62.5766583,23.730413 L62.611577,24.2973717 L62.6258448,24.2973717 C62.7963079,23.9716521 63.1926158,23.6528786 63.759199,23.6528786 C64.2334168,23.6528786 64.9702753,23.9359825 64.9702753,25.111577 L64.9702753,27.1584481 L64.3469962,27.1584481 L64.3469962,25.1823529 C64.3469962,24.6300375 64.14199,24.1697121 63.5538173,24.1697121 C63.1428661,24.1697121 62.8242804,24.4605131 62.7182103,24.8072591 C62.6896746,24.8847935 62.6757822,24.9910513 62.6757822,25.0974969 L62.6757822,27.1584481 L62.0526909,27.1584481 L62.0526909,24.6583855" id="Fill-87" fill="#231F20"></path>
            <path d="M66.3317272,25.5574468 C66.3456195,26.4007509 66.8838548,26.7474969 67.5075094,26.7474969 C67.9531915,26.7474969 68.2225907,26.6693992 68.4565081,26.5704631 L68.5623905,27.0168961 C68.3427409,27.11602 67.9674593,27.2288486 67.4219024,27.2288486 C66.3666458,27.2288486 65.7369837,26.5353567 65.7369837,25.5011264 C65.7369837,24.4670839 66.3456195,23.6530663 67.3445557,23.6530663 C68.4634543,23.6530663 68.7606383,24.6366083 68.7606383,25.2673967 C68.7606383,25.3950563 68.7465582,25.4941802 68.7390488,25.5574468 L66.3317272,25.5574468 Z M68.158761,25.111577 C68.1655194,24.7148936 67.9958073,24.0985607 67.2944305,24.0985607 C66.664393,24.0985607 66.3882353,24.6801627 66.3386733,25.111577 L68.158761,25.111577 L68.158761,25.111577 Z" id="Fill-88" fill="#231F20"></path>
            <path d="M69.597184,27.1584481 L69.597184,24.205194 L69.1156446,24.205194 L69.1156446,23.7302253 L69.597184,23.7302253 L69.597184,23.5682103 C69.597184,23.0862954 69.7038173,22.647184 69.9940551,22.3708385 C70.227597,22.1444305 70.5390488,22.0522528 70.8296621,22.0522528 C71.0493116,22.0522528 71.2406133,22.1020025 71.3609512,22.151189 L71.2753442,22.6331039 C71.1837297,22.5903004 71.0558824,22.5550063 70.879224,22.5550063 C70.3479349,22.5550063 70.2133292,23.0224656 70.2133292,23.546433 L70.2133292,23.7302253 L71.0418023,23.7302253 L71.0418023,24.205194 L70.2133292,24.205194 L70.2133292,27.1584481 L69.597184,27.1584481" id="Fill-89" fill="#231F20"></path>
            <polygon id="Fill-90" fill="#231F20" points="71.828786 27.1586358 72.4518773 27.1586358 72.4518773 23.7306008 71.828786 23.7306008"></polygon>
            <g id="Group-94" transform="translate(73.028786, 0.000000)">
                <mask id="mask-4" fill="white">
                    <use xlink:href="#path-3"></use>
                </mask>
                <g id="Clip-92"></g>
                <path d="M1.20844806,22.7464956 L1.20844806,23.730413 L2.1005632,23.730413 L2.1005632,24.205194 L1.20844806,24.205194 L1.20844806,26.0538173 C1.20844806,26.4786608 1.32916145,26.7195244 1.67590738,26.7195244 C1.83867334,26.7195244 1.959199,26.6977472 2.03767209,26.6767209 L2.06564456,27.1441802 C1.94530663,27.1939299 1.75400501,27.229224 1.51314143,27.229224 C1.22252816,27.229224 0.988798498,27.1368586 0.839924906,26.9669587 C0.663454318,26.7833542 0.599624531,26.4786608 0.599624531,26.0746558 L0.599624531,24.205194 L0.0683354193,24.205194 L0.0683354193,23.730413 L0.599624531,23.730413 L0.599624531,22.9092616 L1.20844806,22.7464956" id="Fill-91" fill="#231F20" mask="url(#mask-4)"></path>
                <path d="M5.83608346,0.169910283 L6.02271589,0.171026283 C6.54198999,0.171777222 7.05826033,0.24893617 7.55106383,0.39612015 C9.15882353,0.875782228 10.0742178,1.81520651 10.7968085,3.15131414 L10.7968085,3.15131414 L11.8192115,5.0436796 L13.9366708,3.89718398 C15.2095119,3.20913642 16.6438048,3.10907384 17.9361702,3.49486859 C19.2281602,3.88047559 20.3733417,4.74987484 21.0610138,6.02309136 C22.4337297,8.56802253 21.4781602,11.7709637 18.9351064,13.1472466 L18.9351064,13.1472466 L7.56833542,19.2899249 L7.56251564,19.2794118 C7.55819775,19.2752816 7.55256571,19.2647685 7.54730914,19.2548185 L7.54730914,19.2548185 L7.15625782,18.5273467 C6.36157697,16.9141427 5.21808511,13.6509387 8.39192741,12.2258448 L8.39192741,12.2258448 L9.55325407,11.7874844 L10.233229,11.45801 L9.018398,16.8606383 C9.018398,16.8606383 9.16558198,17.7 10.2227159,16.8225282 L10.2227159,16.8225282 L12.949562,10.5082603 L16.7046308,9.05913642 C17.0639549,8.92659574 18.2354193,7.84824781 17.5869837,7.35657071 C17.2819149,7.12546934 16.3145181,7.1491239 15.95801,7.28279099 L15.95801,7.28279099 L7.86514393,10.3635169 C6.83598248,10.74199 5.68197747,10.802816 4.5520025,10.4652691 C2.86426783,9.96176471 1.54186483,8.66095119 1.01433041,6.92909887 C-0.0260951189,3.30675845 2.84342929,0.0876720901 6.02271589,0.171026283 Z M4.31245307,5.56332916 C4.11814768,5.77678348 4.08660826,5.98254068 4.31020025,6.10851064 C4.53397997,6.23429287 5.3068836,6.68335419 6.33510638,7.41214018 C7.36389237,8.14073842 8.57684606,9.00600751 8.83272841,9.23954944 L11.8787234,8.1520025 C11.8787234,8.1520025 9.58760951,7.28316646 8.36282854,6.71320401 C7.13729662,6.14324155 5.86145181,5.53760951 5.29580726,5.38667084 C4.72997497,5.23629537 4.50694618,5.34987484 4.31245307,5.56332916 Z" id="Combined-Shape" fill="#66B445" mask="url(#mask-4)"></path>
            </g>
            <path d="M78.2187109,11.6322278 C78.2187109,11.6322278 76.8760325,10.9989987 76.5811014,10.8908636 C76.2861702,10.7832916 76.1185232,10.7316646 75.9805382,10.7847935 C75.8425532,10.8381101 75.364393,11.0224656 75.2175845,11.0791615 C75.0705882,11.1358573 75.0529412,11.2272841 75.2173967,11.4065707 C75.3816646,11.5862328 76.6774093,12.7282228 76.6774093,12.7282228 C76.6774093,12.7282228 76.4840426,14.4448686 76.4829161,14.6881727 C76.4817897,14.9314768 76.5561327,14.987234 76.7027534,14.9305382 C76.8499374,14.8736546 77.3279099,14.6896746 77.4660826,14.6363579 C77.6038798,14.5830413 77.6934293,14.4322904 77.8396746,14.1540676 C77.9859199,13.8762203 78.5553191,12.5053817 78.5553191,12.5053817" id="Fill-96" fill="#66B445"></path>
            <line x1="83.2088861" y1="16.7434919" x2="85.9608886" y2="10.4074468" id="Fill-97" fill="#FFFFFE"></line>
            <polygon id="Fill-98" fill="#231F20" points="28.5005632 23.4981852 29.1236546 23.4981852 29.1236546 22.8993116 28.5005632 22.8993116"></polygon>
            <polygon id="Fill-99" fill="#231F20" points="71.828786 23.4981852 72.4518773 23.4981852 72.4518773 22.8993116 71.828786 22.8993116"></polygon>
            <polygon id="Fill-101" fill="#1B1A19" points="75.4498123 27.2290363 76.0729036 27.2290363 76.0729036 26.629975 75.4498123 26.629975"></polygon>
            <polygon id="Fill-102" fill="#231F20" points="75.4498123 27.2290363 76.0729036 27.2290363 76.0729036 26.629975 75.4498123 26.629975"></polygon>
        </g>
    </g>
</svg>