<?xml version="1.0" encoding="UTF-8"?>
<svg width="154px" height="30px" viewBox="0 0 154 30" version="1.1" xmlns="http://www.w3.org/2000/svg" xmlns:xlink="http://www.w3.org/1999/xlink">
    <!-- Generator: Sketch 60 (88103) - https://sketch.com -->
    <title>Masa-assist</title>
    <desc>Created with Sketch.</desc>
    <defs>
        <path d="M0,0.00306199075 L0,1.04679257 L33.1260449,1.04679257 C33.5447211,0.442355598 33.8492871,0.00306199075 33.8492871,0.00306199075 L0,0.00306199075 Z M0,2.10175045 L0,3.18222492 L31.652615,3.18222492 C31.8861428,2.84254808 32.1429417,2.47021001 32.3972911,2.10175045 L0,2.10175045 Z M0,4.23718281 L0,5.36869045 L30.4580303,5.36869045 C30.4580303,5.36869045 30.3718863,5.08964103 30.8232237,4.4031427 C30.8511899,4.3600707 30.8885462,4.30332181 30.9332513,4.23718281 L0,4.23718281 Z" id="path-1"></path>
        <linearGradient x1="-0.000120612713%" y1="50.0019022%" x2="99.9992763%" y2="50.0019022%" id="linearGradient-3">
            <stop stop-color="#FFFFFE" offset="0%"></stop>
            <stop stop-color="#F4DD32" offset="100%"></stop>
        </linearGradient>
    </defs>
    <g id="Masa-assist" stroke="none" stroke-width="1" fill="none" fill-rule="evenodd">
        <g id="MASAAssist-logo-vector">
            <path d="M57.0663217,4.26045393 C56.2210081,2.98217486 55.2058561,2.24545989 53.401527,2.24545989 C51.5132994,2.24545989 49.8786046,3.42473459 49.8786046,5.12087334 C49.8786046,6.71800771 51.7668322,7.45553922 53.2045389,8.02098685 L54.6142795,8.56153028 C57.3763993,9.61893775 59.7159643,10.8231167 59.7159643,13.7718137 C59.7159643,17.0162991 56.7280738,19.4987571 53.035517,19.4987571 C49.6242552,19.4987571 47.0877021,17.5817468 46.4105939,14.7063333 L48.7223969,14.1408857 C49.0324745,16.033196 50.695952,17.5817468 52.9787682,17.5817468 C55.262605,17.5817468 57.3486372,16.057896 57.3486372,13.9688018 C57.3486372,11.8062198 55.4036607,11.0686883 53.4301056,10.2823691 L52.1328422,9.79040924 C49.6520173,8.80730607 47.5102568,7.70131501 47.5102568,5.04677316 C47.5102568,2.17135971 50.3011593,0.327633011 53.4580718,0.327633011 C55.825603,0.327633011 57.8277367,1.38504048 58.9553658,3.20304646 L57.0663217,4.26045393" id="Fill-1" fill="#FFFFFF"></path>
            <path d="M68.5647094,4.81794038 L64.9276767,12.2400018 L72.1162104,12.2400018 L68.5647094,4.81794038 Z M63.9700902,14.1576246 L61.4041419,19.4173082 L58.811044,19.4173082 L68.6204376,0 L78.177319,19.4173082 L75.5554384,19.4173082 L73.0468514,14.1576246 L63.9700902,14.1576246 L63.9700902,14.1576246 Z" id="Fill-2" fill="#FFFFFF"></path>
            <polyline id="Fill-3" fill="#FFFFFF" points="44.5248158 19.4173082 47.1466964 19.4173082 37.5900192 0 29.3887831 16.6272222 22.4282657 0.202499655 22.133294 0.202499655 15.927047 15.019677 10.3287072 0.202499655 9.97780307 0.202499655 0.582186509 19.3838304 3.01728569 19.3838304 9.79428776 5.25641746 15.9278635 20.6700706 22.1986164 5.23335046 29.1127957 21.7958626 32.9386511 14.1570122 40.7140663 14.1570122 39.6799299 12.2400018 33.8972583 12.2400018 37.5340868 4.81794038 44.5248158 19.4173082"></polyline>
            <path d="M77.2211613,22.1865726 C76.1478315,22.134927 74.1265094,22.1451337 74.1265094,22.1451337 C74.1265094,22.1451337 71.9400438,20.1852554 70.8156808,19.0194535 C69.6913178,17.8536516 68.5255159,16.6264057 67.9578228,16.2142617 C67.3909462,15.8010971 67.0918918,15.8323294 66.7816101,15.9868579 C66.472349,16.1415905 66.3486446,16.3585835 66.5448161,16.5953775 C66.7409877,16.832988 67.4115636,17.6678908 68.247283,18.9271855 C69.0821858,20.1852554 69.505557,21.0830311 69.6913178,21.4539403 C69.8764662,21.8254618 69.7631725,22.0216334 69.4018576,22.0320441 C69.0909635,22.0408218 67.8573895,22.0726665 66.6174874,22.1077774 L66.6174874,22.0008118 C66.8024316,21.9489621 66.9986032,21.7527906 67.0090139,21.381269 C67.0194247,21.010564 66.8646921,20.8972704 66.6174874,20.8972704 L65.2659247,20.8972704 C65.1007813,20.8972704 64.9874876,21.052003 64.9874876,21.2169422 C64.9874876,21.381269 64.9668702,21.5264074 65.1007813,21.5878513 C65.2346923,21.6501118 65.5027186,21.7217624 65.5027186,21.7217624 L65.5027186,22.1467667 C64.4938947,22.2026991 64.1311509,22.310277 64.1311509,22.310277 C64.1311509,22.310277 63.0586376,21.185914 62.8106163,20.9691251 C62.5634116,20.7529485 62.4190898,20.6388383 62.2645613,20.6388383 L61.4080204,20.6388383 C61.2430812,20.6388383 61.192048,20.7219204 61.2845201,20.9587143 C61.3769923,21.1963248 62.2127116,22.8006038 62.2127116,22.8006038 C62.2127116,22.8006038 61.3769923,24.4042704 61.2845201,24.6418809 C61.192048,24.8786749 61.2430812,24.9607362 61.4080204,24.9607362 L62.2645613,24.9607362 C62.4190898,24.9607362 62.5634116,24.8476467 62.8106163,24.6314702 C63.0586376,24.4146812 64.1311509,23.2903182 64.1311509,23.2903182 C64.1311509,23.2903182 64.4938947,23.3978961 65.5027186,23.453012 L65.5027186,23.9400726 C65.5027186,23.9400726 65.2346923,24.0127439 65.1007813,24.0741878 C64.9668702,24.1362442 64.9874876,24.280566 64.9874876,24.4457094 C64.9874876,24.6106486 65.1007813,24.7653812 65.2659247,24.7653812 L66.6174874,24.7653812 C66.8646921,24.7653812 67.0194247,24.6522917 67.0090139,24.280566 C66.9986032,23.909861 66.8024316,23.7136895 66.6174874,23.6618397 L66.6174874,23.4928179 C67.8573895,23.5279287 69.0909635,23.5597734 69.4018576,23.5685511 C69.7631725,23.5789619 69.8764662,23.7751334 69.6913178,24.1458384 C69.505557,24.51736 69.0821858,25.4145233 68.247283,26.6736139 C67.4115636,27.9318879 66.7409877,28.7667907 66.5448161,29.0044012 C66.3486446,29.2420117 66.472349,29.4588006 66.7816101,29.6135332 C67.0918918,29.7674493 67.3909462,29.7986816 67.9578228,29.3863335 C68.5255159,28.973373 69.6913178,27.7461271 70.8156808,26.5803252 C71.9400438,25.4145233 74.1265094,23.5518122 74.1265094,23.5518122 C74.1265094,23.5518122 76.1478315,23.562223 77.2211613,23.5111898 C78.2936746,23.4593401 79.5991034,23.3029744 79.5727702,22.8006038 C79.5727702,22.5629933 78.2936746,22.2376058 77.2211613,22.1865726" id="Fill-4" fill="#F4DD32"></path>
            <g id="Group-7" transform="translate(0.000000, 22.250466)">
                <mask id="mask-2" fill="white">
                    <use xlink:href="#path-1"></use>
                </mask>
                <g id="Clip-6"></g>
                <path d="M0,0.00306199075 L0,1.04679257 L33.1260449,1.04679257 C33.5447211,0.442355598 33.8492871,0.00306199075 33.8492871,0.00306199075 L0,0.00306199075 Z M0,2.10175045 L0,3.18222492 L31.652615,3.18222492 C31.8861428,2.84254808 32.1429417,2.47021001 32.3972911,2.10175045 L0,2.10175045 Z M0,4.23718281 L0,5.36869045 L30.4580303,5.36869045 C30.4580303,5.36869045 30.3718863,5.08964103 30.8232237,4.4031427 C30.8511899,4.3600707 30.8885462,4.30332181 30.9332513,4.23718281 L0,4.23718281 Z" id="Fill-5" fill="url(#linearGradient-3)" mask="url(#mask-2)"></path>
            </g>
            <polyline id="Fill-8" fill="#5D96EC" points="49.5405608 27.6577377 50.7157529 22.2745538 48.947147 22.2745538 47.7717508 27.6577377 49.5405608 27.6577377"></polyline>
            <polyline id="Fill-9" fill="#5D96EC" points="57.6627975 27.6577377 58.6011956 23.3850358 60.4455347 23.3850358 60.7805165 22.8134642 60.4894232 22.2745538 56.0879136 22.2745538 55.8111096 23.5399725 57.019167 23.5399725 56.1205748 27.6577377 57.6627975 27.6577377"></polyline>
            <polyline id="Fill-10" fill="#5D96EC" points="36.2176349 27.6577377 38.0627905 27.6577377 36.6714219 22.2745538 35.3874271 22.2745538 31.7091597 27.6577377 33.6141262 27.6577377 33.9985081 27.0324792 35.9481797 27.0324792 35.7695636 25.7950266 34.7576777 25.7950266 35.7215924 24.2270832 36.2176349 27.6577377"></polyline>
            <path d="M41.4070968,23.9608942 L43.0679206,23.9608942 C43.1405919,23.000858 42.6135212,22.2273991 41.1494813,22.2273991 C39.684625,22.2273991 38.8905487,22.8875644 38.6735556,23.7439011 C38.4575832,24.600442 39.1583708,25.146497 39.8601791,25.3739008 C40.5617832,25.600284 40.9588214,25.8354449 40.9326924,26.1161274 C40.9006436,26.4582538 40.6438446,26.6113534 40.2308841,26.6113534 C39.8187402,26.6113534 39.7054465,26.2294211 39.7770971,25.8897442 L38.0858575,25.8897442 C37.9415357,26.724647 38.1887404,27.8083876 40.0355291,27.8083876 C41.8815013,27.8083876 42.4914498,27.0994347 42.6341386,26.0340661 C42.7690703,25.0334075 41.613475,24.6720926 41.0770142,24.4657144 C40.5411658,24.2591321 40.2308841,24.0119274 40.4270557,23.6920514 C40.6232272,23.3723796 41.4277142,23.2694967 41.4070968,23.9608942" id="Fill-11" fill="#5D96EC"></path>
            <path d="M46.3309821,23.9608942 L47.99201,23.9608942 C48.0636606,23.000858 47.538223,22.2273991 46.0733666,22.2273991 C44.6085102,22.2273991 43.814434,22.8875644 43.5974409,23.7439011 C43.3806519,24.600442 44.0822561,25.146497 44.7832478,25.3739008 C45.484852,25.600284 45.8820943,25.8354449 45.8565777,26.1161274 C45.8245288,26.4582538 45.567934,26.6113534 45.1547694,26.6113534 C44.7426254,26.6113534 44.6285152,26.2294211 44.7009824,25.8897442 L43.0097428,25.8897442 C42.865421,26.724647 43.1126257,27.8083876 44.9585978,27.8083876 C46.8053865,27.8083876 47.4153351,27.0994347 47.558228,26.0340661 C47.6929556,25.0334075 46.5375644,24.6720926 46.0008995,24.4657144 C45.4650511,24.2591321 45.1547694,24.0119274 45.3509409,23.6920514 C45.5471125,23.3723796 46.3515995,23.2694967 46.3309821,23.9608942" id="Fill-12" fill="#5D96EC"></path>
            <path d="M53.8542934,23.9608942 L55.5153213,23.9608942 C55.587176,23.000858 55.0607177,22.2273991 53.5960655,22.2273991 C52.1312091,22.2273991 51.3377452,22.8875644 51.1209563,23.7439011 C50.9039632,24.600442 51.6057715,25.146497 52.3065591,25.3739008 C53.0083674,25.600284 53.4054055,25.8354449 53.3798889,26.1161274 C53.3480442,26.4582538 53.0904288,26.6113534 52.6782848,26.6113534 C52.2659367,26.6113534 52.1518265,26.2294211 52.2244978,25.8897442 L50.5324417,25.8897442 C50.3881198,26.724647 50.6361411,27.8083876 52.4821133,27.8083876 C54.3289019,27.8083876 54.9388505,27.0994347 55.0815393,26.0340661 C55.2162669,25.0334075 54.0608757,24.6720926 53.5242108,24.4657144 C52.9875459,24.2591321 52.6782848,24.0119274 52.8744563,23.6920514 C53.0704237,23.3723796 53.8751149,23.2694967 53.8542934,23.9608942" id="Fill-13" fill="#5D96EC"></path>
            <polyline id="Fill-14" fill="#FFFFFF" points="74.6376577 0.234548492 74.001376 0.234548492 74.001376 0.00489918521 75.5491103 0.00489918521 75.5491103 0.234548492 74.910379 0.234548492 74.910379 2.09480994 74.6376577 2.09480994 74.6376577 0.234548492"></polyline>
            <path d="M77.5424662,1.17702925 C77.5273604,0.885935991 77.5081719,0.53196986 77.5081719,0.274150239 L77.5018438,0.274150239 C77.4277437,0.516659907 77.3440492,0.779991111 77.2387168,1.06863477 L76.8694407,2.08276611 L76.6646956,2.08276611 L76.3242022,1.08761912 C76.2243813,0.789585349 76.143953,0.523192153 76.0849586,0.274150239 L76.0792429,0.274150239 C76.0720983,0.535031851 76.0569925,0.882669868 76.0386205,1.19846318 L75.9828923,2.09480994 L75.7252768,2.09480994 L75.8712317,0.00489918521 L76.2147871,0.00489918521 L76.5720193,1.01596853 C76.6589798,1.27358402 76.7267519,1.50323333 76.7826843,1.72002227 L76.7890124,1.72002227 C76.8447406,1.50874491 76.9190449,1.2790956 77.0123336,1.01596853 L77.3846717,0.00489918521 L77.728227,0.00489918521 L77.8590761,2.09480994 L77.5918664,2.09480994 L77.5424662,1.17702925" id="Fill-15" fill="#FFFFFF"></path>
        </g>
    </g>
</svg>