<?xml version="1.0" encoding="UTF-8"?>
<svg width="154px" height="30px" viewBox="0 0 154 30" version="1.1" xmlns="http://www.w3.org/2000/svg" xmlns:xlink="http://www.w3.org/1999/xlink">
    <!-- Generator: Sketch 60 (88103) - https://sketch.com -->
    <title>Masa-plane-dark</title>
    <desc>Created with Sketch.</desc>
    <defs>
        <polygon id="path-1" points="0 0 93 0 93 27 0 27"></polygon>
    </defs>
    <g id="Masa-plane-dark" stroke="none" stroke-width="1" fill="none" fill-rule="evenodd">
        <g id="Group-10">
            <mask id="mask-2" fill="white">
                <use xlink:href="#path-1"></use>
            </mask>
            <g id="Clip-2"></g>
            <path d="M0,21.3337534 C0.384223163,19.9490549 0.864768199,18.5837984 1.13457588,17.1764176 C2.15846142,11.8390639 3.11316552,6.48820882 4.10139601,1.14437444 C4.12321477,1.02556256 4.23177644,0.923492349 4.49094082,0.504950495 C7.29917576,6.34347435 9.51404668,12.2392439 12.2658721,18.2532853 C14.8851885,12.1825383 17.4140368,6.32187219 20.1413826,0 C21.8938021,6.86030603 23.5296775,13.2658866 25.2677285,20.0721872 C28.0190218,13.6374437 30.5962971,7.60882088 33.2975669,1.29072907 C36.602844,8.69918992 39.8373431,15.7917192 43,23.1807381 L40.3636544,23.1807381 C38.0689587,17.9530153 35.7551051,12.680468 33.3092745,7.10873087 C32.4045939,9.46012601 31.5887849,11.5792979 30.679847,13.939874 L34.7040791,13.939874 C35.0451969,14.8239424 35.3219227,15.5411341 35.6736838,16.4527453 L29.2903641,16.4527453 C27.8407465,19.829703 26.4039009,23.1780378 24.7632361,27 C22.8862899,20.6430243 21.1514319,14.7661566 19.2957724,8.48154815 C16.7190292,13.6536454 14.7665157,18.7636364 12.2307492,24.0135014 C9.90093067,18.7749775 7.71479666,13.8583258 5.52866266,8.94167417 C5.42063315,8.9319532 5.31260365,8.92277228 5.20457414,8.91251125 C4.2796713,13.679568 3.35423628,18.4471647 2.43784807,23.1720972 C1.44429593,23.2482448 0.722147967,23.3033303 0,23.3589559 L0,21.3337534" id="Fill-1" fill="#FFD840" mask="url(#mask-2)"></path>
            <path d="M84.8061993,0.271273469 C85.0444119,1.2079817 85.2643807,2.3392954 85.3780138,3.63323206 C85.491647,4.93638403 85.4718394,6.09805401 85.398864,7.06945514 C87.1320301,8.8783645 88.9199278,10.737687 90.6994854,12.6056827 C91.3395841,13.2778576 91.9796827,13.9522008 92.5827724,14.6601527 C93.0644102,15.2255385 93.2385086,15.8359167 92.5030207,16.4414161 C90.3460759,15.0596631 88.172451,13.6681527 85.6282153,12.0386706 C85.5296985,13.4502379 85.4624568,14.407003 85.3894814,15.4477899 C85.8752892,15.5686729 86.282909,15.6705833 86.7426541,15.7849615 L86.7426541,18.1652195 C86.2073273,17.8220851 85.8643429,17.6025441 85.3545575,17.2756719 C85.2805395,18.0833659 85.2221592,18.7192217 85.1794165,19.1864917 C85.9274145,20.4891015 87.6183591,21.0647868 86.9970256,23 C86.1265331,22.6048262 85.3133785,22.2367563 84.4720762,21.8551344 C83.6646553,22.2129049 82.8426394,22.5771803 81.9127241,22.9886164 C81.3805248,21.0561136 83.1126484,20.5178316 83.7470133,19.2287736 C83.7178231,18.7631299 83.6802929,18.168472 83.6333802,17.4160697 C83.2215903,17.6226009 82.9203061,17.7738402 82.3495341,18.0605987 C82.2703036,17.276214 82.2025408,16.6056653 82.1248741,15.8375429 C82.6883485,15.7139495 83.0980534,15.6245068 83.6276464,15.5085025 C83.5838611,14.5175866 83.5416396,13.5445592 83.4801318,12.1481701 C82.0430373,12.9509854 80.8999296,13.5239603 79.8224997,14.209145 C78.7216134,14.91005 77.6858838,15.7215385 76.5735299,16.5189331 C75.6665498,15.8218227 75.9793015,15.1041134 76.5240109,14.4812674 C77.3976309,13.4816783 78.3410987,12.5476805 79.2558977,11.5871209 C80.7159273,10.0535864 82.1769994,8.52167815 83.4399953,7.19684313 C83.4874293,6.0292103 83.5353846,4.86103539 83.5822974,3.69286048 C83.729812,2.55233148 83.8768053,1.41180247 84.0243199,0.271273469 C84.0936465,0.102145594 84.2552349,-0.00572763395 84.4293334,0.000235207805 C84.5935281,0.00619804956 84.7410427,0.112445048 84.8061993,0.271273469" id="Fill-3" fill="#231F20" mask="url(#mask-2)"></path>
            <path d="M61.3963964,15.4264554 L68.7143167,15.4264554 C67.5035276,12.5444141 66.363291,9.82973813 65.0759796,6.76408252 C63.7599045,9.86169461 62.6131553,12.5622881 61.3963964,15.4264554 M72.3190058,23.9415034 C71.4702051,21.9656179 70.6241181,19.9962321 69.7177901,17.8854795 L60.3370238,17.8854795 C59.420927,19.9626507 58.5325084,21.9786172 57.6413763,24 L55,24 C58.2709215,16.3315279 61.6368175,8.90625 65.1242809,1 C68.5612721,8.78871515 71.7545859,16.2519075 75,23.9415034 L72.3190058,23.9415034" id="Fill-5" fill="#FFD840" mask="url(#mask-2)"></path>
            <path d="M53.4701381,17.7541144 C53.353079,15.5205035 51.8252365,14.5579936 50.0864667,13.7754951 C48.8457504,13.2170924 47.544848,12.7626029 46.3565874,12.1186555 C43.2815766,10.4523692 42.5714915,8.5630367 43.4676564,5.55060104 C44.1954108,3.10548993 47.5310438,1.57513063 50.3592365,2.10466853 C52.8638602,2.57332795 53.9427919,3.32538724 54.9504944,5.37531297 C54.4767362,5.6896769 53.9853087,6.01611157 53.3851046,6.41392101 C52.853369,5.93948864 52.3889977,5.48027588 51.8765879,5.07721829 C50.3382543,3.86542143 48.0268886,3.95568954 46.5890491,5.26090339 C45.1727441,6.54722392 45.3693151,8.80655066 47.125202,9.78795392 C48.777834,10.7126772 50.5701638,11.4112054 52.2791167,12.2493343 C53.9080055,13.0491517 55.2315467,14.0987808 55.7748777,15.8952211 C56.7831323,19.2272689 54.2834782,23.2825111 50.6955055,23.8535094 C46.7607727,24.4806628 43.2434772,23.1618037 42,18.5817469 C42.7145024,18.3639489 43.4444655,18.1414275 44.3130221,17.8763962 C44.9745166,20.1477936 46.285358,21.609927 48.934649,21.8571147 C51.3950994,21.5296304 53.2316025,20.356145 53.4701381,17.7541144" id="Fill-6" fill="#FFD840" mask="url(#mask-2)"></path>
            <path d="M75.0814213,4.36232055 L75.4414637,4.36232055 C75.8120955,4.36232055 76.0291799,4.19816427 76.0291799,3.94398682 C76.0291799,3.66333255 75.8120955,3.52565309 75.4520532,3.52565309 C75.2561478,3.52565309 75.1396635,3.54153919 75.0814213,3.55212991 L75.0814213,4.36232055 Z M74.5360631,3.17086373 C74.7478527,3.13850318 75.0655371,3.11202636 75.4044005,3.11202636 C76.4321685,3.11202636 76.5751265,3.58919746 76.5751265,3.89632855 C76.5751265,4.27759473 76.3203906,4.51588609 76.013884,4.59002118 L76.013884,4.60590727 C76.2468526,4.66945164 76.3686316,4.85008237 76.4374632,5.08778536 C76.5221791,5.40609555 76.6280739,5.75558955 76.7022003,5.87738291 L76.1197788,5.87738291 C76.0615367,5.79795246 76.013884,5.64968228 75.9026944,5.23134855 C75.8120955,4.87067545 75.6850218,4.78594964 75.3726321,4.77535891 L75.0814213,4.77535891 L75.0814213,5.87738291 L74.5360631,5.87738291 L74.5360631,3.17086373 Z M73.1959054,4.5 C73.1959054,5.77147564 74.2289681,6.80407155 75.4997058,6.80407155 C76.7710319,6.80407155 77.8040946,5.77147564 77.8040946,4.5 C77.8040946,3.22911273 76.7710319,2.19592845 75.4997058,2.19592845 C74.2177903,2.19592845 73.1959054,3.23970346 73.1959054,4.5 Z M75.4997058,7 C74.122485,7 73,5.87738291 73,4.5 C73,3.12320546 74.122485,2 75.4997058,2 C76.8769267,2 78,3.12320546 78,4.5 C78,5.88797364 76.8663372,7 75.4997058,7 L75.4997058,7 Z" id="Fill-7" fill="#FFD840" mask="url(#mask-2)"></path>
            <g id="medairservices-logo-vector[4]-copy" mask="url(#mask-2)">
                <g id="Group-4"></g>
            </g>
        </g>
    </g>
</svg>