<?xml version="1.0" encoding="UTF-8"?>
<svg width="154px" height="30px" viewBox="0 0 154 30" version="1.1" xmlns="http://www.w3.org/2000/svg" xmlns:xlink="http://www.w3.org/1999/xlink">
    <!-- Generator: Sketch 60 (88103) - https://sketch.com -->
    <title>Masa-Florida-dark</title>
    <desc>Created with Sketch.</desc>
    <g id="Masa-Florida-dark" stroke="none" stroke-width="1" fill="none" fill-rule="evenodd">
        <g id="MASA_MTS_FL">
            <polyline id="Fill-1" fill="#231F20" fill-rule="nonzero" points="149.871363 2.13618297 149.026736 2.13618297 149.026736 1.83083961 151.082769 1.83083961 151.082769 2.13618297 150.234073 2.13618297 150.234073 4.60801987 149.871363 4.60801987 149.871363 2.13618297"></polyline>
            <path d="M153.731587,3.38847726 C153.711041,3.00115297 153.686019,2.5314409 153.686019,2.18948075 L153.677882,2.18948075 C153.579221,2.51089481 153.467946,2.86099203 153.327785,3.24424779 L152.837324,4.59174574 L152.565546,4.59174574 L152.112108,3.26926926 C151.980287,2.87360448 151.873081,2.51903188 151.794762,2.18948075 L151.786829,2.18948075 C151.778285,2.53550943 151.757535,2.99708444 151.733327,3.41736385 L151.658873,4.6082233 L151.316913,4.6082233 L151.510372,1.83104304 L151.967878,1.83104304 L152.441659,3.17426903 C152.557409,3.51643261 152.647527,3.82116569 152.721777,4.10962464 L152.730321,4.10962464 C152.804572,3.82930276 152.903641,3.52456968 153.026714,3.17426903 L153.521651,1.83104304 L153.97875,1.83104304 L154.151663,4.6082233 L153.797294,4.6082233 L153.731587,3.38847726" id="Fill-2" fill="#231F20" fill-rule="nonzero"></path>
            <path d="M110.617348,4.90298848 C110.559575,3.81994513 110.49041,2.51801474 110.501802,1.55011087 L110.467423,1.55011087 C110.202765,2.46064844 109.879927,3.42814546 109.488331,4.49979691 L108.117032,8.2674614 L107.356827,8.2674614 L106.100464,4.56916539 C105.732058,3.47452673 105.421019,2.4718369 105.201928,1.55011087 L105.178534,1.55011087 C105.155954,2.51801474 105.098384,3.81994513 105.029219,4.98354542 L104.821724,8.31363924 L103.865009,8.31363924 L104.406734,0.547827897 L105.686084,0.547827897 L107.010798,4.3041005 C107.333636,5.26020563 107.598904,6.11317346 107.794601,6.91955659 L107.829183,6.91955659 C108.025286,6.13595724 108.301743,5.28339626 108.646958,4.3041005 L110.029649,0.547827897 L111.308185,0.547827897 L111.792748,8.31363924 L110.813452,8.31363924 L110.617348,4.90298848" id="Fill-3" fill="#231F20" fill-rule="nonzero"></path>
            <path d="M110.617348,4.90298848 C110.559575,3.81994513 110.49041,2.51801474 110.501802,1.55011087 L110.467423,1.55011087 C110.202765,2.46064844 109.879927,3.42814546 109.488331,4.49979691 L108.117032,8.2674614 L107.356827,8.2674614 L106.100464,4.56916539 C105.732058,3.47452673 105.421019,2.4718369 105.201928,1.55011087 L105.178534,1.55011087 C105.155954,2.51801474 105.098384,3.81994513 105.029219,4.98354542 L104.821724,8.31363924 L103.865009,8.31363924 L104.406734,0.547827897 L105.686084,0.547827897 L107.010798,4.3041005 C107.333636,5.26020563 107.598904,6.11317346 107.794601,6.91955659 L107.829183,6.91955659 C108.025286,6.13595724 108.301743,5.28339626 108.646958,4.3041005 L110.029649,0.547827897 L111.308185,0.547827897 L111.792748,8.31363924 L110.813452,8.31363924 L110.617348,4.90298848 Z" id="Stroke-4" fill="#231F20" fill-rule="nonzero"></path>
            <path d="M113.705161,5.70957504 C113.728352,7.08046705 114.604103,7.64538278 115.617982,7.64538278 C116.343808,7.64538278 116.781785,7.518648 117.161583,7.35733069 L117.334292,8.08315688 C116.977482,8.24447419 116.366592,8.42918556 115.479855,8.42918556 C113.762934,8.42918556 112.737257,7.29996438 112.737257,5.61721935 C112.737257,3.93528803 113.728352,2.61057386 115.352917,2.61057386 C117.172975,2.61057386 117.65713,4.21154138 117.65713,5.23721842 C117.65713,5.44471357 117.634346,5.60582746 117.622751,5.70957504 L113.705161,5.70957504 Z M116.678038,4.98374884 C116.689226,4.3384796 116.413176,3.33619662 115.27236,3.33619662 C114.246479,3.33619662 113.797517,4.28070643 113.716553,4.98374884 L116.678038,4.98374884 L116.678038,4.98374884 Z" id="Fill-6" fill="#231F20" fill-rule="nonzero"></path>
            <path d="M113.705161,5.70957504 C113.728352,7.08046705 114.604103,7.64538278 115.617982,7.64538278 C116.343808,7.64538278 116.781785,7.518648 117.161583,7.35733069 L117.334292,8.08315688 C116.977482,8.24447419 116.366592,8.42918556 115.479855,8.42918556 C113.762934,8.42918556 112.737257,7.29996438 112.737257,5.61721935 C112.737257,3.93528803 113.728352,2.61057386 115.352917,2.61057386 C117.172975,2.61057386 117.65713,4.21154138 117.65713,5.23721842 C117.65713,5.44471357 117.634346,5.60582746 117.622751,5.70957504 L113.705161,5.70957504 Z M116.678038,4.98374884 C116.689226,4.3384796 116.413176,3.33619662 115.27236,3.33619662 C114.246479,3.33619662 113.797517,4.28070643 113.716553,4.98374884 L116.678038,4.98374884 Z" id="Stroke-7" fill="#231F20" fill-rule="nonzero"></path>
            <path d="M123.499339,0.133041012 L123.499339,6.87337875 C123.499339,7.368926 123.510528,7.93323146 123.54511,8.31363924 L122.63498,8.31363924 L122.589209,7.34573537 L122.565815,7.34573537 C122.255182,7.96781398 121.57472,8.44037403 120.664589,8.44037403 C119.316685,8.44037403 118.279616,7.29976095 118.279616,5.60562403 C118.268427,3.75098351 119.420432,2.61037043 120.780339,2.61037043 C121.632697,2.61037043 122.208597,3.013562 122.462474,3.46293141 L122.485461,3.46293141 L122.485461,0.133041012 L123.499339,0.133041012 Z M122.485461,5.00693948 C122.485461,4.88000127 122.473662,4.70729206 122.43908,4.58035385 C122.289358,3.93528803 121.736241,3.40515825 120.975629,3.40515825 C119.927168,3.40515825 119.305496,4.32688428 119.305496,5.55985304 C119.305496,6.6888708 119.858206,7.62239558 120.953048,7.62239558 C121.632697,7.62239558 122.255182,7.17282274 122.43908,6.41261745 C122.473662,6.27388049 122.485461,6.13595724 122.485461,5.9744365 L122.485461,5.00693948 L122.485461,5.00693948 Z" id="Fill-8" fill="#231F20" fill-rule="nonzero"></path>
            <path d="M123.499339,0.133041012 L123.499339,6.87337875 C123.499339,7.368926 123.510528,7.93323146 123.54511,8.31363924 L122.63498,8.31363924 L122.589209,7.34573537 L122.565815,7.34573537 C122.255182,7.96781398 121.57472,8.44037403 120.664589,8.44037403 C119.316685,8.44037403 118.279616,7.29976095 118.279616,5.60562403 C118.268427,3.75098351 119.420432,2.61037043 120.780339,2.61037043 C121.632697,2.61037043 122.208597,3.013562 122.462474,3.46293141 L122.485461,3.46293141 L122.485461,0.133041012 L123.499339,0.133041012 Z M122.485461,5.00693948 C122.485461,4.88000127 122.473662,4.70729206 122.43908,4.58035385 C122.289358,3.93528803 121.736241,3.40515825 120.975629,3.40515825 C119.927168,3.40515825 119.305496,4.32688428 119.305496,5.55985304 C119.305496,6.6888708 119.858206,7.62239558 120.953048,7.62239558 C121.632697,7.62239558 122.255182,7.17282274 122.43908,6.41261745 C122.473662,6.27388049 122.485461,6.13595724 122.485461,5.9744365 L122.485461,5.00693948 Z" id="Stroke-9" fill="#231F20" fill-rule="nonzero"></path>
            <polygon id="Fill-11" fill="#231F20" fill-rule="nonzero" points="124.950992 8.31343582 125.96487 8.31343582 125.96487 2.73669836 124.950992 2.73669836"></polygon>
            <polygon id="Stroke-12" fill="#231F20" fill-rule="nonzero" points="124.950992 8.31343582 125.96487 8.31343582 125.96487 2.73669836 124.950992 2.73669836"></polygon>
            <path d="M131.392089,8.10634751 C131.127228,8.24447419 130.539121,8.42877871 129.790308,8.42877871 C128.108376,8.42877871 127.013534,7.28836906 127.013534,5.58284025 C127.013534,3.86612298 128.18873,2.62176232 130.009195,2.62176232 C130.608083,2.62176232 131.138416,2.77148432 131.414669,2.91001785 L131.184797,3.69321035 C130.942516,3.5552871 130.562312,3.42834888 130.009195,3.42834888 C128.730252,3.42834888 128.039415,4.37306212 128.039415,5.53686583 C128.039415,6.82720091 128.868378,7.62239558 129.974409,7.62239558 C130.551123,7.62239558 130.931124,7.47267358 131.21938,7.34573537 L131.392089,8.10634751" id="Fill-13" fill="#231F20" fill-rule="nonzero"></path>
            <path d="M131.392089,8.10634751 C131.127228,8.24447419 130.539121,8.42877871 129.790308,8.42877871 C128.108376,8.42877871 127.013534,7.28836906 127.013534,5.58284025 C127.013534,3.86612298 128.18873,2.62176232 130.009195,2.62176232 C130.608083,2.62176232 131.138416,2.77148432 131.414669,2.91001785 L131.184797,3.69321035 C130.942516,3.5552871 130.562312,3.42834888 130.009195,3.42834888 C128.730252,3.42834888 128.039415,4.37306212 128.039415,5.53686583 C128.039415,6.82720091 128.868378,7.62239558 129.974409,7.62239558 C130.551123,7.62239558 130.931124,7.47267358 131.21938,7.34573537 L131.392089,8.10634751 Z" id="Stroke-14" fill="#231F20" fill-rule="nonzero"></path>
            <path d="M135.435803,8.31363924 L135.355653,7.61080026 L135.321071,7.61080026 C135.010031,8.04857435 134.410737,8.44057746 133.615949,8.44057746 C132.486117,8.44057746 131.910217,7.64538278 131.910217,6.83879622 C131.910217,5.49089142 133.108806,4.75346991 135.263298,4.7648618 L135.263298,4.6495189 C135.263298,4.18896103 135.136563,3.35918383 133.995543,3.35918383 C133.477415,3.35918383 132.935894,3.52070457 132.544297,3.77397072 L132.313612,3.10571426 C132.774576,2.80586342 133.443036,2.610167 134.145875,2.610167 C135.850997,2.610167 136.265581,3.77397072 136.265581,4.89159658 L136.265581,6.97712633 C136.265581,7.46107826 136.288975,7.93302803 136.35814,8.31363924 L135.435803,8.31363924 M135.286488,5.46749736 C134.180458,5.444917 132.924298,5.64040998 132.924298,6.72365675 C132.924298,7.38052132 133.362072,7.6913572 133.88081,7.6913572 C134.606026,7.6913572 135.067398,7.23018905 135.228715,6.75823928 C135.263298,6.65428828 135.286488,6.53935223 135.286488,6.43560466 L135.286488,5.46749736" id="Fill-15" fill="#231F20" fill-rule="nonzero"></path>
            <path d="M135.435803,8.31363924 L135.355653,7.61080026 L135.321071,7.61080026 C135.010031,8.04857435 134.410737,8.44057746 133.615949,8.44057746 C132.486117,8.44057746 131.910217,7.64538278 131.910217,6.83879622 C131.910217,5.49089142 133.108806,4.75346991 135.263298,4.7648618 L135.263298,4.6495189 C135.263298,4.18896103 135.136563,3.35918383 133.995543,3.35918383 C133.477415,3.35918383 132.935894,3.52070457 132.544297,3.77397072 L132.313612,3.10571426 C132.774576,2.80586342 133.443036,2.610167 134.145875,2.610167 C135.850997,2.610167 136.265581,3.77397072 136.265581,4.89159658 L136.265581,6.97712633 C136.265581,7.46107826 136.288975,7.93302803 136.35814,8.31363924 L135.435803,8.31363924 Z M135.286488,5.46749736 C134.180458,5.444917 132.924298,5.64040998 132.924298,6.72365675 C132.924298,7.38052132 133.362072,7.6913572 133.88081,7.6913572 C134.606026,7.6913572 135.067398,7.23018905 135.228715,6.75823928 C135.263298,6.65428828 135.286488,6.53935223 135.286488,6.43560466 L135.286488,5.46749736 Z" id="Stroke-16" fill="#231F20" fill-rule="nonzero"></path>
            <polygon id="Fill-17" fill="#231F20" fill-rule="nonzero" points="137.671259 8.31343582 138.685137 8.31343582 138.685137 0.132837585 137.671259 0.132837585"></polygon>
            <polygon id="Stroke-18" fill="#231F20" fill-rule="nonzero" points="137.671259 8.31343582 138.685137 8.31343582 138.685137 0.132837585 137.671259 0.132837585"></polygon>
            <polyline id="Fill-20" fill="#231F20" fill-rule="nonzero" points="105.547347 11.2195886 103.185564 11.2195886 103.185564 10.3670276 108.935417 10.3670276 108.935417 11.2195886 106.561632 11.2195886 106.561632 18.1328389 105.547347 18.1328389 105.547347 11.2195886"></polyline>
            <polygon id="Stroke-21" fill="#231F20" fill-rule="nonzero" points="105.547347 11.2195886 103.185564 11.2195886 103.185564 10.3670276 108.935417 10.3670276 108.935417 11.2195886 106.561632 11.2195886 106.561632 18.1328389 105.547347 18.1328389"></polygon>
            <path d="M108.405694,14.295806 C108.405694,13.6389414 108.394506,13.0744325 108.360127,12.5561015 L109.246863,12.5561015 L109.281446,13.6507401 L109.327827,13.6507401 C109.581093,12.9017233 110.19178,12.4295701 110.871632,12.4295701 C110.986975,12.4295701 111.067532,12.4405551 111.159277,12.4641526 L111.159277,13.4202578 C111.055733,13.3968637 110.952189,13.3856752 110.813859,13.3856752 C110.099831,13.3856752 109.592689,13.9271969 109.454358,14.6874022 C109.431371,14.8259357 109.408181,14.9868462 109.408181,15.1601657 L109.408181,18.1328389 L108.405694,18.1328389 L108.405694,14.295806" id="Fill-22" fill="#231F20" fill-rule="nonzero"></path>
            <path d="M108.405694,14.295806 C108.405694,13.6389414 108.394506,13.0744325 108.360127,12.5561015 L109.246863,12.5561015 L109.281446,13.6507401 L109.327827,13.6507401 C109.581093,12.9017233 110.19178,12.4295701 110.871632,12.4295701 C110.986975,12.4295701 111.067532,12.4405551 111.159277,12.4641526 L111.159277,13.4202578 C111.055733,13.3968637 110.952189,13.3856752 110.813859,13.3856752 C110.099831,13.3856752 109.592689,13.9271969 109.454358,14.6874022 C109.431371,14.8259357 109.408181,14.9868462 109.408181,15.1601657 L109.408181,18.1328389 L108.405694,18.1328389 L108.405694,14.295806 Z" id="Stroke-23" fill="#231F20" fill-rule="nonzero"></path>
            <path d="M115.583399,18.1326355 L115.502842,17.4297965 L115.46826,17.4297965 C115.157424,17.8675706 114.558332,18.2595737 113.762934,18.2595737 C112.633713,18.2595737 112.057812,17.464379 112.057812,16.6577925 C112.057812,15.3098877 113.255995,14.5724662 115.410487,14.5838581 L115.410487,14.4687186 C115.410487,14.0079573 115.283955,13.1781801 114.142935,13.1781801 C113.624808,13.1781801 113.083489,13.3397008 112.691486,13.592967 L112.460801,12.9247105 C112.921969,12.6250631 113.590429,12.4293667 114.293064,12.4293667 C115.998593,12.4293667 116.413176,13.592967 116.413176,14.7107963 L116.413176,16.7961226 C116.413176,17.2800745 116.436367,17.7524311 116.505329,18.1326355 L115.583399,18.1326355 Z M115.433677,15.286697 C114.32785,15.2637098 113.071691,15.4594062 113.071691,16.542653 C113.071691,17.1995176 113.509261,17.5103535 114.027999,17.5103535 C114.753419,17.5103535 115.214587,17.0495922 115.375904,16.5772355 C115.410487,16.473488 115.433677,16.3581451 115.433677,16.2546009 L115.433677,15.286697 L115.433677,15.286697 Z" id="Fill-24" fill="#231F20" fill-rule="nonzero"></path>
            <path d="M115.583399,18.1326355 L115.502842,17.4297965 L115.46826,17.4297965 C115.157424,17.8675706 114.558332,18.2595737 113.762934,18.2595737 C112.633713,18.2595737 112.057812,17.464379 112.057812,16.6577925 C112.057812,15.3098877 113.255995,14.5724662 115.410487,14.5838581 L115.410487,14.4687186 C115.410487,14.0079573 115.283955,13.1781801 114.142935,13.1781801 C113.624808,13.1781801 113.083489,13.3397008 112.691486,13.592967 L112.460801,12.9247105 C112.921969,12.6250631 113.590429,12.4293667 114.293064,12.4293667 C115.998593,12.4293667 116.413176,13.592967 116.413176,14.7107963 L116.413176,16.7961226 C116.413176,17.2800745 116.436367,17.7524311 116.505329,18.1326355 L115.583399,18.1326355 Z M115.433677,15.286697 C114.32785,15.2637098 113.071691,15.4594062 113.071691,16.542653 C113.071691,17.1995176 113.509261,17.5103535 114.027999,17.5103535 C114.753419,17.5103535 115.214587,17.0495922 115.375904,16.5772355 C115.410487,16.473488 115.433677,16.3581451 115.433677,16.2546009 L115.433677,15.286697 Z" id="Stroke-25" fill="#231F20" fill-rule="nonzero"></path>
            <path d="M117.819465,14.0653236 C117.819465,13.4894228 117.807869,13.0168628 117.77349,12.555898 L118.672229,12.555898 L118.729392,13.4776241 L118.752989,13.4776241 C119.028836,12.9481046 119.673902,12.4295701 120.596035,12.4295701 C121.368039,12.4295701 122.566628,12.890128 122.566628,14.8027451 L122.566628,18.1326355 L121.55214,18.1326355 L121.55214,14.9178846 C121.55214,14.0195526 121.218724,13.2703323 120.262212,13.2703323 C119.593548,13.2703323 119.075624,13.7428924 118.902101,14.3074013 C118.856127,14.4339326 118.83314,14.6070487 118.83314,14.7797579 L118.83314,18.1326355 L117.819465,18.1326355 L117.819465,14.0653236" id="Fill-26" fill="#231F20" fill-rule="nonzero"></path>
            <path d="M117.819465,14.0653236 C117.819465,13.4894228 117.807869,13.0168628 117.77349,12.555898 L118.672229,12.555898 L118.729392,13.4776241 L118.752989,13.4776241 C119.028836,12.9481046 119.673902,12.4295701 120.596035,12.4295701 C121.368039,12.4295701 122.566628,12.890128 122.566628,14.8027451 L122.566628,18.1326355 L121.55214,18.1326355 L121.55214,14.9178846 C121.55214,14.0195526 121.218724,13.2703323 120.262212,13.2703323 C119.593548,13.2703323 119.075624,13.7428924 118.902101,14.3074013 C118.856127,14.4339326 118.83314,14.6070487 118.83314,14.7797579 L118.83314,18.1326355 L117.819465,18.1326355 L117.819465,14.0653236 Z" id="Stroke-27" fill="#231F20" fill-rule="nonzero"></path>
            <path d="M123.845368,17.09577 C124.145016,17.2918733 124.675145,17.4989616 125.181881,17.4989616 C125.919303,17.4989616 126.264924,17.1303525 126.264924,16.6693878 C126.264924,16.1854359 125.977076,15.9205744 125.227855,15.6441176 C124.225166,15.286697 123.753012,14.7337835 123.753012,14.065527 C123.753012,13.1667882 124.479042,12.4293667 125.677428,12.4293667 C126.241734,12.4293667 126.737078,12.590684 127.048727,12.7749885 L126.795054,13.51241 C126.57576,13.3742834 126.172569,13.1899788 125.654441,13.1899788 C125.054943,13.1899788 124.72112,13.5356007 124.72112,13.9503875 C124.72112,14.4113523 125.054943,14.618644 125.781176,14.8951008 C126.74908,15.2637098 127.24422,15.7478652 127.24422,16.5770321 C127.24422,17.5567347 126.484218,18.247775 125.15869,18.247775 C124.548207,18.247775 123.983698,18.0982564 123.591695,17.867774 L123.845368,17.09577" id="Fill-28" fill="#231F20" fill-rule="nonzero"></path>
            <path d="M123.845368,17.09577 C124.145016,17.2918733 124.675145,17.4989616 125.181881,17.4989616 C125.919303,17.4989616 126.264924,17.1303525 126.264924,16.6693878 C126.264924,16.1854359 125.977076,15.9205744 125.227855,15.6441176 C124.225166,15.286697 123.753012,14.7337835 123.753012,14.065527 C123.753012,13.1667882 124.479042,12.4293667 125.677428,12.4293667 C126.241734,12.4293667 126.737078,12.590684 127.048727,12.7749885 L126.795054,13.51241 C126.57576,13.3742834 126.172569,13.1899788 125.654441,13.1899788 C125.054943,13.1899788 124.72112,13.5356007 124.72112,13.9503875 C124.72112,14.4113523 125.054943,14.618644 125.781176,14.8951008 C126.74908,15.2637098 127.24422,15.7478652 127.24422,16.5770321 C127.24422,17.5567347 126.484218,18.247775 125.15869,18.247775 C124.548207,18.247775 123.983698,18.0982564 123.591695,17.867774 L123.845368,17.09577 Z" id="Stroke-29" fill="#231F20" fill-rule="nonzero"></path>
            <path d="M128.315668,14.3763629 C128.315668,13.6623354 128.292274,13.0864347 128.269897,12.5561015 L129.180028,12.5561015 L129.225799,13.51241 L129.24899,13.51241 C129.663573,12.8327617 130.320641,12.4295701 131.230772,12.4295701 C132.578473,12.4295701 133.593368,13.5699798 133.593368,15.2639133 C133.593368,17.2684792 132.371181,18.2597771 131.058062,18.2597771 C130.320641,18.2597771 129.675372,17.9367357 129.341142,17.3836187 L129.317951,17.3836187 L129.317951,20.4140651 L128.315668,20.4140651 L128.315668,14.3763629 Z M129.317951,15.8630047 C129.317951,16.0129301 129.341142,16.1512602 129.364129,16.2775881 C129.548433,16.9804271 130.158917,17.464379 130.88515,17.464379 C131.957005,17.464379 132.578473,16.5888309 132.578473,15.3100911 C132.578473,14.1924652 131.991587,13.2359532 130.919732,13.2359532 C130.228285,13.2359532 129.583219,13.7312971 129.38732,14.4921126 C129.352737,14.6182372 129.317951,14.768366 129.317951,14.9064927 L129.317951,15.8630047 L129.317951,15.8630047 Z" id="Fill-30" fill="#231F20" fill-rule="nonzero"></path>
            <path d="M128.315668,14.3763629 C128.315668,13.6623354 128.292274,13.0864347 128.269897,12.5561015 L129.180028,12.5561015 L129.225799,13.51241 L129.24899,13.51241 C129.663573,12.8327617 130.320641,12.4295701 131.230772,12.4295701 C132.578473,12.4295701 133.593368,13.5699798 133.593368,15.2639133 C133.593368,17.2684792 132.371181,18.2597771 131.058062,18.2597771 C130.320641,18.2597771 129.675372,17.9367357 129.341142,17.3836187 L129.317951,17.3836187 L129.317951,20.4140651 L128.315668,20.4140651 L128.315668,14.3763629 Z M129.317951,15.8630047 C129.317951,16.0129301 129.341142,16.1512602 129.364129,16.2775881 C129.548433,16.9804271 130.158917,17.464379 130.88515,17.464379 C131.957005,17.464379 132.578473,16.5888309 132.578473,15.3100911 C132.578473,14.1924652 131.991587,13.2359532 130.919732,13.2359532 C130.228285,13.2359532 129.583219,13.7312971 129.38732,14.4921126 C129.352737,14.6182372 129.317951,14.768366 129.317951,14.9064927 L129.317951,15.8630047 Z" id="Stroke-31" fill="#231F20" fill-rule="nonzero"></path>
            <path d="M139.688437,15.2982924 C139.688437,17.3608349 138.259162,18.2593703 136.911257,18.2593703 C135.401831,18.2593703 134.238027,17.1533397 134.238027,15.3902412 C134.238027,13.5240053 135.459197,12.4295701 137.003409,12.4295701 C138.604987,12.4295701 139.688437,13.5931704 139.688437,15.2982924 M135.263908,15.3558621 C135.263908,16.5770321 135.966747,17.4989616 136.957028,17.4989616 C137.925135,17.4989616 138.650961,16.5888309 138.650961,15.3328749 C138.650961,14.3881616 138.179011,13.1897754 136.980422,13.1897754 C135.782036,13.1897754 135.263908,14.2960094 135.263908,15.3558621" id="Fill-32" fill="#231F20" fill-rule="nonzero"></path>
            <path d="M139.688437,15.2982924 C139.688437,17.3608349 138.259162,18.2593703 136.911257,18.2593703 C135.401831,18.2593703 134.238027,17.1533397 134.238027,15.3902412 C134.238027,13.5240053 135.459197,12.4295701 137.003409,12.4295701 C138.604987,12.4295701 139.688437,13.5931704 139.688437,15.2982924 Z M135.263908,15.3558621 C135.263908,16.5770321 135.966747,17.4989616 136.957028,17.4989616 C137.925135,17.4989616 138.650961,16.5888309 138.650961,15.3328749 C138.650961,14.3881616 138.179011,13.1897754 136.980422,13.1897754 C135.782036,13.1897754 135.263908,14.2960094 135.263908,15.3558621 Z" id="Stroke-33" fill="#231F20" fill-rule="nonzero"></path>
            <path d="M140.736491,14.295806 C140.736491,13.6389414 140.725302,13.0744325 140.69072,12.5561015 L141.577457,12.5561015 L141.612039,13.6507401 L141.65842,13.6507401 C141.911687,12.9017233 142.522373,12.4295701 143.202428,12.4295701 C143.317771,12.4295701 143.397718,12.4405551 143.490074,12.4641526 L143.490074,13.4202578 C143.386326,13.3968637 143.282782,13.3856752 143.144452,13.3856752 C142.430628,13.3856752 141.922875,13.9271969 141.784952,14.6874022 C141.762168,14.8259357 141.738774,14.9868462 141.738774,15.1601657 L141.738774,18.1328389 L140.736491,18.1328389 L140.736491,14.295806" id="Fill-34" fill="#231F20" fill-rule="nonzero"></path>
            <path d="M140.736491,14.295806 C140.736491,13.6389414 140.725302,13.0744325 140.69072,12.5561015 L141.577457,12.5561015 L141.612039,13.6507401 L141.65842,13.6507401 C141.911687,12.9017233 142.522373,12.4295701 143.202428,12.4295701 C143.317771,12.4295701 143.397718,12.4405551 143.490074,12.4641526 L143.490074,13.4202578 C143.386326,13.3968637 143.282782,13.3856752 143.144452,13.3856752 C142.430628,13.3856752 141.922875,13.9271969 141.784952,14.6874022 C141.762168,14.8259357 141.738774,14.9868462 141.738774,15.1601657 L141.738774,18.1328389 L140.736491,18.1328389 L140.736491,14.295806 Z" id="Stroke-35" fill="#231F20" fill-rule="nonzero"></path>
            <path d="M146.381987,10.9547271 L146.381987,12.5561015 L147.833436,12.5561015 L147.833436,13.3279021 L146.381987,13.3279021 L146.381987,16.3353613 C146.381987,17.0266049 146.577276,17.4184046 147.141988,17.4184046 C147.407053,17.4184046 147.603157,17.3838221 147.729891,17.3490361 L147.775662,18.1096483 C147.579966,18.1904087 147.268927,18.2481818 146.877127,18.2481818 C146.404567,18.2481818 146.024769,18.0982564 145.782895,17.8213928 C145.49464,17.5223556 145.390892,17.0266049 145.390892,16.3699438 L145.390892,13.3279021 L144.526532,13.3279021 L144.526532,12.5561015 L145.390892,12.5561015 L145.390892,11.219792 L146.381987,10.9547271" id="Fill-36" fill="#231F20" fill-rule="nonzero"></path>
            <path d="M146.381987,10.9547271 L146.381987,12.5561015 L147.833436,12.5561015 L147.833436,13.3279021 L146.381987,13.3279021 L146.381987,16.3353613 C146.381987,17.0266049 146.577276,17.4184046 147.141988,17.4184046 C147.407053,17.4184046 147.603157,17.3838221 147.729891,17.3490361 L147.775662,18.1096483 C147.579966,18.1904087 147.268927,18.2481818 146.877127,18.2481818 C146.404567,18.2481818 146.024769,18.0982564 145.782895,17.8213928 C145.49464,17.5223556 145.390892,17.0266049 145.390892,16.3699438 L145.390892,13.3279021 L144.526532,13.3279021 L144.526532,12.5561015 L145.390892,12.5561015 L145.390892,11.219792 L146.381987,10.9547271 Z" id="Stroke-37" fill="#231F20" fill-rule="nonzero"></path>
            <path d="M103.934377,27.9502078 C104.384153,28.2270714 105.040408,28.4571469 105.731855,28.4571469 C106.757125,28.4571469 107.35703,27.9158287 107.35703,27.1324327 C107.35703,26.4064031 106.941836,25.9916162 105.893375,25.5882212 C104.626028,25.1388518 103.842632,24.4821907 103.842632,23.3877555 C103.842632,22.1779773 104.844711,21.2790351 106.353933,21.2790351 C107.148925,21.2790351 107.725842,21.4637465 108.071057,21.6594429 L107.794601,22.4776247 C107.540928,22.3388878 107.022597,22.1090157 106.319554,22.1090157 C105.259702,22.1090157 104.85651,22.7424862 104.85651,23.2724126 C104.85651,23.9982388 105.328867,24.3556593 106.400315,24.7702428 C107.71384,25.2773854 108.382097,25.9108559 108.382097,27.0516724 C108.382097,28.2498552 107.495157,29.2869241 105.662893,29.2869241 C104.913673,29.2869241 104.095898,29.0682405 103.681111,28.7911734 L103.934377,27.9502078" id="Fill-38" fill="#231F20" fill-rule="nonzero"></path>
            <path d="M103.934377,27.9502078 C104.384153,28.2270714 105.040408,28.4571469 105.731855,28.4571469 C106.757125,28.4571469 107.35703,27.9158287 107.35703,27.1324327 C107.35703,26.4064031 106.941836,25.9916162 105.893375,25.5882212 C104.626028,25.1388518 103.842632,24.4821907 103.842632,23.3877555 C103.842632,22.1779773 104.844711,21.2790351 106.353933,21.2790351 C107.148925,21.2790351 107.725842,21.4637465 108.071057,21.6594429 L107.794601,22.4776247 C107.540928,22.3388878 107.022597,22.1090157 106.319554,22.1090157 C105.259702,22.1090157 104.85651,22.7424862 104.85651,23.2724126 C104.85651,23.9982388 105.328867,24.3556593 106.400315,24.7702428 C107.71384,25.2773854 108.382097,25.9108559 108.382097,27.0516724 C108.382097,28.2498552 107.495157,29.2869241 105.662893,29.2869241 C104.913673,29.2869241 104.095898,29.0682405 103.681111,28.7911734 L103.934377,27.9502078 Z" id="Stroke-39" fill="#231F20" fill-rule="nonzero"></path>
            <path d="M114.604103,26.3374415 C114.604103,28.3997806 113.175235,29.298316 111.82733,29.298316 C110.317905,29.298316 109.153897,28.1924889 109.153897,26.4293903 C109.153897,24.5627476 110.375678,23.4683124 111.919279,23.4683124 C113.520653,23.4683124 114.604103,24.6321161 114.604103,26.3374415 M110.179574,26.3948078 C110.179574,27.6161812 110.882413,28.5377039 111.872898,28.5377039 C112.841005,28.5377039 113.566831,27.6277766 113.566831,26.372024 C113.566831,25.4271074 113.094678,24.2287211 111.896495,24.2287211 C110.697702,24.2287211 110.179574,25.3347517 110.179574,26.3948078" id="Fill-41" fill="#231F20" fill-rule="nonzero"></path>
            <path d="M114.604103,26.3374415 C114.604103,28.3997806 113.175235,29.298316 111.82733,29.298316 C110.317905,29.298316 109.153897,28.1924889 109.153897,26.4293903 C109.153897,24.5627476 110.375678,23.4683124 111.919279,23.4683124 C113.520653,23.4683124 114.604103,24.6321161 114.604103,26.3374415 Z M110.179574,26.3948078 C110.179574,27.6161812 110.882413,28.5377039 111.872898,28.5377039 C112.841005,28.5377039 113.566831,27.6277766 113.566831,26.372024 C113.566831,25.4271074 113.094678,24.2287211 111.896495,24.2287211 C110.697702,24.2287211 110.179574,25.3347517 110.179574,26.3948078 Z" id="Stroke-42" fill="#231F20" fill-rule="nonzero"></path>
            <polygon id="Fill-44" fill="#231F20" fill-rule="nonzero" points="115.652971 29.1715812 116.666849 29.1715812 116.666849 20.990983 115.652971 20.990983"></polygon>
            <polygon id="Stroke-45" fill="#231F20" fill-rule="nonzero" points="115.652971 29.1715812 116.666849 29.1715812 116.666849 20.990983 115.652971 20.990983"></polygon>
            <path d="M122.807689,27.6507638 C122.807689,28.2270714 122.819894,28.7340105 122.854477,29.1713778 L121.955535,29.1713778 L121.897762,28.2616539 L121.874164,28.2616539 C121.609913,28.7106165 121.021807,29.298316 120.031119,29.298316 C119.155164,29.298316 118.107313,28.8143641 118.107313,26.855976 L118.107313,23.5948438 L119.120581,23.5948438 L119.120581,26.6832668 C119.120581,27.7431195 119.443623,28.4573503 120.365145,28.4573503 C121.045201,28.4573503 121.517557,27.9847903 121.701862,27.5354209 C121.759228,27.3859023 121.794014,27.2013944 121.794014,27.0170898 L121.794014,23.5948438 L122.807689,23.5948438 L122.807689,27.6507638" id="Fill-46" fill="#231F20" fill-rule="nonzero"></path>
            <path d="M122.807689,27.6507638 C122.807689,28.2270714 122.819894,28.7340105 122.854477,29.1713778 L121.955535,29.1713778 L121.897762,28.2616539 L121.874164,28.2616539 C121.609913,28.7106165 121.021807,29.298316 120.031119,29.298316 C119.155164,29.298316 118.107313,28.8143641 118.107313,26.855976 L118.107313,23.5948438 L119.120581,23.5948438 L119.120581,26.6832668 C119.120581,27.7431195 119.443623,28.4573503 120.365145,28.4573503 C121.045201,28.4573503 121.517557,27.9847903 121.701862,27.5354209 C121.759228,27.3859023 121.794014,27.2013944 121.794014,27.0170898 L121.794014,23.5948438 L122.807689,23.5948438 L122.807689,27.6507638 Z" id="Stroke-47" fill="#231F20" fill-rule="nonzero"></path>
            <path d="M125.481732,21.9934694 L125.481732,23.5948438 L126.933181,23.5948438 L126.933181,24.3666444 L125.481732,24.3666444 L125.481732,27.3741036 C125.481732,28.0657541 125.676818,28.4573503 126.24153,28.4573503 C126.506595,28.4573503 126.702902,28.4227678 126.829433,28.3881853 L126.875204,29.1487974 C126.679508,29.2293544 126.368469,29.2869241 125.976669,29.2869241 C125.504109,29.2869241 125.124311,29.1369987 124.882234,28.8605419 C124.594182,28.5610979 124.490637,28.0657541 124.490637,27.4086861 L124.490637,24.3666444 L123.626278,24.3666444 L123.626278,23.5948438 L124.490637,23.5948438 L124.490637,22.2585343 L125.481732,21.9934694" id="Fill-49" fill="#231F20" fill-rule="nonzero"></path>
            <path d="M125.481732,21.9934694 L125.481732,23.5948438 L126.933181,23.5948438 L126.933181,24.3666444 L125.481732,24.3666444 L125.481732,27.3741036 C125.481732,28.0657541 125.676818,28.4573503 126.24153,28.4573503 C126.506595,28.4573503 126.702902,28.4227678 126.829433,28.3881853 L126.875204,29.1487974 C126.679508,29.2293544 126.368469,29.2869241 125.976669,29.2869241 C125.504109,29.2869241 125.124311,29.1369987 124.882234,28.8605419 C124.594182,28.5610979 124.490637,28.0657541 124.490637,27.4086861 L124.490637,24.3666444 L123.626278,24.3666444 L123.626278,23.5948438 L124.490637,23.5948438 L124.490637,22.2585343 L125.481732,21.9934694 Z" id="Stroke-50" fill="#231F20" fill-rule="nonzero"></path>
            <polygon id="Fill-52" fill="#231F20" fill-rule="nonzero" points="127.843312 29.1715812 128.857393 29.1715812 128.857393 23.5948438 127.843312 23.5948438"></polygon>
            <polygon id="Stroke-53" fill="#231F20" fill-rule="nonzero" points="127.843312 29.1715812 128.857393 29.1715812 128.857393 23.5948438 127.843312 23.5948438"></polygon>
            <path d="M135.355653,26.3374415 C135.355653,28.3997806 133.926378,29.298316 132.578473,29.298316 C131.069251,29.298316 129.905447,28.1924889 129.905447,26.4293903 C129.905447,24.5627476 131.126414,23.4683124 132.670829,23.4683124 C134.272203,23.4683124 135.355653,24.6321161 135.355653,26.3374415 M130.931124,26.3948078 C130.931124,27.6161812 131.633963,28.5377039 132.624651,28.5377039 C133.592555,28.5377039 134.318381,27.6277766 134.318381,26.372024 C134.318381,25.4271074 133.846228,24.2287211 132.647842,24.2287211 C131.449252,24.2287211 130.931124,25.3347517 130.931124,26.3948078" id="Fill-54" fill="#231F20" fill-rule="nonzero"></path>
            <path d="M135.355653,26.3374415 C135.355653,28.3997806 133.926378,29.298316 132.578473,29.298316 C131.069251,29.298316 129.905447,28.1924889 129.905447,26.4293903 C129.905447,24.5627476 131.126414,23.4683124 132.670829,23.4683124 C134.272203,23.4683124 135.355653,24.6321161 135.355653,26.3374415 Z M130.931124,26.3948078 C130.931124,27.6161812 131.633963,28.5377039 132.624651,28.5377039 C133.592555,28.5377039 134.318381,27.6277766 134.318381,26.372024 C134.318381,25.4271074 133.846228,24.2287211 132.647842,24.2287211 C131.449252,24.2287211 130.931124,25.3347517 130.931124,26.3948078 Z" id="Stroke-55" fill="#231F20" fill-rule="nonzero"></path>
            <path d="M136.404521,25.1042693 C136.404521,24.5283685 136.393129,24.0558085 136.35875,23.5948438 L137.257285,23.5948438 L137.314652,24.5167732 L137.338046,24.5167732 C137.613892,23.9870503 138.258958,23.4685158 139.181294,23.4685158 C139.953095,23.4685158 141.151685,23.9290737 141.151685,25.8416908 L141.151685,29.1715812 L140.1374,29.1715812 L140.1374,25.9570337 C140.1374,25.0587017 139.80378,24.3094815 138.847268,24.3094815 C138.178808,24.3094815 137.66068,24.7818381 137.487361,25.3465504 C137.441386,25.4730818 137.418399,25.6459944 137.418399,25.818907 L137.418399,29.1715812 L136.404521,29.1715812 L136.404521,25.1042693" id="Fill-57" fill="#231F20" fill-rule="nonzero"></path>
            <path d="M136.404521,25.1042693 C136.404521,24.5283685 136.393129,24.0558085 136.35875,23.5948438 L137.257285,23.5948438 L137.314652,24.5167732 L137.338046,24.5167732 C137.613892,23.9870503 138.258958,23.4685158 139.181294,23.4685158 C139.953095,23.4685158 141.151685,23.9290737 141.151685,25.8416908 L141.151685,29.1715812 L140.1374,29.1715812 L140.1374,25.9570337 C140.1374,25.0587017 139.80378,24.3094815 138.847268,24.3094815 C138.178808,24.3094815 137.66068,24.7818381 137.487361,25.3465504 C137.441386,25.4730818 137.418399,25.6459944 137.418399,25.818907 L137.418399,29.1715812 L136.404521,29.1715812 L136.404521,25.1042693 Z" id="Stroke-58" fill="#231F20" fill-rule="nonzero"></path>
            <path d="M142.430424,28.1347157 C142.730072,28.330819 143.260202,28.5381107 143.766937,28.5381107 C144.504359,28.5381107 144.850184,28.1692982 144.850184,27.7085369 C144.850184,27.224585 144.562539,26.9593167 143.812912,26.6832668 C142.810222,26.3258462 142.338069,25.7725258 142.338069,25.1044727 C142.338069,24.2055305 143.064098,23.468109 144.262485,23.468109 C144.82679,23.468109 145.322134,23.6296297 145.633783,23.8137308 L145.38011,24.5511523 C145.160817,24.4132291 144.757828,24.2287211 144.239701,24.2287211 C143.639999,24.2287211 143.306176,24.5745464 143.306176,24.9893333 C143.306176,25.4500946 143.639999,25.6575897 144.366436,25.9340465 C145.334339,26.302859 145.829276,26.7868109 145.829276,27.6161812 C145.829276,28.595477 145.069275,29.2869241 143.743747,29.2869241 C143.133263,29.2869241 142.568755,29.1369987 142.176751,28.9067197 L142.430424,28.1347157" id="Fill-59" fill="#231F20" fill-rule="nonzero"></path>
            <path d="M142.430424,28.1347157 C142.730072,28.330819 143.260202,28.5381107 143.766937,28.5381107 C144.504359,28.5381107 144.850184,28.1692982 144.850184,27.7085369 C144.850184,27.224585 144.562539,26.9593167 143.812912,26.6832668 C142.810222,26.3258462 142.338069,25.7725258 142.338069,25.1044727 C142.338069,24.2055305 143.064098,23.468109 144.262485,23.468109 C144.82679,23.468109 145.322134,23.6296297 145.633783,23.8137308 L145.38011,24.5511523 C145.160817,24.4132291 144.757828,24.2287211 144.239701,24.2287211 C143.639999,24.2287211 143.306176,24.5745464 143.306176,24.9893333 C143.306176,25.4500946 143.639999,25.6575897 144.366436,25.9340465 C145.334339,26.302859 145.829276,26.7868109 145.829276,27.6161812 C145.829276,28.595477 145.069275,29.2869241 143.743747,29.2869241 C143.133263,29.2869241 142.568755,29.1369987 142.176751,28.9067197 L142.430424,28.1347157 Z" id="Stroke-60" fill="#231F20" fill-rule="nonzero"></path>
            <polyline id="Fill-62" fill="#D8262C" points="89.6505733 13.023169 95.0999657 13.023169 95.0999657 1.83775612 83.9143494 1.83775612 83.9143494 7.57418347 89.6505733 7.57418347 89.6505733 13.023169"></polyline>
            <polyline id="Fill-63" fill="#D8262C" points="83.9133322 13.0306958 83.9133322 7.5813034 72.7279193 7.5813034 72.7279193 18.7667163 78.4645501 18.7667163 78.4645501 13.0306958 83.9133322 13.0306958"></polyline>
            <polyline id="Fill-64" fill="#D8262C" points="83.9125185 18.7587826 78.4631261 18.7587826 78.4631261 29.9441955 89.6487424 29.9441955 89.6487424 24.2075647 83.9125185 24.2075647 83.9125185 18.7587826"></polyline>
            <polyline id="Fill-65" fill="#D8262C" points="89.6540315 18.7597998 89.6540315 24.2089887 100.839444 24.2089887 100.839444 13.0235759 95.1028136 13.0235759 95.1028136 18.7597998 89.6540315 18.7597998"></polyline>
            <path d="M52.9705154,4.7809325 C52.1873229,3.59698955 51.2474919,2.91428981 49.5761388,2.91428981 C47.8266698,2.91428981 46.312362,4.0068942 46.312362,5.57795801 C46.312362,7.05747984 48.0616276,7.74078987 49.3932582,8.26441 L50.6990537,8.76504292 C53.2575504,9.74413526 55.4248576,10.8595234 55.4248576,13.591543 C55.4248576,16.5965611 52.6572384,18.8958922 49.2368232,18.8958922 C46.0774043,18.8958922 43.7274199,17.1203846 43.1004591,14.4567164 L45.2415243,13.9330963 C45.5287627,15.6858201 47.0697193,17.1203846 49.1847459,17.1203846 C51.2993657,17.1203846 53.2317152,15.7088073 53.2317152,13.7736098 C53.2317152,11.7702644 51.430169,11.0871578 49.6023808,10.3586871 L48.4011466,9.90362173 C46.1034429,8.99288074 44.1190162,7.96822084 44.1190162,5.50940324 C44.1190162,2.84593846 46.7039583,1.13837538 49.628216,1.13837538 C51.8217653,1.13837538 53.6755921,2.1172643 54.7201878,3.80204359 L52.9705154,4.7809325" id="Fill-66" fill="#231F20" fill-rule="nonzero"></path>
            <g id="Group-70" transform="translate(0.000000, 0.813706)" fill="#231F20" fill-rule="nonzero">
                <path d="M59.364621,13.1344434 L56.9883946,18.0067144 L54.5863331,18.0067144 L63.6727901,0.0209529422 L72.5244927,18.0067144 L70.0961891,18.0067144 L67.7724468,13.1344434 L59.364621,13.1344434 Z M63.6209163,4.48331935 L60.2523748,11.3587324 L66.9107316,11.3587324 L63.6209163,4.48331935 L63.6209163,4.48331935 Z" id="Fill-67"></path>
                <polyline id="Fill-69" points="41.3538381 18.0067144 43.7819383 18.0067144 34.930439 0.0209529422 27.3342855 15.422586 20.8868821 0.208715716 20.6132733 0.208715716 14.865454 13.9328929 9.6792957 0.208715716 9.35462681 0.208715716 0.652035861 17.9755901 2.90742683 17.9755901 9.1841553 4.88976574 14.8656575 19.1672633 20.6743013 4.86840595 27.0787816 20.2098247 30.62227 13.1344434 37.8239793 13.1344434 36.8662468 11.3587324 31.5098204 11.3587324 34.8785652 4.48352278 41.3538381 18.0067144"></polyline>
            </g>
            <polygon id="Fill-71" fill="#231F20" fill-rule="nonzero" points="127.637444 23.0714271 129.063058 23.0714271 129.063058 21.6460167 127.637444 21.6460167"></polygon>
            <polygon id="Fill-72" fill="#231F20" fill-rule="nonzero" points="124.744921 1.94028313 126.170534 1.94028313 126.170534 0.514872784 124.744921 0.514872784"></polygon>
            <path d="M4.46341292,24.0763291 C4.46341292,23.4829985 4.5521463,22.9850321 4.72961573,22.5824149 C4.8620556,22.2857496 5.04283331,22.0195494 5.27195428,21.7838065 C5.50107526,21.5480635 5.75204505,21.3732455 6.02487118,21.2593472 C6.38775642,21.1057169 6.80626014,21.028903 7.28039487,21.028903 C8.13860523,21.028903 8.82529565,21.2951031 9.34048675,21.8275114 C9.85567784,22.3599197 10.1132695,23.1002474 10.1132695,24.0485169 C10.1132695,24.98884 9.85766441,25.7245324 9.34644651,26.2556163 C8.83522862,26.7867002 8.15184914,27.0522382 7.29628758,27.0522382 C6.43013083,27.0522382 5.74145383,26.7880246 5.23023593,26.2595895 C4.71901803,25.7311544 4.46341292,25.0034082 4.46341292,24.0763291 Z M5.67523167,24.0365974 C5.67523167,24.6961479 5.82753524,25.1961009 6.13214694,25.5364714 C6.43675864,25.8768419 6.82347726,26.0470246 7.2923144,26.0470246 C7.76115154,26.0470246 8.14588359,25.8781663 8.4465221,25.5404446 C8.7471606,25.2027229 8.8974776,24.696148 8.8974776,24.0207047 C8.8974776,23.3532077 8.75113374,22.8552413 8.45844162,22.5267904 C8.16574951,22.1983395 7.77704432,22.0341166 7.2923144,22.0341166 C6.80758447,22.0341166 6.41689272,22.2003261 6.12022741,22.5327502 C5.8235621,22.8651743 5.67523167,23.3664516 5.67523167,24.0365974 Z M11.0766128,26.9529087 L11.0766128,21.1282324 L15.0696549,21.1282324 L15.0696549,22.1135801 L12.252673,22.1135801 L12.252673,23.4922722 L14.6842569,23.4922722 L14.6842569,24.4776199 L12.252673,24.4776199 L12.252673,26.9529087 L11.0766128,26.9529087 Z M18.7084627,26.9529087 L18.7084627,21.1282324 L22.7015048,21.1282324 L22.7015048,22.1135801 L19.8845228,22.1135801 L19.8845228,23.4922722 L22.3161067,23.4922722 L22.3161067,24.4776199 L19.8845228,24.4776199 L19.8845228,26.9529087 L18.7084627,26.9529087 Z M23.7403384,26.9529087 L23.7403384,21.1759105 L24.9163986,21.1759105 L24.9163986,25.9715342 L27.8406563,25.9715342 L27.8406563,26.9529087 L23.7403384,26.9529087 Z M28.8044955,24.0763291 C28.8044955,23.4829985 28.8932289,22.9850321 29.0706983,22.5824149 C29.2031382,22.2857496 29.3839159,22.0195494 29.6130368,21.7838065 C29.8421578,21.5480635 30.0931276,21.3732455 30.3659537,21.2593472 C30.728839,21.1057169 31.1473427,21.028903 31.6214774,21.028903 C32.4796878,21.028903 33.1663782,21.2951031 33.6815693,21.8275114 C34.1967604,22.3599197 34.4543521,23.1002474 34.4543521,24.0485169 C34.4543521,24.98884 34.198747,25.7245324 33.6875291,26.2556163 C33.1763112,26.7867002 32.4929317,27.0522382 31.6373701,27.0522382 C30.7712134,27.0522382 30.0825364,26.7880246 29.5713185,26.2595895 C29.0601006,25.7311544 28.8044955,25.0034082 28.8044955,24.0763291 Z M30.0163142,24.0365974 C30.0163142,24.6961479 30.1686178,25.1961009 30.4732295,25.5364714 C30.7778412,25.8768419 31.1645598,26.0470246 31.633397,26.0470246 C32.1022341,26.0470246 32.4869661,25.8781663 32.7876047,25.5404446 C33.0882432,25.2027229 33.2385602,24.696148 33.2385602,24.0207047 C33.2385602,23.3532077 33.0922163,22.8552413 32.7995242,22.5267904 C32.5068321,22.1983395 32.1181269,22.0341166 31.633397,22.0341166 C31.148667,22.0341166 30.7579753,22.2003261 30.46131,22.5327502 C30.1646447,22.8651743 30.0163142,23.3664516 30.0163142,24.0365974 Z M35.2509809,26.9529087 L35.2509809,21.1282324 L37.7262697,21.1282324 C38.3487371,21.1282324 38.8010125,21.1805453 39.0831094,21.2851728 C39.3652063,21.3898003 39.5910129,21.5758756 39.7605359,21.8434041 C39.930059,22.1109326 40.0148192,22.4168642 40.0148192,22.7612078 C40.0148192,23.1982594 39.8863545,23.5591526 39.6294211,23.8438983 C39.3724878,24.1286441 38.9884179,24.3080974 38.4772,24.3822637 C38.7314846,24.5305964 38.9413986,24.693495 39.1069485,24.8709644 C39.2518046,25.0262501 39.4407668,25.2869875 39.6738396,25.6531829 L40.4876272,26.9529087 L39.0811228,26.9529087 L38.0436818,25.4083234 C37.8417854,25.1139483 37.697575,24.9209239 37.6110476,24.829246 C37.4997981,24.7113746 37.3819284,24.6305875 37.2574349,24.5868823 C37.1578401,24.5519182 37.0116284,24.5309399 36.8187967,24.5239472 L36.4270411,24.5213249 L36.4270411,26.9529087 L35.2509809,26.9529087 Z M36.4270411,22.1135801 L36.4270411,23.5916016 L37.2971667,23.5916016 C37.8613605,23.5916016 38.2136453,23.5677628 38.3540316,23.5200845 C38.4944178,23.4724061 38.6043413,23.3902946 38.6838052,23.2737475 C38.7632691,23.1572005 38.8030005,23.0115188 38.8030005,22.8366982 C38.8030005,22.6406872 38.7506875,22.4824239 38.64606,22.3619036 C38.5414325,22.2413833 38.3937643,22.1652315 38.2030509,22.133446 L38.1112264,22.1255977 C37.9711356,22.1175859 37.7156764,22.1135801 37.3448448,22.1135801 L36.4270411,22.1135801 Z M42.1417437,21.1282324 L42.1417437,26.9529087 L40.9656836,26.9529087 L40.9656836,21.1282324 L42.1417437,21.1282324 Z M45.7707704,21.1282324 C46.2555004,21.1282324 46.6250021,21.165315 46.8792866,21.2394813 C47.2209815,21.3401356 47.5136692,21.5189268 47.7573586,21.7758601 C48.0010479,22.0327935 48.186461,22.3473334 48.3136032,22.7194895 C48.4407455,23.0916455 48.5043157,23.5505428 48.5043157,24.096195 C48.5043157,24.5756274 48.4447187,24.9888336 48.3255228,25.335826 C48.1798389,25.7596336 47.9719114,26.1026477 47.7017341,26.3648787 C47.4977767,26.5635385 47.2223059,26.7184908 46.8753134,26.8297403 C46.6157313,26.911853 46.268744,26.9529087 45.8343413,26.9529087 L43.6212821,26.9529087 L43.6212821,21.1282324 L45.7707704,21.1282324 Z M52.4627155,21.1282324 L54.79497,26.9529087 L53.5156072,26.9529087 L53.0070407,25.6298411 L50.6787594,25.6298411 L50.1980051,26.9529087 L48.9504277,26.9529087 L51.2191114,21.1282324 L52.4627155,21.1282324 Z M44.7973423,22.1135801 L44.7973423,25.9715342 L45.6754142,25.9715342 C46.0038651,25.9715342 46.2409289,25.9529929 46.3866128,25.9159097 C46.5773262,25.8682314 46.7355894,25.7874443 46.8614073,25.673546 C46.9872252,25.5596477 47.0898646,25.3722481 47.1693285,25.1113416 C47.2487924,24.850435 47.2885238,24.4948393 47.2885238,24.0445437 C47.2885238,23.5942482 47.2487924,23.2485853 47.1693285,23.0075447 C47.0898646,22.7665042 46.9786167,22.5784424 46.8355817,22.4433537 C46.6925466,22.308265 46.5111067,22.2168829 46.2912565,22.1692046 C46.1475593,22.1367568 45.8832006,22.1185051 45.498174,22.1144492 L44.7973423,22.1135801 Z M51.8270073,22.4870587 L51.0403184,24.6484665 L52.6295889,24.6484665 L51.8270073,22.4870587 Z" id="OFFLORIDA" fill="#231F20" fill-rule="nonzero"></path>
        </g>
    </g>
</svg>