<?xml version="1.0" encoding="UTF-8"?>
<svg width="154px" height="30px" viewBox="0 0 154 30" version="1.1" xmlns="http://www.w3.org/2000/svg" xmlns:xlink="http://www.w3.org/1999/xlink">
    <!-- Generator: Sketch 60 (88103) - https://sketch.com -->
    <title>Masa-plane-white</title>
    <desc>Created with Sketch.</desc>
    <defs>
        <polygon id="path-1" points="0 0.461869874 92.9655112 0.461869874 92.9655112 27.2497868 0 27.2497868"></polygon>
    </defs>
    <g id="Masa-plane-white" stroke="none" stroke-width="1" fill="none" fill-rule="evenodd">
        <g id="medairservices-logo-vector[4]-copy">
            <g id="Group-4">
                <mask id="mask-2" fill="white">
                    <use xlink:href="#path-1"></use>
                </mask>
                <g id="Clip-2"></g>
                <path d="M0,21.6280481 C0.386856206,20.2542264 0.870694369,18.8996938 1.14235101,17.503368 C2.17325314,12.2079388 3.13449973,6.89911427 4.12950246,1.59725533 C4.15147075,1.47937671 4.26077638,1.37810826 4.52171679,0.962854019 C7.34919628,6.75551668 9.57924549,12.6049754 12.3499289,18.5717769 C14.9871952,12.5487151 17.5333734,6.7340842 20.2794095,0.461869874 C22.0438382,7.26828868 23.690924,13.6235539 25.4408857,20.3763915 C28.2110334,13.9921925 30.8059705,8.010924 33.5257518,1.74246036 C36.8536796,9.09272827 40.1103445,16.1295462 43.2946747,23.4605249 L40.6402624,23.4605249 C38.3298414,18.2738655 36.0001312,13.0427337 33.5375396,7.51476217 C32.6266594,9.84768726 31.8052597,11.9502132 30.8900929,14.2922471 L34.9419027,14.2922471 C35.2853581,15.1693712 35.5639803,15.8809295 35.918152,16.78538 L29.491088,16.78538 C28.0315364,20.1358119 26.5848442,23.4578458 24.932936,27.2497868 C23.0431274,20.9427447 21.2963805,15.1120394 19.4280044,8.87679606 C16.8336031,14.0082668 14.8677091,19.0781192 12.3145653,24.2867469 C9.96878075,19.0893712 7.76766539,14.2113395 5.56655003,9.33330782 C5.45778021,9.3236632 5.34901039,9.3145544 5.24024057,9.30437397 C4.30899945,14.0339858 3.37722253,18.7641334 2.4545544,23.4519519 C1.45419355,23.5275014 0.727096774,23.5821542 0,23.6373428 L0,21.6280481" id="Fill-1" fill="#FFD840" mask="url(#mask-2)"></path>
                <path d="M84.5430837,0.73138327 C84.7879497,1.65726627 85.0140623,2.77550574 85.1308693,4.05448879 C85.2476763,5.34258065 85.2273155,6.49082559 85.1523018,7.45100055 C86.9338764,9.23900492 88.7717113,11.0768398 90.6009732,12.9232477 C91.2589502,13.5876545 91.9169273,14.2542045 92.5368617,14.9539748 C93.0319519,15.5128267 93.2109131,16.1161509 92.4548824,16.7146528 C90.2376927,15.3488682 88.003357,13.973439 85.388059,12.3627884 C85.2867906,13.7580426 85.2176709,14.7037507 85.1426572,15.7325096 C85.6420339,15.8519956 86.0610388,15.9527283 86.5336249,16.0657846 L86.5336249,18.4185347 C85.9833461,18.0793658 85.6307818,17.8623619 85.1067578,17.5392674 C85.0306725,18.3376271 84.9706616,18.9661345 84.926725,19.4280044 C85.6956151,20.7155604 87.433789,21.2845927 86.7951011,23.1974412 C85.9002952,22.8068343 85.0644286,22.443018 84.1996282,22.0658065 C83.3696555,22.4194423 82.5246802,22.7795079 81.5687917,23.1861892 C81.0217277,21.2760197 82.8022307,20.7439584 83.4543138,19.4697977 C83.4243084,19.0095353 83.3857299,18.4217496 83.3375068,17.6780426 C82.9142154,17.882187 82.6045161,18.0316785 82.0178021,18.315123 C81.9363587,17.5398032 81.8667031,16.8770038 81.7868671,16.1177583 C82.3660798,15.9955932 82.787228,15.9071843 83.3316129,15.7925205 C83.2866047,14.8130563 83.2432039,13.8512739 83.1799781,12.4710224 C81.7027447,13.2645599 80.5277091,13.8309131 79.4201859,14.5081793 C78.2885511,15.2009841 77.2238928,16.0030946 76.0804702,16.7912739 C75.1481575,16.1022198 75.4696446,15.3928048 76.0295681,14.7771569 C76.9275888,13.7891197 77.8974084,12.8659158 78.8377583,11.9164571 C80.3385675,10.4006452 81.8404483,8.88644068 83.1387206,7.57691635 C83.1874795,6.42277747 83.2367742,5.26810279 83.2849973,4.1134281 C83.436632,2.98607983 83.587731,1.85873155 83.7393658,0.73138327 C83.8106288,0.564209951 83.9767305,0.457583379 84.1556916,0.46347731 C84.3244724,0.469371241 84.4761072,0.574390377 84.5430837,0.73138327" id="Fill-3" fill="#FFFFFF" mask="url(#mask-2)"></path>
            </g>
            <path d="M61.6301586,15.0879278 L68.8550465,15.0879278 C67.6596501,12.2368726 66.5339092,9.55138327 65.2629634,6.51868781 C63.9636195,9.58299617 62.8314489,12.2545544 61.6301586,15.0879278 M72.4139092,23.511427 C71.5758994,21.5567851 70.7405686,19.608573 69.8457627,17.5205139 L60.5842537,17.5205139 C59.6798032,19.5753527 58.8026791,21.5696446 57.9228759,23.5692947 L55.3150793,23.5692947 C58.5444177,15.9832695 61.8675232,8.63782395 65.3106506,0.816577365 C68.7039475,8.52155276 71.8566648,15.9045052 75.0608201,23.511427 L72.4139092,23.511427" id="Fill-5" fill="#FFD840"></path>
            <path d="M53.7242537,17.3651285 C53.6106616,15.084713 52.12807,14.1020339 50.4407983,13.3031383 C49.2368289,12.7330344 47.974456,12.2690213 46.8213887,11.6115801 C43.8374522,9.91037726 43.148398,7.98145435 44.0180208,4.90589393 C44.7242209,2.4095462 47.9610607,0.847118644 50.7054893,1.38775287 C53.1359322,1.86623291 54.1829087,2.63405139 55.1607654,4.72693275 C54.7010388,5.04788409 54.2241662,5.3811591 53.6417387,5.78730454 C53.1257518,5.30293056 52.675134,4.83409513 52.1779005,4.42259158 C50.6851285,3.18540186 48.4422198,3.27756151 47.0469656,4.61012575 C45.672608,5.92340077 45.863357,8.23007108 47.5672389,9.23203937 C49.170924,10.17614 50.9101695,10.8893056 52.5685074,11.7449973 C54.1491525,12.5615746 55.4334937,13.6331985 55.9607326,15.4672827 C56.9391252,18.8691525 54.5135046,23.0093712 51.0317988,23.5923346 C47.2136031,24.2326299 43.8004811,22.8861345 42.5938327,18.2101039 C43.2871733,17.9877419 43.9955167,17.7605577 44.8383488,17.4899727 C45.4802515,19.8089666 46.752269,21.3017387 49.3230946,21.5541061 C51.7106725,21.2197594 53.4927829,20.021684 53.7242537,17.3651285" id="Fill-6" fill="#FFD840"></path>
            <path d="M74.6332422,3.99715692 L74.9611591,3.99715692 C75.2987206,3.99715692 75.4964352,3.84766539 75.4964352,3.61619464 C75.4964352,3.36061236 75.2987206,3.23523237 74.9708037,3.23523237 C74.7923783,3.23523237 74.6862876,3.24969929 74.6332422,3.2593439 L74.6332422,3.99715692 Z M74.1365446,2.91213778 C74.3294369,2.88266812 74.6187753,2.85855659 74.927403,2.85855659 C75.8634664,2.85855659 75.9936687,3.29310005 75.9936687,3.57279388 C75.9936687,3.92 75.7616621,4.13700383 75.4825041,4.20451613 L75.4825041,4.21898305 C75.6946856,4.27685074 75.8055987,4.441345 75.8682887,4.65781301 C75.9454456,4.94768726 76.0418917,5.26595954 76.109404,5.37687261 L75.5789502,5.37687261 C75.5259049,5.304538 75.4825041,5.1695134 75.3812356,4.78855112 C75.2987206,4.46009841 75.1829852,4.3829415 74.8984691,4.37329688 L74.6332422,4.37329688 L74.6332422,5.37687261 L74.1365446,5.37687261 L74.1365446,2.91213778 Z M72.915965,4.12253691 C72.915965,5.28042646 73.8568507,6.22077638 75.0142045,6.22077638 C76.172094,6.22077638 77.1129798,5.28042646 77.1129798,4.12253691 C77.1129798,2.96518316 76.172094,2.02429743 75.0142045,2.02429743 C73.8466703,2.02429743 72.915965,2.97482777 72.915965,4.12253691 Z M75.0142045,6.39920175 C73.7598688,6.39920175 72.7375396,5.37687261 72.7375396,4.12253691 C72.7375396,2.86873701 73.7598688,1.84587206 75.0142045,1.84587206 C76.2685402,1.84587206 77.2914051,2.86873701 77.2914051,4.12253691 C77.2914051,5.38651722 76.2588956,6.39920175 75.0142045,6.39920175 L75.0142045,6.39920175 Z" id="Fill-7" fill="#FFD840"></path>
        </g>
    </g>
</svg>