<?xml version="1.0" encoding="UTF-8"?>
<svg width="38px" height="38px" viewBox="0 0 38 38" version="1.1" xmlns="http://www.w3.org/2000/svg" xmlns:xlink="http://www.w3.org/1999/xlink">
    <!-- Generator: Sketch 61 (89581) - https://sketch.com -->
    <title>ATTORNEY-SRCH</title>
    <desc>Created with Sketch.</desc>
    <g id="ATTORNEY-SRCH" stroke="none" stroke-width="1" fill="none" fill-rule="evenodd">
        <path d="M21.0165363,35.3925635 C19.6690548,23.3014861 19.7449807,23.6426994 19.624314,23.0516934 C19.4285363,22.0923784 18.8577955,21.3355696 18.0654992,20.8452914 L18.0380177,20.838386 C17.7008326,20.6337031 17.3249066,20.4724037 16.921277,20.3545628 L13.0361659,19.3745318 C12.9098696,19.3165871 12.8224622,19.1260151 12.8224622,18.9087224 L12.8224622,17.0099076 C11.3581659,17.6569818 9.65157329,17.6466989 8.20786959,17 L8.20786959,18.9087975 C8.20786959,19.1260901 8.12046218,19.3166621 7.99416588,19.3746068 C4.70757329,20.2617912 3.97661033,20.2410753 2.99231403,20.8384611 L2.96483255,20.8453664 C1.87757329,21.5181855 1.45735107,22.4300639 1.31246218,23.6338425 L0.0137955143,35.3925635 C-0.116352634,36.9169895 0.681202922,38 2.1169807,38 C4.40179551,38 17.0872029,38 18.9134251,38 C20.5154251,38 21.0427585,36.6850606 21.0310548,35.8140887 C21.0310548,35.813188 21.0310548,35.8122873 21.0310548,35.8113866 C21.0336474,35.65369 21.0265363,35.5104795 21.0165363,35.3925635 Z" id="Path" fill="#C5DAFF" fill-rule="nonzero"></path>
        <rect id="Rectangle" fill="#E0E0E0" fill-rule="nonzero" x="18" y="25" width="20" height="6"></rect>
        <path d="M13.0361659,19.3745318 C12.9098696,19.3165871 12.8224622,19.1260151 12.8224622,18.9087224 L12.8224622,17.0099076 C11.3581659,17.6569818 9.65157329,17.6466989 8.20786959,17 L8.20786959,18.9087975 C8.20786959,19.1260901 8.12046218,19.3166621 7.99416588,19.3746068 C6.14840356,19.8728528 7.35064197,22.3412398 11,22 C11.4551403,21.9574413 12.1338622,21.0822852 13.0361659,19.3745318 Z" id="Path" fill="#E0E0E0" fill-rule="nonzero"></path>
        <path d="M8.34787618,21.2 L9.96340162,23.7848407 L7.43711141,33.8900016 L10.5,36.3403124 L13.5628886,33.8900016 L11.0365984,23.7848407 L12.6521238,21.2 L8.34787618,21.2 Z M10.9850713,23.5787322 L10.9239992,23.9649995 L11.0365984,23.7848407 L10.9850713,23.5787322 Z" id="Path-4" fill="#4764CC" fill-rule="nonzero"></path>
        <path d="M3.26922694,9.22211839 L3.26922694,7.23293321 C3.26922694,1.3778221 9.8884862,-2.00973346 14.6374492,1.29856284 C18.3624862,3.89937765 17.6530047,7.72397025 17.7349306,9.22211839" id="SVGCleanerId_0_1_" fill="#989AA2" fill-rule="nonzero"></path>
        <path d="M19.0949306,9.86893321 C19.0949306,10.7024888 18.2880418,11.3781184 17.2927084,11.3781184 L17.2927084,8.3598221 C18.2880418,8.3598221 19.0949306,9.03545173 19.0949306,9.86893321 Z" id="Path" fill="#E0E0E0" fill-rule="nonzero"></path>
        <path d="M2.90922694,9.86893321 C2.90922694,10.7024888 3.71611583,11.3781184 4.71152324,11.3781184 L4.71152324,8.3598221 C3.71611583,8.3598221 2.90922694,9.03545173 2.90922694,9.86893321 Z" id="Path" fill="#E0E0E0" fill-rule="nonzero"></path>
        <path d="M14.9585603,6.26293321 C14.9375232,5.68456284 14.4612269,5.36767395 14.0017455,5.4392295 C13.8943381,5.45589617 13.7757455,5.47330358 13.6997455,5.48404432 C11.4167825,5.80811839 9.2464862,5.78767395 7.00270842,5.4392295 C6.54670842,5.36819247 6.06663435,5.67997025 6.04589361,6.26300728 C6.01456028,7.12226654 5.65737509,7.76115543 5.11315287,8.15908136 C4.88641213,8.32500728 4.71915287,8.38174802 4.71152324,8.38597025 C4.71152324,12.1342665 4.6667825,12.3847851 4.86759731,13.2338962 C5.05989361,14.0445628 5.41544916,14.7692295 5.88056028,15.3840443 C8.57485657,18.9472295 14.2158195,18.2515999 15.8884121,14.0250073 C16.4420418,12.6264147 16.2928566,11.5646369 16.2928566,8.38597025 C16.2712269,8.3698221 15.0184121,7.9255258 14.9585603,6.26293321 Z" id="Path" fill="#E0E0E0" fill-rule="nonzero"></path>
        <path d="M12.823301,19.0847851 L10.5021899,21.2701184 L11.7551529,22.5327851 C11.9944121,22.7738962 12.3909306,22.7504147 12.6001158,22.482711 L14.5929306,19.9318221 L12.823301,19.0847851 Z" id="Path" fill="#8DA5FC" fill-rule="nonzero"></path>
        <path d="M8.20107879,19.0935258 L10.502264,21.2701184 L9.24930102,22.5327851 C9.01004176,22.7738962 8.61352324,22.7504147 8.40433805,22.482711 L6.41152324,19.9318221 L8.20107879,19.0935258 Z" id="Path" fill="#8DA5FC" fill-rule="nonzero"></path>
        <path d="M29.8122683,28.2591723 C29.8134121,28.2752372 29.8144905,28.2911263 29.8144905,28.3075075 L29.8144905,29.0084215 C29.8144905,29.3626574 29.5477589,29.6494348 29.2185764,29.6494348 L26.7812602,29.6494348 C26.4520777,29.6494348 26.1853461,29.3626574 26.1853461,29.0084215 L26.1853461,28.3075075 C26.1853461,28.2911263 26.1864899,28.2751669 26.1876337,28.2591723 L18,26 L18,36.2725249 C18,36.5850695 18.2354245,36.8383814 18.5259795,36.8383814 L20.4164013,37.3892533 L20.4164013,37.8771757 C20.4164013,37.9450911 20.4676103,38 20.5307148,38 L21.8923466,38 C21.9553857,38 22.0065294,37.9450911 22.0065294,37.8771757 L22.0065294,37.3892533 L33.9119348,37.266429 L33.9119348,37.7543514 C33.9119348,37.8222669 33.9630458,37.8771757 34.0261176,37.8771757 L35.3877494,37.8771757 C35.4507885,37.8771757 35.5019649,37.8222669 35.5019649,37.7543514 L35.5019649,37.266429 L37.4738897,36.8383814 C37.7643468,36.8383814 38,36.5851046 38,36.2725249 L38,26 L29.8122683,28.2591723 Z" id="Path" fill="#989AA2" fill-rule="nonzero"></path>
        <path d="M28,28 L38,25.4598793 L38,23.0369411 C38,22.7492435 37.7643472,22.5161405 37.4738906,22.5161405 L31.6291385,22.5161405 L31.6291385,20.6677238 C31.6291385,20.2989919 31.3272113,20 30.9547943,20 L25.044977,20 C24.6726579,20 24.3707308,20.2989919 24.3707308,20.6677238 L24.3707308,22.5161405 L18.5259787,22.5161405 C18.2354241,22.5161405 18,22.7492435 18,23.0369411 L18,25.459944 L28,28 Z M25.8434384,21.4583583 L30.1563982,21.4583583 L30.1563982,22.5161405 L25.8434384,22.5161405 L25.8434384,21.4583583 Z" id="Shape" fill="#989AA2" fill-rule="nonzero"></path>
    </g>
</svg>