<?xml version="1.0" encoding="UTF-8"?>
<svg width="38px" height="38px" viewBox="0 0 38 38" version="1.1" xmlns="http://www.w3.org/2000/svg" xmlns:xlink="http://www.w3.org/1999/xlink">
    <!-- Generator: Sketch 61 (89581) - https://sketch.com -->
    <title>CURRENCY-ASSIST</title>
    <desc>Created with Sketch.</desc>
    <g id="CURRENCY-ASSIST" stroke="none" stroke-width="1" fill="none" fill-rule="evenodd">
        <g id="family" transform="translate(1.000000, 16.000000)">
            <g id="Group" transform="translate(0.000000, 0.962963)"></g>
        </g>
        <g id="bank" fill-rule="nonzero">
            <g id="Group" transform="translate(6.518519, 0.000000)">
                <path d="M24.8608931,24.630963 C24.8615556,24.3445926 24.7824444,24.0641481 24.6320741,23.8202963 L23.1742222,21.4734074 C22.9925185,21.1125185 22.8983704,20.7137778 22.8996296,20.3097778 L22.8996296,13.0794074 C22.8996296,8.38555556 19.0948889,4.58081481 14.401037,4.58081481 L10.4785926,4.58081481 C5.78474074,4.58081481 1.98,8.38555556 1.98,13.0794074 L1.98,20.3097778 C1.98133333,20.7137778 1.88718519,21.1125926 1.70540741,21.4734074 L0.247555556,23.8202963 C0.0971851852,24.0641481 0.0180740741,24.3445926 0.0187365618,24.630963 L0.0187365618,24.630963 C0.022,25.471037 0.701925926,26.1508889 1.54192593,26.1541481 L23.3375556,26.1541481 C24.1777037,26.1508889 24.8576296,25.470963 24.8608931,24.630963 Z" id="Path" fill="#4764CC"></path>
                <polygon id="Path" fill="#8DA5FC" points="14.4011111 4.58081481 17.6697778 0.00466666667 7.21 0.00466666667 10.4786667 4.58081481 10.4786667 5.8882963 14.4011111 5.8882963"></polygon>
            </g>
            <path d="M31.1505926,23.8202963 L29.6927407,21.4734074 C29.511037,21.1125185 29.4168889,20.7137778 29.4181481,20.3097778 L29.4181481,13.0794074 C29.4227407,11.1861481 28.7945185,9.34525926 27.6334815,7.84948148 C25.888,17.466 19.7428889,23.0097037 13.9703704,26.1541598 L29.8562222,26.1541598 C30.7008148,26.1574074 31.3885926,25.4755556 31.3918684,24.6302963 C31.3931852,24.3439259 31.3140741,24.0634815 31.1637037,23.8202963 L31.1505926,23.8202963 Z" id="Path" fill="#4764CC"></path>
            <path d="M22.227037,14.3868889 L22.227037,13.9685185 C22.2237778,12.7571111 21.2418519,11.7752593 20.0304444,11.7719259 L19.6120741,11.7719259 L19.6120741,10.4644444 L18.3045926,10.4644444 L18.3045926,11.7719259 L17.8862222,11.7719259 C16.6728889,11.768 15.6863704,12.7479259 15.6824306,13.9612593 C15.6791852,14.8823704 16.2511852,15.7074074 17.1148148,16.0277037 L18.3045926,16.4722222 L18.3045926,18.962963 L17.8862222,18.962963 C17.3952593,18.962963 16.9971111,18.5648148 16.9971111,18.0738519 L16.9971111,18.0738519 L16.9971111,17.6554815 L15.6896296,17.6554815 L15.6896296,18.0738519 C15.6928889,19.2852593 16.6748148,20.2671111 17.8862222,20.2704562 L20.0305185,20.2704562 C21.2438519,20.2743704 22.2303704,19.2944444 22.2343102,18.0811111 C22.2375556,17.16 21.6655556,16.334963 20.8019259,16.0146667 L19.6121481,15.5701481 L19.6121481,13.0794074 L20.0305185,13.0794074 C20.5214815,13.0794074 20.9196296,13.4775556 20.9196296,13.9685185 L20.9196296,13.9685185 L20.9196296,14.3868889 L22.227037,14.3868889 L22.227037,14.3868889 Z M20.3442963,17.2371852 C20.6894815,17.3711852 20.9176296,17.7033333 20.9195556,18.074 C20.9195556,18.564963 20.5214074,18.9631111 20.0304444,18.9631111 L20.0304444,18.9631111 L19.6120741,18.9631111 L19.6120741,16.9626667 L20.3442963,17.2371852 Z M18.3046667,15.0798519 L17.5724444,14.8052593 C17.2272593,14.6712593 16.9991111,14.3391111 16.9971852,13.9684444 C16.9971852,13.4774815 17.3953333,13.0793333 17.8862963,13.0793333 L17.8862963,13.0793333 L18.3046667,13.0793333 L18.3046667,15.0798519 L18.3046667,15.0798519 Z" id="Shape" fill="#C5DAFF"></path>
            <path d="M37.6356296,22.8135556 C37.0988889,21.9100741 35.9457037,21.5904444 35.0206667,22.0879259 L25.7441481,26.0495556 C25.5807407,26.1188148 25.4048889,26.1548148 25.2277037,26.1541481 L13.7284444,26.1541481 C13.0060741,26.1541481 12.420963,25.569037 12.420963,24.8466667 C12.420963,24.1242963 13.0060741,23.5391852 13.7284444,23.5391852 L18.9583704,23.5391852 C21.1248889,23.5391852 22.8808148,21.7832593 22.8808148,19.6167407 L12.0025926,19.6167407 C10.1995556,19.6180741 8.49466667,20.4385185 7.36762963,21.846 L3.26866667,26.8078519 L7.88407407,35.2671852 L25.6461481,30.9982963 C26.4136296,30.8211111 27.1562963,30.5491852 27.8557778,30.1876296 L37.0080741,25.5002963 C37.9187407,24.9283704 38.1985185,23.7300741 37.6356296,22.8135556 Z" id="Path" fill="#E0E0E0"></path>
            <path d="M6.41318519,32.5738519 L7.88407407,35.2672593 L25.6461481,30.9983704 C26.4136296,30.8211852 27.1562963,30.5492593 27.8557778,30.1877037 L32.8045926,27.6446667 C24.5805185,30.1615556 13.6631111,31.7305185 6.41318519,32.5738519 Z" id="Path" fill="#E0E0E0"></path>
            <polygon id="Path" fill="#989AA2" points="0 26.1541481 0 37.9214074 8.49859259 37.9214074 10.4597778 35.9602222 2.61496296 24.192963"></polygon>
            <circle id="Oval" fill="#D9D9D9" cx="5.88362963" cy="34.6546667" r="1.30748148"></circle>
        </g>
    </g>
</svg>