<?xml version="1.0" encoding="UTF-8"?>
<svg width="38px" height="38px" viewBox="0 0 38 38" version="1.1" xmlns="http://www.w3.org/2000/svg" xmlns:xlink="http://www.w3.org/1999/xlink">
    <!-- Generator: Sketch 61 (89581) - https://sketch.com -->
    <title>DEPENDENT-RET</title>
    <desc>Created with Sketch.</desc>
    <g id="DEPENDENT-RET" stroke="none" stroke-width="1" fill="none" fill-rule="evenodd">
        <g id="family" fill-rule="nonzero">
            <g id="Path" transform="translate(0.000329, 14.020074)">
                <path d="M21.0162076,21.3724895 C19.6687262,9.28141207 19.7446521,9.62262529 19.6239854,9.03161938 C19.4282076,8.07230433 18.8574669,7.31549551 18.0651706,6.82521729 L18.0376891,6.81831197 C17.7005039,6.61362907 17.324578,6.45232964 16.9209484,6.33448873 L13.0358373,5.35445771 C12.909541,5.29651301 12.8221336,5.10594099 12.8221336,4.88864837 L12.8221336,2.98983357 C11.3578373,3.63690774 9.65124468,3.62662481 8.20754098,2.97992593 L8.20754098,4.88872343 C8.20754098,5.10601605 8.12013357,5.29658807 7.99383727,5.35453277 C4.70724468,6.24171716 3.97628172,6.22100118 2.99198542,6.81838702 L2.96450394,6.82529235 C1.87724468,7.49811138 1.45702246,8.40998983 1.31213357,9.61376846 L0.0134669012,21.3724895 C-0.116681247,22.8969155 0.680874309,23.9799259 2.11665209,23.9799259 C4.4014669,23.9799259 20.1734492,23.9799259 21.9996714,23.9799259 C23.6016714,23.9799259 21.0424299,22.6649865 21.0307262,21.7940147 C21.0333188,21.6336159 21.0262076,21.4904054 21.0162076,21.3724895 Z" fill="#8DA5FC"></path>
                <path d="M12.9996714,6.97992593 L12.9996714,0.979925926 C11.5595658,0.933777778 9.41309649,3.21096296 8.21707134,2.96296296 L7.99967139,5.97992593 L8.99967139,6.97992593 L12.9996714,6.97992593 Z" fill="#E0E0E0"></path>
            </g>
            <path d="M14.6377778,1.29859259 C18.3628148,3.89940741 17.6533333,7.724 17.7352593,9.22214815 L16.296404,9.22446467 C16.3149458,11.7662578 16.3905822,12.7572731 15.8887407,14.025037 C14.2161481,18.2516296 8.57518519,18.9472593 5.88088889,15.3840741 C5.41577778,14.7692593 5.06022222,14.0445926 4.86792593,13.2339259 C4.68323777,12.4530036 4.70624955,12.178393 4.71113659,9.22348266 L3.26955556,9.22214815 L3.26955556,7.23296296 C3.26955556,1.37785185 9.88881481,-2.0097037 14.6377778,1.29859259 Z" id="Combined-Shape" fill="#E0E0E0"></path>
            <path d="M10.5000311,12.2755489 C9.61784868,12.2755489 8.77476703,11.8970464 8.18643276,11.2364297 C7.89586581,10.9112642 7.95128133,10.433553 8.30847452,10.1699368 C8.66657915,9.90549101 9.19147722,9.95517828 9.48031244,10.2810073 C10.0304574,10.8972456 10.9695136,10.8972456 11.5196586,10.2810073 C11.8085849,9.95509532 12.3326627,9.90549101 12.6914965,10.1699368 C13.0487808,10.433636 13.1041052,10.9113472 12.8135383,11.2364297 C12.225204,11.8970464 11.3821223,12.2755489 10.5000311,12.2755489 Z" id="Path" fill="#989AA2" transform="translate(10.500000, 11.137774) rotate(-180.000000) translate(-10.500000, -11.137774) "></path>
            <g id="Group" transform="translate(2.888889, 8.296296)" fill="#E0E0E0">
                <path d="M15.2063704,1.57266667 C15.2063704,2.40622222 14.3994815,3.08185185 13.4041481,3.08185185 L13.4041481,0.0635555556 C14.3994815,0.0635555556 15.2063704,0.739185185 15.2063704,1.57266667 Z" id="Path"></path>
                <path d="M0.0206666667,1.57266667 C0.0206666667,2.40622222 0.827555556,3.08185185 1.82296296,3.08185185 L1.82296296,0.0635555556 C0.827555556,0.0635555556 0.0206666667,0.739185185 0.0206666667,1.57266667 Z" id="Path"></path>
            </g>
            <path d="M12.8236296,19.0848148 L10.5025185,21.2701481 L11.7554815,22.5328148 C11.9947407,22.7739259 12.3912593,22.7504444 12.6004444,22.4827407 L14.5932593,19.9318519 L12.8236296,19.0848148 Z" id="Path" fill="#4764CC"></path>
            <path d="M8.20140741,19.0935556 L10.5025926,21.2701481 L9.24962963,22.5328148 C9.01037037,22.7739259 8.61385185,22.7504444 8.40466667,22.4827407 L6.41185185,19.9318519 L8.20140741,19.0935556 Z" id="Path" fill="#4764CC"></path>
        </g>
        <path d="M5.48006572,4.53363988 C5.48006572,3.7052079 4.82883078,3.03361937 4.0255058,3.03361937 C3.22218082,3.03361937 2.57094588,3.70512587 2.57094588,4.53363988 C2.57094588,4.83920569 2.6605931,5.12270513 2.81276269,5.35977498 C2.04594887,5.57994643 1.48006572,6.29763643 1.48006572,7.15863475 C1.48006572,8.1941132 2.29404973,9.03361937 3.29822584,9.03361937 C4.30240195,9.03361937 5.11638597,8.1941132 5.11638597,7.15863475 C5.11638597,6.66899118 4.93009157,6.22700766 4.63211599,5.89314113 C5.13149952,5.65549706 5.48006572,5.13796292 5.48006572,4.53363988 Z" id="Path" fill="#989AA2" fill-rule="nonzero"></path>
        <path d="M15.4800657,4.53363988 C15.4800657,3.7052079 16.1313007,3.03361937 16.9346256,3.03361937 C17.7379506,3.03361937 18.3891856,3.70512587 18.3891856,4.53363988 C18.3891856,4.83920569 18.2995383,5.12270513 18.1473687,5.35977498 C18.9141826,5.57994643 19.4800657,6.29763643 19.4800657,7.15863475 C19.4800657,8.1941132 18.6660817,9.03361937 17.6619056,9.03361937 C16.6577295,9.03361937 15.8437455,8.1941132 15.8437455,7.15863475 C15.8437455,6.66899118 16.0300399,6.22700766 16.3280154,5.89314113 C15.8286319,5.65549706 15.4800657,5.13796292 15.4800657,4.53363988 Z" id="Path" fill="#989AA2" fill-rule="nonzero"></path>
        <g id="family" transform="translate(19.000000, 7.000000)" fill-rule="nonzero">
            <g id="Path" transform="translate(0.256691, 12.144161)">
                <path d="M18.7061604,16.9883891 C17.5544668,7.37753267 17.6193608,7.64875344 17.5162269,7.1789795 C17.3488954,6.41644703 16.8610828,5.81488104 16.1839065,5.42517272 L16.1604181,5.41968387 C15.8722256,5.25698721 15.5509214,5.12877484 15.2059388,5.03510643 L11.885331,4.25610741 C11.7773854,4.2100488 11.7026783,4.05856848 11.7026783,3.8858487 L11.7026783,2.37653438 C10.8683214,2.71942838 9.88186494,3.21252977 8.74330888,3.85583856 C8.74330888,4.02855834 7.68387484,4.21010846 7.57592929,4.25616707 C4.76687579,4.96136493 4.14212112,4.94489838 3.30084224,5.41974353 L3.27735379,5.42523238 C2.34807238,5.96003725 1.98890808,6.68486371 1.86507143,7.64171339 L0.755099916,16.9883891 C0.643862182,18.2001123 1.3255336,19.0609668 2.55269409,19.0609668 C4.50552727,19.0609668 15.3477558,19.0609668 16.9086295,19.0609668 C18.2778603,19.0609668 18.7285725,18.0157585 18.7185694,17.3234475 C18.7207853,17.1959511 18.7147074,17.0821171 18.7061604,16.9883891 Z" fill="#4764CC"></path>
                <path d="M12.1108302,5.54814625 L11.7433089,0.855838557 C10.5124494,0.819156695 9.04538162,2.55230389 8.0231379,2.35517569 L7.83732597,4.75327445 L8.69202683,6.34301804 L12.1108302,5.54814625 Z" fill="#E0E0E0"></path>
            </g>
            <path d="M4.05090218,8.33042545 L4.05090218,6.74927825 C4.05090218,2.09521557 9.70838873,-0.59745679 13.7673314,2.03221462 C16.9511238,4.09952896 16.3447293,7.13958974 16.4147515,8.33042545" id="SVGCleanerId_0" fill="#4C4846"></path>
            <path d="M4.05090218,8.33042545 L4.05090218,5.74927825 C4.05090218,1.09521557 9.70838873,-1.59745679 13.7673314,1.03221462 C15.9399487,2.44294821 16.3475949,4.3066593 16.4096309,5.72660468 C16.4385036,6.38747277 16.3925124,7.95221504 16.4147515,8.33042545" id="SVGCleanerId_0_1_" fill="#4764CC"></path>
            <g id="Group" transform="translate(3.725546, 7.594492)" fill="#E0E0E0">
                <path d="M12.9968978,1.25006838 C12.9968978,1.91263818 12.3072491,2.44967711 11.4565369,2.44967711 L11.4565369,0.0505185185 C12.3072491,0.0505185185 12.9968978,0.587557455 12.9968978,1.25006838 Z" id="Path"></path>
                <path d="M0.0176638177,1.25006838 C0.0176638177,1.91263818 0.707312441,2.44967711 1.558088,2.44967711 L1.558088,0.0505185185 C0.707312441,0.0505185185 0.0176638177,0.587557455 0.0176638177,1.25006838 Z" id="Path"></path>
            </g>
            <path d="M5.28363406,7.66579487 C5.28363406,10.6452099 5.24539411,10.84434 5.41703071,11.5192745 C5.58138651,12.1636505 5.88528015,12.7396676 6.28281102,13.2283666 C8.58562836,16.060642 13.4069642,15.5077056 14.8365305,12.1481064 C15.3097183,11.0364046 15.1822096,10.1924274 15.1822096,7.66579487 C15.1732888,7.65960108 13,3.99999101 10,3.99999101 C7.44519549,3.99999101 5.28700842,7.66405822 5.28363406,7.66579487 Z" id="Path" fill="#E0E0E0"></path>
            <polygon id="Path" fill="#989AA2" points="10.7221273 19.4766914 10.7221273 17.4777629 9.74371637 17.4766914 9.74371637 19.4766914"></polygon>
            <polygon id="Path" fill="#C5DAFF" points="10.7221273 20 10.7221273 18.0010716 9.74371637 18 9.74371637 20"></polygon>
            <polygon id="Path" fill="#C5DAFF" points="10.7221273 23 10.7221273 21.0010716 9.74371637 21 9.74371637 23"></polygon>
            <polygon id="Path" fill="#C5DAFF" points="10.7221273 26 10.7221273 24.0010716 9.74371637 24 9.74371637 26"></polygon>
            <path d="M12.2167775,16.169981 L10.2329218,17.9070408 L11.3038303,18.910699 C11.5083254,19.1023514 11.8472301,19.0836866 12.0260209,18.8708965 L13.7292814,16.8432669 L12.2167775,16.169981 Z" id="Path" fill="#989AA2"></path>
            <path d="M8.26616018,16.1769288 L10.2329851,17.9070408 L9.16207661,18.910699 C8.95758151,19.1023514 8.6186768,19.0836866 8.43988604,18.8708965 L6.73662551,16.8432669 L8.26616018,16.1769288 Z" id="Path" fill="#989AA2"></path>
        </g>
    </g>
</svg>