<?xml version="1.0" encoding="UTF-8"?>
<svg width="38px" height="38px" viewBox="0 0 38 38" version="1.1" xmlns="http://www.w3.org/2000/svg" xmlns:xlink="http://www.w3.org/1999/xlink">
    <!-- Generator: Sketch 61 (89581) - https://sketch.com -->
    <title>EMER-MSG-CENTER</title>
    <desc>Created with Sketch.</desc>
    <g id="EMER-MSG-CENTER" stroke="none" stroke-width="1" fill="none" fill-rule="evenodd">
        <g id="family" transform="translate(1.000000, 16.000000)">
            <g id="Group" transform="translate(0.000000, 0.962963)"></g>
        </g>
        <g id="Group-4" transform="translate(2.000000, 0.000000)" fill-rule="nonzero">
            <g id="smartphone">
                <path d="M18.7729719,0 L2.81899744,0 C1.29277749,0 0.0594782609,1.23738107 0.0594782609,2.76214322 L0.0594782609,35.1585524 C0.0594782609,36.681954 1.29277749,37.9181688 2.81899744,37.9181688 L18.7729719,37.9181688 C20.2976368,37.9181688 21.5312276,36.681954 21.5312276,35.1585524 L21.5312276,2.76214322 C21.5312276,1.23738107 20.2976368,0 18.7729719,0 Z M6.85904859,1.67724808 L14.7355448,1.67724808 C14.9351662,1.67724808 15.0943581,1.97434783 15.0943581,2.34122762 C15.0943581,2.70956522 14.9350691,3.0078312 14.7355448,3.0078312 L6.85904859,3.0078312 C6.6580665,3.0078312 6.50013811,2.70956522 6.50013811,2.34122762 C6.50013811,1.97425064 6.6580665,1.67724808 6.85904859,1.67724808 Z M10.7980256,35.192179 C9.82625575,35.192179 9.03573913,34.4015652 9.03573913,33.4286292 C9.03573913,32.4554987 9.82625575,31.6689668 10.7980256,31.6689668 C11.7667826,31.6689668 12.5547724,32.4555959 12.5547724,33.4286292 C12.5548696,34.4016624 11.7668798,35.192179 10.7980256,35.192179 Z M19.4638721,29.1550384 L2.12819437,29.1550384 L2.12819437,4.6608798 L19.4638721,4.6608798 L19.4638721,29.1550384 L19.4638721,29.1550384 Z" id="Shape" fill="#4764CC"></path>
                <rect id="Rectangle" fill="#E0E0E0" x="1.79603325" y="4.6608798" width="18" height="24.4941586"></rect>
                <path d="M14.6616829,15.2532583 L12.5611867,15.2532583 L12.5611867,13.1525678 C12.5611867,12.4216266 11.9688338,11.8293708 11.2379898,11.8293708 L10.4737136,11.8293708 L10.353202,11.8293708 C9.62235806,11.8293708 9.02981074,12.4216266 9.02981074,13.1525678 L9.02981074,15.2532583 L6.9291202,15.2532583 C6.19876215,15.2532583 5.60621483,15.8456113 5.60621483,16.5762609 L5.60621483,17.461243 C5.60621483,18.1919898 6.19885934,18.7842455 6.9291202,18.7842455 L9.02981074,18.7842455 L9.02981074,20.8850332 C9.02981074,21.6159744 9.62245524,22.2084246 10.353202,22.2084246 L10.4737136,22.2084246 L11.2379898,22.2084246 C11.9689309,22.2084246 12.5611867,21.6158772 12.5611867,20.8850332 L12.5611867,18.7842455 L14.6616829,18.7842455 C15.392624,18.7842455 15.9850742,18.1918926 15.9850742,17.461243 L15.9850742,16.5762609 C15.9850742,15.8456113 15.3927212,15.2532583 14.6616829,15.2532583 Z" id="Path" fill="#989AA2"></path>
                <path d="M10.7983171,35.3065678 C9.76357033,35.3065678 8.92154476,34.4645422 8.92154476,33.428532 C8.92154476,32.3923274 9.76347315,31.5546752 10.7983171,31.5546752 C11.829954,31.5546752 12.6691611,32.3923274 12.6691611,33.428532 C12.6691611,34.4645422 11.8300512,35.3065678 10.7983171,35.3065678 Z" id="Path" fill="#8DA5FC"></path>
                <path d="M6.85904859,1.67724808 L14.7355448,1.67724808 C14.9351662,1.67724808 15.0943581,1.97434783 15.0943581,2.34122762 C15.0943581,2.70956522 14.9350691,3.0078312 14.7355448,3.0078312 L6.85904859,3.0078312 C6.6580665,3.0078312 6.50013811,2.70956522 6.50013811,2.34122762 C6.50013811,1.97425064 6.6580665,1.67724808 6.85904859,1.67724808 Z" id="Path" fill="#8DA5FC"></path>
            </g>
            <g id="phone-call" transform="translate(14.000000, 18.000000)" fill="#C5DAFF">
                <path d="M4.86804396,12.6364835 L6.80953846,14.577978 L14.577978,6.80953846 L12.6364835,4.86804396 L17.5045714,0 C17.5045714,0 19.8309011,2.14004396 19.9873407,3.83745055 C20.1967033,6.10945055 17.7917363,10.2401758 14.015956,14.016 C10.2401758,17.7917363 6.10945055,20.1967033 3.83749451,19.9873846 C2.14008791,19.8308571 0,17.5045714 0,17.5045714 L4.86804396,12.6364835 Z" id="Path"></path>
            </g>
        </g>
    </g>
</svg>