<?xml version="1.0" encoding="UTF-8"?>
<svg width="38px" height="38px" viewBox="0 0 38 38" version="1.1" xmlns="http://www.w3.org/2000/svg" xmlns:xlink="http://www.w3.org/1999/xlink">
    <!-- Generator: Sketch 61 (89581) - https://sketch.com -->
    <title>EMER-AIR-TRANS</title>
    <desc>Created with Sketch.</desc>
    <g id="EMER-AIR-TRANS" stroke="none" stroke-width="1" fill="none" fill-rule="evenodd">
        <g id="airplane" fill-rule="nonzero">
            <path d="M6.83119604,25.1841426 L12.8176634,31.1409624 C13.1436356,31.4669347 13.7363604,36.1790851 13.4103881,36.5050574 L12.2249386,37.6905069 C11.8989663,38.0164792 11.3654614,38.0164792 11.0394891,37.6905069 L10.4171168,37.0681347 L5.67539406,32.3264119 C3.74905743,30.4000752 1.79307327,28.4737386 0.874376238,27.5253941 L0.281651485,26.9326693 C-0.0443207921,26.606697 -0.0443207921,26.0731921 0.281651485,25.7472198 L1.46710099,24.5617703 C1.79307327,24.235798 6.50514851,24.8581703 6.83119604,25.1841426 Z" id="Path" fill="#4764CC"></path>
            <path d="M9.05385743,3.5796 C8.16480792,3.5796 7.42384554,4.32048713 7.42384554,5.20961188 C7.42384554,6.09873663 8.16473267,6.83962376 9.05385743,6.83962376 C9.94298218,6.83962376 10.6838693,6.09873663 10.6838693,5.20961188 C10.6838693,4.32048713 9.94290693,3.5796 9.05385743,3.5796 Z M14.0919802,5.35769901 C13.2029307,5.35769901 12.4619683,6.09858614 12.4619683,6.98771089 C12.4619683,7.87683564 13.2028554,8.61772277 14.0919802,8.61772277 C14.981105,8.61772277 15.7219921,7.87683564 15.7219921,6.98771089 C15.7219921,6.09858614 14.9810297,5.35769901 14.0919802,5.35769901 Z M32.6144594,23.5838535 C32.6144594,22.694804 31.8735723,21.9538416 30.9844475,21.9538416 C30.0953228,21.9538416 29.3544356,22.6947287 29.3544356,23.5838535 C29.3544356,24.472903 30.0953228,25.2138653 30.9844475,25.2138653 C31.8735723,25.2138653 32.6144594,24.5025505 32.6144594,23.5838535 Z M32.7626218,26.9919644 C31.8735723,26.9919644 31.1326099,27.7328515 31.1326099,28.6219762 C31.1326099,29.5110257 31.873497,30.2519881 32.7626218,30.2519881 C33.6516713,30.2519881 34.3926337,29.511101 34.3926337,28.6219762 C34.3925584,27.7328515 33.6516713,26.9919644 32.7626218,26.9919644 Z" id="Shape" fill="#4764CC"></path>
            <path d="M22.2122416,9.92168713 L28.0801941,15.7896396 C28.7322139,16.4416594 35.1928158,34.4899287 34.540796,35.1419485 L32.1995446,37.4832 C31.5475248,38.1352198 30.5103129,38.1352198 29.8582931,37.4832 L16.9073663,21.0351446 L0.489033663,8.14351287 C-0.162986139,7.49149307 -0.162986139,6.45428119 0.489033663,5.80226139 L2.83028515,3.4610099 C3.48230495,2.80906535 21.5602218,9.26966733 22.2122416,9.92168713 Z" id="Path" fill="#C5DAFF"></path>
            <path d="M37.2673149,0.734491089 C38.8973267,2.36450297 37.4451248,6.42455842 35.5187881,8.38054257 L14.3290851,29.540598 C12.373101,31.4965822 5.37899406,35.8826851 3.74905743,34.2527485 C2.11912079,32.6228119 6.50522376,25.628705 8.46120792,23.6727208 L29.6212634,2.48301782 C31.5771723,0.527033663 35.637303,-0.895445545 37.2673149,0.734491089 Z" id="Path" fill="#E0E0E0"></path>
            <path d="M10.3874693,15.9081545 L13.7363604,18.5160832 L22.3011842,9.95125941 L22.2122416,9.86231683 C22.0344317,9.68450693 20.3748475,9.0028396 18.1224634,8.14343762 C18.1224634,8.14343762 10.3874693,15.9081545 10.3874693,15.9081545 Z" id="Path" fill="#C5DAFF"></path>
            <path d="M19.5153703,24.3543881 L29.8286455,37.4831248 C30.4213703,38.0758495 31.3697149,38.105497 32.0217347,37.6016396 L20.6415248,23.2282337 L19.5153703,24.3543881 Z M14.7735723,17.3602812 L0.311223762,6.03936634 C-0.133338614,6.69138614 -0.0740435644,7.58043564 0.489033663,8.14351287 L13.6474178,18.4567881 L14.7735723,17.3602812 Z" id="Shape" fill="#8DA5FC"></path>
            <polygon id="Path" fill="#8DA5FC" points="13.6474178 18.4567881 14.7735723 17.3602812 11.5136238 14.8115723 10.3874693 15.9080792"></polygon>
        </g>
        <path d="M35.456957,5 C35.1839356,5 34.9490021,4.7791379 34.9186432,4.48079081 C34.8523549,3.83039567 34.1315394,3.1198674 33.5875159,3.16728581 C33.2888008,3.19488423 33.0269203,2.95614673 33.0019229,2.6354367 C32.9769255,2.31480147 33.1985596,2.0332079 33.4969961,2.00635741 C34.6277963,1.90336821 35.8656187,3.06743789 35.996733,4.35401761 C36.0293201,4.67375533 35.8144402,4.9614071 35.5167696,4.99640996 C35.4965768,4.99887811 35.4766624,5 35.456957,5 L35.456957,5 Z" id="Path" fill="#989AA2" fill-rule="nonzero"></path>
    </g>
</svg>