<?xml version="1.0" encoding="UTF-8"?>
<svg width="38px" height="38px" viewBox="0 0 38 38" version="1.1" xmlns="http://www.w3.org/2000/svg" xmlns:xlink="http://www.w3.org/1999/xlink">
    <!-- Generator: Sketch 61 (89581) - https://sketch.com -->
    <title>EMER-GRND-TRANS</title>
    <desc>Created with Sketch.</desc>
    <g id="EMER-GRND-TRANS" stroke="none" stroke-width="1" fill="none" fill-rule="evenodd">
        <g transform="translate(0.000000, 3.000000)" fill-rule="nonzero" id="ambulance">
            <g>
                <g id="Group" transform="translate(0.000000, 5.481481)">
                    <path d="M15.5665926,0.0505185185 L15.3978519,0.0505185185 C14.4025185,0.0505185185 13.5868148,0.863777778 13.5868148,1.86081481 L13.5868148,3.67111111 L15.4822222,4.92162963 L17.3776296,3.67111111 L17.3776296,1.86081481 C17.3776296,0.863777778 16.5640741,0.0505185185 15.5665926,0.0505185185 L15.5665926,0.0505185185 Z" id="Path" fill="#4764CC"></path>
                    <path d="M16.8317037,3.67118519 L2.82585185,3.67118519 C2.07718519,3.67118519 1.46488889,4.29192593 1.46488889,5.04244444 L1.46488889,18.7723704 L10.1436296,19.9165185 L18.7271852,18.7723704 L18.7271852,3.67118519 L16.8317037,3.67118519 Z" id="Path" fill="#E0E0E0"></path>
                    <path d="M27.5313333,5.26303704 C26.3477778,4.01940741 26.0102222,3.67118519 24.8915556,3.67118519 L20.6225185,3.67118519 L18.7271111,3.67118519 L18.7271111,18.7723704 L28.8945185,20.0246667 L36.4502963,18.7723704 L36.4935556,18.7723704 L36.4935556,15.7140741 L36.4914074,13.5144444 C36.4611111,12.5281481 36.0348889,11.2953333 34.4466667,11.0660741 C32.8433333,10.8346667 32.2396296,10.6983704 31.5277778,9.85274074 L27.5313333,5.26303704 Z" id="Path" fill="#4764CC"></path>
                    <path d="M4.14140741,18.7723704 L1.41074074,18.7723704 L1.30474074,18.7723704 C0.58637037,18.7723704 -4.16555679e-13,19.3584444 -4.16555679e-13,20.0765185 C-4.16555679e-13,20.7945926 0.58637037,21.3807407 1.30474074,21.3807407 L6.90881481,21.3807407 C6.9737037,20.3663704 7.40644444,19.4536296 8.07725926,18.7722963 L4.14140741,18.7722963 L4.14140741,18.7723704 Z" id="Path" fill="#4764CC"></path>
                    <path d="M36.4502963,18.7723704 L31.2162222,18.7723704 C31.5105185,19.0686667 31.7571852,19.4125926 31.9475556,19.7867407 C32.0211111,19.9294815 32.0838519,20.0743704 32.1401481,20.2236296 C32.2742963,20.5891852 32.3586667,20.9762963 32.3846667,21.3807407 L36.6212593,21.3807407 C37.3396296,21.3807407 37.926,20.7945926 37.926,20.0765185 C37.926,19.3584444 37.3396296,18.7722963 36.6212593,18.7722963 L36.4502963,18.7722963 L36.4502963,18.7723704 Z" id="Path" fill="#4764CC"></path>
                    <path d="M18.2965185,18.7723704 L14.8042222,18.7723704 L11.6343704,18.7723704 C11.9264444,19.0686667 12.1731111,19.4125926 12.3657037,19.7867407 C12.4371111,19.9294815 12.4998519,20.0743704 12.5561481,20.2236296 C12.6902963,20.5891852 12.7746667,20.9762963 12.8006667,21.3807407 L15.3777037,21.3807407 L18.4913333,21.3807407 L21.1332593,21.3807407 L22.9659259,21.3807407 L26.4928148,21.3807407 C26.5577037,20.3663704 26.9904444,19.4536296 27.659037,18.7722963 L22.8403704,18.7722963 L18.2965185,18.7722963 L18.2965185,18.7723704 Z" id="Path" fill="#4764CC"></path>
                    <path d="M29.0568148,17.546 C31.3200741,17.546 33.1548889,19.3801481 33.1548889,21.6446667 C33.1548889,23.907037 31.3200741,25.7411111 29.0568148,25.7411111 C26.7935556,25.7411111 24.9586667,23.906963 24.9586667,21.6446667 C24.9586667,19.3800741 26.7934815,17.546 29.0568148,17.546 Z" id="Path" fill="#989AA2"></path>
                    <path d="M30.5627407,18.7723704 C31.2248148,19.4514815 31.6554074,20.3620741 31.7181481,21.3721481 C31.7246667,21.4586667 31.7268148,21.5451852 31.7268148,21.6338519 C31.7268148,23.6625926 30.2511111,25.3474815 28.3124444,25.6740741 C28.5548148,25.7173333 28.8036296,25.7411111 29.0567407,25.7411111 C31.32,25.7411111 33.1548148,23.906963 33.1548148,21.6446667 C33.1548148,21.556 33.1526667,21.4673333 33.1461481,21.3808148 C33.1223704,20.9763704 33.0379259,20.5891852 32.9037778,20.2237037 C32.8842963,20.1739259 32.8648148,20.1263704 32.8453333,20.0765926 C32.8042222,19.9792593 32.7588148,19.8819259 32.7111852,19.7867407 C32.5207407,19.4125926 32.2719259,19.0686667 31.9798519,18.7723704 C31.2355556,18.0153333 30.2012593,17.546 29.0566667,17.546 C28.822963,17.546 28.5936296,17.5654815 28.3707407,17.6043704 C29.2167407,17.7579259 29.9719259,18.1731852 30.5517778,18.7614815 C30.5540741,18.7658519 30.5584444,18.768 30.5627407,18.7723704 L30.5627407,18.7723704 Z" id="Path" fill="#989AA2"></path>
                    <path d="M27.4296296,21.6446667 C27.4296296,22.5422222 28.1566667,23.2711111 29.0567407,23.2711111 C29.9546667,23.2711111 30.6838519,22.5422222 30.6838519,21.6446667 C30.6838519,20.7448889 29.9546667,20.016 29.0567407,20.016 C28.1566667,20.016 27.4296296,20.7448889 27.4296296,21.6446667 Z" id="Path" fill="#E6E6E6"></path>
                    <path d="M34.1718519,13.5144444 C33.7304444,13.5144444 33.3712593,13.8734815 33.3712593,14.3125185 L33.3712593,14.9137778 C33.3712593,15.355037 33.7304444,15.714 34.1718519,15.714 L36.4935556,15.714 L36.4935556,13.6722222 C36.4935556,13.6202963 36.4935556,13.5683704 36.4914074,13.5142963 L34.1718519,13.5142963 L34.1718519,13.5144444 Z" id="Path" fill="#C5DAFF"></path>
                    <path d="M25.3654815,6.93281481 C25.0408889,6.52837037 24.7488148,6.32940741 24.1516296,6.32940741 L22.1371852,6.32940741 C21.9987407,6.32940741 21.884,6.41377778 21.8775556,6.5197037 L21.8840741,9.93274074 C21.8840741,10.374 22.293037,10.826 22.94,10.826 L27.8257037,10.826 C27.949037,10.8194815 28.0463704,10.7416296 28.0463704,10.6465185 L28.0463704,10.4042963 C28.0463704,10.082 27.8797778,10.0625926 27.4080741,9.4742963 L25.3654815,6.93281481 Z" id="Path" fill="#C5DAFF"></path>
                    <path d="M11.1324444,7.83688889 L9.05955556,7.83688889 C8.85185185,7.83688889 8.68303704,8.00777778 8.68303704,8.21540741 L8.68303704,9.80725926 L7.08837037,9.80725926 C6.88066667,9.80725926 6.71185185,9.97814815 6.71185185,10.1857778 L6.71185185,12.2577778 C6.71185185,12.4654074 6.88059259,12.6341481 7.08837037,12.6341481 L8.68303704,12.6341481 L8.68303704,14.2282222 C8.68303704,14.4358519 8.85177778,14.6045926 9.05955556,14.6045926 L11.1324444,14.6045926 C11.3401481,14.6045926 11.5111111,14.4359259 11.5111111,14.2282222 L11.5111111,12.6341481 L13.1036296,12.6341481 C13.3113333,12.6341481 13.4822963,12.4654815 13.4822963,12.2577778 L13.4822963,10.1857778 C13.4822963,9.97814815 13.3113333,9.80725926 13.1036296,9.80725926 L11.5111111,9.80725926 L11.5111111,8.21540741 C11.511037,8.00777778 11.3401481,7.83688889 11.1324444,7.83688889 Z" id="Path" fill="#4764CC"></path>
                    <path d="M6.54962963,18.7723704 C5.88103704,19.4537037 5.44614815,20.3664444 5.38340741,21.3808148 C5.37688889,21.4673333 5.37474074,21.556 5.37474074,21.6446667 C5.37474074,23.907037 7.20955556,25.7411111 9.47288889,25.7411111 C11.7362222,25.7411111 13.5731852,23.906963 13.5731852,21.6446667 C13.5731852,21.556 13.5688889,21.4673333 13.5645185,21.3808148 C13.4996296,20.3664444 13.0668889,19.4537037 12.3960741,18.7723704 C11.6539259,18.0153333 10.6174815,17.546 9.47288889,17.546 C8.3282963,17.546 7.29392593,18.0153333 6.54962963,18.7723704 Z" id="Path" fill="#989AA2"></path>
                    <path d="M10.9788148,18.7723704 C11.6431111,19.4514815 12.0714815,20.3620741 12.1364444,21.3721481 C12.1407407,21.4586667 12.142963,21.5451852 12.142963,21.6338519 C12.142963,23.6625926 10.6672593,25.3474815 8.73074074,25.6740741 C8.97088889,25.7173333 9.21977778,25.7411111 9.47288889,25.7411111 C11.7361481,25.7411111 13.5731852,23.906963 13.5731852,21.6446667 C13.5731852,21.556 13.5688889,21.4673333 13.5645185,21.3808148 C13.5385185,20.9763704 13.4541481,20.5891852 13.32,20.2237037 C13.3005185,20.1739259 13.281037,20.1263704 13.2615556,20.0765926 C13.2204444,19.9792593 13.1771852,19.8819259 13.1274074,19.7867407 C12.937037,19.4125926 12.6903704,19.0686667 12.3960741,18.7723704 C11.6539259,18.0153333 10.6174815,17.546 9.47288889,17.546 C9.23918519,17.546 9.012,17.5654815 8.78918519,17.6043704 C9.63518519,17.7579259 10.3903704,18.1731852 10.9680741,18.7614815 C10.9722963,18.7658519 10.9744444,18.768 10.9788148,18.7723704 L10.9788148,18.7723704 Z" id="Path" fill="#989AA2"></path>
                    <path d="M7.8457037,21.6446667 C7.8457037,22.5422222 8.57488889,23.2711111 9.47281481,23.2711111 C10.372963,23.2711111 11.0999259,22.5422222 11.0999259,21.6446667 C11.0999259,20.7448889 10.3728889,20.016 9.47281481,20.016 C8.57488889,20.016 7.8457037,20.7448889 7.8457037,21.6446667 Z" id="Path" fill="#E6E6E6"></path>
                    <polygon id="Path" fill="#6BD9E7" points="36.4914074 13.5144444 34.9031852 13.5144444 34.9031852 15.7140741 36.4935556 15.7140741"></polygon>
                    <polygon id="Path" fill="#8DA5FC" points="36.4935556 15.7140741 34.9031852 15.7140741 34.9031852 17.0831852 34.9031852 18.7723704 36.4502222 18.7723704 36.4934815 18.7723704 36.4934815 15.7140741"></polygon>
                    <polygon id="Path" fill="#C5DAFF" points="36.4914074 13.5144444 34.9031852 13.5144444 34.9031852 15.7140741 36.4935556 15.7140741"></polygon>
                    <path d="M25.3654815,6.93281481 C25.0408889,6.52837037 24.7488148,6.32940741 24.1516296,6.32940741 L22.3968148,6.32940741 C22.994,6.32940741 23.2839259,6.52837037 23.6106667,6.93281481 L25.651037,9.47422222 C26.1227407,10.0625185 26.2914815,10.082 26.2914815,10.4042222 L26.2914815,10.6464444 C26.2914815,10.7416296 26.1941481,10.8194815 26.0708148,10.8259259 L27.8256296,10.8259259 C27.948963,10.8194074 28.0462963,10.7415556 28.0462963,10.6464444 L28.0462963,10.4042222 C28.0462963,10.0819259 27.8797037,10.0625185 27.408,9.47422222 L25.3654815,6.93281481 Z" id="Path" fill="#8DA5FC"></path>
                    <path d="M13.1035556,9.80725926 L11.511037,9.80725926 L11.511037,8.21540741 C11.511037,8.00777778 11.3400741,7.83688889 11.1323704,7.83688889 L9.28237037,7.83688889 C10.0894074,8.60903704 10.6044444,9.7942963 10.6044444,11.1201481 C10.6044444,12.5692593 9.99207407,13.8475556 9.05518519,14.6045185 L9.05948148,14.6045185 L11.1323704,14.6045185 C11.3400741,14.6045185 11.511037,14.4358519 11.511037,14.2281481 L11.511037,12.6340741 L13.1035556,12.6340741 C13.3112593,12.6340741 13.4822222,12.4654074 13.4822222,12.2577037 L13.4822222,10.1857037 C13.4822222,9.97814815 13.3112593,9.80725926 13.1035556,9.80725926 L13.1035556,9.80725926 Z" id="Path" fill="#4764CC"></path>
                    <path d="M36.4914074,13.5144444 C36.4611111,12.5281481 36.0348889,11.2953333 34.4466667,11.0660741 C34.319037,11.0487407 34.1978519,11.0293333 34.080963,11.012 C34.6846667,11.7451852 34.8815556,12.8547407 34.9031852,13.5144444 L36.4914074,13.5144444 Z" id="Path" fill="#8DA5FC"></path>
                </g>
                <path d="M15.6791111,3.28651852 C15.3604445,3.28651852 15.1021482,3.02822222 15.1021482,2.70955556 L15.1021482,0.61362963 C15.1021482,0.294962963 15.3604445,0.0366666667 15.6791111,0.0366666667 C15.9977778,0.0366666667 16.2560741,0.294962963 16.2560741,0.61362963 L16.2560741,2.70948148 C16.2560741,3.02814815 15.9977778,3.28651852 15.6791111,3.28651852 Z" id="Path" fill="#8DA5FC"></path>
                <path d="M12.0613334,4.02837037 C11.9137037,4.02837037 11.7660741,3.97207407 11.6534074,3.85948148 L10.1691111,2.37577778 C9.94370372,2.15044444 9.94362965,1.78511111 10.1688889,1.55977778 C10.3942222,1.33437037 10.7595556,1.3342963 10.9848889,1.55955556 L12.4691852,3.04325926 C12.6945926,3.26859259 12.6946667,3.63392593 12.4694074,3.85925926 C12.3567408,3.972 12.2090371,4.02837037 12.0613334,4.02837037 L12.0613334,4.02837037 Z" id="Path" fill="#8DA5FC"></path>
                <path d="M19.2990371,4.02837037 C19.1512593,4.02837037 19.0036296,3.972 18.890963,3.85933333 C18.6656296,3.63392593 18.6657037,3.26859259 18.8911111,3.04333333 L20.3754074,1.55962963 C20.6007408,1.3342963 20.9661482,1.33444444 21.1913334,1.55977778 C21.4166667,1.78518519 21.4165926,2.15051852 21.1911852,2.37577778 L19.7068889,3.85948148 C19.5942963,3.972 19.4466667,4.02837037 19.2990371,4.02837037 L19.2990371,4.02837037 Z" id="Path" fill="#8DA5FC"></path>
                <path d="M23.3402222,19.3782222 L21.8818519,19.3782222 C21.5631852,19.3782222 21.3048889,19.1199259 21.3048889,18.8012593 C21.3048889,18.4825926 21.5631852,18.2242963 21.8818519,18.2242963 L23.3402222,18.2242963 C23.6588889,18.2242963 23.9171852,18.4825926 23.9171852,18.8012593 C23.9171852,19.1199259 23.6588889,19.3782222 23.3402222,19.3782222 Z" id="Path" fill="#ECECEC"></path>
            </g>
        </g>
    </g>
</svg>