<?xml version="1.0" encoding="UTF-8"?>
<svg width="38px" height="38px" viewBox="0 0 38 38" version="1.1" xmlns="http://www.w3.org/2000/svg" xmlns:xlink="http://www.w3.org/1999/xlink">
    <!-- Generator: Sketch 61 (89581) - https://sketch.com -->
    <title>ESCORT-TRANS</title>
    <desc>Created with Sketch.</desc>
    <g id="ESCORT-TRANS" stroke="none" stroke-width="1" fill="none" fill-rule="evenodd">
        <g id="family" transform="translate(16.000000, 0.000000)" fill-rule="nonzero">
            <path d="M8.52059259,18.2953333 L5.17718519,18.2953333 C4.67103704,18.2953333 4.25696296,17.8811852 4.25696296,17.375037 L3.79688889,9.57762963 C3.79688889,9.57762963 3.05237037,3.11881481 6.91407407,2.27007407 C6.91407407,2.27007407 8.48422222,-0.785333333 13.5128148,0.193555556 C13.5815556,0.206962963 13.6476296,0.23162963 13.7143704,0.252296296 C14.8728148,0.61162963 15.9497778,1.24740741 16.8451852,2.13822222 C19.5837037,4.86325926 19.033037,8.08281481 19.1017037,8.48325926 C19.1017037,10.7200741 19.137037,8.23385185 18.6416296,17.3751111 C18.6416296,17.8812593 18.2275556,18.2953333 17.7214074,18.2953333 L14.1644444,18.2953333" id="Path" fill="#989AA2"></path>
            <path d="M21.9106667,35.3525926 C20.5631852,23.42 20.6391111,23.7567407 20.5184444,23.1734815 C20.3226667,22.2267407 19.7519259,21.4798519 18.9596296,20.996 L18.9321481,20.9891852 C18.594963,20.7871852 18.219037,20.628 17.8154074,20.5117037 L13.9302963,19.5445185 C13.804,19.4873333 13.7165926,19.2992593 13.7165926,19.0848148 L13.7165926,17.2108889 C12.2522963,17.8494815 10.5457037,17.8393333 9.102,17.2011111 L9.102,19.0848889 C9.102,19.2993333 9.01459259,19.4874074 8.8882963,19.5445926 C5.6017037,20.4201481 4.87074074,20.3997037 3.88644444,20.9892593 L3.85896296,20.9960741 C2.7717037,21.6600741 2.35148148,22.56 2.20659259,23.748 L0.907925926,35.3525926 C0.777777778,36.857037 1.57533333,37.9258519 3.01111111,37.9258519 C5.29592593,37.9258519 17.9813333,37.9258519 19.8075556,37.9258519 C21.4095556,37.9258519 21.9368889,36.6281481 21.9251852,35.7685926 C21.9251852,35.7677037 21.9251852,35.7668148 21.9251852,35.7659259 C21.9277778,35.6102963 21.9206667,35.468963 21.9106667,35.3525926 Z" id="Path" fill="#4764CC"></path>
            <path d="M21.2016296,29.0171852 C20.5892593,23.5811852 20.6157037,23.6442222 20.5184444,23.1734074 C20.3215556,22.2213333 19.7445185,21.4751111 18.9596296,20.9959259 C18.9518519,20.994 18.9242963,20.9871852 18.9321481,20.9891111 C18.594963,20.7871111 18.219037,20.6279259 17.8154074,20.5116296 L13.9302963,19.5444444 C13.804,19.4872593 13.7165926,19.2991852 13.7165926,19.0847407 L13.7165926,17.2108148 L13.7165926,17.2108148 L13.7165926,17.201037 C12.2404444,17.8531852 10.5424444,17.8374815 9.102,17.201037 L9.102,17.2108148 L9.102,17.2108148 L9.102,19.0847407 C9.102,19.2991852 9.01459259,19.4872593 8.8882963,19.5444444 C5.6017037,20.42 4.87074074,20.3994815 3.88644444,20.9891111 C3.87866667,20.991037 3.85111111,20.9978519 3.85896296,20.9959259 C2.78148148,21.6537037 2.35125926,22.5617037 2.20659259,23.7478519 L1.61688889,29.0171111 L5.33377778,29.4071111 C5.53140741,29.4278519 5.67837037,29.5994815 5.66837037,29.798 L5.26007407,37.9257778 C9.80977778,37.9257778 13.033037,37.9257778 17.5808148,37.9257778 L17.1528148,29.8294815 C17.1414074,29.6135556 17.3011111,29.4264444 17.5162222,29.4038519 L21.2016296,29.0171852 Z" id="Path" fill="#4764CC"></path>
            <path d="M15.4861481,19.9318519 L13.9302222,19.5445185 C13.8039259,19.4873333 13.7165185,19.2992593 13.7165185,19.0848148 L13.7165185,16.9819259 L13.7165185,16.9819259 L13.7165185,16.9721481 C12.2280741,17.6297778 10.528,17.6022222 9.10192593,16.9721481 L9.10192593,16.9819259 L9.10192593,16.9819259 L9.10192593,19.0848148 C9.10192593,19.2992593 9.01451852,19.4873333 8.88822222,19.5445185 L7.30888889,19.9377037 C9.20703704,23.1301481 13.5894815,23.1314074 15.4861481,19.9318519 Z" id="Path" fill="#E0E0E0"></path>
            <path d="M16.6285185,10.0002963 C16.9543704,10.0155556 17.2111111,10.2837778 17.2111111,10.61 L17.2111111,11.0478519 L17.2111111,11.0478519 L17.2111111,11.0478519 C17.2095556,11.8254074 17.2637037,12.5804444 16.9651852,13.5696296 C16.6645185,14.5667407 16.098,15.4828148 15.2465926,16.2402222 C11.6544444,19.4391852 5.88237037,17.0242963 5.63785185,12.1905185 C5.63674074,12.1686667 5.63755556,12.1967407 5.63459259,12.1227407 C5.63162963,12.046963 5.6297037,11.971037 5.6297037,11.8945185 C5.6297037,11.2048889 5.6297037,9.63096296 5.6297037,8.95718519 L5.6297037,8.95718519 L5.6297037,8.66385185 C5.6297037,8.32311111 5.86977778,8.03177778 6.20311111,7.96125926 C6.79451852,7.83622222 7.75014815,7.49644444 8.61703704,6.57377778 C8.83488889,6.34192593 9.20651852,6.354 9.40903704,6.59933333 C10.2502222,7.61859259 12.5217037,9.80837037 16.6285185,10.0002963 Z" id="Path" fill="#E0E0E0"></path>
        </g>
        <path d="M21.0165363,35.3925635 C19.6690548,23.3014861 19.7449807,23.6426994 19.624314,23.0516934 C19.4285363,22.0923784 18.8577955,21.3355696 18.0654992,20.8452914 L18.0380177,20.838386 C17.7008326,20.6337031 17.3249066,20.4724037 16.921277,20.3545628 L13.0361659,19.3745318 C12.9098696,19.3165871 12.8224622,19.1260151 12.8224622,18.9087224 L12.8224622,17.0099076 C11.3581659,17.6569818 9.65157329,17.6466989 8.20786959,17 L8.20786959,18.9087975 C8.20786959,19.1260901 8.12046218,19.3166621 7.99416588,19.3746068 C4.70757329,20.2617912 3.97661033,20.2410753 2.99231403,20.8384611 L2.96483255,20.8453664 C1.87757329,21.5181855 1.45735107,22.4300639 1.31246218,23.6338425 L0.0137955143,35.3925635 C-0.116352634,36.9169895 0.681202922,38 2.1169807,38 C4.40179551,38 17.0872029,38 18.9134251,38 C20.5154251,38 21.0427585,36.6850606 21.0310548,35.8140887 C21.0310548,35.813188 21.0310548,35.8122873 21.0310548,35.8113866 C21.0336474,35.65369 21.0265363,35.5104795 21.0165363,35.3925635 Z" id="Path" fill="#C5DAFF" fill-rule="nonzero"></path>
        <path d="M13.0361659,19.3745318 C12.9098696,19.3165871 12.8224622,19.1260151 12.8224622,18.9087224 L12.8224622,17.0099076 C11.3581659,17.6569818 9.65157329,17.6466989 8.20786959,17 L8.20786959,18.9087975 C8.20786959,19.1260901 8.12046218,19.3166621 7.99416588,19.3746068 C6.14840356,19.8728528 7.35064197,22.3412398 11,22 C11.4551403,21.9574413 12.1338622,21.0822852 13.0361659,19.3745318 Z" id="Path" fill="#E0E0E0" fill-rule="nonzero"></path>
        <path d="M8.34787618,21.2 L9.96340162,23.7848407 L7.43711141,33.8900016 L10.5,36.3403124 L13.5628886,33.8900016 L11.0365984,23.7848407 L12.6521238,21.2 L8.34787618,21.2 Z M10.9850713,23.5787322 L10.9239992,23.9649995 L11.0365984,23.7848407 L10.9850713,23.5787322 Z" id="Path-4" fill="#4764CC" fill-rule="nonzero"></path>
        <path d="M3.26922694,9.22211839 L3.26922694,7.23293321 C3.26922694,1.3778221 9.8884862,-2.00973346 14.6374492,1.29856284 C18.3624862,3.89937765 17.6530047,7.72397025 17.7349306,9.22211839" id="SVGCleanerId_0_1_" fill="#989AA2" fill-rule="nonzero"></path>
        <path d="M18.0949306,9.86893321 C18.0949306,10.7024888 17.2880418,11.3781184 16.2927084,11.3781184 L16.2927084,8.3598221 C17.2880418,8.3598221 18.0949306,9.03545173 18.0949306,9.86893321 Z" id="Path" fill="#E0E0E0" fill-rule="nonzero"></path>
        <path d="M2.90922694,9.86893321 C2.90922694,10.7024888 3.71611583,11.3781184 4.71152324,11.3781184 L4.71152324,8.3598221 C3.71611583,8.3598221 2.90922694,9.03545173 2.90922694,9.86893321 Z" id="Path" fill="#E0E0E0" fill-rule="nonzero"></path>
        <path d="M14.9585603,6.26293321 C14.9375232,5.68456284 14.4612269,5.36767395 14.0017455,5.4392295 C13.8943381,5.45589617 13.7757455,5.47330358 13.6997455,5.48404432 C11.4167825,5.80811839 9.2464862,5.78767395 7.00270842,5.4392295 C6.54670842,5.36819247 6.06663435,5.67997025 6.04589361,6.26300728 C6.01456028,7.12226654 5.65737509,7.76115543 5.11315287,8.15908136 C4.88641213,8.32500728 4.71915287,8.38174802 4.71152324,8.38597025 C4.71152324,12.1342665 4.6667825,12.3847851 4.86759731,13.2338962 C5.05989361,14.0445628 5.41544916,14.7692295 5.88056028,15.3840443 C8.57485657,18.9472295 14.2158195,18.2515999 15.8884121,14.0250073 C16.4420418,12.6264147 16.2928566,11.5646369 16.2928566,8.38597025 C16.2712269,8.3698221 15.0184121,7.9255258 14.9585603,6.26293321 Z" id="Path" fill="#E0E0E0" fill-rule="nonzero"></path>
        <path d="M12.823301,19.0847851 L10.5021899,21.2701184 L11.7551529,22.5327851 C11.9944121,22.7738962 12.3909306,22.7504147 12.6001158,22.482711 L14.5929306,19.9318221 L12.823301,19.0847851 Z" id="Path" fill="#8DA5FC" fill-rule="nonzero"></path>
        <path d="M8.20107879,19.0935258 L10.502264,21.2701184 L9.24930102,22.5327851 C9.01004176,22.7738962 8.61352324,22.7504147 8.40433805,22.482711 L6.41152324,19.9318221 L8.20107879,19.0935258 Z" id="Path" fill="#8DA5FC" fill-rule="nonzero"></path>
    </g>
</svg>