<?xml version="1.0" encoding="UTF-8"?>
<svg width="38px" height="38px" viewBox="0 0 38 38" version="1.1" xmlns="http://www.w3.org/2000/svg" xmlns:xlink="http://www.w3.org/1999/xlink">
    <!-- Generator: Sketch 61 (89581) - https://sketch.com -->
    <title>MORT-REM-TRANS</title>
    <desc>Created with Sketch.</desc>
    <g id="MORT-REM-TRANS" stroke="none" stroke-width="1" fill="none" fill-rule="evenodd">
        <g id="Group-6" transform="translate(0.000000, 2.000000)" fill-rule="nonzero">
            <g id="Group-9">
                <g id="coffin" fill="#E0E0E0">
                    <polygon id="Path" points="23.1890909 11.8128641 22.7721212 13.6818157 17.5187879 36.0606061 5.67030303 36.0606061 5.35757576 34.7280254 0.416969697 13.6818157 0 11.8128641 0.146666667 11.5043964 5.0769697 1.15439638 5.59818182 0.0606060606 17.5909091 0.0606060606 18.1121212 1.15439638 23.0424242 11.5043964"></polygon>
                    <polygon id="Path" points="23.1890909 11.8128641 22.7721212 13.6818157 17.8230303 34.7635899 17.5187879 36.0606061 11.5945455 36.0606061 11.5945455 0.0606060606 17.5909091 0.0606060606 18.1121212 1.15439638 23.0424242 11.5043964"></polygon>
                </g>
                <g id="ash" transform="translate(18.000000, 10.000000)">
                    <path d="M5,26 L0.956882744,17.484644 C0.33051896,16.5443886 0,15.4514456 0,14.3228147 C0,11.8660249 1.56641641,9.69311632 3.89687904,8.9158899 L4.98333333,8.55373851 L4.98333333,5.83030303 L14.95,5.83030303 L14.95,8.55373851 L16.0364543,8.9158899 C18.3669169,9.69311632 19.9333333,11.8660249 19.9333333,14.3228147 C19.9333333,15.4514456 19.6028144,16.5443886 18.9764506,17.4838329 L15,26 L5,26 Z" id="Path" fill="#4764CC"></path>
                    <path d="M10.7939394,2.44242424 L9.13939394,2.44242424 L9.13939394,0.814141414 C9.13939394,0.364733776 9.51001052,0 9.96666667,0 C10.4233228,0 10.7939394,0.364733776 10.7939394,0.814141414 L10.7939394,2.44242424 Z" id="Path" fill="#4764CC"></path>
                    <path d="M14.969697,7.48484848 L4.96363636,7.48484848 L4.96363636,5.81904762 C4.96363636,3.52267444 6.8338691,1.65454545 9.13282828,1.65454545 L10.8005051,1.65454545 C13.0994642,1.65454545 14.969697,3.52267444 14.969697,5.81904762 L14.969697,7.48484848 Z" id="Path" fill="#C5DAFF"></path>
                    <polygon id="Path" fill="#8DA5FC" points="4.96363636 5.83030303 14.969697 5.83030303 14.969697 8.58787879 4.96363636 8.58787879"></polygon>
                    <path d="M15.7181818,6.6969697 L4.13636364,6.6969697 C3.67970749,6.6969697 3.30909091,6.32635312 3.30909091,5.86969697 C3.30909091,5.41304082 3.67970749,5.04242424 4.13636364,5.04242424 L15.7181818,5.04242424 C16.174838,5.04242424 16.5454545,5.41304082 16.5454545,5.86969697 C16.5454545,6.32635312 16.174838,6.6969697 15.7181818,6.6969697 Z" id="Path" fill="#4764CC"></path>
                </g>
            </g>
        </g>
    </g>
</svg>