<?xml version="1.0" encoding="UTF-8"?>
<svg width="38px" height="38px" viewBox="0 0 38 38" version="1.1" xmlns="http://www.w3.org/2000/svg" xmlns:xlink="http://www.w3.org/1999/xlink">
    <!-- Generator: Sketch 61 (89581) - https://sketch.com -->
    <title>MYID-BRACLET</title>
    <desc>Created with Sketch.</desc>
    <defs>
        <path d="M3.999975,7 L3.999975,7 C3.89359694,7 3.79201789,6.95676471 3.7168334,6.87894118 L0.610674048,3.67541176 C-0.203558016,2.83541176 -0.203558016,1.46876471 0.610674048,0.628764706 C1.00379297,0.223588235 1.52888467,0 2.08836927,0 C2.64785388,0 3.17294558,0.223588235 3.5660645,0.628764706 L3.999975,1.07635294 L4.43348559,0.629176471 C4.82700442,0.223588235 5.35209612,0 5.91158073,0 C6.47106534,0 6.99615703,0.223588235 7.38927595,0.628764706 C8.20350802,1.46876471 8.20350802,2.83541176 7.38967587,3.67541176 L4.2831166,6.87935294 C4.20793211,6.95676471 4.10635306,7 3.999975,7" id="path-1"></path>
    </defs>
    <g id="MYID-BRACLET" stroke="none" stroke-width="1" fill="none" fill-rule="evenodd">
        <g id="Group-10" transform="translate(7.000000, 1.000000)">
            <rect id="Rectangle" fill="#989AA2" fill-rule="nonzero" x="21.5909091" y="16" width="1.72727273" height="4.31818182"></rect>
            <rect id="Rectangle-Copy-7" fill="#989AA2" fill-rule="nonzero" x="21.5909091" y="22.8863636" width="1.72727273" height="4.31818182"></rect>
            <path d="M4,6 L5.93473061,1.2460905 C6.24135881,0.492661205 6.97375893,1.49425591e-16 7.78719396,0 L14.3411976,0 C15.1717842,-5.96665489e-16 15.9159271,0.513359119 16.210861,1.28981778 L18,6 L18,6 L4,6 Z" id="Path-2" fill="#E0E0E0" fill-rule="nonzero"></path>
            <path d="M4,37 L5.93473061,32.2460905 C6.24135881,31.4926612 6.97375893,31 7.78719396,31 L14.3411976,31 C15.1717842,31 15.9159271,31.5133591 16.210861,32.2898178 L18,37 L18,37 L4,37 Z" id="Path-2-Copy" fill="#E0E0E0" fill-rule="nonzero" transform="translate(11.000000, 34.000000) scale(1, -1) translate(-11.000000, -34.000000) "></path>
            <rect id="Rectangle" fill="#4764CC" fill-rule="nonzero" x="0" y="6" width="22" height="25.0454545" rx="2.45454545"></rect>
            <path d="M7.18426718,10.608769 L9.0909327,15.6981399 C9.23434501,16.0809435 9.75155613,16.1392391 9.97658052,15.7979625 L12.3415759,12.2111619 L13.0322016,12.8815089 C13.2614624,13.1040379 13.637758,13.0573967 13.8057515,12.7856287 L14.1025764,12.3054467 L15.6837391,14.3304445 C15.9197136,14.6326574 16.3940258,14.5677399 16.5401175,14.2132349 L17.671276,11.4683737 L18.5439649,13.4095625 L19.4560351,12.9995284 L18.1073427,9.99952843 C17.9274458,9.59936983 17.3561885,9.60839568 17.1890232,10.0140378 L15.9430045,13.0376179 L14.4488885,11.1241009 C14.2346354,10.8497066 13.8125407,10.8727925 13.6294913,11.1689167 L13.2822691,11.7306281 L12.6047847,11.0730366 C12.3798133,10.854671 12.0116949,10.8948382 11.8391106,11.156583 L9.68263926,14.4271317 L7.77955298,9.34731466 C7.63682066,8.96632612 7.12307314,8.9062184 6.89624932,9.2439694 L4.72455469,12.4777217 L2.9005302,11.0392182 L2.28128798,11.8244182 L4.52910865,13.5971455 C4.75774211,13.7774556 5.09147628,13.72503 5.25381294,13.4833033 L7.18426718,10.608769 Z" id="Path-3" fill="#C5DAFF" fill-rule="nonzero"></path>
            <rect id="Rectangle" fill="#8DA5FC" fill-rule="nonzero" x="2" y="18" width="7" height="2"></rect>
            <rect id="Rectangle-Copy-5" fill="#8DA5FC" fill-rule="nonzero" x="2" y="22" width="7" height="2"></rect>
            <rect id="Rectangle-Copy-6" fill="#8DA5FC" fill-rule="nonzero" x="2" y="26" width="18" height="2"></rect>
            <g id="heart-fill" transform="translate(12.000000, 17.000000)">
                <mask id="mask-2" fill="white">
                    <use xlink:href="#path-1"></use>
                </mask>
                <use id="🎨-Icon-color" fill="#C5DAFF" fill-rule="nonzero" xlink:href="#path-1"></use>
            </g>
        </g>
    </g>
</svg>