<?xml version="1.0" encoding="UTF-8"?>
<svg width="38px" height="38px" viewBox="0 0 38 38" version="1.1" xmlns="http://www.w3.org/2000/svg" xmlns:xlink="http://www.w3.org/1999/xlink">
    <!-- Generator: Sketch 61 (89581) - https://sketch.com -->
    <title>NON-EMER-AIR-TRANS</title>
    <desc>Created with Sketch.</desc>
    <g id="NON-EMER-AIR-TRANS" stroke="none" stroke-width="1" fill="none" fill-rule="evenodd">
        <g id="travelling" fill-rule="nonzero">
            <g id="Group">
                <path d="M37.9607407,22.7526667 C37.7602222,25.5714074 36.8362222,28.1937778 35.3717037,30.4277778 C32.4906667,34.8325926 27.5174074,37.7407407 21.8663704,37.7407407 C18.3598519,37.7407407 15.1148148,36.614963 12.469037,34.706 C8.38933333,31.7628889 5.73051852,26.9566667 5.73051852,21.5461481 L15.4677778,7.99140741 L22.8382963,5.46718519 C24.743037,5.58066667 26.5562222,6.02348148 28.2256296,6.74125926 C28.7486667,6.966 29.2586667,7.21903704 29.7533333,7.49614815 C34.6742963,10.2625185 38,15.5356296 38,21.5876296 C38,21.9802963 37.9868889,22.3686667 37.9607407,22.7526667 Z" id="Path" fill="#C5DAFF"></path>
                <path d="M29.7534074,7.49614815 C34.6742963,10.2625185 38,15.5356296 38,21.5876296 C38,21.9802963 37.9868889,22.3686667 37.9607407,22.7526667 C37.5924444,25.2136296 33.3405185,24.978 33.1160741,22.8334074 C32.909037,20.858963 31.0892593,20.8088148 30.2524444,20.7259259 C28.1908148,20.5165185 27.2558519,19.0417037 29.8885185,15.5815556 C32.080963,12.6995556 24.0413333,9.77392593 28.2257037,6.74140741 C28.7487407,6.966 29.2586667,7.21911111 29.7534074,7.49614815 L29.7534074,7.49614815 Z" id="Path" fill="#E0E0E0"></path>
                <path d="M23.3112593,11.0654074 L24.3224444,11.9642222 C24.8367407,12.4223704 24.8847407,13.2186667 24.427037,13.7357778 L21.9382222,16.5392593 L20.0378519,15.1451852 L20.1577037,12.7300741 L21.5437778,11.1701481 C22.0014815,10.653037 22.796963,10.6072593 23.3112593,11.0654074 L23.3112593,11.0654074 Z" id="Path" fill="#8DA5FC"></path>
                <path d="M20.1577778,12.73 L21.9382963,16.5391852 L22.7162963,18.2081481 C23.2938519,19.442963 22.8775556,20.6931111 22.4155556,21.2122963 L21.5177037,22.2224444 C20.8399259,22.9882222 20.2776296,22.7591111 19.7328148,21.9322963 L14.4914815,14.1742963 L15.2280741,10.677037 L18.946,10.1337778 L20.1577778,12.73 Z" id="Path" fill="#4764CC"></path>
                <path d="M10.5904444,17.712963 L12.5191852,21.5963704 C12.9920741,22.5497778 12.6434074,23.5380741 12.2838519,23.9438519 L11.7913333,24.498 C11.2617778,25.0957778 10.8215556,24.919037 10.3965926,24.2711111 L7.32148148,20.6778519 L8.04940741,18.5768889 L10.5904444,17.712963 Z" id="Path" fill="#4764CC"></path>
                <path d="M3.15888889,13.2711111 L7.17540741,14.6848148 L7.158,17.4380741 L4.64955556,18.240963 L0.755111111,15.6948889 C0.0642962963,15.348 -0.164592593,14.9313333 0.367185185,14.3357037 L0.859703704,13.7794074 C1.21933333,13.3757778 2.15644444,12.9176296 3.15888889,13.2711111 Z" id="Path" fill="#4764CC"></path>
                <path d="M26.4080741,30.011037 C27.8442222,27.6220741 32.2682963,27.0766667 35.3717037,30.4277037 C32.4906667,34.8325926 27.5174074,37.7407407 21.8663704,37.7407407 C18.3598519,37.7407407 15.1148148,36.614963 12.469037,34.706 C12.323037,30.2794074 15.894963,29.1318519 18.7738519,31.512 C20.0139259,32.5352593 24.597037,33.0305185 26.4080741,30.011037 L26.4080741,30.011037 Z" id="Path" fill="#E0E0E0"></path>
                <path d="M10.4400741,0.037037037 C10.7364444,0.037037037 11.0328889,0.139555556 11.2682222,0.351185185 L12.2794074,1.25 C12.7959259,1.70814815 12.8417037,2.50666667 12.384,3.02155556 L11.0001481,4.58148148 L8.04933333,4.58148148 L7.012,3.25940741 L9.50081481,0.455925926 C9.74711111,0.178888889 10.0914074,0.037037037 10.4357778,0.037037037 L10.4400741,0.037037037 Z" id="Path" fill="#8DA5FC"></path>
                <path d="M7.012,3.25940741 L11.0002222,4.58148148 L13.7157037,5.4802963 L13.2362222,8.99281481 L10.2331111,10.3847407 L1.91888889,6.08466667 C1.03407407,5.63955556 0.742,5.10940741 1.422,4.34362963 L2.31985185,3.33348148 C2.7797037,2.81422222 3.97177778,2.25355556 5.26414815,2.68118519 L7.012,3.25940741 Z" id="Path" fill="#4764CC"></path>
                <path d="M18.4927407,0.835555556 C19.8286667,0.438518519 21.5961481,0.174518519 22.4373333,0.931555556 C23.2872593,1.6777037 23.2305926,3.46444444 22.993037,4.83896296 C22.9581481,5.04407407 22.9080741,5.25348148 22.8382963,5.46725926 C22.5288148,6.4402963 21.8641481,7.48096296 20.7395556,8.50851852 L18.9459259,10.1338519 L14.4913333,14.1742963 L7.31474074,20.6713333 L7.00962963,20.9593333 C6.57377778,21.3214815 6.13355556,21.5047407 5.73037037,21.5462222 C4.37044444,21.6858519 3.42244444,20.2131852 4.37918519,18.6205926 L4.64940741,18.240963 L10.2328889,10.3847407 L13.7154815,5.48037037 L15.118963,3.50814815 C16.1979259,1.99837037 17.3791111,1.16711111 18.4927407,0.835555556 L18.4927407,0.835555556 Z" id="Path" fill="#ECECEC"></path>
                <path d="M17.4554074,8.65681481 L13.0008148,12.6972593 L5.82422222,19.1942963 L5.51911111,19.4822963 C5.08103704,19.8444444 4.64303704,20.0277037 4.23985185,20.0691852 C4.15703704,20.0779259 4.07637037,20.0800741 3.99792593,20.0779259 C4.07859259,20.9964444 4.81081481,21.64 5.73051852,21.5462222 C6.1337037,21.5047407 6.57392593,21.3214815 7.00977778,20.9593333 L7.31488889,20.6713333 L14.4914815,14.1742963 L18.9460741,10.1338519 L20.7397037,8.50851852 C21.8642222,7.48096296 22.528963,6.4402963 22.8384444,5.46725926 C22.9081481,5.25348148 22.9582963,5.044 22.9931852,4.83896296 C23.2307407,3.46451852 23.2874074,1.6777037 22.4374815,0.931555556 C22.1977778,0.715555556 21.8839259,0.582518519 21.5243704,0.512666667 C21.7357778,1.36133333 21.6594815,2.45214815 21.5025926,3.36414815 C21.4677037,3.56925926 21.4176296,3.77651852 21.3478519,3.9902963 C21.0383704,4.96333333 20.3737037,6.004 19.2491852,7.03155556 L17.4554074,8.65681481 Z" id="Path" fill="#989AA2"></path>
                <path d="M20.8246667,20.944 L15.5811852,13.186 L14.4914815,14.1742963 L19.7328148,21.9322963 C20.2776296,22.7591852 20.8399259,22.9882222 21.5177037,22.2224444 L22.0080741,21.6704444 C21.583037,21.8014074 21.1994815,21.5156296 20.8246667,20.944 L20.8246667,20.944 Z" id="Path" fill="#4764CC"></path>
                <path d="M23.5335556,12.9394815 L21.3868889,15.358963 L21.9382963,16.5392593 L24.4271111,13.7357778 C24.8847407,13.2187407 24.8368148,12.4224444 24.3225185,11.9642222 L23.4333333,11.1722963 L23.4333333,11.1744444 C23.9432593,11.6326667 23.989037,12.4267407 23.5335556,12.9394815 Z" id="Path" fill="#8DA5FC"></path>
                <path d="M9.85562963,4.2037037 L11.0002222,4.58148148 L12.3840741,3.02155556 C12.8417037,2.50666667 12.796,1.70822222 12.2794815,1.25 L11.5864444,0.632592593 C12.0985926,1.09296296 12.0197037,1.84962963 11.5533333,2.358 L9.85562963,4.2037037 Z" id="Path" fill="#8DA5FC"></path>
                <path d="M11.0306667,9.25896296 L2.71866667,4.95888889 C2.0997037,4.64911111 1.77066667,4.29562963 1.86222222,3.84844444 L1.422,4.3437037 C0.742074074,5.10948148 1.03407407,5.63962963 1.91888889,6.08466667 L10.233037,10.3847407 L11.0306667,9.25896296 Z" id="Path" fill="#4764CC"></path>
                <path d="M11.3314074,23.4224444 L8.25637037,19.8292593 L7.32148148,20.6778519 L10.3965185,24.271037 C10.8214815,24.918963 11.2617037,25.0957037 11.7912593,24.4979259 L12.2358519,23.9982963 C11.9133333,24.0834815 11.6191111,23.8587407 11.3314074,23.4224444 Z" id="Path" fill="#4764CC"></path>
                <path d="M5.384,17.2068148 L1.4917037,14.6608148 C1.02533333,14.4251852 0.77037037,14.1611852 0.816074074,13.8296296 L0.367111111,14.3357778 C-0.164666667,14.9314074 0.0641481481,15.3480741 0.755037037,15.694963 L4.64948148,18.240963 L5.384,17.2068148 Z" id="Path" fill="#4764CC"></path>
                <path d="M38,21.5876296 C38,15.5356296 34.6742963,10.2625185 29.7534074,7.49622222 C29.4897037,7.34785185 29.2194815,7.20607407 28.9448889,7.07081481 C31.5840741,10.5658519 33.2185926,15.4135556 33.2185926,20.7717037 C33.2185926,21.5025926 33.1880741,22.2225185 33.1292593,22.9294074 C33.467037,24.9845185 37.5991111,25.1765185 37.9608889,22.7526667 C37.9868889,22.3686667 38,21.9802963 38,21.5876296 Z" id="Path" fill="#ACACAC"></path>
                <path d="M37.9607407,22.7526667 C37.598963,25.1765185 33.466963,24.9845185 33.1291111,22.9294074 C32.97,24.8252593 32.6082222,26.6360741 32.0699259,28.3225185 C33.2119259,28.6585185 34.3625926,29.336963 35.3716296,30.4278519 C36.8362222,28.1937037 37.7602963,25.5713333 37.9607407,22.7526667 L37.9607407,22.7526667 Z" id="Path" fill="#8DA5FC"></path>
                <path d="M32.07,28.3224444 C30.9214815,31.930963 28.9731852,34.9743704 26.5257778,37.0578519 C30.1957778,35.9495556 33.3165926,33.5693333 35.3717037,30.4277778 C34.3626667,29.336963 33.212,28.6584444 32.07,28.3224444 L32.07,28.3224444 Z" id="Path" fill="#ACACAC"></path>
            </g>
            <path d="M20.5319259,5.63407407 C20.2414815,5.63407407 19.9915556,5.41533333 19.9592593,5.11985185 C19.8887407,4.4757037 19.1219259,3.772 18.5431852,3.81896296 C18.2254074,3.8462963 17.9468148,3.60985185 17.9202222,3.29222222 C17.8936296,2.97466667 18.1294074,2.69577778 18.4468889,2.66918519 C19.6498519,2.56718519 20.9666667,3.72007407 21.1061481,4.9942963 C21.1408148,5.31096296 20.9122222,5.59585185 20.5955556,5.63051852 C20.5740741,5.63296296 20.5528889,5.63407407 20.5319259,5.63407407 L20.5319259,5.63407407 Z" id="Path" fill="#ACACAC"></path>
        </g>
    </g>
</svg>