<?xml version="1.0" encoding="UTF-8"?>
<svg width="38px" height="38px" viewBox="0 0 38 38" version="1.1" xmlns="http://www.w3.org/2000/svg" xmlns:xlink="http://www.w3.org/1999/xlink">
    <!-- Generator: Sketch 61 (89581) - https://sketch.com -->
    <title>NUR-HELP-LINE</title>
    <desc>Created with Sketch.</desc>
    <g id="NUR-HELP-LINE" stroke="none" stroke-width="1" fill="none" fill-rule="evenodd">
        <g id="family">
            <g id="Group-5" transform="translate(0.000000, 0.000151)" fill-rule="nonzero">
                <path d="M7.58449357,18.2951827 L4.10314877,18.2951827 C3.5761187,18.2951827 3.14496137,17.8810345 3.14496137,17.3748864 L2.66590623,9.57747896 C2.66590623,9.57747896 1.89067146,3.11866414 5.91169567,2.2699234 C5.91169567,2.2699234 7.54662268,-0.785484006 12.7826776,0.193404883 C12.8542543,0.206812291 12.9230544,0.231478957 12.9925486,0.252145624 C14.1987864,0.611478957 15.3201812,1.24725674 16.25253,2.13807155 C19.1040303,4.86310859 18.530645,8.08266414 18.6021446,8.48310859 C18.6021446,10.7199234 18.6389357,8.23370118 18.1230895,17.3749604 C18.1230895,17.8811086 17.6919322,18.2951827 17.1649021,18.2951827 L13.4611912,18.2951827" id="Path" fill="#989AA2"></path>
                <path d="M21.0165363,35.3524419 C19.6690548,23.4198493 19.7449807,23.7565901 19.624314,23.1733308 C19.4285363,22.2265901 18.8577955,21.4797012 18.0654992,20.9958493 L18.0380177,20.9890345 C17.7008326,20.7870345 17.3249066,20.6278493 16.921277,20.511553 L13.0361659,19.5443678 C12.9098696,19.4871827 12.8224622,19.2991086 12.8224622,19.0846641 L12.8224622,17.2107382 C11.3581659,17.8493308 9.65157329,17.8391827 8.20786959,17.2009604 L8.20786959,19.0847382 C8.20786959,19.2991827 8.12046218,19.4872567 7.99416588,19.5444419 C4.70757329,20.4199975 3.97661033,20.399553 2.99231403,20.9891086 L2.96483255,20.9959234 C1.87757329,21.6599234 1.45735107,22.5598493 1.31246218,23.7478493 L0.0137955143,35.3524419 C-0.116352634,36.8568864 0.681202922,37.9257012 2.1169807,37.9257012 C4.40179551,37.9257012 17.0872029,37.9257012 18.9134251,37.9257012 C20.5154251,37.9257012 21.0427585,36.6279975 21.0310548,35.7684419 C21.0310548,35.767553 21.0310548,35.7666641 21.0310548,35.7657753 C21.0336474,35.6101456 21.0265363,35.4688123 21.0165363,35.3524419 Z" id="Path" fill="#E0E0E0"></path>
                <path d="M20.3074992,29.0170345 C19.6951288,23.5810345 19.7215733,23.6440715 19.624314,23.1732567 C19.4274251,22.2211827 18.8503881,21.4749604 18.0654992,20.9957753 C18.0577214,20.9938493 18.0301659,20.9870345 18.0380177,20.9889604 C17.7008326,20.7869604 17.3249066,20.6277753 16.921277,20.511479 L13.0361659,19.5442938 C12.9098696,19.4871086 12.8224622,19.2990345 12.8224622,19.0845901 L12.8224622,17.2106641 L12.8224622,17.2106641 L12.8224622,17.2008864 C11.346314,17.8530345 9.64831403,17.8373308 8.20786959,17.2008864 L8.20786959,17.2106641 L8.20786959,17.2106641 L8.20786959,19.0845901 C8.20786959,19.2990345 8.12046218,19.4871086 7.99416588,19.5442938 C4.70757329,20.4198493 3.97661033,20.3993308 2.99231403,20.9889604 C2.98453626,20.9908864 2.9569807,20.9977012 2.96483255,20.9957753 C1.88735107,21.653553 1.45712885,22.561553 1.31246218,23.7477012 L0.722758477,29.0169604 L4.43964737,29.4069604 C4.637277,29.4277012 4.78423996,29.5993308 4.77423996,29.7978493 L4.36594366,37.9256271 C8.91564737,37.9256271 12.1389066,37.9256271 16.6866844,37.9256271 L16.2586844,29.8293308 C16.247277,29.6134049 16.4069807,29.4262938 16.6220918,29.4037012 L20.3074992,29.0170345 Z" id="Path" fill="#4764CC"></path>
                <path d="M14.5920177,19.9317012 L13.0360918,19.5443678 C12.9097955,19.4871827 12.8223881,19.2991086 12.8223881,19.0846641 L12.8223881,16.9817753 L12.8223881,16.9817753 L12.8223881,16.9719975 C11.3339437,17.6296271 9.63386959,17.6020715 8.20779551,16.9719975 L8.20779551,16.9817753 L8.20779551,16.9817753 L8.20779551,19.0846641 C8.20779551,19.2991086 8.12038811,19.4871827 7.99409181,19.5443678 L6.41475848,19.937553 C8.31290663,23.1299975 12.6953511,23.1312567 14.5920177,19.9317012 Z" id="Path" fill="#E0E0E0"></path>
                <path d="M15.7343881,10.0001456 C16.06024,10.0154049 16.3169807,10.2836271 16.3169807,10.6098493 L16.3169807,11.0477012 L16.3169807,11.0477012 L16.3169807,11.0477012 C16.3154251,11.8252567 16.3695733,12.5802938 16.0710548,13.569479 C15.7703881,14.5665901 15.2038696,15.4826641 14.3524622,16.2400715 C10.760314,19.4390345 4.98823996,17.0241456 4.74372144,12.1903678 C4.74261033,12.168516 4.74342514,12.1965901 4.74046218,12.1225901 C4.73749922,12.0468123 4.73557329,11.9708864 4.73557329,11.8943678 C4.73557329,11.2047382 4.73557329,9.63081229 4.73557329,8.95703451 L4.73557329,8.95703451 L4.73557329,8.66370118 C4.73557329,8.32296044 4.97564737,8.03162711 5.3089807,7.96110859 C5.90038811,7.83607155 6.85601774,7.49629377 7.72290663,6.57362711 C7.94075848,6.34177525 8.31238811,6.35384933 8.51490663,6.59918266 C9.35609181,7.61844192 11.6275733,9.8082197 15.7343881,10.0001456 Z" id="Path" fill="#E0E0E0"></path>
                <path d="M3.60586959,-0.00015067237 L17.6058696,-0.00015067237 C18.1581543,-0.00015067237 18.6058696,0.447564578 18.6058696,0.999849328 L18.6058696,8.99984933 L18.6058696,8.99984933 L2.60586959,8.99984933 L2.60586959,0.999849328 C2.60586959,0.447564578 3.05358484,-0.00015067237 3.60586959,-0.00015067237 Z" id="Rectangle" fill="#C5DAFF"></path>
                <rect id="Rectangle" fill="#4764CC" transform="translate(10.605870, 3.999849) rotate(-90.000000) translate(-10.605870, -3.999849) " x="9.60586959" y="0.999849328" width="2" height="6"></rect>
                <rect id="Rectangle" fill="#4764CC" x="9.60586959" y="0.999849328" width="2" height="6"></rect>
            </g>
            <g id="Group" transform="translate(0.000000, 16.962963)"></g>
        </g>
        <g id="syringe" transform="translate(28.500000, 21.500000) rotate(-225.000000) translate(-28.500000, -21.500000) translate(15.000000, 8.000000)" fill-rule="nonzero">
            <g id="Group" transform="translate(0.000000, 1.798942)">
                <path d="M0.426666667,24.8630688 C0.318306878,24.8630688 0.20994709,24.8215873 0.127407407,24.7390476 C-0.0380952381,24.573545 -0.0380952381,24.3060317 0.127407407,24.1405291 L5.58941799,18.6785185 C5.75492063,18.5130159 6.02243386,18.5130159 6.18793651,18.6785185 C6.35343915,18.8440212 6.35343915,19.1115344 6.18793651,19.277037 L0.725925926,24.7390476 C0.643386243,24.8220106 0.535026455,24.8630688 0.426666667,24.8630688 Z" id="Path" fill="#E0E0E0"></path>
                <polygon id="Path" fill="#C5DAFF" transform="translate(15.135583, 7.631367) rotate(-45.000000) translate(-15.135583, -7.631367) " points="12.0321365 6.99696566 18.2390297 6.99696566 18.2390297 8.26576873 12.0321365 8.26576873"></polygon>
                <polygon id="Path" fill="#E0E0E0" transform="translate(21.756338, 3.114301) rotate(-135.000000) translate(-21.756338, -3.114301) " points="20.909482 -0.387392818 22.6031944 -0.387392818 22.6031944 6.61599388 20.909482 6.61599388"></polygon>
            </g>
            <path d="M23.7837037,0.188783069 L26.4753439,2.88042328 C26.7250794,3.13015873 26.7250794,3.53269841 26.4753439,3.78243386 C26.2298413,4.02793651 25.8281481,4.02793651 25.5784127,3.78243386 L24.8292063,3.03280423 L23.6313228,1.83492063 L22.8863492,1.08571429 C22.6357672,0.84021164 22.6357672,0.438518519 22.8863492,0.188783069 C23.1314286,-0.0567195767 23.5343915,-0.0567195767 23.7837037,0.188783069 Z" id="Path" fill="#989AA2"></path>
            <path d="M19.8768254,7.98560847 L20.9227513,9.03534392 C21.1724868,9.28507937 21.1724868,9.68677249 20.9227513,9.93227513 C20.6772487,10.1820106 20.2704762,10.1820106 20.0249735,9.93227513 L20.0207407,9.92380952 L19.8725926,9.77989418 L19.8725926,9.77566138 L18.9798942,8.8821164 L17.7820106,7.6842328 L16.8842328,6.78730159 L16.7360847,6.63915344 L16.7318519,6.63915344 C16.4863492,6.39365079 16.4863492,5.99111111 16.7318519,5.74137566 C16.9815873,5.49587302 17.384127,5.49587302 17.6287831,5.74137566 L17.6338624,5.74137566 L18.6789418,6.78730159 L19.8768254,7.98560847 Z" id="Path" fill="#989AA2"></path>
            <polygon id="Path" fill="#E0E0E0" transform="translate(16.182755, 10.478227) rotate(-45.000000) translate(-16.182755, -10.478227) " points="13.0793081 9.63137108 19.2862013 9.63137108 19.2862013 11.3250835 13.0793081 11.3250835"></polygon>
            <polygon id="Path" fill="#8DA5FC" points="14.5858201 15.0624339 9.77777778 19.8708995 8.28359788 20.1714286 6.48888889 18.3813757 6.78899471 16.8871958 11.597037 12.0740741"></polygon>
            <polygon id="Path" fill="#4764CC" points="8.28359788 20.1714286 8.28359788 20.1756614 6.48888889 21.373545 5.88783069 20.7767196 5.29100529 20.1756614 6.48888889 18.3813757"></polygon>
            <polygon id="Path" fill="#989AA2" points="14.5900529 13.2719577 15.4835979 14.1655026 14.5858201 15.0624339 11.597037 12.0740741 12.4952381 11.1767196 13.3921693 12.0740741"></polygon>
            <polygon id="Path" fill="#C5DAFF" points="19.8725926 9.77650794 19.8725926 9.78031746 15.4835979 14.1655026 14.5900529 13.2719577 18.9798942 8.88253968"></polygon>
        </g>
    </g>
</svg>