<?xml version="1.0" encoding="UTF-8"?>
<svg width="38px" height="38px" viewBox="0 0 38 38" version="1.1" xmlns="http://www.w3.org/2000/svg" xmlns:xlink="http://www.w3.org/1999/xlink">
    <!-- Generator: Sketch 61 (89581) - https://sketch.com -->
    <title>RG-RECIPIENT-TRANS</title>
    <desc>Created with Sketch.</desc>
    <g id="RG-RECIPIENT-TRANS" stroke="none" stroke-width="1" fill="none" fill-rule="evenodd">
        <path d="M7.62646218,18.2951827 L4.28305477,18.2951827 C3.77690663,18.2951827 3.36283255,17.8810345 3.36283255,17.3748864 L2.90275848,9.57747896 C2.90275848,9.57747896 2.15823996,3.11866414 6.01994366,2.2699234 C6.01994366,2.2699234 7.59009181,-0.785484006 12.6186844,0.193404883 C12.6874251,0.206812291 12.7534992,0.231478957 12.82024,0.252145624 C13.9786844,0.611478957 15.0556474,1.24725674 15.9510548,2.13807155 C18.6895733,4.86310859 18.1389066,8.08266414 18.2075733,8.48310859 C18.2075733,10.7199234 18.2429066,8.23370118 17.7474992,17.3749604 C17.7474992,17.8811086 17.3334251,18.2951827 16.827277,18.2951827 L13.270314,18.2951827" id="Path" fill="#989AA2" fill-rule="nonzero"></path>
        <path d="M21.0165363,35.3524419 C19.6690548,23.4198493 19.7449807,23.7565901 19.624314,23.1733308 C19.4285363,22.2265901 18.8577955,21.4797012 18.0654992,20.9958493 L18.0380177,20.9890345 C17.7008326,20.7870345 17.3249066,20.6278493 16.921277,20.511553 L13.0361659,19.5443678 C12.9098696,19.4871827 12.8224622,19.2991086 12.8224622,19.0846641 L12.8224622,17.2107382 C11.3581659,17.8493308 9.65157329,17.8391827 8.20786959,17.2009604 L8.20786959,19.0847382 C8.20786959,19.2991827 8.12046218,19.4872567 7.99416588,19.5444419 C4.70757329,20.4199975 3.97661033,20.399553 2.99231403,20.9891086 L2.96483255,20.9959234 C1.87757329,21.6599234 1.45735107,22.5598493 1.31246218,23.7478493 L0.0137955143,35.3524419 C-0.116352634,36.8568864 0.681202922,37.9257012 2.1169807,37.9257012 C4.40179551,37.9257012 17.0872029,37.9257012 18.9134251,37.9257012 C20.5154251,37.9257012 21.0427585,36.6279975 21.0310548,35.7684419 C21.0310548,35.767553 21.0310548,35.7666641 21.0310548,35.7657753 C21.0336474,35.6101456 21.0265363,35.4688123 21.0165363,35.3524419 Z" id="Path" fill="#E0E0E0" fill-rule="nonzero"></path>
        <path d="M20.3074992,29.0170345 C19.6951288,23.5810345 19.7215733,23.6440715 19.624314,23.1732567 C19.4274251,22.2211827 18.8503881,21.4749604 18.0654992,20.9957753 C18.0577214,20.9938493 18.0301659,20.9870345 18.0380177,20.9889604 C17.7008326,20.7869604 17.3249066,20.6277753 16.921277,20.511479 L13.0361659,19.5442938 C12.9098696,19.4871086 12.8224622,19.2990345 12.8224622,19.0845901 L12.8224622,17.2106641 L12.8224622,17.2106641 L12.8224622,17.2008864 C11.346314,17.8530345 9.64831403,17.8373308 8.20786959,17.2008864 L8.20786959,17.2106641 L8.20786959,17.2106641 L8.20786959,19.0845901 C8.20786959,19.2990345 8.12046218,19.4871086 7.99416588,19.5442938 C4.70757329,20.4198493 3.97661033,20.3993308 2.99231403,20.9889604 C2.98453626,20.9908864 2.9569807,20.9977012 2.96483255,20.9957753 C1.88735107,21.653553 1.45712885,22.561553 1.31246218,23.7477012 L0.722758477,29.0169604 L4.43964737,29.4069604 C4.637277,29.4277012 4.78423996,29.5993308 4.77423996,29.7978493 L4.36594366,37.9256271 C8.91564737,37.9256271 12.1389066,37.9256271 16.6866844,37.9256271 L16.2586844,29.8293308 C16.247277,29.6134049 16.4069807,29.4262938 16.6220918,29.4037012 L20.3074992,29.0170345 Z" id="Path" fill="#4764CC" fill-rule="nonzero"></path>
        <path d="M14.5920177,19.9317012 L13.0360918,19.5443678 C12.9097955,19.4871827 12.8223881,19.2991086 12.8223881,19.0846641 L12.8223881,16.9817753 L12.8223881,16.9817753 L12.8223881,16.9719975 C11.3339437,17.6296271 9.63386959,17.6020715 8.20779551,16.9719975 L8.20779551,16.9817753 L8.20779551,16.9817753 L8.20779551,19.0846641 C8.20779551,19.2991086 8.12038811,19.4871827 7.99409181,19.5443678 L6.41475848,19.937553 C8.31290663,23.1299975 12.6953511,23.1312567 14.5920177,19.9317012 Z" id="Path" fill="#E0E0E0" fill-rule="nonzero"></path>
        <path d="M15.7343881,10.0001456 C16.06024,10.0154049 16.3169807,10.2836271 16.3169807,10.6098493 L16.3169807,11.0477012 L16.3169807,11.0477012 L16.3169807,11.0477012 C16.3154251,11.8252567 16.3695733,12.5802938 16.0710548,13.569479 C15.7703881,14.5665901 15.2038696,15.4826641 14.3524622,16.2400715 C10.760314,19.4390345 4.98823996,17.0241456 4.74372144,12.1903678 C4.74261033,12.168516 4.74342514,12.1965901 4.74046218,12.1225901 C4.73749922,12.0468123 4.73557329,11.9708864 4.73557329,11.8943678 C4.73557329,11.2047382 4.73557329,9.63081229 4.73557329,8.95703451 L4.73557329,8.95703451 L4.73557329,8.66370118 C4.73557329,8.32296044 4.97564737,8.03162711 5.3089807,7.96110859 C5.90038811,7.83607155 6.85601774,7.49629377 7.72290663,6.57362711 C7.94075848,6.34177525 8.31238811,6.35384933 8.51490663,6.59918266 C9.35609181,7.61844192 11.6275733,9.8082197 15.7343881,10.0001456 Z" id="Path" fill="#E0E0E0" fill-rule="nonzero"></path>
        <g id="lungs" transform="translate(19.000000, 0.000000)" fill-rule="nonzero">
            <path d="M8.11216734,7.67874146 C6.86668394,6.24379729 6.81754304,4.52313996 6.92843628,3.51756285 C6.98960875,2.96396638 6.76100921,2.41819761 6.32077026,2.07696533 C5.73629761,1.62397004 4.91496275,1.6293335 4.34194182,2.09653474 C3.16110993,3.0592041 1.34304046,5.20473479 0.502861014,9.64147949 C-0.797126779,16.5059891 0.475608816,18.5999146 3.71905518,18.5999146 C6.96264648,18.5999146 8.56371306,18.7566147 8.56371306,13.8373032 C8.56371306,8.91799163 7.61945344,8.91045379 8.11216734,7.67874146 Z" id="Path" fill="#C5DAFF"></path>
            <path d="M10.8878327,7.67874146 C12.1333161,6.24379729 12.182457,4.52313996 12.0715637,3.51756285 C12.0103913,2.96396638 12.2389908,2.41819761 12.6792297,2.07696533 C13.2637024,1.62397004 14.0850372,1.6293335 14.6582031,2.09653474 C15.839035,3.0592041 17.6569595,5.20473479 18.497139,9.64147949 C19.7972717,16.5059891 18.5243912,18.5999146 15.2809448,18.5999146 C12.0374985,18.5999146 10.4361419,18.7566147 10.4361419,13.8373032 C10.4361419,8.91799163 11.3805466,8.91045379 10.8878327,7.67874146 Z" id="Path" fill="#C5DAFF"></path>
            <path d="M13.3676376,10.4577408 C13.4279404,10.4577408 13.4888229,10.4387512 13.5405731,10.3996124 C13.590004,10.3622131 14.316536,9.80426789 15.0065384,8.89682771 C15.2483292,8.83493042 15.9503631,8.68939209 16.5145416,8.91407778 C16.5493317,8.92784881 16.5852814,8.93451692 16.6205063,8.93451692 C16.7344437,8.93451692 16.8422928,8.86595152 16.88694,8.75375366 C16.9455032,8.60662078 16.8737488,8.43977358 16.7266159,8.38121031 C16.2984085,8.21073912 15.8300476,8.20073699 15.4561996,8.23726653 C15.7266922,7.78977964 15.9622498,7.28648375 16.107933,6.73999023 C16.1486664,6.58691406 16.0577774,6.42977905 15.9047012,6.38904572 C15.75177,6.34816741 15.594635,6.43920135 15.5537567,6.59213257 C15.4435882,7.0052643 15.273262,7.39433287 15.0733643,7.75107575 C15.0384293,7.41767121 14.9772568,7.04585268 14.8701325,6.73651123 C14.8183823,6.58676911 14.6548691,6.50747681 14.5054169,6.55922698 C14.3558197,6.61112214 14.2763825,6.77434539 14.3281326,6.92408754 C14.5152741,7.46449282 14.5419464,8.27611541 14.5455704,8.54994204 C13.8958664,9.40171812 13.2078934,9.93226625 13.1941223,9.94255828 C13.0680084,10.0382309 13.0433655,10.2179794 13.1388931,10.3442383 C13.195282,10.418602 13.2809525,10.4577408 13.3676376,10.4577408 L13.3676376,10.4577408 Z" id="Path" fill="#4764CC"></path>
            <path d="M16.8083725,9.96647642 C16.6940002,10.3146667 16.474823,10.6354599 16.2282486,10.9120407 C16.2260742,10.91436 16.2238998,10.9165344 16.2218704,10.9189987 C15.6910324,11.5111542 15.035965,11.8976135 15.0211792,11.906311 C14.8841934,11.9856033 14.8373718,12.1608582 14.9166641,12.2979889 C14.9698639,12.3897476 15.0661164,12.4412079 15.165123,12.4412079 C15.213829,12.4412079 15.2631149,12.4287415 15.308342,12.4026489 C15.350235,12.3784408 15.9954452,12.0002441 16.5689011,11.3892441 C16.7644501,11.3912735 17.1914978,11.4199753 17.5973816,11.6108856 C17.6368103,11.6294403 17.6784134,11.6382828 17.7192917,11.6382828 C17.8268509,11.6382828 17.9300613,11.5774002 17.9789124,11.4736099 C18.046318,11.3303909 17.9848556,11.1594849 17.8414917,11.0920792 C17.5486755,10.9542236 17.2499161,10.8842087 17.002327,10.8492737 C17.1480103,10.6314011 17.27108,10.3958435 17.3532715,10.1453552 C17.4027023,9.99488832 17.3206558,9.83296966 17.1703338,9.78353882 C17.019722,9.73410798 16.8578034,9.81600952 16.8083725,9.96647642 L16.8083725,9.96647642 Z" id="Path" fill="#8DA5FC"></path>
            <path d="M13.4820099,12.5164413 C14.0883713,11.7591782 14.3279877,11.0423584 14.3426285,10.9974212 C14.3916244,10.8468094 14.309288,10.6850357 14.1588211,10.6358948 C14.0083542,10.5870438 13.8462906,10.6692352 13.7972946,10.8198471 C13.792511,10.8344879 13.3031311,12.2990036 11.9303742,13.146286 C11.7957077,13.2294922 11.7538147,13.4061966 11.8370209,13.540863 C11.8912354,13.6287079 11.9851685,13.6769791 12.0812759,13.6769791 C12.1325912,13.6769791 12.1846313,13.663208 12.2315979,13.6342163 C12.4999161,13.4686737 12.7379379,13.2832718 12.9482727,13.0897522 C12.9555206,13.4247513 12.9307327,13.8404923 12.8057785,14.187233 C12.7519989,14.3361053 12.8292618,14.5003433 12.9782791,14.5541229 C13.0103149,14.5657196 13.0432205,14.571228 13.0755462,14.571228 C13.1929626,14.571228 13.3031311,14.4984588 13.3451691,14.3816223 C13.5918884,13.6974182 13.5218735,12.842453 13.4820099,12.5164413 L13.4820099,12.5164413 Z" id="Path" fill="#8DA5FC"></path>
            <path d="M18.2134552,13.7626496 C18.0199356,13.7197418 17.8210526,13.7058258 17.623909,13.7114792 C17.6947937,13.5279617 17.7585754,13.3060303 17.7817688,13.0643845 C17.7968445,12.9068146 17.6813126,12.7667847 17.5235977,12.751709 C17.3663177,12.7366333 17.2259979,12.8521652 17.2109222,13.0097351 C17.1780167,13.3540115 17.0313187,13.6556702 16.9494171,13.8012085 C16.272171,13.9554443 15.7348099,14.2526092 15.6997299,14.2723236 C15.6991501,14.2726135 15.6987152,14.2729035 15.6981354,14.2731934 C15.6975555,14.2736282 15.6969757,14.2737732 15.6963959,14.2740631 C15.6616058,14.2942123 15.1319275,14.6050033 14.6538544,15.1087341 C14.4870072,15.1048202 14.1518631,15.0768433 13.8396225,14.9300003 C13.6964035,14.8625946 13.5254974,14.924057 13.4580917,15.067276 C13.390686,15.21064 13.4521484,15.3814011 13.5955124,15.4488068 C13.8151245,15.5521622 14.0385055,15.6105804 14.232605,15.6431961 C14.1270752,15.8097534 14.0376358,15.9879074 13.9757385,16.1762085 C13.9264526,16.3266754 14.0083542,16.488739 14.1588211,16.5381699 C14.1883926,16.5478821 14.218544,16.5525208 14.2482605,16.5525208 C14.368721,16.5525208 14.4810638,16.4758377 14.5206375,16.3550873 C14.6123962,16.0757523 14.7876511,15.8174362 14.9859543,15.5937653 C14.9913177,15.5882568 14.9963913,15.5827484 15.0013199,15.5769501 C15.4285126,15.1016312 15.9534073,14.7882309 15.9818192,14.7714157 C16.0097961,14.7560501 16.551796,14.4616394 17.1825104,14.337265 C17.1883087,14.3361053 17.1941071,14.3352356 17.1997604,14.333786 C17.4925766,14.2776871 17.8032227,14.2589874 18.0895157,14.3223343 C18.2440414,14.3566895 18.3972626,14.2589874 18.4314728,14.1044617 C18.465683,13.9499359 18.3681259,13.7968597 18.2134552,13.7626496 L18.2134552,13.7626496 Z" id="Path" fill="#4764CC"></path>
            <path d="M2.37949372,8.93451692 C2.4148636,8.93451692 2.45066832,8.92784881 2.48545836,8.91407778 C3.04992676,8.68939209 3.75210571,8.83493042 3.9934616,8.89682771 C4.68346404,9.80426789 5.40999602,10.3620682 5.4594269,10.3996124 C5.51117707,10.4388962 5.57191469,10.4577408 5.63221743,10.4577408 C5.71890259,10.4577408 5.80442808,10.418602 5.86081696,10.3443832 C5.95648957,10.2182694 5.93184661,10.0385208 5.80587769,9.94270327 C5.79457094,9.93415071 5.10529328,9.40331267 4.45442962,8.54994204 C4.45790862,8.27597046 4.48472593,7.46449282 4.67172241,6.92408754 C4.72347259,6.77434539 4.64418032,6.61112214 4.49458315,6.55937193 C4.34484099,6.50747681 4.18161775,6.58691406 4.12986754,6.73651123 C4.02274323,7.04585268 3.96142578,7.41767121 3.92649079,7.75107575 C3.72673797,7.39433287 3.55626678,7.00540925 3.44609832,6.59227752 C3.40536499,6.43920135 3.24808503,6.34831236 3.09515381,6.38904572 C2.94222259,6.42977905 2.85118865,6.58691406 2.89206696,6.73999023 C3.03775024,7.28648375 3.27316284,7.78977964 3.54380036,8.23726653 C3.16980744,8.20073699 2.70159148,8.21073912 2.27323912,8.38135529 C2.12610627,8.43991853 2.05435181,8.60662078 2.11291504,8.75375366 C2.15770721,8.86609651 2.26555633,8.93451692 2.37949372,8.93451692 Z" id="Path" fill="#4764CC"></path>
            <path d="M1.28070832,11.6382828 C1.3215866,11.6382828 1.3631897,11.6294403 1.40261841,11.6108856 C1.80487824,11.4215698 2.23468018,11.3921432 2.43138885,11.389679 C3.00484466,12.0003891 3.649765,12.3782959 3.69165803,12.4026489 C3.73688508,12.4287415 3.78617097,12.4410629 3.83473207,12.4410629 C3.9337387,12.4410629 4.02999114,12.3897476 4.08304597,12.2979889 C4.16248322,12.1611481 4.11580657,11.9857483 3.9788208,11.906311 C3.96910857,11.9006576 3.31114195,11.5136185 2.77827455,10.9191437 C2.77595522,10.9163895 2.7734909,10.9137802 2.77102661,10.911171 C2.52459717,10.6348801 2.30570982,10.3142319 2.19148256,9.96647642 C2.14219664,9.81600952 1.98027801,9.73410798 1.82966616,9.78353882 C1.67919922,9.83282471 1.59729768,9.99488832 1.64672852,10.1453552 C1.72891999,10.3956986 1.85198975,10.6314011 1.99767303,10.8491287 C1.74993896,10.8842087 1.45132446,10.9542236 1.15836335,11.0920792 C1.01514436,11.1594849 0.953536969,11.330246 1.0209427,11.473465 C1.06993865,11.5774002 1.1731491,11.6382828 1.28070832,11.6382828 L1.28070832,11.6382828 Z" id="Path" fill="#8DA5FC"></path>
            <path d="M7.06962584,13.146286 C5.70701597,12.3052368 5.2096634,10.8410111 5.20256041,10.8195572 C5.1534195,10.6690903 4.99164582,10.5870438 4.84132387,10.6358948 C4.69071198,10.6850357 4.60837556,10.8468094 4.65737151,10.9974212 C4.67201235,11.0423584 4.91162873,11.7591782 5.51799009,12.5164413 C5.47812654,12.842453 5.40811157,13.6974182 5.65483091,14.3816223 C5.6968689,14.4984588 5.80703735,14.571228 5.9245987,14.571228 C5.95677947,14.571228 5.98968506,14.5657196 6.02172088,14.5541229 C6.17073821,14.5003433 6.24800112,14.3361053 6.19422151,14.187233 C6.0698471,13.8417969 6.04505922,13.425621 6.05230713,13.0901871 C6.26249693,13.2835617 6.50037385,13.4686737 6.7684021,13.6342163 C6.81536865,13.663208 6.86740876,13.6769791 6.918869,13.6769791 C7.01497649,13.6769791 7.1089096,13.6287079 7.16297914,13.540863 C7.2461853,13.4061966 7.20443726,13.2294922 7.06962584,13.146286 L7.06962584,13.146286 Z" id="Path" fill="#8DA5FC"></path>
            <path d="M5.16037751,14.9300003 C4.84741211,15.0772781 4.51328279,15.1051102 4.3462906,15.1088791 C3.86821746,14.6050033 3.33839418,14.2943573 3.30360414,14.2742081 C3.30302427,14.2737732 3.30244448,14.2736282 3.30186461,14.2733383 C3.30128481,14.2730484 3.30084992,14.2726135 3.30027009,14.2723236 C3.26519012,14.2526092 2.72782896,13.9555893 2.05058287,13.8013534 C1.96897126,13.6558151 1.82198333,13.3532868 1.78907778,13.0098801 C1.77400209,12.8521652 1.63382722,12.7366333 1.47640227,12.751709 C1.31868743,12.7667847 1.20315552,12.9068146 1.2182312,13.0645294 C1.24142456,13.3060303 1.3052063,13.5281067 1.37609099,13.7116242 C1.17909243,13.7058258 0.980209332,13.7197418 0.786544781,13.7626496 C0.631874094,13.7968597 0.534317035,13.9500809 0.568672189,14.1046066 C0.602882395,14.2592773 0.755958566,14.3568344 0.910629254,14.3224792 C1.19677734,14.2591324 1.50742341,14.277832 1.80009459,14.333931 C1.80603791,14.3355255 1.81227114,14.3363953 1.81835938,14.3375549 C2.4473343,14.4617844 2.98788452,14.7550354 3.01803589,14.7715607 C3.04180908,14.7854767 3.56409455,15.0951081 3.99215698,15.5686874 C4.00143433,15.5808639 4.0115814,15.5923157 4.02259829,15.6028976 C4.21713257,15.8241043 4.38876343,16.0790863 4.47936248,16.3553772 C4.51908112,16.4761276 4.63127898,16.5526657 4.7517395,16.5526657 C4.78145598,16.5526657 4.81160735,16.548027 4.84132387,16.5383148 C4.99179077,16.488884 5.07369231,16.3269653 5.02426147,16.1764984 C4.96236419,15.9880524 4.8729248,15.8098984 4.76739502,15.6433411 C4.96149446,15.6107254 5.18487549,15.5523071 5.40448762,15.4490967 C5.54785156,15.381546 5.60931396,15.2107849 5.54190827,15.0675659 C5.47450258,14.9243469 5.30359651,14.8625946 5.16037751,14.9300003 L5.16037751,14.9300003 Z" id="Path" fill="#4764CC"></path>
            <path d="M16.6183319,15.4372101 C16.5094681,14.2817459 16.04879,11.5289841 14.1064911,9.93690493 C12.3933716,8.53269196 11.4180908,7.320549 10.9729233,6.69476318 C10.7792587,6.4226761 10.6747437,6.09738923 10.6747437,5.76340486 L10.6747437,0.501701346 C10.6747437,0.224685688 10.450058,0 10.1728973,0 L8.82695769,0 C8.54994204,0 8.32525635,0.224685688 8.32525635,0.501701346 L8.32525635,5.76340486 C8.32525635,6.09738923 8.22074128,6.4226761 8.02707673,6.69476318 C7.58190918,7.320549 6.60662842,8.53269196 4.89350893,9.93690493 C2.95121003,11.5289841 2.49053191,14.2817459 2.38152312,15.4372101 C2.35644531,15.7039337 2.54909514,15.9494934 2.81610871,15.9708023 C3.05702971,15.9899368 3.27113344,15.8280182 3.32056428,15.5955047 C3.50611115,14.7238693 4.11899568,12.5296326 5.79674529,11.0454025 C7.46956634,9.56566619 8.49152375,9.19979095 8.91378784,8.4428177 C9.02888491,8.23654175 9.24371338,8.10593415 9.47985076,8.10593415 L9.52014924,8.10593415 C9.75628662,8.10593415 9.97111509,8.23654175 10.0862122,8.4428177 C10.5084762,9.19979095 11.5304337,9.56566619 13.2032547,11.0454025 C14.8810043,12.5296326 15.4938888,14.7238693 15.6794357,15.5955047 C15.7288666,15.8280182 15.9429703,15.9899368 16.1838913,15.9708023 C16.4509049,15.9494934 16.6435547,15.7039337 16.6183319,15.4372101 L16.6183319,15.4372101 Z" id="Path" fill="#8DA5FC"></path>
        </g>
    </g>
</svg>