<?xml version="1.0" encoding="UTF-8"?>
<svg width="38px" height="38px" viewBox="0 0 38 38" version="1.1" xmlns="http://www.w3.org/2000/svg" xmlns:xlink="http://www.w3.org/1999/xlink">
    <!-- Generator: Sketch 61 (89581) - https://sketch.com -->
    <title>ORG-RETRIEVAL</title>
    <desc>Created with Sketch.</desc>
    <g id="ORG-RETRIEVAL" stroke="none" stroke-width="1" fill="none" fill-rule="evenodd">
        <g id="Group-5" transform="translate(4.000000, 0.000000)" fill-rule="nonzero">
            <g id="Group-8">
                <g id="heart-2">
                    <path d="M28.4574138,28.9311034 C27.6273103,22.667 27.7976552,15.9265862 20.9635517,11.9896552 C20.5521034,11.7524828 20.6562759,11.1359655 21.1253793,11.0599655 C21.9148621,10.9315517 22.5890345,10.811 23.0581379,10.4834138 L22.2496552,10.4834138 C21.1640345,10.4834138 20.2841379,9.60351724 20.2841379,8.51789655 C20.2841379,7.43227586 21.1640345,6.55237931 22.2496552,6.55237931 L22.7652759,6.55237931 C22.3027241,6.28768966 21.717,6.21365517 21.0886897,6.20644828 C20.6726552,6.20186207 20.307069,5.92996552 20.1721034,5.53686207 C20.0187931,5.08872414 19.8366552,4.67465517 19.6335517,4.29203448 L20.5691379,3.35644828 C21.337,2.58924138 21.337,1.34441379 20.5691379,0.576551724 C19.8012759,-0.191310345 18.5571034,-0.190655172 17.7892414,0.576551724 L16.7940345,1.57175862 C15.5898276,1.09872414 14.2585172,1.19568966 13.0163103,1.97468966 C12.6146897,2.22693103 12.0820345,2.10441379 11.7970345,1.72506897 C11.5002414,1.32934483 11.1923103,0.953931034 10.795931,0.752793103 C10.3366552,0.518896552 9.45544828,0.742310345 8.97258621,1.07055172 C8.70724138,1.25072414 8.79503448,2.08148276 8.86710345,2.59906897 C8.96537931,3.306 9.38731034,4.17606897 9.40172414,4.77948276 C9.40172414,4.77948276 9.40172414,4.77882759 9.40172414,4.77882759 C10.826069,5.72227586 12.5891379,7.43555172 11.7662414,9.82824138 C10.9276207,12.2648276 6.50455172,15.7182414 2.80348276,16.6184483 C1.29134483,22.043931 2.34813793,26.9642759 6.3577931,31.2648276 C11.5231724,36.8056207 18.2295172,38.3629655 25.5392759,37.8591379 C27.5794828,37.7182759 28.7581379,36.4426552 28.7954828,34.4135862 C28.8302069,32.5876207 28.6978621,30.7433103 28.4574138,28.9311034 Z" id="Path" fill="#8DA5FC"></path>
                    <path d="M10.0824483,27.3331379 C6.73451724,23.7414828 5.45234483,19.7167586 5.99810345,15.3284138 C4.93934483,15.9056207 3.84389655,16.3648966 2.80348276,16.6177931 C1.29134483,22.0432759 2.34813793,26.9636207 6.3577931,31.2641724 C11.5231724,36.8049655 18.2295172,38.3623103 25.5392759,37.8584828 C27.5794828,37.7176207 28.7581379,36.442 28.7954828,34.412931 C28.7981034,34.2596207 28.7935172,34.105 28.7941724,33.9510345 C21.6685172,34.3572414 15.1364483,32.7546897 10.0824483,27.3331379 Z" id="Path" fill="#4764CC"></path>
                    <path d="M9.40237931,4.77817241 C9.40631034,4.94786207 9.38403448,5.10051724 9.30541379,5.2177931 C8.89003448,5.83955172 7.60196552,6.18089655 6.72403448,6.12717241 C6.48358621,6.11275862 6.26672414,6.11210345 6.0682069,6.12455172 L2.76089655,2.81593103 C2.38941379,2.44444828 1.78731034,2.44444828 1.41582759,2.81593103 L0.907413793,3.32434483 C0.535931034,3.69582759 0.535931034,4.29793103 0.907413793,4.66941379 L4.28482759,8.04682759 C4.27106897,8.19751724 4.25731034,8.3482069 4.25337931,8.51855172 C4.20489655,10.5921724 4.15182759,12.8033793 3.43048276,14.6987931 C3.18413793,15.3454483 2.98103448,15.9842414 2.80413793,16.6177931 C6.5052069,15.7175862 10.9282759,12.2641724 11.7668966,9.82758621 C12.5904483,7.43489655 10.8273793,5.72162069 9.40237931,4.77817241 Z" id="Path" fill="#E0E0E0"></path>
                    <path d="M26.8358621,10.4827586 L22.2496552,10.4827586 C21.1640345,10.4827586 20.2841379,9.60286207 20.2841379,8.51724138 C20.2841379,7.43162069 21.1640345,6.55172414 22.2496552,6.55172414 L26.8358621,6.55172414 C27.9214828,6.55172414 28.8013793,7.43162069 28.8013793,8.51724138 C28.8013793,9.60286207 27.9214828,10.4827586 26.8358621,10.4827586 Z" id="Path" fill="#E0E0E0"></path>
                    <circle id="Oval" fill="#989AA2" cx="26.8358621" cy="8.51724138" r="1.96551724"></circle>
                    <path d="M22.9048276,32.7586207 C22.5425172,32.7586207 22.2496552,32.4657586 22.2496552,32.1034483 L22.2496552,30.5356207 C17.5068621,28.0308966 14.6372069,24.9260345 13.718,21.302931 C12.5334483,16.6367931 15.0499655,12.8898621 15.1574138,12.7326207 C15.3618276,12.4345172 15.7693448,12.3585172 16.0667931,12.5622759 C16.3655517,12.7660345 16.4422069,13.1735517 16.2397586,13.4723103 C16.2168276,13.5063793 13.9466552,16.9126207 14.9923103,20.9969655 C15.8433793,24.3219655 18.6062414,27.2014483 23.2035862,29.5541724 C23.4224138,29.6668621 23.56,29.8922414 23.56,30.137931 L23.56,32.1034483 C23.56,32.4657586 23.2671379,32.7586207 22.9048276,32.7586207 Z" id="Path" fill="#C5DAFF"></path>
                    <path d="M30.0311379,17.1602759 L28.6978621,16.8497241 L29.6321379,15.8486207 C29.9905172,15.4646897 29.9695517,14.8632414 29.5856207,14.5042069 L29.0601724,14.0134828 C28.6762414,13.6551034 28.0741379,13.676069 27.7157586,14.06 L25.7522069,16.1637586 L25.3518966,16.0707241 C25.9710345,17.0266207 26.4401379,18.0421379 26.8017931,19.098931 L29.4368966,19.7121724 C29.9485862,19.8314138 30.4596207,19.513 30.5788621,19.0013103 L30.742,18.3015862 C30.8612414,17.7905517 30.5428276,17.2795172 30.0311379,17.1602759 Z" id="Path" fill="#E0E0E0"></path>
                    <path d="M22.9054828,30.7931034 C22.6938621,30.7931034 22.4855172,30.6908966 22.3597241,30.5015517 C22.1585862,30.2001724 22.2398276,29.7939655 22.5412069,29.5928276 L24.5067241,28.2824828 C24.8087586,28.082 25.2149655,28.1625862 25.4154483,28.4639655 C25.6165862,28.7653448 25.5353448,29.1715517 25.2339655,29.3726897 L23.2684483,30.6830345 C23.1564138,30.757069 23.0306207,30.7931034 22.9054828,30.7931034 Z" id="Path" fill="#C5DAFF"></path>
                    <path d="M13.7324138,34.0689655 C13.7311034,34.0689655 13.7297931,34.0689655 13.7284828,34.0689655 C13.3668276,34.067 13.0752759,33.7721724 13.0772414,33.4098621 L13.0877241,31.6042069 C10.3648276,28.382069 10.4703103,23.7342759 13.3694483,21.1332414 C13.6387241,20.8914828 14.0521379,20.9137586 14.2945517,21.1830345 C14.5363103,21.4523103 14.5140345,21.8663793 14.2447586,22.1081379 C11.8252069,24.2793793 11.8193103,28.234 14.2316552,30.9228276 C14.3404138,31.0440345 14.4000345,31.2012759 14.3993793,31.3644138 L14.3875862,33.4177241 C14.3856207,33.778069 14.0927586,34.0689655 13.7324138,34.0689655 Z" id="Path" fill="#C5DAFF"></path>
                    <path d="M23.2297931,22.2758621 C23.0227586,22.2758621 22.819,22.1782414 22.6918966,21.9954483 C21.5021034,20.2893793 20.1052759,18.9521724 18.7582414,18.2301724 C17.2565862,17.4249655 15.9134828,17.423 14.7623448,18.2268966 C14.4662069,18.4332759 14.0567241,18.3605517 13.8496897,18.0644138 C13.6433103,17.7676207 13.7153793,17.3594483 14.0121724,17.1517586 C15.5780345,16.0595862 17.4341379,16.0327241 19.3767241,17.0751034 C20.9019655,17.8927586 22.4606207,19.3741034 23.7663793,21.2452759 C23.9727586,21.542069 23.9006897,21.9502414 23.6038966,22.157931 C23.4898966,22.2372069 23.3588621,22.2758621 23.2297931,22.2758621 Z" id="Path" fill="#C5DAFF"></path>
                    <path d="M20.9393103,22.9310345 C20.577,22.9310345 20.2841379,22.6381724 20.2841379,22.2758621 L20.2841379,19.6551724 C20.2841379,19.4494483 20.3811034,19.2548621 20.5462069,19.1310345 L23.1668966,17.1655172 C23.4551724,16.9486552 23.8666207,17.0063103 24.0834828,17.2965517 C24.301,17.5854828 24.2420345,17.9962759 23.9524483,18.2131379 L21.5938276,19.9821034 L21.5938276,22.2758621 C21.5944828,22.6381724 21.3016207,22.9310345 20.9393103,22.9310345 Z" id="Path" fill="#C5DAFF"></path>
                    <path d="M15.697931,32.1034483 L13.7324138,32.1034483 C13.3701034,32.1034483 13.0772414,31.8105862 13.0772414,31.4482759 C13.0772414,31.0859655 13.3701034,30.7931034 13.7324138,30.7931034 L15.697931,30.7931034 C16.0602414,30.7931034 16.3531034,31.0859655 16.3531034,31.4482759 C16.3531034,31.8105862 16.0602414,32.1034483 15.697931,32.1034483 Z" id="Path" fill="#C5DAFF"></path>
                    <path d="M18.3186207,31.4482759 C17.9563103,31.4482759 17.6634483,31.1554138 17.6634483,30.7931034 L17.6634483,26.862069 C17.6634483,26.4997586 17.9563103,26.2068966 18.3186207,26.2068966 L22.2496552,26.2068966 C22.6119655,26.2068966 22.9048276,26.4997586 22.9048276,26.862069 C22.9048276,27.2243793 22.6119655,27.5172414 22.2496552,27.5172414 L18.9737931,27.5172414 L18.9737931,30.7931034 C18.9737931,31.1554138 18.680931,31.4482759 18.3186207,31.4482759 Z" id="Path" fill="#C5DAFF"></path>
                </g>
            </g>
        </g>
    </g>
</svg>