<?xml version="1.0" encoding="UTF-8"?>
<svg width="38px" height="38px" viewBox="0 0 38 38" version="1.1" xmlns="http://www.w3.org/2000/svg" xmlns:xlink="http://www.w3.org/1999/xlink">
    <!-- Generator: Sketch 61 (89581) - https://sketch.com -->
    <title>PEACE-MIND-PLUS</title>
    <desc>Created with Sketch.</desc>
    <g id="PEACE-MIND-PLUS" stroke="none" stroke-width="1" fill="none" fill-rule="evenodd">
        <g id="family" transform="translate(1.000000, 16.000000)">
            <g id="Group" transform="translate(0.000000, 0.962963)"></g>
        </g>
        <g id="peace" fill-rule="nonzero">
            <path d="M18.9644444,0.605037037 C8.79844444,0.605037037 0.557333333,8.84622222 0.557333333,19.0122222 C0.557333333,27.6159259 6.46051852,34.8402963 14.4373333,36.8577037 C14.4373333,36.3635556 14.4373333,32.8821481 14.4373333,32.3966667 C14.4373333,29.9014074 13.1208148,27.7413333 13.1208148,27.7413333 L5.25362963,16.3694815 C4.42074074,15.1651111 5.56251852,13.5820741 6.964,13.9781481 C7.30088889,14.0733333 7.60785185,14.2817778 7.82244444,14.5922222 L14.2321481,23.8574074 C14.4498519,24.1528148 15.3103704,25.1520741 16.9872593,25.1520741 C18.4091111,25.1520741 19.4977037,25.1520741 20.9412593,25.1520741 C22.6183704,25.1520741 23.4788889,24.1528889 23.6965185,23.8574074 L30.1061481,14.5922222 C30.29,14.3262222 30.5421481,14.1351111 30.8222963,14.0259259 C32.2496296,13.4695556 33.5513333,15.1034074 32.6748148,16.3694815 L24.8081481,27.7411852 C24.8081481,27.7411852 23.4915556,29.9012593 23.4915556,32.3965185 C23.4915556,32.8817037 23.4915556,36.362963 23.4915556,36.8577037 C31.4682963,34.8401481 37.3715556,27.6158519 37.3715556,19.0120741 C37.3715556,8.84622222 29.1304444,0.605037037 18.9644444,0.605037037 Z M18.8904444,22.3083704 C16.6577778,22.3083704 14.8477778,20.4985185 14.8477778,18.2658519 C14.8477778,16.0332593 16.6578519,14.2233333 18.8904444,14.2233333 C21.1232593,14.2233333 22.933037,16.0333333 22.933037,18.2658519 C22.933037,20.4985926 21.1231852,22.3083704 18.8904444,22.3083704 Z" id="Shape" fill="#4764CC"></path>
            <g id="Group" fill="#8DA5FC">
                <path d="M14.8524444,18.4565926 L10.4958519,18.4565926 L11.2645926,19.5678519 L15.0631111,19.5678519 C14.9437778,19.2165185 14.8704444,18.8439259 14.8524444,18.4565926 Z" id="Path"></path>
                <path d="M27.432963,18.4565926 L22.9282222,18.4565926 C22.9102222,18.8438519 22.837037,19.2165185 22.7175556,19.5678519 L26.6642222,19.5678519 L27.432963,18.4565926 Z" id="Path"></path>
                <path d="M18.9644444,0.049367852 C18.9644444,0.049367852 18.7685185,0.0482962963 18.4160741,0.0578518519 C8.84548148,0.334814815 1.25533333,7.61674074 0.144740741,16.6634074 C-1.05274074,26.4202963 5.31133333,35.2084444 14.4372593,37.4317778 C14.4372593,36.4481481 14.4372593,35.9535556 14.4372593,34.9608889 C12.2152593,32.9783704 10.7406667,29.8635556 9.91955556,26.9937778 C10.7277778,26.888 11.5611111,26.7966667 12.4141481,26.72 L11.6899259,25.6731111 C10.9901481,25.7427407 10.3041481,25.8222963 9.63496296,25.9115556 C9.31622222,24.5797037 9.09192593,23.1797037 8.96659259,21.7365185 L7.75185185,19.9806667 C7.81407407,22.0956296 8.07955556,24.1473333 8.53207407,26.0694074 C6.53251852,26.3767407 4.70585185,26.7738519 3.13118519,27.2502222 C1.95548148,25.031037 1.21096296,22.3631111 1.12244444,19.5678519 L7.46637037,19.5678519 L6.69755556,18.4565926 L1.12244444,18.4565926 C1.19896296,15.8503704 1.87281481,13.1565926 3.13111111,10.7742222 C4.70577778,11.2505926 6.53244444,11.6474815 8.532,11.955037 C8.31103704,12.8937037 8.13518519,13.8637778 8.00525926,14.8565926 L8.96985185,16.2508889 C9.09577778,14.8208148 9.31888889,13.4334074 9.63488889,12.113037 C12.3462222,12.4747407 15.331037,12.6782963 18.4088148,12.7001481 L18.4088148,14.2528889 C18.7758519,14.2093333 19.1377037,14.2127407 19.52,14.2724444 L19.52,12.7001481 C22.5977778,12.6782963 25.5825926,12.4747407 28.2939259,12.113037 C28.6099259,13.4333333 28.833037,14.8208148 28.959037,16.2508889 L29.9235556,14.8565926 C29.7937037,13.8637778 29.6179259,12.8938519 29.3968148,11.9551111 C31.3963704,11.6477037 33.223037,11.2506667 34.7977037,10.7742963 C36.0054074,13.086 36.7214815,15.6931111 36.8064444,18.4566667 L31.2311111,18.4566667 L30.4623704,19.5679259 L36.8064444,19.5679259 C36.723037,22.2614074 36.0436296,24.8672593 34.7976296,27.2502963 C33.222963,26.7739259 31.3962963,26.376963 29.3967407,26.0694815 C29.8493333,24.1473333 30.1148148,22.0954815 30.176963,19.9805185 L28.9622963,21.7363704 C28.836963,23.1796296 28.6125926,24.5797037 28.2939259,25.9116296 C27.6247407,25.8223704 26.9387407,25.7428889 26.238963,25.6731852 L25.5148148,26.7200741 C26.3678519,26.7967407 27.2011852,26.8880741 28.0093333,26.9938519 C27.1888148,29.8616296 25.7148889,32.9771852 23.4917037,34.960963 C23.4917037,35.9541481 23.4917037,36.448 23.4917037,37.4322963 C31.4851852,35.4837037 37.6414074,28.357037 37.9165185,19.6242222 C38.2513333,8.97377778 29.7445185,0.049367852 18.9644444,0.049367852 Z M8.81,27.1500741 C9.73896296,30.4721481 11.4851111,34.081037 14.2054815,36.2163704 C9.73777778,34.9785926 6.0037037,32.0595556 3.69066667,28.2428148 C5.19207407,27.8033333 6.92207407,27.4363704 8.81,27.1500741 Z M8.81,10.8743704 C6.92207407,10.5881481 5.19207407,10.2211111 3.69059259,9.78162963 C6.01807407,5.94296296 9.74651852,3.04318519 14.2054815,1.80792593 C11.494963,3.93548148 9.74540741,7.52940741 8.81,10.8743704 Z M18.4088148,11.5888148 C15.4291111,11.5674074 12.543037,11.374 9.91962963,11.0306667 C11.2295556,6.45214815 14.1559259,1.6 18.4088148,1.18851852 L18.4088148,11.5888148 Z M19.5200741,11.5888148 L19.5200741,1.18851852 C23.8491111,1.60755556 26.7385185,6.58866667 28.0093333,11.0306667 C25.3858519,11.374 22.4996296,11.5674074 19.5200741,11.5888148 Z M29.1188889,10.8743704 C28.1898519,7.5522963 26.4437778,3.94311111 23.7232593,1.80792593 C28.1044444,3.0217037 31.861037,5.86088889 34.239037,9.78148148 C32.7374074,10.2208889 31.0071852,10.588 29.1188889,10.8743704 Z M23.7231852,36.2165185 C24.9291852,35.2699259 26.0348148,33.9561481 26.991037,32.3067407 C27.8767407,30.779037 28.5911852,29.036963 29.1187407,27.1502222 C31.0068889,27.4365185 32.7371852,27.8035556 34.2388148,28.2431111 C31.9183704,32.0617778 28.2088148,34.9737037 23.7231852,36.2165185 Z" id="Shape"></path>
                <path d="M18.4088148,22.2788889 L18.4088148,25.1520741 C18.726,25.1520741 19.1494815,25.1520741 19.52,25.1520741 L19.52,22.2593333 C19.1388148,22.3188889 18.777037,22.3225185 18.4088148,22.2788889 Z" id="Path"></path>
            </g>
        </g>
    </g>
</svg>