<?xml version="1.0" encoding="UTF-8"?>
<svg width="38px" height="38px" viewBox="0 0 38 38" version="1.1" xmlns="http://www.w3.org/2000/svg" xmlns:xlink="http://www.w3.org/1999/xlink">
    <!-- Generator: Sketch 61 (89581) - https://sketch.com -->
    <title>PET-RETURN</title>
    <desc>Created with Sketch.</desc>
    <g id="PET-RETURN" stroke="none" stroke-width="1" fill="none" fill-rule="evenodd">
        <g id="animal" fill-rule="nonzero">
            <path d="M34.7241379,24.2413793 L34.7241379,12.4482759 C34.7241379,11.7245924 35.3107993,11.137931 36.0344828,11.137931 C36.7581662,11.137931 37.3448276,11.7245924 37.3448276,12.4482759 L37.3448276,24.2413793 L34.7241379,24.2413793 Z" id="Path" fill="#4764CC"></path>
            <path d="M26.862069,7.20689655 L28.8275862,7.20689655 C28.8275862,8.29242175 29.7075783,9.17241379 30.7931034,9.17241379 C31.8786286,9.17241379 32.7586207,8.29242175 32.7586207,7.20689655 L32.7586207,3.93103448 C32.7586207,2.48366755 31.585298,1.31034483 30.137931,1.31034483 L26.862069,1.31034483 L26.862069,7.20689655 Z" id="Path" fill="#4764CC"></path>
            <path d="M22.2758621,1.31034483 L20.9655172,1.31034483 C19.5181503,1.31034483 18.3448276,2.48366755 18.3448276,3.93103448 L18.3448276,5.89655172 L22.2758621,5.89655172 L22.2758621,1.31034483 Z" id="Path" fill="#4764CC"></path>
            <path d="M38.0000001,27.5459052 L38.0000001,32.7586207 C38.0002796,34.1488066 37.4481543,35.4821344 36.4651444,36.4651444 C35.4821344,37.4481543 34.1488066,38 32.7586207,38 L17.0344828,38 L17.0344828,25.5517241 L22.2758621,25.5517241 L22.2758621,10.4827586 L19,10.4827586 C17.5526331,10.4827586 16.3793103,9.3094359 16.3793103,7.86206897 C16.3793103,6.41470203 17.5526331,5.24137931 19,5.24137931 L20.9655172,5.24137931 L20.9655172,2.62068966 C20.9656981,1.17339765 22.1389149,0 23.5862069,0 L26.2068966,0 C27.6541886,0 28.8274053,1.17339765 28.8275862,2.62068966 L28.8275862,10.4827586 L36.1049138,21.5346983 C37.3383571,23.2965589 38.0000001,25.3951994 38.0000001,27.5459052 L38.0000001,27.5459052 Z" id="Path" fill="#8DA5FC"></path>
            <path d="M8.51724138,34.7241379 L3.93103448,34.7241379 C3.20735102,34.7241379 2.62068966,34.1374766 2.62068966,33.4137931 L2.62068966,31.4482759 C2.62068966,30.7245924 2.03402829,30.137931 1.31034483,30.137931 C0.586661362,30.137931 0,30.7245924 0,31.4482759 L0,33.4137931 C0,35.5848435 1.75998409,37.3448276 3.93103448,37.3448276 L8.51724138,37.3448276 L8.51724138,34.7241379 Z" id="Path" fill="#989AA2"></path>
            <path d="M19,24.8965517 L19,38 L9.17241379,38 C7.00160294,37.9994218 5.24195751,36.2397764 5.24137931,34.0689655 L5.24137931,32.7586207 C5.24137931,31.5212846 5.82388806,30.3561465 6.8137931,29.6137931 L13.1034483,24.8965517 L19,24.8965517 Z" id="Path" fill="#989AA2"></path>
            <circle id="Oval" fill="#4764CC" cx="23.5862069" cy="3.27586207" r="1"></circle>
            <circle id="Oval" fill="#4764CC" cx="26.2068966" cy="3.27586207" r="1"></circle>
            <path d="M17.6896552,21.6206897 L17.6896552,16.9101589 C17.6896552,16.5296377 17.9279922,16.1898743 18.2857854,16.0603351 C18.6435786,15.930796 19.0441845,16.0392306 19.2877894,16.331554 L19.2877894,16.3315581 C20.3718429,17.6324202 20.9655172,19.2721731 20.9655172,20.9655172 L20.9655172,21.6206897 L17.6896552,21.6206897 Z" id="Path" fill="#989AA2"></path>
            <path d="M15.0689655,21.6206897 L15.0689655,16.9101589 C15.0689655,16.5296377 14.8306285,16.1898743 14.4728353,16.0603351 C14.1150421,15.930796 13.7144362,16.0392306 13.4708313,16.331554 L13.4708313,16.3315581 C12.3867778,17.6324202 11.7931034,19.2721731 11.7931034,20.9655172 L11.7931034,21.6206897 L15.0689655,21.6206897 Z" id="Path" fill="#989AA2"></path>
            <circle id="Oval" fill="#ECECEC" cx="16.3793103" cy="24.8965517" r="5.89655172"></circle>
            <circle id="Oval" fill="#989AA2" cx="18.3448276" cy="23.5862069" r="1"></circle>
            <circle id="Oval" fill="#989AA2" cx="14.4137931" cy="23.5862069" r="1"></circle>
        </g>
    </g>
</svg>