<?xml version="1.0" encoding="UTF-8"?>
<svg width="38px" height="38px" viewBox="0 0 38 38" version="1.1" xmlns="http://www.w3.org/2000/svg" xmlns:xlink="http://www.w3.org/1999/xlink">
    <!-- Generator: Sketch 61 (89581) - https://sketch.com -->
    <title>PHY-SEARCH</title>
    <desc>Created with Sketch.</desc>
    <g id="PHY-SEARCH" stroke="none" stroke-width="1" fill="none" fill-rule="evenodd">
        <g id="worker" transform="translate(2.000000, 2.000000)">
            <g id="Group-3" transform="translate(13.000000, 3.000000)">
                <polygon id="Path" fill="#989AA2" fill-rule="nonzero" points="12.3025027 14.3502509 12.3025027 11.9287469 6.07579102 11.9287469 6.07579102 14.3502509 9.18910278 17.1176587"></polygon>
                <path d="M17.1164941,15.4829495 L12.8359109,14.4757535 C12.7712634,14.4605838 12.7118195,14.4346542 12.6561679,14.4034329 L9.18919098,16.4257626 L5.85733002,14.3054474 C5.77107452,14.3865875 5.66409302,14.4470898 5.54238281,14.4756653 L1.26179962,15.4828613 C0.636755981,15.6298837 0.194983215,16.187634 0.194983215,16.8297876 L2,17 L9,20 L17,17 L17,16 C16.9999118,15.3579346 17.7415378,15.6300601 17.1164941,15.4829495 Z" id="Path" fill="#8DA5FC" fill-rule="nonzero"></path>
                <path d="M4.6919989,3.97233917 L4.99345215,10.6043106 C5.02158661,11.2238861 5.32542114,11.7983936 5.82152252,12.1705798 L7.25179382,13.2433054 C7.61110352,13.5127435 8.04802551,13.658443 8.49711853,13.658443 L9.88082245,13.658443 C10.3299155,13.658443 10.7669257,13.5127435 11.1261472,13.2433054 L12.5564185,12.1705798 C13.0525198,11.7983936 13.3563544,11.2239743 13.3844888,10.6043106 L13.6859421,3.97233917 L4.6919989,3.97233917 Z" id="Path" fill="#E0E0E0" fill-rule="nonzero"></path>
                <polygon id="Path" fill="#4764CC" fill-rule="nonzero" points="10.0538626 20.1176587 8.32425476 20.1176587 8.54051086 17.1176587 9.8377829 17.1176587"></polygon>
                <path d="M10.0538626,16.4257626 L8.32425476,16.4257626 L8.32425476,16.8336682 C8.32425476,17.1816006 8.60630493,17.4636508 8.95423737,17.4636508 L9.4239682,17.4636508 C9.77190063,17.4636508 10.0539508,17.1816006 10.0539508,16.8336682 L10.0538626,16.4257626 L10.0538626,16.4257626 Z" id="Path" fill="#4764CC" fill-rule="nonzero"></path>
                <g id="Group" transform="translate(5.019558, 13.428869)"></g>
                <path d="M6.02710693,13.5801251 L9.18910278,16.4258508 C9.18910278,16.4258508 8.30361694,16.8728271 7.21078278,17.7739236 C6.98535431,17.9598404 6.64438934,17.8845212 6.5234729,17.6185226 L5.03790283,14.350339 L5.50789825,13.64539 C5.62484589,13.4697922 5.870383,13.4390118 6.02710693,13.5801251 Z" id="Path" fill="#C5DAFF" fill-rule="nonzero"></path>
                <path d="M12.3510104,13.5801251 L9.18910278,16.4258508 C9.18910278,16.4258508 10.0745886,16.8728271 11.1674228,17.7739236 C11.3928513,17.9598404 11.7338162,17.8845212 11.8547327,17.6185226 L13.3403027,14.350339 L12.8703073,13.64539 C12.7533597,13.4697922 12.5078226,13.4390118 12.3510104,13.5801251 Z" id="Path" fill="#C5DAFF" fill-rule="nonzero"></path>
                <path d="M11.2863107,1.68057129 L11.6106067,3.97233917 C13.0909732,4.26841247 13.3043188,6.59157806 13.3350992,7.25525146 C13.3406555,7.37563873 13.3791089,7.49196899 13.444462,7.59321777 L14.0092679,8.46935486 C14.0092679,8.46935486 13.8158545,7.02073883 14.7010757,6.04785095 C14.7010757,6.04793915 15.0049985,0.296867369 11.2863107,1.68057129 Z" id="Path" fill="#989AA2" fill-rule="nonzero"></path>
                <path d="M14.3563184,8.3214505 L13.9656992,9.8841037 C13.9193964,10.0692267 13.7530591,10.1991391 13.5622034,10.1991391 L13.5622034,10.1991391 C13.3524738,10.1991391 13.175553,10.0429443 13.1495352,9.83489044 L12.9497717,8.23660614 C12.8963251,7.80920929 13.2295288,7.43164306 13.6602771,7.43164306 L13.6616,7.43164306 C14.1275385,7.43164306 14.4692972,7.86944702 14.3563184,8.3214505 Z" id="Path" fill="#E0E0E0" fill-rule="nonzero"></path>
                <path d="M5.02352692,1.06081939 L5.53523895,1.41042755 C3.2218631,3.11851562 3.65428711,6.04811554 3.65428711,6.04811554 C4.34609497,6.7399234 4.34609497,8.46961944 4.34609497,8.46961944 L5.03790283,7.77781158 C5.03790283,7.77781158 4.77084595,5.77929474 6.07570282,5.01031555 C7.28645477,4.29689972 8.34586273,4.66432342 9.42687866,4.66432342 C12.3241107,4.66432342 13.1348947,3.57245941 12.9943106,2.24281952 C12.9216373,1.55480408 11.869726,0.121622312 9.18910278,0.167307737 C8.10729309,0.185476072 6.07579102,0.513035276 5.02352692,1.06081939 Z" id="Path" fill="#989AA2" fill-rule="nonzero"></path>
                <path d="M4.0219754,8.3214505 L4.4125946,9.8841037 C4.4588974,10.0692267 4.62523468,10.1991391 4.81609039,10.1991391 L4.81609039,10.1991391 C5.02582001,10.1991391 5.20274078,10.0429443 5.22875854,9.83489044 L5.42852203,8.23660614 C5.48196869,7.80920929 5.14876495,7.43164306 4.71801666,7.43164306 L4.71669373,7.43164306 C4.25075531,7.43164306 3.90890839,7.86944702 4.0219754,8.3214505 Z" id="Path" fill="#E0E0E0" fill-rule="nonzero"></path>
            </g>
            <polygon id="Rectangle" fill="#E0E0E0" fill-rule="nonzero" transform="translate(12.355525, 22.643960) rotate(45.000000) translate(-12.355525, -22.643960) " points="11.2287814 19.7812577 13.4822684 19.7812577 13.4822684 25.5066625 11.2287814 25.5066625"></polygon>
            <path d="M22.165958,0 C15.6302258,0 10.331916,5.29830981 10.331916,11.834042 C10.331916,18.3697742 15.6302258,23.668084 22.165958,23.668084 C28.7016902,23.668084 34,18.3697742 34,11.834042 C34,5.29830981 28.7016902,0 22.165958,0 Z M22.165958,21.799603 C16.6621873,21.799603 12.2004675,17.3378833 12.2004675,11.8341125 C12.2004675,6.33027124 16.6621873,1.86862207 22.165958,1.86862207 C27.6697993,1.86862207 32.1314485,6.33027124 32.1314485,11.8341125 C32.1314485,17.3378127 27.6697993,21.799603 22.165958,21.799603 Z" id="Shape" fill="#4764CC" fill-rule="nonzero"></path>
            <path d="M1.68630371,34.6352222 L0.364918945,33.3141196 C-0.121569092,32.8277021 -0.121710205,32.0388789 0.364848389,31.5523203 L8.75271729,23.1644514 C9.23913477,22.6780339 10.0278169,22.6780339 10.5143049,23.1643809 L11.8356897,24.4854834 C12.3221777,24.9719009 12.3223188,25.7607241 11.8357603,26.2472827 L3.44789136,34.6351516 C2.96147388,35.1216396 2.17279175,35.1216396 1.68630371,34.6352222 Z" id="Path" fill="#4764CC" fill-rule="nonzero"></path>
            <path d="M11.0681746,27.0147979 L11.8356897,26.2472827 C12.3221777,25.7607947 12.3221072,24.972042 11.8356191,24.485554 L10.5142344,23.1644514 C10.0277463,22.6781045 9.23913477,22.6781045 8.75264673,23.164522 L7.98527271,23.9319666 L11.0681746,27.0147979 Z" id="Path" fill="#989AA2" fill-rule="nonzero"></path>
        </g>
    </g>
</svg>