<?xml version="1.0" encoding="UTF-8"?>
<svg width="38px" height="38px" viewBox="0 0 38 38" version="1.1" xmlns="http://www.w3.org/2000/svg" xmlns:xlink="http://www.w3.org/1999/xlink">
    <!-- Generator: Sketch 61 (89581) - https://sketch.com -->
    <title>REPATRIATION</title>
    <desc>Created with Sketch.</desc>
    <g id="REPATRIATION" stroke="none" stroke-width="1" fill="none" fill-rule="evenodd">
        <g id="Group-7" transform="translate(0.000000, 3.000000)" fill-rule="nonzero">
            <g id="home">
                <path d="M38,30.0197448 C38,30.6053772 37.9165039,31.1712952 37.7611084,31.7064819 C37.6694946,32.0233612 37.3781281,32.240799 37.0482025,32.240799 L26.3447571,32.240799 C26.0722351,31.5536957 25.922638,30.8042603 25.922638,30.0197448 C25.922638,26.8567505 28.3547516,24.2617035 31.4504852,24.0025177 C31.6186371,23.9880218 31.7891083,23.9810638 31.961319,23.9810638 C35.2965241,23.9810638 38,26.6845398 38,30.0197448 L38,30.0197448 Z" id="Path" fill="#4764CC"></path>
                <path d="M11.6558228,32.2405091 C11.9416809,31.517746 12.0924378,30.7268524 12.0762024,29.8988495 C12.01474,26.7520905 9.50434877,24.1529847 6.36164858,23.9894714 C2.88003544,23.8079834 0,26.5775604 0,30.0197448 C0,30.6050873 0.0832061953,31.1710052 0.238891602,31.7064819 C0.33079527,32.0233612 0.62187193,32.2405091 0.951797504,32.2405091 L11.6558228,32.2405091 Z" id="Path" fill="#C5DAFF"></path>
                <path d="M30.5331878,11.5068054 L30.5331878,32.2402191 L6.78086851,32.2402191 C6.37092592,32.2402191 6.03868101,31.9079743 6.03868101,31.4980316 L6.03868101,11.5068054 L18.2859344,0.510543805 L30.5331878,11.5068054 Z" id="Path" fill="#E0E0E0"></path>
                <path d="M27.2284241,20.2492523 L25.8144989,20.2492523 C25.3807831,20.2492523 25.0291138,20.6009216 25.0291138,21.0346374 L25.0291138,27.7125854 L28.0138092,27.7125854 L28.0138092,21.0346374 C28.0138092,20.6009216 27.6621399,20.2492523 27.2284241,20.2492523 L27.2284241,20.2492523 Z" id="Path" fill="#FFFFFF"></path>
                <path d="M11.5427552,27.7125854 L11.5427552,21.0346374 C11.5427552,20.6009216 11.1910858,20.2492523 10.75737,20.2492523 L9.34373472,20.2492523 C8.909729,20.2492523 8.55805971,20.6009216 8.55805971,21.0346374 L8.55805971,27.7125854" id="Path" fill="#FFFFFF"></path>
                <path d="M30.5334778,32.2405091 L6.78086851,32.2405091 C6.37092592,32.2405091 6.03868101,31.9082642 6.03868101,31.4983216 L6.03868101,27.7125854 L30.5334778,27.7125854 L30.5334778,32.2405091 Z" id="Path" fill="#5F9EEB"></path>
                <path d="M30.5331878,27.7125854 L30.5331878,32.2405091 L6.78115848,32.2405091 C6.37121582,32.2405091 6.03897098,31.9082642 6.03897098,31.4983216 L6.03897098,27.7125854 L30.5331878,27.7125854 Z" id="Path" fill="#989AA2"></path>
                <path d="M22.1244354,21.0346374 L22.1244354,32.2405091 L14.4477234,32.2405091 L14.4477234,21.0346374 C14.4477234,20.6009216 14.7993927,20.2492523 15.2331085,20.2492523 L21.3390503,20.2492523 C21.7727661,20.2492523 22.1244354,20.6009216 22.1244354,21.0346374 L22.1244354,21.0346374 Z" id="Path" fill="#4764CC"></path>
                <path d="M31.7009735,16.1863556 L18.2859344,4.14233398 L4.87118527,16.1863556 C4.54821777,16.4762726 4.05158998,16.4493103 3.76196289,16.1266327 L2.45008852,14.6657409 C2.16046143,14.3427734 2.18713379,13.8461456 2.50981138,13.5565186 L17.1053924,0.452270508 C17.7771302,-0.150756836 18.7950287,-0.150756836 19.4664764,0.452270508 L34.0620575,13.5565186 C34.385025,13.8464355 34.4116974,14.3427734 34.1217804,14.6657409 L32.8101959,16.1266327 C32.5202789,16.4496002 32.0236511,16.4762726 31.7009735,16.1863556 Z" id="Path" fill="#4764CC"></path>
                <path d="M21.4242859,14.0171966 C21.4242859,15.7506104 20.0193481,17.1555481 18.2859344,17.1555481 C16.5528107,17.1555481 15.147583,15.7506104 15.147583,14.0171966 C15.147583,12.2840729 16.5528107,10.8788452 18.2859344,10.8788452 C20.0193481,10.8788452 21.4242859,12.2840729 21.4242859,14.0171966 Z" id="Path" fill="#FFFFFF"></path>
                <path d="M33.6625519,31.6676331 C33.7405396,31.3223419 33.7730103,30.9596558 33.7532959,30.5862427 C33.6468963,28.580597 32.0062561,26.9634399 29.9991608,26.8845825 C27.763031,26.7961579 25.922638,28.5829163 25.922638,30.7996216 C25.922638,31.3084259 26.0197601,31.7946167 26.1963196,32.2405091 L32.9394989,32.2405091 C33.2842102,32.2405091 33.5863037,32.0039368 33.6625519,31.6676331 L33.6625519,31.6676331 Z" id="Path" fill="#C5DAFF"></path>
            </g>
        </g>
    </g>
</svg>