<?xml version="1.0" encoding="UTF-8"?>
<svg width="38px" height="38px" viewBox="0 0 38 38" version="1.1" xmlns="http://www.w3.org/2000/svg" xmlns:xlink="http://www.w3.org/1999/xlink">
    <!-- Generator: Sketch 61 (89581) - https://sketch.com -->
    <title>RET-TRANS</title>
    <desc>Created with Sketch.</desc>
    <g id="RET-TRANS" stroke="none" stroke-width="1" fill="none" fill-rule="evenodd">
        <g id="destination" transform="translate(1.000000, 1.000000)" fill-rule="nonzero">
            <g id="Group" transform="translate(0.000000, 0.051766)">
                <path d="M3.26454758,7.71272115 C-1.7393877,14.8417755 -0.94417961,24.7420989 5.52589892,30.972731 C7.81264214,33.1744591 10.5292276,34.6617478 13.3989443,35.4066054 C30.9589518,39.9641461 43.7611434,17.9292732 30.4030168,5.07066482 C28.9418132,3.66353821 27.387535,2.55253476 25.6452875,1.73514127 C21.7403963,-0.0920347633 17.3240276,-0.438768368 13.2317738,0.684887697 C10.2157721,1.50990742 7.37699359,3.13464164 5.04977934,5.54895094 C4.38889694,6.23479191 3.7937908,6.95859073 3.26454758,7.71272115 Z" id="Path" fill="#4764CC"></path>
                <path d="M25.6452875,1.73514127 C21.7403963,-0.0920347633 17.3240276,-0.438768368 13.2317738,0.684887697 C10.2157721,1.50990742 7.37699359,3.13464164 5.04977934,5.54895094 C4.38881028,6.23479191 3.79370414,6.95859073 3.26446092,7.71272115 C1.44118466,10.9951211 5.99179241,13.8522718 8.4101748,10.7192768 C10.848836,7.56600284 13.7863222,9.78038351 15.3159019,11.6253252 C18.0077887,14.87982 22.8242747,13.4246828 22.2570736,9.87155165 C21.5099628,5.22249618 26.7899157,8.12271783 25.6452875,1.73514127 Z" id="Path" fill="#989AA2"></path>
                <path d="M19.7804545,25.3139797 C18.2104038,25.6556002 17.0429836,26.9362007 17.3392801,28.788682 C18.0179281,33.0175147 13.3255418,31.0030626 13.3989443,35.4066054 C19.5044369,37.0161738 26.2759249,35.3636212 30.9657981,30.4969581 C31.7863114,29.6466331 32.5029173,28.6698687 33.1208155,27.715723 C31.1050635,30.3274477 27.4154401,29.4365651 25.3389382,27.9813412 C24.9793787,28.3685459 24.5792615,28.7633767 24.1360733,29.163234 C23.66758,29.6187281 23.3662571,29.5732306 22.8851112,29.163234 C21.3758104,27.8068045 20.3755607,26.5110382 19.7804545,25.3139797 Z" id="Path" fill="#989AA2"></path>
                <path d="M25.6452875,1.73514127 C21.8265381,-0.0540769231 17.5139901,-0.423602564 13.497652,0.613998397 C17.7772685,0.517803871 22.0899031,1.94009628 25.5591457,4.89604142 C25.830137,4.2050874 25.9111657,3.22061008 25.6452875,1.73514127 L25.6452875,1.73514127 Z" id="Path" fill="#E0E0E0"></path>
                <path d="M30.4896785,5.07057816 C29.028475,3.66345155 27.387535,2.5524481 25.6452875,1.73505461 C25.9111657,3.22061008 25.830137,4.2050874 25.5591457,4.89595476 C25.8376765,5.13384122 26.111181,5.38186711 26.3770592,5.64003242 C32.9662109,11.9821116 33.6701642,22.1328873 28.3598797,29.2847337 C29.9628618,29.6137017 31.6671515,29.3960941 32.877556,28.0750226 C34.1032129,26.2503597 35.0122945,24.2156288 35.5390245,22.079677 C36.914173,16.1248892 35.2149963,9.61832606 30.4896785,5.07057816 Z" id="Path" fill="#8DA5FC"></path>
                <path d="M28.3599663,29.2847337 C27.9041256,29.9021986 27.4001876,30.4969581 26.8532654,31.0638125 C24.4601882,33.5490111 21.522702,35.1965374 18.4079059,35.998765 C22.5989541,35.9050837 26.7569842,34.358865 30.0617429,31.3725883 C30.3706919,31.0942308 30.6720148,30.8006208 30.9657981,30.4969581 C31.7863114,29.6466331 32.5029173,28.6698687 33.1208155,27.715723 C33.0422999,27.8194571 32.9612712,27.9156516 32.8777293,28.0067331 C31.6672382,29.3278046 29.9629485,29.6137017 28.3599663,29.2847337 Z" id="Path" fill="#E0E0E0"></path>
            </g>
        </g>
    </g>
</svg>