<?xml version="1.0" encoding="UTF-8"?>
<svg width="38px" height="38px" viewBox="0 0 38 38" version="1.1" xmlns="http://www.w3.org/2000/svg" xmlns:xlink="http://www.w3.org/1999/xlink">
    <!-- Generator: Sketch 61 (89581) - https://sketch.com -->
    <title>TRANSL-SERVICES</title>
    <desc>Created with Sketch.</desc>
    <g id="TRANSL-SERVICES" stroke="none" stroke-width="1" fill="none" fill-rule="evenodd">
        <g id="language" transform="translate(1.000000, 1.000000)" fill-rule="nonzero">
            <path d="M32.8359375,6.3984375 L16.6816406,6.3984375 L14.2538906,35.6340937 C14.6805469,35.8474219 15.1394063,36 15.6434766,36 L32.8359375,36 C34.5806719,36 36,34.5806719 36,32.8359375 L36,9.5625 C36,7.81776563 34.5806719,6.3984375 32.8359375,6.3984375 Z" id="Path" fill="#E0E0E0"></path>
            <path d="M11.9437734,28.6776562 L12.5040938,33.2283516 C12.6165937,34.1321484 13.2283125,35.1213047 14.2538906,35.6340938 C16.3046953,33.4281094 14.929875,34.8366797 19.7965547,29.6015625 L11.9437734,28.6776562 Z" id="Path" fill="#8DA5FC"></path>
            <path d="M19.7965547,29.6015625 C20.1415781,29.20725 20.4442031,28.9425234 20.3627812,28.3995703 L17.1677812,2.77164844 C16.9710469,1.19165625 15.6207656,0 14.0284687,0 L3.1640625,0 C1.41932812,0 0,1.41932813 0,3.1640625 L0,26.4375 C0,28.1822344 1.41932812,29.6015625 3.1640625,29.6015625 C8.67670312,29.6015625 14.2662656,29.6015625 19.7965547,29.6015625 Z" id="Path" fill="#4764CC"></path>
            <path d="M11.6512734,8.3008125 C11.5524141,7.80848437 11.1197812,7.453125 10.6171875,7.453125 L8.5078125,7.453125 C8.00521875,7.453125 7.57258594,7.80848437 7.47372656,8.3008125 L5.36435156,18.8476875 C5.25002344,19.4193281 5.62078125,19.9744453 6.1914375,20.0887734 C6.76926562,20.20725 7.31925,19.8323437 7.43252344,19.2616875 L8.10660937,15.890625 L11.0183203,15.890625 L11.6924062,19.2616875 C11.8077891,19.8408516 12.3742266,20.203875 12.9334922,20.0887734 C13.5040781,19.9744453 13.8749062,19.4193281 13.7605781,18.8476875 L11.6512734,8.3008125 Z M8.52841406,13.78125 L9.37195312,9.5625 L9.75304687,9.5625 L10.5965859,13.78125 L8.52841406,13.78125 Z" id="Shape" fill="#C5DAFF"></path>
            <path d="M30.65625,15.890625 L27.4921875,15.890625 L27.4921875,14.8359375 C27.4921875,14.2529766 27.0204609,13.78125 26.4375,13.78125 C25.8545391,13.78125 25.3828125,14.2529766 25.3828125,14.8359375 L25.3828125,15.890625 L22.21875,15.890625 C21.6357891,15.890625 21.1640625,16.3623516 21.1640625,16.9453125 C21.1640625,17.5282734 21.6357891,18 22.21875,18 L22.5004219,18 C23.1005391,19.9253672 23.9819062,21.4319531 24.9709219,22.6196719 C24.1961484,23.328 23.4379687,23.9091328 22.6141875,24.559875 C22.1600391,24.9234609 22.0858594,25.5867187 22.4505,26.0419922 C22.8134531,26.4965625 23.4793125,26.5703203 23.9325469,26.20575 C24.827625,25.4993203 25.5974766,24.9080625 26.4375,24.1370859 C27.2775234,24.9081328 28.047375,25.4993906 28.9423125,26.20575 C29.3956875,26.5703203 30.0615469,26.4965625 30.4245,26.0419922 C30.7891406,25.5867187 30.7149609,24.9234609 30.2606719,24.559875 C29.4369609,23.9091328 28.6787813,23.328 27.9040078,22.6196719 C28.8930234,21.4320234 29.7744609,19.9254375 30.3745078,18 L30.65625,18 C31.2392109,18 31.7109375,17.5282734 31.7109375,16.9453125 C31.7109375,16.3623516 31.2392109,15.890625 30.65625,15.890625 Z M26.4375,21.0562734 C25.7671406,20.2136484 25.1613984,19.2232969 24.7059844,18 L28.1690156,18 C27.7136016,19.2233672 27.1078594,20.2136484 26.4375,21.0562734 Z" id="Shape" fill="#989AA2"></path>
        </g>
    </g>
</svg>