<?xml version="1.0" encoding="UTF-8"?>
<svg width="38px" height="38px" viewBox="0 0 38 38" version="1.1" xmlns="http://www.w3.org/2000/svg" xmlns:xlink="http://www.w3.org/1999/xlink">
    <!-- Generator: Sketch 61 (89581) - https://sketch.com -->
    <title>TRAVEL-ADVISOR</title>
    <desc>Created with Sketch.</desc>
    <g id="TRAVEL-ADVISOR" stroke="none" stroke-width="1" fill="none" fill-rule="evenodd">
        <g id="family">
            <g id="Group-5" transform="translate(0.000000, 0.000151)" fill-rule="nonzero">
                <path d="M7.58449357,18.2951827 L4.10314877,18.2951827 C3.5761187,18.2951827 3.14496137,17.8810345 3.14496137,17.3748864 L2.66590623,9.57747896 C2.66590623,9.57747896 1.89067146,3.11866414 5.91169567,2.2699234 C5.91169567,2.2699234 7.54662268,-0.785484006 12.7826776,0.193404883 C12.8542543,0.206812291 12.9230544,0.231478957 12.9925486,0.252145624 C14.1987864,0.611478957 15.3201812,1.24725674 16.25253,2.13807155 C19.1040303,4.86310859 18.530645,8.08266414 18.6021446,8.48310859 C18.6021446,10.7199234 18.6389357,8.23370118 18.1230895,17.3749604 C18.1230895,17.8811086 17.6919322,18.2951827 17.1649021,18.2951827 L13.4611912,18.2951827" id="Path" fill="#989AA2"></path>
                <path d="M27.0165363,35.3524419 C25.6690548,23.4198493 19.7449807,23.7565901 19.624314,23.1733308 C19.4285363,22.2265901 18.8577955,21.4797012 18.0654992,20.9958493 L18.0380177,20.9890345 C17.7008326,20.7870345 17.3249066,20.6278493 16.921277,20.511553 L13.0361659,19.5443678 C12.9098696,19.4871827 12.8224622,19.2991086 12.8224622,19.0846641 L12.8224622,17.2107382 C11.3581659,17.8493308 9.65157329,17.8391827 8.20786959,17.2009604 L8.20786959,19.0847382 C8.20786959,19.2991827 8.12046218,19.4872567 7.99416588,19.5444419 C4.70757329,20.4199975 3.97661033,20.399553 2.99231403,20.9891086 L2.96483255,20.9959234 C1.87757329,21.6599234 1.45735107,22.5598493 1.31246218,23.7478493 L0.0137955143,35.3524419 C-0.116352634,36.8568864 0.681202922,37.9257012 2.1169807,37.9257012 C4.40179551,37.9257012 23.0872029,37.9257012 24.9134251,37.9257012 C26.5154251,37.9257012 27.0427585,36.6279975 27.0310548,35.7684419 C27.0310548,35.767553 27.0310548,35.7666641 27.0310548,35.7657753 C27.0336474,35.6101456 27.0265363,35.4688123 27.0165363,35.3524419 Z" id="Path" fill="#4764CC"></path>
                <path d="M19.624314,23.1733308 C19.4285363,22.2265901 18.8577955,21.4797012 18.0654992,20.9958493 L18.0380177,20.9890345 C17.7008326,20.7870345 17.3249066,20.6278493 16.921277,20.511553 L13.0361659,19.5443678 C12.9098696,19.4871827 12.8224622,19.2991086 12.8224622,19.0846641 L12.8224622,17.2107382 C11.3581659,17.8493308 9.65157329,17.8391827 8.20786959,17.2009604 L8.20786959,19.0847382 C8.20786959,19.2991827 8.12046218,19.4872567 7.99416588,19.5444419 C4.70757329,20.4199975 3.97661033,20.399553 2.99231403,20.9891086 L2.96483255,20.9959234 C1.87757329,21.6599234 1.45735107,22.5598493 1.31246218,23.7478493 C13.6008079,23.7536765 19.7047585,23.5621703 19.624314,23.1733308 Z" id="Path" fill="#E0E0E0"></path>
                <path d="M20.3074992,29.0170345 C19.6951288,23.5810345 19.7215733,23.6440715 19.624314,23.1732567 C19.4274251,22.2211827 18.8503881,21.4749604 18.0654992,20.9957753 C18.0577214,20.9938493 18.0301659,20.9870345 18.0380177,20.9889604 C17.7008326,20.7869604 17.3249066,20.6277753 16.921277,20.511479 L13.0361659,19.5442938 C12.9098696,19.4871086 12.8224622,19.2990345 12.8224622,19.0845901 L12.8224622,17.2106641 L12.8224622,17.2106641 L12.8224622,17.2008864 C11.346314,17.8530345 9.64831403,17.8373308 8.20786959,17.2008864 L8.20786959,17.2106641 L8.20786959,17.2106641 L8.20786959,19.0845901 C8.20786959,19.2990345 8.12046218,19.4871086 7.99416588,19.5442938 C4.70757329,20.4198493 3.97661033,20.3993308 2.99231403,20.9889604 C2.98453626,20.9908864 2.9569807,20.9977012 2.96483255,20.9957753 C1.88735107,21.653553 1.45712885,22.561553 1.31246218,23.7477012 L0.722758477,29.0169604 L4.43964737,29.4069604 C4.637277,29.4277012 4.78423996,29.5993308 4.77423996,29.7978493 L4.36594366,37.9256271 C8.91564737,37.9256271 12.1389066,37.9256271 16.6866844,37.9256271 L16.2586844,29.8293308 C16.247277,29.6134049 16.4069807,29.4262938 16.6220918,29.4037012 L20.3074992,29.0170345 Z" id="Path" fill="#4764CC"></path>
                <path d="M14.5920177,19.9317012 L13.0360918,19.5443678 C12.9097955,19.4871827 12.8223881,19.2991086 12.8223881,19.0846641 L12.8223881,16.9817753 L12.8223881,16.9817753 L12.8223881,16.9719975 C11.3339437,17.6296271 9.63386959,17.6020715 8.20779551,16.9719975 L8.20779551,16.9817753 L8.20779551,16.9817753 L8.20779551,19.0846641 C8.20779551,19.2991086 8.12038811,19.4871827 7.99409181,19.5443678 L6.41475848,19.937553 C8.31290663,23.1299975 12.6953511,23.1312567 14.5920177,19.9317012 Z" id="Path" fill="#E0E0E0"></path>
                <path d="M15.7343881,10.0001456 C16.06024,10.0154049 16.3169807,10.2836271 16.3169807,10.6098493 L16.3169807,11.0477012 L16.3169807,11.0477012 L16.3169807,11.0477012 C16.3154251,11.8252567 16.3695733,12.5802938 16.0710548,13.569479 C15.7703881,14.5665901 15.2038696,15.4826641 14.3524622,16.2400715 C10.760314,19.4390345 4.98823996,17.0241456 4.74372144,12.1903678 C4.74261033,12.168516 4.74342514,12.1965901 4.74046218,12.1225901 C4.73749922,12.0468123 4.73557329,11.9708864 4.73557329,11.8943678 C4.73557329,11.2047382 4.73557329,9.63081229 4.73557329,8.95703451 L4.73557329,8.95703451 L4.73557329,8.66370118 C4.73557329,8.32296044 4.97564737,8.03162711 5.3089807,7.96110859 C5.90038811,7.83607155 6.85601774,7.49629377 7.72290663,6.57362711 C7.94075848,6.34177525 8.31238811,6.35384933 8.51490663,6.59918266 C9.35609181,7.61844192 11.6275733,9.8082197 15.7343881,10.0001456 Z" id="Path" fill="#E0E0E0"></path>
            </g>
            <g id="Group" transform="translate(1.000000, 16.962963)"></g>
            <g id="worldwide-2" transform="translate(16.000000, 16.000000)" fill-rule="nonzero">
                <circle id="Oval" fill="#C5DAFF" cx="11" cy="11" r="11"></circle>
                <path d="M15.4942955,1.7394503 C15.5386015,1.72316476 15.5744857,1.6960222 15.6114684,1.6700429 C13.9922853,0.611870836 12.0856625,0 10.0431924,0 C7.79713433,0 5.71548451,0.740216367 4,2.00040662 C4.00915413,2.04538572 4.02087142,2.08997706 4.03954585,2.13262966 C4.76382085,3.78522377 5.69571158,6.59021339 7.28706605,7.23659405 C8.06077336,7.55067224 8.77589422,7.43240823 9.50932335,7.81279181 C9.58768273,7.8531179 9.70229248,7.94772911 9.75135863,8.02411602 C10.1241149,8.60147703 9.90954204,9.44754938 10.279369,9.65460833 C10.5719351,9.81823919 10.7381742,10.1528682 10.6133118,10.4774156 C10.1032435,11.802748 10.5444727,13.3184661 11.7308483,14.3588016 C12.5657053,15.0908752 11.8707235,16.7876729 11.1684184,18.1199848 C10.917229,18.5965306 11.3650492,19.1467491 11.8502182,18.9641184 C12.6177007,18.6748563 13.2529975,18.2556976 13.9886237,17.5856642 C15.0552632,16.6143483 15.2859474,15.5557885 16.3430667,14.7310424 C16.3547839,14.7221242 16.3635719,14.7108794 16.3683321,14.6961448 C16.6385621,13.857052 17.4781791,12.0257048 16.6308726,11.5592405 C15.8399555,11.124184 15.5440939,9.86438154 14.7722174,9.00590117 C14.6836054,8.90741245 14.5576446,8.85855585 14.430219,8.84110706 C13.4840479,8.71198603 13.0585638,7.95005561 12.4218023,8.45684597 C11.945055,8.83645405 11.408989,8.60535454 11.24275,7.99852447 C11.1885575,7.80077154 11.0929883,7.6243449 10.7498914,7.51228491 C10.4891817,7.42736747 10.3624885,7.11445254 10.4562269,6.8434147 C10.4576915,6.83953719 10.45879,6.83527193 10.4602547,6.83139442 C10.5858494,6.46923513 9.87841799,6.52429575 9.51884365,6.58788689 C9.41814819,6.60572343 9.7601466,6.17493224 9.64773384,6.24472739 C9.20540614,6.52119374 8.65652433,6.04387245 8.67995891,5.50063351 C8.70412582,4.94963956 8.80115963,4.97600662 9.69313834,4.86743638 C10.6532238,4.3939926 11.1178876,4.73909085 11.0871297,5.90195564 C11.6806837,5.99501584 11.8879332,5.71738624 11.7092446,5.06867907 C11.6568829,4.87906891 11.6989919,4.66774469 11.8125032,4.5114811 C12.9066052,3.00468131 13.8201876,2.34783138 15.4942955,1.7394503 Z" id="Path" fill="#8DA5FC"></path>
            </g>
        </g>
    </g>
</svg>