<?xml version="1.0" encoding="UTF-8"?>
<svg width="38px" height="38px" viewBox="0 0 38 38" version="1.1" xmlns="http://www.w3.org/2000/svg" xmlns:xlink="http://www.w3.org/1999/xlink">
    <!-- Generator: Sketch 61 (89581) - https://sketch.com -->
    <title>VEHICLE-RET</title>
    <desc>Created with Sketch.</desc>
    <g id="VEHICLE-RET" stroke="none" stroke-width="1" fill="none" fill-rule="evenodd">
        <g id="Group-2" transform="translate(0.000000, 6.000000)">
            <g id="school-bus">
                <path d="M37.2717656,8.99946875 C36.9516602,8.99946875 36.6921914,8.73962891 36.6921914,8.41915234 L36.6921914,6.76785937 C36.6921914,6.44619531 36.430125,6.1845 36.1078672,6.1845 L34.9527266,6.1845 C34.6326211,6.1845 34.3731523,5.92466016 34.3731523,5.60418359 C34.3731523,5.28370703 34.6326211,5.02386719 34.9527266,5.02386719 L36.1078672,5.02386719 C37.0692227,5.02386719 37.8513398,5.80620703 37.8513398,6.76785937 L37.8513398,8.41915234 C37.8513398,8.73962891 37.5918711,8.99946875 37.2717656,8.99946875 L37.2717656,8.99946875 Z" id="Path" fill="#ACACAC" fill-rule="nonzero"></path>
                <g id="Group" fill-rule="nonzero">
                    <path d="M6.20075391,2.59632031 L12.7482578,4.17606641 L19.4518438,2.59632031 L19.4518438,1.31567578 C19.4518438,0.611414062 18.8753125,0.037109375 18.1731289,0.037109375 L7.47946875,0.037109375 C6.77728516,0.037109375 6.20075391,0.611339844 6.20075391,1.31567578 L6.20075391,2.59632031 Z" id="Path" fill="#E0E0E0"></path>
                    <path d="M15.7002344,2.59632031 L19.451918,2.59632031 L19.451918,1.31567578 C19.451918,0.611414063 18.8753867,0.037109375 18.1732031,0.037109375 L14.4215195,0.037109375 C15.1237031,0.037109375 15.7002344,0.611339844 15.7002344,1.31567578 L15.7002344,2.59632031 Z" id="Path" fill="#E0E0E0"></path>
                    <path d="M36.4178047,19.8457969 C36.4178047,15.3080625 36.4178047,15.6656484 36.4178047,13.6633008 C36.4178047,12.9243789 35.8066133,12.3154141 35.0740742,12.3002734 L35.0545547,12.3002734 L35.0588594,5.59119531 C35.0588594,3.94428125 33.71075,2.59639453 32.0636133,2.59639453 L19.451918,2.59639453 L6.20075391,2.59639453 L4.40837109,2.59639453 C2.76116016,2.59639453 1.413125,3.94428125 1.413125,5.59119531 L1.413125,5.82520703 L1.413125,19.8457969 L18.6153242,22.0713203 L36.4178047,19.8457969 Z" id="Path" fill="#4764CC"></path>
                    <path d="M33.9058711,16.8553008 L36.4178047,17.2908906 L36.4178047,14.6883359 L32.2261523,14.6883359 C31.5022227,14.6883359 31.5954414,15.2300586 31.7991719,15.5356172 L32.1698203,16.0990117 C32.5621406,16.6927617 33.2557148,16.7426367 33.9058711,16.8553008 L33.9058711,16.8553008 Z" id="Path" fill="#8DA5FC"></path>
                    <path d="M25.414207,7.91453906 L25.414207,19.8455 L21.8121484,21.1544219 L18.3028633,19.8455 L18.3028633,7.91453906 C18.3028633,6.98635938 19.0618984,6.22791797 19.987332,6.22791797 L23.7281797,6.22791797 C24.6559141,6.22791797 25.414207,6.98635938 25.414207,7.91453906 Z" id="Path" fill="#8DA5FC"></path>
                    <polygon id="Path" fill="#C5DAFF" points="1.41342188 5.82483594 5.99078906 5.82483594 5.99078906 11.7500156 1.41342188 11.7500156"></polygon>
                    <path d="M13.999832,6.67471484 L13.999832,10.9002109 C13.999832,11.3662305 13.618793,11.7500898 13.1503242,11.7500898 L9.49608984,11.7500898 L9.49608984,5.82491016 L13.1503242,5.82491016 C13.6187188,5.82483594 13.999832,6.20869531 13.999832,6.67471484 L13.999832,6.67471484 Z" id="Path" fill="#C5DAFF"></path>
                    <polygon id="Path" fill="#FFFFFF" points="3.49608984 5.82483594 10.4960898 5.82483594 10.4960898 11.7500156 3.49608984 11.7500156"></polygon>
                    <path d="M32.820793,22.4613398 L36.6909297,22.4613398 C37.4104805,22.4613398 38,21.8740469 38,21.1546445 C38,20.435168 37.4104805,19.8457969 36.6909297,19.8457969 L36.4178789,19.8457969 L31.6505117,19.8457969 C32.3223398,20.5283867 32.7557773,21.4450625 32.820793,22.4613398 Z" id="Path" fill="#E0E0E0"></path>
                    <path d="M1.30691797,22.4613398 L6.41866016,22.4613398 C6.48367578,21.4449883 6.91711328,20.5283867 7.58686328,19.8457227 L1.413125,19.8457227 L1.30691797,19.8457227 C0.769425781,19.8457227 0.305632812,20.1751055 0.104054687,20.6388242 C0.0368125,20.7971328 -5.23581178e-13,20.9726602 -5.23581178e-13,21.1546445 C-5.23581178e-13,21.3367031 0.0368125,21.5100039 0.104054687,21.6682383 C0.305558594,22.1341836 0.769425781,22.4613398 1.30691797,22.4613398 L1.30691797,22.4613398 Z" id="Path" fill="#E0E0E0"></path>
                    <path d="M30.6418789,12.3002734 L35.0545547,12.3002734 L35.0588594,5.60418359 L35.0588594,5.59119531 L30.6418047,5.59119531 C29.7965273,5.59119531 29.107332,6.28246875 29.107332,7.12544531 L29.107332,10.7725547 C29.1074062,11.615457 29.7966016,12.3002734 30.6418789,12.3002734 L30.6418789,12.3002734 Z" id="Path" fill="#FFFFFF"></path>
                    <path d="M29.8659961,2.59632031 C31.513207,2.59632031 32.8612422,3.94420703 32.8612422,5.59112109 L35.0589336,5.59112109 C35.0589336,3.94420703 33.7108242,2.59632031 32.0636875,2.59632031 L29.8659961,2.59632031 Z" id="Path" fill="#8DA5FC"></path>
                    <polygon id="Path" fill="#C5DAFF" points="32.8612422 5.59119531 32.8568633 12.3002734 32.8763828 12.3002734 35.0545547 12.3002734 35.0589336 5.60418359 35.0589336 5.59119531"></polygon>
                    <path d="M32.8763828,12.3002734 C33.6089219,12.3154141 34.2201133,12.9243789 34.2201133,13.6633008 L34.2201133,14.6883359 L36.4178047,14.6883359 L36.4178047,13.6633008 C36.4178047,12.9243789 35.8066133,12.3154141 35.0740742,12.3002734 L35.0545547,12.3002734 L32.8763828,12.3002734 Z" id="Path" fill="#8DA5FC"></path>
                    <polygon id="Path" fill="#8DA5FC" points="34.2201875 14.6882617 34.2201875 16.9094805 36.4178047 17.2908906 36.4178047 14.6882617"></polygon>
                    <polygon id="Path" fill="#8DA5FC" points="34.2201875 16.9094805 34.2201875 19.8457969 36.4178047 19.8457969 36.4178047 17.2908906"></polygon>
                </g>
                <path d="M19.5386055,22.4613398 L26.6174414,22.4613398 C26.6803047,21.4449883 27.1158945,20.5283867 27.7856445,19.8457227 L23.8841133,19.8457227 L19.9958672,19.8457227 L15.0206875,19.8457227 L11.6071445,19.8457227 C12.2768203,20.5283125 12.710332,21.4449883 12.7753477,22.4613398 L19.5386055,22.4613398 Z" id="Path" fill="#E0E0E0" fill-rule="nonzero"></path>
                <path d="M29.8724531,26.8300781 C32.1394648,26.8300781 33.9795703,24.9924219 33.9795703,22.7235547 C33.9795703,22.6368672 33.9752656,22.5480273 33.9708867,22.4613398 C33.9058711,21.4449883 33.4724336,20.5283867 32.8005313,19.8457227 C32.0549297,19.0872812 31.0189844,18.6191836 29.8724531,18.6191836 C28.7237695,18.6191836 27.68775,19.0872812 26.9422227,19.8457227 C26.2725469,20.5283125 25.8368828,21.4449883 25.7740195,22.4613398 C25.7674883,22.5480273 25.7653359,22.6368672 25.7653359,22.7235547 C25.7653359,24.9924219 27.6032891,26.8300781 29.8724531,26.8300781 Z" id="Path" fill="#989AA2" fill-rule="nonzero"></path>
                <path d="M31.5759961,19.8674688 C32.2456719,20.5500586 32.6791836,21.4667344 32.7441992,22.4830859 C32.7507305,22.5697734 32.7528828,22.6564609 32.7528828,22.7453008 C32.7528828,24.7801562 31.2725898,26.4704141 29.3285039,26.795418 C29.5062578,26.8192422 29.6883164,26.8300781 29.8725273,26.8300781 C32.1395391,26.8300781 33.9796445,24.9924219 33.9796445,22.7257813 C33.9796445,22.6369414 33.9753398,22.5481016 33.9709609,22.4614141 C33.9406055,22.002 33.8365508,21.5621055 33.6675547,21.1547188 C33.4638242,20.6627969 33.166875,20.22075 32.8006055,19.8458711 C32.0550039,19.089582 31.0190586,18.619332 29.8725273,18.619332 C29.6384414,18.619332 29.4108867,18.6388516 29.1897891,18.6756641 C30.1195273,18.7969375 30.9496641,19.230375 31.5759961,19.8674688 Z" id="Path" fill="#989AA2" fill-rule="nonzero"></path>
                <path d="M5.48988672,22.7235547 C5.48988672,24.9924219 7.32999219,26.8300781 9.59700391,26.8300781 C11.8662422,26.8300781 13.7041211,24.9924219 13.7041211,22.7235547 C13.7041211,22.6368672 13.7019688,22.5480273 13.6954375,22.4613398 C13.6304219,21.4449883 13.1969844,20.5283867 12.5272344,19.8457227 C11.7816328,19.0872813 10.7435352,18.6170313 9.59700391,18.6170313 C8.45047266,18.6170313 7.41230078,19.0872813 6.66677344,19.8457227 C5.99709766,20.5283125 5.56358594,21.4449883 5.49857031,22.4613398 C5.49203906,22.5480273 5.48988672,22.6368672 5.48988672,22.7235547 Z" id="Path" fill="#989AA2" fill-rule="nonzero"></path>
                <path d="M29.8724531,24.3553281 C30.7719102,24.3553281 31.5022969,23.6250156 31.5022969,22.7235547 C31.5022969,21.8242461 30.7719102,21.0939336 29.8724531,21.0939336 C28.9708437,21.0939336 28.240457,21.8242461 28.240457,22.7235547 C28.240457,23.6250898 28.9708437,24.3553281 29.8724531,24.3553281 Z" id="Path" fill="#E6E6E6"></path>
                <path d="M7.96716016,22.7235547 C7.96716016,23.6250156 8.69539453,24.3553281 9.59700391,24.3553281 C10.4986133,24.3553281 11.2268477,23.6250156 11.2268477,22.7235547 C11.2268477,21.8242461 10.4986133,21.0939336 9.59700391,21.0939336 C8.69539453,21.0939336 7.96716016,21.8242461 7.96716016,22.7235547 L7.96716016,22.7235547 Z" id="Path" fill="#E6E6E6"></path>
                <path d="M11.3005469,19.8674687 C11.9724492,20.5500586 12.4058867,21.4667344 12.46875,22.4830859 C12.4752812,22.5697734 12.4774336,22.6564609 12.4774336,22.7453008 C12.4774336,24.7801562 10.9971406,26.4704141 9.05305469,26.795418 C9.23080859,26.8192422 9.41286719,26.8300781 9.59707812,26.8300781 C11.8663164,26.8300781 13.7041953,24.9924219 13.7041953,22.7235547 C13.7041953,22.6368672 13.702043,22.5480273 13.6955117,22.4613398 C13.6673086,22.0019258 13.5611016,21.5598789 13.3921055,21.1546445 C13.188375,20.6627227 12.8936523,20.2206758 12.5273086,19.8457969 C11.781707,19.0873555 10.7436094,18.6171055 9.59707812,18.6171055 C9.36514453,18.6171055 9.13758984,18.636625 8.91433984,18.6755898 C9.84407812,18.7969375 10.6741406,19.230375 11.3005469,19.8674687 L11.3005469,19.8674687 Z" id="Path" fill="#989AA2" fill-rule="nonzero"></path>
            </g>
        </g>
    </g>
</svg>