<?xml version="1.0" encoding="UTF-8"?>
<svg width="38px" height="38px" viewBox="0 0 38 38" version="1.1" xmlns="http://www.w3.org/2000/svg" xmlns:xlink="http://www.w3.org/1999/xlink">
    <!-- Generator: Sketch 61 (89581) - https://sketch.com -->
    <title>VISITOR-TRANS</title>
    <desc>Created with Sketch.</desc>
    <g id="VISITOR-TRANS" stroke="none" stroke-width="1" fill="none" fill-rule="evenodd">
        <g id="travelling" transform="translate(18.000000, 2.000000)" fill-rule="nonzero">
            <g id="Group">
                <path d="M18.6490074,8.85232593 L19.4579556,9.57137778 C19.8693926,9.9378963 19.9077926,10.5749333 19.5416296,10.9886222 L17.5505778,13.2314074 L16.0302815,12.1161481 L16.126163,10.1840593 L17.2350222,8.93611852 C17.6011852,8.52242963 18.2375704,8.48580741 18.6490074,8.85232593 L18.6490074,8.85232593 Z" id="Path" fill="#8DA5FC"></path>
                <path d="M16.1262222,10.184 L17.550637,13.2313481 L18.173037,14.5665185 C18.6350815,15.5543704 18.3020444,16.5544889 17.9324444,16.969837 L17.214163,17.7779556 C16.6719407,18.3905778 16.2221037,18.2072889 15.7862519,17.545837 L11.5931852,11.339437 L12.1824593,8.54162963 L15.1568,8.10702222 L16.1262222,10.184 Z" id="Path" fill="#4764CC"></path>
                <path d="M8.47235556,14.1703704 L10.0153481,17.2770963 C10.3936593,18.0398222 10.1147259,18.8304593 9.82708148,19.1550815 L9.43306667,19.5984 C9.00942222,20.0766222 8.65724444,19.9352296 8.31727407,19.4168889 L5.85718519,16.5422815 L6.43952593,14.8615111 L8.47235556,14.1703704 Z" id="Path" fill="#4764CC"></path>
                <path d="M2.52711111,10.6168889 L5.74032593,11.7478519 L5.7264,13.9504593 L3.71964444,14.5927704 L0.604088889,12.5559111 C0.051437037,12.2784 -0.131674074,11.9450667 0.293748148,11.468563 L0.687762963,11.0235259 C0.975466667,10.7006222 1.72515556,10.3341037 2.52711111,10.6168889 Z" id="Path" fill="#4764CC"></path>
                <path d="M8.35205926,0.0296296296 C8.58915556,0.0296296296 8.82631111,0.111644444 9.01457778,0.280948148 L9.82352593,1 C10.2367407,1.36651852 10.273363,2.00533333 9.9072,2.41724444 L8.80011852,3.66518519 L6.43946667,3.66518519 L5.6096,2.60752593 L7.60065185,0.364740741 C7.79768889,0.143111111 8.07312593,0.0296296296 8.34862222,0.0296296296 L8.35205926,0.0296296296 Z" id="Path" fill="#8DA5FC"></path>
                <path d="M5.6096,2.60752593 L8.80017778,3.66518519 L10.972563,4.38423704 L10.5889778,7.19425185 L8.18648889,8.30779259 L1.53511111,4.86773333 C0.827259259,4.51164444 0.5936,4.08752593 1.1376,3.4749037 L1.85588148,2.66678519 C2.22376296,2.25137778 3.17742222,1.80284444 4.21131852,2.14494815 L5.6096,2.60752593 Z" id="Path" fill="#4764CC"></path>
                <path d="M14.7941926,0.668444444 C15.8629333,0.350814815 17.2769185,0.139614815 17.9498667,0.745244444 C18.6298074,1.34216296 18.5844741,2.77155556 18.3944296,3.87117037 C18.3665185,4.03525926 18.3264593,4.20278519 18.270637,4.37380741 C18.0230519,5.15223704 17.4913185,5.98477037 16.5916444,6.80681481 L15.1567407,8.10708148 L11.5930667,11.339437 L5.85179259,16.5370667 L5.6077037,16.7674667 C5.25902222,17.0571852 4.90684444,17.2037926 4.5842963,17.2369778 C3.49635556,17.3486815 2.73795556,16.1705481 3.50334815,14.8964741 L3.71952593,14.5927704 L8.18631111,8.30779259 L10.9723852,4.3842963 L12.0951704,2.80651852 C12.9583407,1.5986963 13.9032889,0.933688889 14.7941926,0.668444444 L14.7941926,0.668444444 Z" id="Path" fill="#ECECEC"></path>
                <path d="M13.9643259,6.92545185 L10.4006519,10.1578074 L4.65937778,15.355437 L4.41528889,15.585837 C4.06482963,15.8755556 3.71442963,16.022163 3.39188148,16.0553481 C3.32562963,16.0623407 3.2610963,16.0640593 3.19834074,16.0623407 C3.26287407,16.7971556 3.84865185,17.312 4.58441481,17.2369778 C4.90696296,17.2037926 5.25914074,17.0571852 5.60782222,16.7674667 L5.85191111,16.5370667 L11.5931852,11.339437 L15.1568593,8.10708148 L16.591763,6.80681481 C17.4913778,5.98477037 18.0231704,5.15223704 18.2707556,4.37380741 C18.3265185,4.20278519 18.366637,4.0352 18.3945481,3.87117037 C18.5845926,2.77161481 18.6299259,1.34216296 17.9499852,0.745244444 C17.7582222,0.572444444 17.5071407,0.466014815 17.2194963,0.410133333 C17.3886222,1.08906667 17.3275852,1.96171852 17.2020741,2.69131852 C17.174163,2.85540741 17.1341037,3.02121481 17.0782815,3.19223704 C16.8306963,3.97066667 16.298963,4.8032 15.3993481,5.62524444 L13.9643259,6.92545185 Z" id="Path" fill="#989AA2"></path>
                <path d="M16.6597333,16.7552 L12.4649481,10.5488 L11.5931852,11.339437 L15.7862519,17.545837 C16.2221037,18.2073481 16.6719407,18.3905778 17.214163,17.7779556 L17.6064593,17.3363556 C17.2664296,17.4411259 16.9595852,17.2125037 16.6597333,16.7552 L16.6597333,16.7552 Z" id="Path" fill="#4764CC"></path>
                <path d="M18.8268444,10.3515852 L17.1095111,12.2871704 L17.550637,13.2314074 L19.5416889,10.9886222 C19.9077926,10.5749926 19.8694519,9.93795556 19.4580148,9.57137778 L18.7466667,8.93783704 L18.7466667,8.93955556 C19.1546074,9.30613333 19.1912296,9.94139259 18.8268444,10.3515852 Z" id="Path" fill="#8DA5FC"></path>
                <path d="M7.8845037,3.36296296 L8.80017778,3.66518519 L9.90725926,2.41724444 C10.273363,2.00533333 10.2368,1.36657778 9.82358519,1 L9.26915556,0.506074074 C9.67887407,0.87437037 9.61576296,1.4797037 9.24266667,1.8864 L7.8845037,3.36296296 Z" id="Path" fill="#8DA5FC"></path>
                <path d="M8.82453333,7.40717037 L2.17493333,3.96711111 C1.67976296,3.71928889 1.41653333,3.4365037 1.48977778,3.07875556 L1.1376,3.47496296 C0.593659259,4.08758519 0.827259259,4.5117037 1.53511111,4.86773333 L8.18642963,8.30779259 L8.82453333,7.40717037 Z" id="Path" fill="#4764CC"></path>
                <path d="M9.06512593,18.7379556 L6.6050963,15.8634074 L5.85718519,16.5422815 L8.31721481,19.4168296 C8.65718519,19.9351704 9.00936296,20.076563 9.43300741,19.5983407 L9.78868148,19.198637 C9.53066667,19.2667852 9.29528889,19.0869926 9.06512593,18.7379556 Z" id="Path" fill="#4764CC"></path>
                <path d="M4.3072,13.7654519 L1.19336296,11.7286519 C0.820266667,11.5401481 0.616296296,11.3289481 0.652859259,11.0637037 L0.293688889,11.4686222 C-0.131733333,11.9451259 0.0513185185,12.2784593 0.60402963,12.5559704 L3.71958519,14.5927704 L4.3072,13.7654519 Z" id="Path" fill="#4764CC"></path>
            </g>
            <path d="M16.4255407,4.50725926 C16.1931852,4.50725926 15.9932444,4.33226667 15.9674074,4.09588148 C15.9109926,3.58056296 15.2975407,3.0176 14.8345413,3.05517037 C14.5803259,3.07703704 14.3574519,2.88788148 14.3361778,2.63377778 C14.3149037,2.37973333 14.5035259,2.15662222 14.7575111,2.13534815 C15.7198815,2.05374815 16.7733333,2.97605926 16.8849185,3.99543704 C16.9126519,4.24877037 16.7297778,4.47668148 16.4764444,4.50441481 C16.4592593,4.50637037 16.4423111,4.50725926 16.4255407,4.50725926 L16.4255407,4.50725926 Z" id="Path" fill="#ACACAC"></path>
        </g>
        <g id="family" transform="translate(1.000000, 0.000000)" fill-rule="nonzero">
            <g id="Path" transform="translate(-0.999671, 14.020074)">
                <path d="M21.0162076,21.3724895 C19.6687262,9.28141207 19.7446521,9.62262529 19.6239854,9.03161938 C19.4282076,8.07230433 18.8574669,7.31549551 18.0651706,6.82521729 L18.0376891,6.81831197 C17.7005039,6.61362907 17.324578,6.45232964 16.9209484,6.33448873 L13.0358373,5.35445771 C12.909541,5.29651301 12.8221336,5.10594099 12.8221336,4.88864837 L12.8221336,2.98983357 C11.3578373,3.63690774 9.65124468,3.62662481 8.20754098,2.97992593 L8.20754098,4.88872343 C8.20754098,5.10601605 8.12013357,5.29658807 7.99383727,5.35453277 C4.70724468,6.24171716 3.97628172,6.22100118 2.99198542,6.81838702 L2.96450394,6.82529235 C1.87724468,7.49811138 1.45702246,8.40998983 1.31213357,9.61376846 L0.0134669012,21.3724895 C-0.116681247,22.8969155 0.680874309,23.9799259 2.11665209,23.9799259 C4.4014669,23.9799259 17.0868743,23.9799259 18.9130965,23.9799259 C20.5150965,23.9799259 21.0424299,22.6649865 21.0307262,21.7940147 C21.0307262,21.793114 21.0307262,21.7922133 21.0307262,21.7913126 C21.0333188,21.6336159 21.0262076,21.4904054 21.0162076,21.3724895 Z" fill="#8DA5FC"></path>
                <path d="M12.9996714,6.97992593 L12.9996714,0.979925926 C11.5595658,0.933777778 9.41309649,3.21096296 8.21707134,2.96296296 L7.99967139,5.97992593 L8.99967139,7.97992593 L12.9996714,6.97992593 Z" fill="#E0E0E0"></path>
            </g>
            <path d="M2.26955556,9.22214815 L2.26955556,7.23296296 C2.26955556,1.37785185 8.88881481,-2.0097037 13.6377778,1.29859259 C17.3628148,3.89940741 16.6533333,7.724 16.7352593,9.22214815" id="SVGCleanerId_0" fill="#4C4846"></path>
            <path d="M2.26955556,9.22214815 L2.26955556,7.23296296 C2.26955556,1.37785185 8.88881481,-2.0097037 13.6377778,1.29859259 C17.3628148,3.89940741 16.6533333,7.724 16.7352593,9.22214815" id="SVGCleanerId_0_1_" fill="#989AA2"></path>
            <g id="Group" transform="translate(1.888889, 8.296296)" fill="#E0E0E0">
                <path d="M15.2063704,1.57266667 C15.2063704,2.40622222 14.3994815,3.08185185 13.4041481,3.08185185 L13.4041481,0.0635555556 C14.3994815,0.0635555556 15.2063704,0.739185185 15.2063704,1.57266667 Z" id="Path"></path>
                <path d="M0.0206666667,1.57266667 C0.0206666667,2.40622222 0.827555556,3.08185185 1.82296296,3.08185185 L1.82296296,0.0635555556 C0.827555556,0.0635555556 0.0206666667,0.739185185 0.0206666667,1.57266667 Z" id="Path"></path>
            </g>
            <path d="M13.9588889,6.26296296 C13.9378519,5.68459259 13.4615556,5.3677037 13.0020741,5.43925926 C12.8946667,5.45592593 12.7760741,5.47333333 12.7000741,5.48407407 C10.4171111,5.80814815 8.24681481,5.7877037 6.00303704,5.43925926 C5.54703704,5.36822222 5.06696296,5.68 5.04622222,6.26303704 C5.01488889,7.1222963 4.6577037,7.76118519 4.11348148,8.15911111 C3.88674074,8.32503704 3.71948148,8.38177778 3.71185185,8.386 C3.71185185,12.1342963 3.66711111,12.3848148 3.86792593,13.2339259 C4.06022222,14.0445926 4.41577778,14.7692593 4.88088889,15.3840741 C7.57518519,18.9472593 13.2161481,18.2516296 14.8887407,14.025037 C15.4423704,12.6264444 15.2931852,11.5646667 15.2931852,8.386 C15.2715556,8.36985185 14.0187407,7.92555556 13.9588889,6.26296296 Z" id="Path" fill="#E0E0E0"></path>
            <polygon id="Path" fill="#C5DAFF" points="10.0748889 38.7287407 10.0748889 20.7383851 8.93014815 20.7287407 8.93014815 38.7287407"></polygon>
            <path d="M11.8236296,19.0848148 L9.50251852,21.2701481 L10.7554815,22.5328148 C10.9947407,22.7739259 11.3912593,22.7504444 11.6004444,22.4827407 L13.5932593,19.9318519 L11.8236296,19.0848148 Z" id="Path" fill="#4764CC"></path>
            <path d="M7.20140741,19.0935556 L9.50259259,21.2701481 L8.24962963,22.5328148 C8.01037037,22.7739259 7.61385185,22.7504444 7.40466667,22.4827407 L5.41185185,19.9318519 L7.20140741,19.0935556 Z" id="Path" fill="#4764CC"></path>
        </g>
    </g>
</svg>