<?xml version="1.0" encoding="UTF-8"?>
<svg width="38px" height="38px" viewBox="0 0 38 38" version="1.1" xmlns="http://www.w3.org/2000/svg" xmlns:xlink="http://www.w3.org/1999/xlink">
    <!-- Generator: Sketch 61 (89581) - https://sketch.com -->
    <title>WORLD-WIDE-CVRG</title>
    <desc>Created with Sketch.</desc>
    <g id="WORLD-WIDE-CVRG" stroke="none" stroke-width="1" fill="none" fill-rule="evenodd">
        <g id="awareness" fill-rule="nonzero">
            <path d="M29.6271188,10.9491525 C29.628135,16.9121657 24.8563987,21.7791126 18.8945291,21.8958898 C18.8228854,21.8975 18.7504253,21.8983051 18.6779661,21.8983051 C12.8477654,21.8979204 8.04028769,17.329296 7.74305112,11.506677 C7.44581455,5.68405809 11.7630697,0.649628772 17.5629237,0.0555460169 L17.5637288,0.0555460169 C17.9300424,0.0193220339 18.3019915,-1.09757724e-07 18.6779661,-1.09757724e-07 C21.5819879,-0.000410920872 24.3671864,1.15302524 26.4206399,3.20647874 C28.4740934,5.25993223 29.6275296,8.04513078 29.6271188,10.9491525 Z" id="Path" fill="#8DA5FC"></path>
            <g id="Group" transform="translate(7.648305, 0.000000)" fill="#C5DAFF">
                <path d="M8.45338983,14.1694915 L10.3855932,17.3898305 L7.29970339,21.2469843 C2.49835934,19.5062165 -0.462510827,14.6780168 0.162944005,9.60929081 C0.788398837,4.54056479 4.83413458,0.576944395 9.91461864,0.0555436017 L9.91542373,0.0555436017 L10.3855932,0.644067797 L6.52118644,8.37288136 L3.30084746,8.37288136 L3.30084746,10.9491525 L5.87711864,10.9491525 L8.45338983,12.2372881 L8.45338983,14.1694915 Z" id="Path"></path>
                <path d="M21.9788174,10.9491525 C21.9796013,11.894464 21.8580987,12.8359061 21.6173305,13.7500424 L18.1144068,14.6259681 L16.1822034,8.82935797 L11.6737288,8.18529017 L11.6737288,4.32088339 L17.3286441,1.99258475 C20.2460732,4.041554 21.9814886,7.38409148 21.9788174,10.9491525 L21.9788174,10.9491525 Z" id="Path"></path>
                <path d="M18.9557203,18.5040549 C16.9428161,20.6200636 14.1662175,21.8416432 11.2462288,21.8958874 L14.25,18.0338983 L18.9557203,18.5040549 Z" id="Path"></path>
            </g>
            <path d="M11.5932203,28.9830508 L11.5932203,30.9152542 L5.15254237,30.9152542 L0,20.6101695 L0,12.9876328 C0,12.2619597 0.556669737,11.657623 1.27988362,11.5979317 C2.00309751,11.5382404 2.65123063,12.0431446 2.77029661,12.7589831 L3.86440678,19.3220339 L6.08885593,22.1019915 L7.67245763,24.0824879 L11.5932203,28.9830508 Z" id="Path" fill="#E0E0E0"></path>
            <path d="M11.5932203,28.9830508 C11.5932203,26.4276193 11.1336096,23.8930196 10.2363378,21.5002945 L10.0006033,20.8716699 C9.79634119,20.3269652 9.27561834,19.9661017 8.69387428,19.9661017 C8.28930543,19.9661017 7.90464615,20.1416647 7.63957189,20.4472978 C7.37449764,20.7529309 7.25509801,21.1585525 7.31231263,21.5590553 L7.67281025,24.0825354 L11.5932203,28.9830508 Z" id="Path" fill="#E0E0E0"></path>
            <path d="M7.45899504,27.1418389 C7.10689543,27.1920756 6.7807296,26.9473892 6.73045453,26.5952951 L6.08885593,22.1019915 L7.67245763,24.0824879 L8.0055864,26.4131278 C8.02975912,26.5822469 7.98574822,26.7540411 7.88323851,26.8907062 C7.78072881,27.0273713 7.6281202,27.1177086 7.45899504,27.1418389 Z" id="Path" fill="#989AA2"></path>
            <polygon id="Path" fill="#C5DAFF" points="3.86440678 30.9152542 12.8813559 30.9152542 12.8813559 34.1355932 3.86440678 34.1355932"></polygon>
            <polygon id="Path" fill="#4764CC" points="2.57627119 33.4915254 14.1694915 33.4915254 14.1694915 38 2.57627119 38"></polygon>
            <path d="M37.3559322,12.9876328 L37.3559322,20.6101695 L32.2033898,30.9152542 L25.7627119,30.9152542 L25.7627119,28.9830508 L29.6834746,24.0824903 L31.2670763,22.1019915 L33.4915254,19.3220339 L34.5856428,12.7589831 C34.7047153,12.0431527 35.3528441,11.5382575 36.0760511,11.5979484 C36.7992581,11.6576393 37.3559322,12.2619666 37.3559322,12.9876328 Z" id="Path" fill="#E0E0E0"></path>
            <path d="M25.7627119,28.9830508 C25.7627119,26.4276193 26.2223226,23.8930196 27.1195944,21.5002945 L27.3553289,20.8716699 C27.559591,20.3269652 28.0803139,19.9661017 28.6620579,19.9661017 C29.0666268,19.9661017 29.4512861,20.1416647 29.7163603,20.4472978 C29.9814346,20.7529309 30.1008342,21.1585525 30.0436196,21.5590553 L29.6831219,24.0825354 L25.7627119,28.9830508 Z" id="Path" fill="#E0E0E0"></path>
            <path d="M31.2670763,22.1019915 L30.6254793,26.5952911 C30.5752038,26.9473862 30.249037,27.1920732 29.8969364,27.1418365 C29.7278104,27.1177062 29.575201,27.0273685 29.4726909,26.8907028 C29.3701807,26.754037 29.3261696,26.582242 29.3503426,26.4131221 L29.6834746,24.0824903 L31.2670763,22.1019915 Z" id="Path" fill="#989AA2"></path>
            <polygon id="Path" fill="#C5DAFF" transform="translate(28.983051, 32.525424) rotate(-180.000000) translate(-28.983051, -32.525424) " points="24.4745763 30.9152542 33.4915254 30.9152542 33.4915254 34.1355932 24.4745763 34.1355932"></polygon>
            <polygon id="Path" fill="#4764CC" transform="translate(28.983051, 35.745763) rotate(-180.000000) translate(-28.983051, -35.745763) " points="23.1864407 33.4915254 34.779661 33.4915254 34.779661 38 23.1864407 38"></polygon>
        </g>
    </g>
</svg>