<?xml version="1.0" encoding="UTF-8"?>
<svg width="64px" height="64px" viewBox="0 0 64 64" version="1.1" xmlns="http://www.w3.org/2000/svg" xmlns:xlink="http://www.w3.org/1999/xlink">
    <!-- Generator: Sketch 61 (89581) - https://sketch.com -->
    <title>benefits</title>
    <desc>Created with Sketch.</desc>
    <g id="benefits" stroke="none" stroke-width="1" fill="none" fill-rule="evenodd">
        <g id="star-3" fill-rule="nonzero">
            <path d="M47.8534113,61.7825809 L47.8534113,51.3403509 L62.6609903,36.5327719 C63.4435867,35.7501754 63.8831033,34.6888733 63.8831033,33.5821598 L63.8831033,7.60664327 C63.8831033,6.47822222 62.9682651,5.56325926 61.8398441,5.56325926 L60.6487953,5.56325926 C58.5286862,5.56325926 56.7455439,7.15302924 56.5032671,9.25929045 L53.9949162,26.9312749 C52.3653489,25.3017076 49.7232593,25.3017076 48.093692,26.9312749 L35.8416218,39.183345 C32.7759844,42.2489825 31.053848,46.4067368 31.053848,50.7421442 L31.053848,61.7824561 C31.053848,62.9110019 31.9686862,63.8258402 33.097232,63.8258402 L45.8102768,63.8258402 C46.9385731,63.8258402 47.8534113,62.9110019 47.8534113,61.7825809 L47.8534113,61.7825809 Z" id="Path" fill="#E0E0E0"></path>
            <path d="M56.8554542,24.0084834 C56.1901287,23.3431579 55.4368499,22.818807 54.6336686,22.4313138 L53.9952904,26.929154 C54.7488187,27.6982768 55.163883,28.7124211 55.1636335,29.7905653 C55.163384,30.8829318 54.7374659,31.9098012 53.9644756,32.6817934 C49.2864873,37.3541676 46.2401871,40.4004678 46.2401871,40.4004678 C45.4422456,41.1984094 45.4422456,42.4922573 46.2401871,43.2901988 C47.0381287,44.0881404 48.3319766,44.0881404 49.1299181,43.2901988 C49.1299181,43.2901988 52.1755945,40.2445224 56.85246,35.5733957 C58.398191,34.0295361 59.2497778,31.9761715 59.2502769,29.7916881 C59.2506511,27.6070799 58.4001871,25.5532164 56.8554542,24.0084834 L56.8554542,24.0084834 Z" id="Path" fill="#989AA2"></path>
            <path d="M16.029692,61.7825809 L16.029692,51.3403509 L1.22223782,36.5327719 C0.439641326,35.7501754 0,34.6888733 0,33.5821598 L0,7.60664327 C0,6.47822222 0.914838207,5.56325926 2.04338402,5.56325926 L3.23443275,5.56325926 C5.35454191,5.56325926 7.13768421,7.15302924 7.37996101,9.25929045 L9.88831189,26.9312749 C11.5178791,25.3017076 14.1599688,25.3017076 15.7896608,26.9312749 L28.041731,39.183345 C29.8118986,40.9535127 31.134191,43.0879688 31.9356257,45.4104327 L31.9356257,63.8259649 L18.0732008,63.8259649 C16.944655,63.8259649 16.0298168,62.9110019 16.029692,61.7825809 L16.029692,61.7825809 Z" id="Path" fill="#E0E0E0"></path>
            <path d="M7.02777388,24.0084834 C7.69309942,23.3431579 8.44637817,22.818807 9.24955945,22.4313138 L9.88806238,26.929154 C9.13440936,27.6982768 8.71946979,28.7124211 8.7197193,29.7905653 C8.71996881,30.8829318 9.14588694,31.9098012 9.91887719,32.6817934 C14.5968655,37.3541676 17.6431657,40.4004678 17.6431657,40.4004678 C18.4411072,41.1984094 18.4411072,42.4922573 17.6431657,43.2901988 C16.8452242,44.0881404 15.5513762,44.0881404 14.7534347,43.2901988 C14.7534347,43.2901988 11.707883,40.2445224 7.03089279,35.5733957 C5.48516179,34.0295361 4.63357505,31.9761715 4.63307568,29.7916881 C4.63245224,27.6070799 5.48304094,25.5532164 7.02777388,24.0084834 Z" id="Path" fill="#989AA2"></path>
            <path d="M39.261193,26.3470409 C38.9164912,26.3470409 38.5712904,26.2519766 38.2662612,26.0606004 L31.936499,22.0866121 L25.6067368,26.0606004 C24.9593762,26.4669318 24.1301209,26.4388616 23.5118285,25.9897388 C22.8935361,25.5403665 22.6104639,24.7602651 22.7969747,24.0192125 L24.6202885,16.7711189 L18.8848655,11.9791033 C18.298386,11.4890604 18.0687096,10.6917427 18.3049981,9.96466277 C18.5411618,9.23783236 19.1956335,8.7277037 19.9581442,8.67592982 L27.4149552,8.17041715 L30.2000156,1.23471345 C30.4848343,0.525473684 31.1723665,0.0607563353 31.9366238,0.0607563353 C32.7008811,0.0607563353 33.3884133,0.525598441 33.673232,1.23471345 L36.4582924,8.17041715 L43.9149786,8.67592982 C44.6774893,8.7277037 45.331961,9.23783236 45.5681248,9.96466277 C45.8044133,10.6916179 45.5747368,11.4890604 44.9882573,11.9791033 L39.2528343,16.7711189 L41.0761481,24.0192125 C41.2625341,24.7603899 40.9795867,25.5403665 40.3612943,25.9897388 C40.0341832,26.2272749 39.6481871,26.3470409 39.261193,26.3470409 L39.261193,26.3470409 Z" id="Path" fill="#989AA2"></path>
            <path d="M31.9363743,31.729154 C31.4435867,31.729154 30.9619025,31.5295439 30.6127096,31.1814737 C30.2646394,30.8320312 30.0650292,30.3505965 30.0650292,29.857809 C30.0650292,29.3650214 30.2646394,28.8822144 30.6127096,28.5341442 C30.9620273,28.1860741 31.4435867,27.9864639 31.9363743,27.9864639 C32.429037,27.9864639 32.9107212,28.1860741 33.2599142,28.5341442 C33.6079844,28.8835867 33.8077193,29.3650214 33.8077193,29.857809 C33.8077193,30.3505965 33.6079844,30.8321559 33.2599142,31.1814737 C32.9107212,31.5295439 32.4291618,31.729154 31.9363743,31.729154 L31.9363743,31.729154 Z" id="Path" fill="#E0E0E0"></path>
            <path d="M46.6201949,21.0612398 C46.1275322,21.0612398 45.6447251,20.8615049 45.296655,20.5134347 C44.9485848,20.1653645 44.7488499,19.6826823 44.7488499,19.1898947 C44.7488499,18.6971072 44.94846,18.2143002 45.296655,17.86623 C45.6447251,17.5181598 46.1275322,17.3185497 46.6201949,17.3185497 C47.1117349,17.3185497 47.5945419,17.5181598 47.9426121,17.86623 C48.2906823,18.2155478 48.49154,18.6971072 48.49154,19.1898947 C48.49154,19.6826823 48.290807,20.1642417 47.9426121,20.5134347 C47.5945419,20.8615049 47.1117349,21.0612398 46.6201949,21.0612398 L46.6201949,21.0612398 Z" id="Path" fill="#E0E0E0"></path>
            <path d="M41.0110253,3.79982846 C40.5183626,3.79982846 40.0366784,3.60021832 39.6874854,3.25214815 C39.3394152,2.90283041 39.1396803,2.42127096 39.1396803,1.92848343 C39.1396803,1.43569591 39.3394152,0.954261209 39.6874854,0.604818713 C40.0355556,0.256748538 40.5183626,0.0571384016 41.0110253,0.0571384016 C41.5038129,0.0571384016 41.9866199,0.256748538 42.3346901,0.604818713 C42.6827602,0.952888889 42.8823704,1.43569591 42.8823704,1.92848343 C42.8823704,2.42127096 42.6827602,2.90407797 42.3346901,3.25214815 C41.9867446,3.60034308 41.5039376,3.79982846 41.0110253,3.79982846 Z" id="Path" fill="#E0E0E0"></path>
            <g id="Group" transform="translate(15.345029, 0.000000)" fill="#E0E0E0">
                <path d="M7.5165692,3.79982846 C7.02502924,3.79982846 6.54209747,3.60021832 6.19290448,3.25214815 C5.84483431,2.90283041 5.64522417,2.42127096 5.64522417,1.92848343 C5.64522417,1.43569591 5.84483431,0.954261209 6.19290448,0.604818713 C6.54222222,0.256748538 7.02502924,0.0571384016 7.5165692,0.0571384016 C8.00935673,0.0571384016 8.49203899,0.256748538 8.84010916,0.604818713 C9.18817934,0.954261209 9.38791423,1.43569591 9.38791423,1.92848343 C9.38791423,2.42127096 9.18817934,2.90295517 8.84010916,3.25214815 C8.49091618,3.60034308 8.00935673,3.79982846 7.5165692,3.79982846 Z" id="Path"></path>
                <path d="M1.90877193,21.0612398 C1.41598441,21.0612398 0.933177388,20.8615049 0.585107212,20.5134347 C0.237037037,20.164117 0.0374269006,19.6826823 0.0374269006,19.1898947 C0.0374269006,18.6971072 0.237037037,18.2143002 0.585107212,17.86623 C0.933177388,17.5181598 1.41598441,17.3185497 1.90877193,17.3185497 C2.40155945,17.3185497 2.88311891,17.5181598 3.23118908,17.86623 C3.57925926,18.2143002 3.78011696,18.6971072 3.78011696,19.1898947 C3.78011696,19.6826823 3.57925926,20.1642417 3.23118908,20.5134347 C2.88299415,20.8615049 2.40031189,21.0612398 1.90877193,21.0612398 L1.90877193,21.0612398 Z" id="Path"></path>
            </g>
        </g>
    </g>
</svg>