<?xml version="1.0" encoding="UTF-8"?>
<svg width="64px" height="64px" viewBox="0 0 64 64" version="1.1" xmlns="http://www.w3.org/2000/svg" xmlns:xlink="http://www.w3.org/1999/xlink">
    <!-- Generator: Sketch 61 (89581) - https://sketch.com -->
    <title>claims</title>
    <desc>Created with Sketch.</desc>
    <g id="claims" stroke="none" stroke-width="1" fill="none" fill-rule="evenodd">
        <g id="Group-2" transform="translate(3.000000, 0.000000)" fill-rule="nonzero">
            <g id="file-2">
                <path d="M49.7986202,57.3675076 C49.799828,60.8032894 47.0140262,63.5878764 43.5782444,63.5878764 L6.36476716,63.5878764 C2.92898538,63.5878764 0.143790872,60.8032894 0.144383137,57.3675076 L0.144383137,13.9956223 L8.68221886,13.9956223 C10.0848392,13.9968371 11.4303585,13.4404058 12.4217297,12.448427 C13.4137084,11.4564483 13.9707473,10.1109291 13.9695323,8.70830885 L13.9695323,0.108527654 L30.920037,0.108527654 L30.966204,0.124321481 C44.4432904,12.9151442 49.3011051,29.5933182 49.7986202,29.5623379 L49.7986202,57.3675076 Z" id="Path" fill="#E0E0E0"></path>
                <path d="M13.9695342,0.108527654 L13.9695342,8.70830885 C13.9707473,10.1109291 13.4137084,11.4564483 12.4217297,12.448427 C11.4303585,13.4404058 10.0848392,13.9968371 8.68221886,13.9956242 L0.144398447,13.9956242 L13.9695342,0.108527654 Z" id="Path" fill="#F4F4F4"></path>
                <g id="Group" transform="translate(5.507929, 23.551145)" fill="#989AA2">
                    <path d="M6.20671946,0.101842261 L1.61919754,0.101842261 C0.760252168,0.101842261 0.0641053575,0.797989071 0.0641053575,1.65693444 C0.0641053575,2.51587996 0.760252168,3.21202662 1.61919754,3.21202662 L6.20671946,3.21202662 C7.06566498,3.21202662 7.76181164,2.51587996 7.76181164,1.65693444 C7.76181164,0.797989071 7.06566498,0.101842261 6.20671946,0.101842261 Z" id="Path"></path>
                    <path d="M37.308563,12.5425797 L12.5048428,12.5425797 C11.6458974,12.5425797 10.9497506,13.2387265 10.9497506,14.0976719 C10.9497506,14.9566174 11.6458974,15.652764 12.5048428,15.652764 L37.308563,15.652764 C38.1675085,15.652764 38.8636552,14.9566174 38.8636552,14.0976719 C38.8636552,13.2387265 38.1675085,12.5425797 37.308563,12.5425797 Z" id="Path"></path>
                    <path d="M6.20671946,12.5425797 L1.61919754,12.5425797 C0.760252168,12.5425797 0.0641053575,13.2387265 0.0641053575,14.0976719 C0.0641053575,14.9566174 0.760252168,15.652764 1.61919754,15.652764 L6.20671946,15.652764 C7.06566498,15.652764 7.76181164,14.9566174 7.76181164,14.0976719 C7.76181164,13.2387265 7.06566498,12.5425797 6.20671946,12.5425797 Z" id="Path"></path>
                    <path d="M37.308563,24.9833171 L12.5048428,24.9833171 C11.6458974,24.9833171 10.9497506,25.6794639 10.9497506,26.5384093 C10.9497506,27.3973548 11.6458974,28.0935015 12.5048428,28.0935015 L37.308563,28.0935015 C38.1675085,28.0935015 38.8636552,27.3973548 38.8636552,26.5384093 C38.8636552,25.6794639 38.1675085,24.9833171 37.308563,24.9833171 Z" id="Path"></path>
                    <path d="M6.20671946,24.9833171 L1.61919754,24.9833171 C0.760252168,24.9833171 0.0641053575,25.6794639 0.0641053575,26.5384093 C0.0641053575,27.3973548 0.760252168,28.0935015 1.61919754,28.0935015 L6.20671946,28.0935015 C7.06566498,28.0935015 7.76181164,27.3973548 7.76181164,26.5384093 C7.76181164,25.6794639 7.06566498,24.9833171 6.20671946,24.9833171 Z" id="Path"></path>
                </g>
                <path d="M26.7799314,0.189928591 L44.0634332,0.189928591 C47.2102731,0.189928591 49.7612909,2.74094639 49.7612909,5.88778633 L49.7612909,34.377075 L49.7612909,34.377075 L28.2993601,21.0820736 L26.7799314,0.189928591 Z" id="Path-2" fill="#E0E0E0"></path>
                <path d="M42.8164922,23.7410739 L18.0127719,23.7410739 C17.1538266,23.7410739 16.4576797,24.4372207 16.4576797,25.2961661 C16.4576797,26.1551116 17.1538266,26.8512583 18.0127719,26.8512583 L42.8164922,26.8512583 C43.6754377,26.8512583 44.3715843,26.1551116 44.3715843,25.2961661 C44.3715843,24.4372207 43.6754377,23.7410739 42.8164922,23.7410739 Z" id="Path" fill="#989AA2"></path>
            </g>
            <circle id="Oval" fill="#989AA2" cx="44.5" cy="48.5" r="14.5"></circle>
            <path d="M45.6,50.4 L46.2,47.2 L46.2,41 L42.8,41 L42.8,47.2 L43.4,50.4 L45.6,50.4 Z M44.5,55.3 C44.9933333,55.3 45.4166667,55.1233333 45.77,54.77 C46.1233333,54.4166667 46.3,53.9933333 46.3,53.5 C46.3,53.0066667 46.1233333,52.5833333 45.77,52.23 C45.4166667,51.8766667 44.9933333,51.7 44.5,51.7 C44.0066667,51.7 43.5833333,51.8766667 43.23,52.23 C42.8766667,52.5833333 42.7,53.0066667 42.7,53.5 C42.7,53.9933333 42.8733333,54.42 43.22,54.78 C43.58,55.1266667 44.0066667,55.3 44.5,55.3 Z" id="!" fill="#FFFFFF"></path>
        </g>
    </g>
</svg>