<?xml version="1.0" encoding="UTF-8"?>
<svg width="40px" height="40px" viewBox="0 0 40 40" version="1.1" xmlns="http://www.w3.org/2000/svg" xmlns:xlink="http://www.w3.org/1999/xlink">
    <!-- Generator: Sketch 61 (89581) - https://sketch.com -->
    <title>dependents</title>
    <desc>Created with Sketch.</desc>
    <g id="dependents" stroke="none" stroke-width="1" fill="none" fill-rule="evenodd">
        <g id="Group-4" transform="translate(1.000000, 2.000000)" fill-rule="nonzero">
            <g id="Group-2" transform="translate(0.000000, 1.585614)">
                <g id="family">
                    <g id="Path" transform="translate(0.280095, 13.848148)">
                        <path d="M19.8149671,17.9405772 C18.5582673,7.45344624 18.629078,7.74939569 18.5165408,7.23678989 C18.3339529,6.40473315 17.8016637,5.74831908 17.0627455,5.32307891 L17.0371155,5.31708961 C16.722647,5.139559 16.3720477,4.99965681 15.9956111,4.89744813 L12.3722453,4.0474235 C12.2544578,3.99716547 12.1729391,3.83187386 12.1729391,3.64340627 L12.1729391,1.99647947 C11.2625093,2.370637 10.1861122,2.90869716 8.94374776,3.61065993 C8.94374776,3.79912752 7.78771931,3.99723057 7.66993177,4.0474886 C4.60476144,4.81698321 3.92304446,4.79901532 3.00506155,5.31715471 L2.97943154,5.32314401 C1.96542243,5.90670998 1.57351116,6.69762285 1.43838363,7.74171377 L0.227209924,17.9405772 C0.105830036,19.2627799 0.849653177,20.2021232 2.18870063,20.2021232 C4.31958433,20.2021232 16.1503584,20.2021232 17.8535455,20.2021232 C19.3476166,20.2021232 19.8394227,19.0616176 19.8285075,18.3061848 C19.8309255,18.1670638 19.8242934,18.042851 19.8149671,17.9405772 Z" fill="#F4F4F4"></path>
                        <path d="M12.6183045,5.45726461 L12.2172742,0.337133461 C10.8741905,0.297107112 9.27336213,2.18827486 8.15791484,1.97317339 L7.95516142,4.58991999 L8.88779004,6.32460923 L12.6183045,5.45726461 Z" fill="#E0E0E0"></path>
                    </g>
                    <path d="M3.82350858,9.08995608 L3.82350858,7.36464701 C3.82350858,2.28624788 9.99681924,-0.651930206 14.425838,2.21750279 C17.8999142,4.47330553 17.2382315,7.79054535 17.3146379,9.08995608" id="SVGCleanerId_0" fill="#4C4846"></path>
                    <path d="M3.82350858,9.08995608 L3.82350858,6.27347152 C3.82350858,1.19507239 9.99681924,-1.7431057 14.425838,1.1263273 C16.7965447,2.66568522 17.2413583,4.69932108 17.3090505,6.24873068 C17.3405557,6.96985373 17.2903712,8.67726215 17.3146379,9.08995608" id="SVGCleanerId_0_1_" fill="#989AA2"></path>
                    <g id="Group" transform="translate(3.468488, 8.286923)" fill="#E0E0E0">
                        <path d="M14.1818963,1.36404397 C14.1818963,2.0870239 13.4293686,2.67302763 12.5010923,2.67302763 L12.5010923,0.0551245693 C13.4293686,0.0551245693 14.1818963,0.641128294 14.1818963,1.36404397 Z" id="Path"></path>
                        <path d="M0.0192743249,1.36404397 C0.0192743249,2.0870239 0.771802,2.67302763 1.70014744,2.67302763 L1.70014744,0.0551245693 C0.771802,0.0551245693 0.0192743249,0.641128294 0.0192743249,1.36404397 Z" id="Path"></path>
                    </g>
                    <path d="M5.1686354,8.36472748 C5.1686354,11.6157921 5.1269089,11.833078 5.31419454,12.56955 C5.49353557,13.2726773 5.82513686,13.9012131 6.2589128,14.4344694 C8.77169065,17.5249789 14.0326142,16.9216283 15.5925219,13.2557159 C16.1088528,12.0426542 15.9697184,11.1217269 15.9697184,8.36472748 C15.9599843,8.35796898 13.5885448,4.36469216 10.3150183,4.36469216 C7.52727825,4.36469216 5.17231741,8.3628325 5.1686354,8.36472748 Z" id="Path" fill="#E0E0E0"></path>
                    <polygon id="Path" fill="#989AA2" points="11.1029859 21.2524883 11.1029859 19.0713066 10.0353679 19.0701373 10.0353679 21.2524883"></polygon>
                    <polygon id="Path" fill="#989AA2" points="11.1029859 21.8235098 11.1029859 19.6423281 10.0353679 19.6411588 10.0353679 21.8235098"></polygon>
                    <polygon id="Path" fill="#989AA2" points="11.1029859 25.0970363 11.1029859 22.9158546 10.0353679 22.9146853 10.0353679 25.0970363"></polygon>
                    <polygon id="Path" fill="#989AA2" points="11.1029859 28.3705628 11.1029859 26.1893811 10.0353679 26.1882118 10.0353679 28.3705628"></polygon>
                    <path d="M12.7339116,17.644287 L10.5691769,19.5397241 L11.737726,20.6348912 C11.960866,20.8440176 12.3306706,20.8236511 12.5257627,20.5914597 L14.3843188,18.37896 L12.7339116,17.644287 Z" id="Path" fill="#989AA2"></path>
                    <path d="M8.42309479,17.6518682 L10.569246,19.5397241 L9.40069684,20.6348912 C9.17755681,20.8440176 8.80775229,20.8236511 8.6126602,20.5914597 L6.75410406,18.37896 L8.42309479,17.6518682 Z" id="Path" fill="#989AA2"></path>
                </g>
            </g>
            <g id="Group-2" transform="translate(17.458808, 0.000000)">
                <g id="family">
                    <g id="Path" transform="translate(0.280095, 0.157305)">
                        <path d="M7.48971275,23.2518188 L3.92837701,23.2518188 C3.38923737,23.2518188 2.94817332,22.7330989 2.94817332,22.0991492 L2.45811093,12.3329096 C2.45811093,12.3329096 1.66506357,4.24325502 5.77847894,3.18020868 C5.77847894,3.18020868 7.45097171,-0.646683927 12.8073355,0.579372749 C12.8805569,0.596165504 12.9509378,0.627060463 13.0220288,0.652945428 C14.2559824,1.10300982 15.4031434,1.89932041 16.3569148,3.01506446 C19.2739341,6.42816873 18.6873742,10.4606566 18.7605166,10.9622126 C18.7605166,13.7638194 18.798153,10.6498303 18.2704542,22.099242 C18.2704542,22.7331917 17.8293902,23.2518188 17.2902505,23.2518188 L13.5014394,23.2518188" fill="#989AA2"></path>
                        <path d="M19.8149671,33.2170341 C18.5582673,22.7299031 18.629078,23.0258526 18.5165408,22.5132468 C18.3339529,21.68119 17.8016637,21.024776 17.0627455,20.5995358 L17.0371155,20.5935465 C16.722647,20.4160159 16.3720477,20.2761137 15.9956111,20.173905 L12.3722453,19.3238804 C12.2544578,19.2736223 12.1729391,19.1083307 12.1729391,18.9198631 L12.1729391,17.2729363 C11.2625093,17.6470939 10.1861122,18.185154 8.94374776,18.8871168 C8.94374776,19.0755844 7.78771931,19.2736874 7.66993177,19.3239455 C4.60476144,20.0934401 3.92304446,20.0754722 3.00506155,20.5936116 L2.97943154,20.5996009 C1.96542243,21.1831669 1.57351116,21.9740797 1.43838363,23.0181706 L0.227209924,33.2170341 C0.105830036,34.5392367 0.849653177,35.47858 2.18870063,35.47858 C4.31958433,35.47858 16.1503584,35.47858 17.8535455,35.47858 C19.3476166,35.47858 19.8394227,34.3380744 19.8285075,33.5826417 C19.8309255,33.4435207 19.8242934,33.3193078 19.8149671,33.2170341 Z" fill="#E0E0E0"></path>
                        <path d="M12.6183045,20.7337215 L12.2172742,15.6135903 C10.8741905,15.573564 9.27336213,17.4647317 8.15791484,17.2496303 L7.95516142,19.8663769 L8.88779004,21.6010661 L12.6183045,20.7337215 Z" fill="#E0E0E0"></path>
                    </g>
                    <path d="M3.82350858,10.6755705 L3.82350858,8.9502614 C3.82350858,3.87186227 9.99681924,0.933684179 14.425838,3.80311718 C17.8999142,6.05891992 17.2382315,9.37615973 17.3146379,10.6755705" id="SVGCleanerId_0" fill="#4C4846"></path>
                    <path d="M3.82350858,10.6755705 L3.82350858,7.85908591 C3.82350858,2.78068678 9.99681924,-0.157491312 14.425838,2.71194169 C16.7965447,4.2512996 17.2413583,6.28493546 17.3090505,7.83434506 C17.3405557,8.55546812 17.2903712,10.2628765 17.3146379,10.6755705" id="SVGCleanerId_0_1_" fill="#989AA2"></path>
                    <g id="Group" transform="translate(3.468488, 9.872538)" fill="#E0E0E0">
                        <path d="M14.1818963,1.36404397 C14.1818963,2.0870239 13.4293686,2.67302763 12.5010923,2.67302763 L12.5010923,0.0551245693 C13.4293686,0.0551245693 14.1818963,0.641128294 14.1818963,1.36404397 Z" id="Path"></path>
                        <path d="M0.0192743249,1.36404397 C0.0192743249,2.0870239 0.771802,2.67302763 1.70014744,2.67302763 L1.70014744,0.0551245693 C0.771802,0.0551245693 0.0192743249,0.641128294 0.0192743249,1.36404397 Z" id="Path"></path>
                    </g>
                    <path d="M5.1686354,9.95034187 C5.1686354,13.2014065 5.1269089,13.4186924 5.31419454,14.1551643 C5.49353557,14.8582917 5.82513686,15.4868275 6.2589128,16.0200838 C8.77169065,19.1105933 14.0326142,18.5072427 15.5925219,14.8413303 C16.1088528,13.6282686 15.9697184,12.7073413 15.9697184,9.95034187 C15.9599843,9.94358336 13.5885448,5.95030654 10.3150183,5.95030654 C7.52727825,5.95030654 5.17231741,9.94844688 5.1686354,9.95034187 Z" id="Path" fill="#E0E0E0"></path>
                    <path d="M12.7339116,19.2299014 L10.5691769,21.1253385 L11.737726,22.2205056 C11.960866,22.429632 12.3306706,22.4092655 12.5257627,22.1770741 L14.3843188,19.9645744 L12.7339116,19.2299014 Z" id="Path" fill="#989AA2"></path>
                    <path d="M8.42309479,19.2374826 L10.569246,21.1253385 L9.40069684,22.2205056 C9.17755681,22.429632 8.80775229,22.4092655 8.6126602,22.1770741 L6.75410406,19.9645744 L8.42309479,19.2374826 Z" id="Path" fill="#989AA2"></path>
                </g>
            </g>
        </g>
    </g>
</svg>