<?xml version="1.0" encoding="UTF-8"?>
<svg width="64px" height="64px" viewBox="0 0 64 64" version="1.1" xmlns="http://www.w3.org/2000/svg" xmlns:xlink="http://www.w3.org/1999/xlink">
    <!-- Generator: Sketch 61 (89581) - https://sketch.com -->
    <title>notes</title>
    <desc>Created with Sketch.</desc>
    <g id="notes" stroke="none" stroke-width="1" fill="none" fill-rule="evenodd">
        <rect id="Rectangle" x="0" y="0" width="64" height="64"></rect>
        <path d="M56.7986202,57.3675076 C56.799828,60.8032894 54.0140262,63.5878764 50.5782444,63.5878764 L13.3647672,63.5878764 C9.92898538,63.5878764 7.14379087,60.8032894 7.14438314,57.3675076 L7.14438314,13.9956223 L15.6822189,13.9956223 C17.0848392,13.9968371 18.4303585,13.4404058 19.4217297,12.448427 C20.4137084,11.4564483 20.9707473,10.1109291 20.9695323,8.70830885 L20.9695323,0.108527654 L37.920037,0.108527654 L37.966204,0.124321481 C51.4432904,12.9151442 56.3011051,29.5933182 56.7986202,29.5623379 L56.7986202,57.3675076 Z" id="Path" fill="#E0E0E0" fill-rule="nonzero"></path>
        <path d="M20.9695342,0.108527654 L20.9695342,8.70830885 C20.9707473,10.1109291 20.4137084,11.4564483 19.4217297,12.448427 C18.4303585,13.4404058 17.0848392,13.9968371 15.6822189,13.9956242 L7.14439845,13.9956242 L20.9695342,0.108527654 Z" id="Path" fill="#F4F4F4" fill-rule="nonzero"></path>
        <path d="M27.3588124,48.5344624 L14.5550922,48.5344624 C13.6961468,48.5344624 13,49.2306092 13,50.0895546 C13,50.9485001 13.6961468,51.6446468 14.5550922,51.6446468 L27.3588124,51.6446468 C28.2177579,51.6446468 28.9139046,50.9485001 28.9139046,50.0895546 C28.9139046,49.2306092 28.2177579,48.5344624 27.3588124,48.5344624 Z" id="Path" fill="#989AA2" fill-rule="nonzero"></path>
        <path d="M48.3588124,41 L14.5550922,41 C13.6961468,41 13,41.6961468 13,42.5550922 C13,43.4140377 13.6961468,44.1101844 14.5550922,44.1101844 L48.3588124,44.1101844 C49.2177579,44.1101844 49.9139046,43.4140377 49.9139046,42.5550922 C49.9139046,41.6961468 49.2177579,41 48.3588124,41 Z" id="Path" fill="#989AA2" fill-rule="nonzero"></path>
        <path d="M43.3588124,33 L14.5550922,33 C13.6961468,33 13,33.6961468 13,34.5550922 C13,35.4140377 13.6961468,36.1101844 14.5550922,36.1101844 L43.3588124,36.1101844 C44.2177579,36.1101844 44.9139046,35.4140377 44.9139046,34.5550922 C44.9139046,33.6961468 44.2177579,33 43.3588124,33 Z" id="Path" fill="#989AA2" fill-rule="nonzero"></path>
        <path d="M39.3588124,26 L14.5550922,26 C13.6961468,26 13,26.6961468 13,27.5550922 C13,28.4140377 13.6961468,29.1101844 14.5550922,29.1101844 L39.3588124,29.1101844 C40.2177579,29.1101844 40.9139046,28.4140377 40.9139046,27.5550922 C40.9139046,26.6961468 40.2177579,26 39.3588124,26 Z" id="Path" fill="#989AA2" fill-rule="nonzero"></path>
        <path d="M33.7799314,0.189928591 L51.0634332,0.189928591 C54.2102731,0.189928591 56.7612909,2.74094639 56.7612909,5.88778633 L56.7612909,34.377075 L56.7612909,34.377075 L35.2993601,21.0820736 L33.7799314,0.189928591 Z" id="Path-2" fill="#E0E0E0" fill-rule="nonzero"></path>
        <path d="M47.3588124,18 L14.5550922,18 C13.6961468,18 13,18.6961468 13,19.5550922 C13,20.4140377 13.6961468,21.1101844 14.5550922,21.1101844 L47.3588124,21.1101844 C48.2177579,21.1101844 48.9139046,20.4140377 48.9139046,19.5550922 C48.9139046,18.6961468 48.2177579,18 47.3588124,18 Z" id="Path" fill="#989AA2" fill-rule="nonzero"></path>
        <path d="M18.7146486,48.5344624 L14.1271267,48.5344624 C13.2681813,48.5344624 12.5720345,49.2306092 12.5720345,50.0895546 C12.5720345,50.9485001 13.2681813,51.6446468 14.1271267,51.6446468 L18.7146486,51.6446468 C19.5735941,51.6446468 20.2697408,50.9485001 20.2697408,50.0895546 C20.2697408,49.2306092 19.5735941,48.5344624 18.7146486,48.5344624 Z" id="Path" fill="#989AA2" fill-rule="nonzero"></path>
    </g>
</svg>