<?xml version="1.0" encoding="UTF-8"?>
<svg width="64px" height="64px" viewBox="0 0 64 64" version="1.1" xmlns="http://www.w3.org/2000/svg" xmlns:xlink="http://www.w3.org/1999/xlink">
    <!-- Generator: Sketch 61 (89581) - https://sketch.com -->
    <title>payments</title>
    <desc>Created with Sketch.</desc>
    <g id="payments" stroke="none" stroke-width="1" fill="none" fill-rule="evenodd">
        <g fill-rule="nonzero" id="Path">
            <path d="M60.0336576,18.1997261 L48.5023692,6.64650068 L48.5023692,52.9437757 L63.9346536,52.9437757 L63.9346536,27.580341 C63.9346536,24.0586027 62.5302613,20.6824081 60.0336576,18.1997261 Z" fill="#E0E0E0"></path>
            <path d="M9.01316954,44.507719 L0.29572812,21.877133 C-0.57922215,19.605384 0.552644666,17.0535159 2.82565919,16.1781437 L43.971949,0.32905557 C46.243698,-0.545894808 48.7955661,0.585972008 49.6705165,2.85898664 L58.3879579,25.4895726 C59.2629083,27.7613217 58.1310415,30.3131898 55.8580268,31.1885619 L14.7130027,47.0376501 C12.439988,47.9126003 9.88938543,46.779468 9.01316954,44.507719 Z" fill="#F4F4F4"></path>
            <path d="M0.000421866116,28.6928021 L0.000421866116,4.44182831 C0.000421866116,2.00681709 1.97475526,0.0324836639 4.40976648,0.0324836639 L48.5023692,0.0324836639 C50.9373805,0.0324836639 52.9117139,2.00681709 52.9117139,4.44182831 L52.9117139,28.6928021 C52.9117139,31.1278132 50.9373805,33.1021466 48.5023692,33.1021466 L4.40976648,33.1021466 C1.97475526,33.1021466 0.000421866116,31.1278132 0.000421866116,28.6928021 Z" fill="#989AA2"></path>
            <polygon fill="#E0E0E0" points="4.40976648 17.6694404 8.81911113 17.6694404 8.81911113 19.8741128 4.40976648 19.8741128"></polygon>
            <polygon fill="#E0E0E0" points="4.40976648 24.2834573 8.81911113 24.2834573 8.81911113 26.4881297 4.40976648 26.4881297"></polygon>
            <polygon fill="#E0E0E0" points="24.2513956 24.2834573 28.6607401 24.2834573 28.6607401 26.4881297 24.2513956 26.4881297"></polygon>
            <polygon fill="#E0E0E0" points="11.0237835 17.6694404 15.4327063 17.6694404 15.4327063 19.8741128 11.0237835 19.8741128"></polygon>
            <polygon fill="#E0E0E0" points="17.6373786 17.6694404 22.0467232 17.6694404 22.0467232 19.8741128 17.6373786 19.8741128"></polygon>
            <polygon fill="#E0E0E0" points="24.2513956 17.6694404 28.6607401 17.6694404 28.6607401 19.8741128 24.2513956 19.8741128"></polygon>
            <polygon fill="#E0E0E0" points="45.1953607 4.44182831 47.4000331 4.44182831 47.4000331 7.74883682 45.1953607 7.74883682"></polygon>
            <polygon fill="#E0E0E0" points="40.7860161 4.44182831 42.9906883 4.44182831 42.9906883 7.74883682 40.7860161 7.74883682"></polygon>
            <polygon fill="#E0E0E0" points="36.3766714 4.44182831 38.5813438 4.44182831 38.5813438 7.74883682 36.3766714 7.74883682"></polygon>
            <polygon fill="#E0E0E0" points="31.9677486 4.44182831 34.1719991 4.44182831 34.1719991 7.74883682 31.9677486 7.74883682"></polygon>
            <polygon fill="#989AA2" points="44.0930246 52.9437757 63.9346536 52.9437757 63.9346536 63.9667154 44.0930246 63.9667154"></polygon>
            <path d="M40.8577333,19.94583 C38.9880226,18.0828692 35.962399,18.0883534 34.0994382,19.958064 C32.2980698,21.7657603 32.2356336,24.6703086 33.9572692,26.5543626 L42.9906883,36.4091551 C40.2755581,41.161055 40.3915712,47.0207754 43.291479,51.6617245 L44.0930246,52.9437757 L58.4229728,52.9437757 L58.4229728,37.5114913 L40.8577333,19.94583 Z" fill="#E0E0E0"></path>
            <polygon fill="#FFFFFF" points="47.4000331 56.2507841 49.6047054 56.2507841 49.6047054 58.4554565 47.4000331 58.4554565"></polygon>
            <path d="M4.40976648,11.4966954 L4.40976648,6.20565062 C4.40976648,5.23113984 5.19907801,4.44182831 6.17358869,4.44182831 L11.4646336,4.44182831 C12.4391443,4.44182831 13.2280339,5.23113984 13.2280339,6.20565062 L13.2280339,11.4966954 C13.2280339,12.4712061 12.4391443,13.2605176 11.4646336,13.2605176 L6.17358869,13.2605176 C5.19907801,13.2605176 4.40976648,12.4712061 4.40976648,11.4966954 Z" fill="#FFFFFF"></path>
            <polygon fill="#E0E0E0" points="4.40976648 7.74883682 7.71677499 7.74883682 7.71677499 9.95350908 4.40976648 9.95350908"></polygon>
            <polygon fill="#E0E0E0" points="9.92144737 7.74883682 13.2280339 7.74883682 13.2280339 9.95350908 9.92144737 9.95350908"></polygon>
        </g>
    </g>
</svg>