<?xml version="1.0" encoding="UTF-8"?>
<svg width="40px" height="40px" viewBox="0 0 40 40" version="1.1" xmlns="http://www.w3.org/2000/svg" xmlns:xlink="http://www.w3.org/1999/xlink">
    <!-- Generator: Sketch 61 (89581) - https://sketch.com -->
    <title>spouse</title>
    <desc>Created with Sketch.</desc>
    <g id="spouse" stroke="none" stroke-width="1" fill="none" fill-rule="evenodd">
        <g id="family" transform="translate(2.000000, 2.000000)" fill-rule="nonzero">
            <g id="Group">
                <path d="M23.2300351,17.3324211 L20.0625965,17.3324211 C19.5830877,17.3324211 19.190807,16.9400702 19.190807,16.4605614 L18.7549474,9.07354386 C18.7549474,9.07354386 18.049614,2.95466667 21.7080702,2.15059649 C21.7080702,2.15059649 23.1955789,-0.744 27.9595088,0.183368421 C28.0246316,0.196070175 28.0872281,0.219438596 28.1504561,0.239017544 C29.2479298,0.579438596 30.2682105,1.18175439 31.1164912,2.02568421 C33.7108772,4.60729825 33.189193,7.65740351 33.2542456,8.03677193 C33.2542456,10.1558596 33.2877193,7.80049123 32.818386,16.4606316 C32.818386,16.9401404 32.4261053,17.3324211 31.9465965,17.3324211 L28.5768421,17.3324211" id="Path" fill="#989AA2"></path>
                <path d="M35.9153684,33.4919298 C34.638807,22.1873684 34.7107368,22.506386 34.5964211,21.9538246 C34.4109474,21.0569123 33.8702456,20.3493333 33.1196491,19.8909474 L33.093614,19.8844912 C32.7741754,19.6931228 32.4180351,19.5423158 32.0356491,19.4321404 L28.3550175,18.5158596 C28.2353684,18.4616842 28.1525614,18.2835088 28.1525614,18.0803509 L28.1525614,16.3050526 C26.7653333,16.9100351 25.1485614,16.9004211 23.7808421,16.2957895 L23.7808421,18.0804211 C23.7808421,18.2835789 23.6980351,18.4617544 23.578386,18.5159298 C20.4647719,19.3454035 19.7722807,19.3260351 18.8397895,19.8845614 L18.8137544,19.8910175 C17.7837193,20.5200702 17.385614,21.3726316 17.2483509,22.4981053 L16.0180351,33.4919298 C15.8947368,34.917193 16.6503158,35.9297544 18.0105263,35.9297544 C20.1750877,35.9297544 32.1928421,35.9297544 33.9229474,35.9297544 C35.4406316,35.9297544 35.9402105,34.7003509 35.9291228,33.8860351 C35.9291228,33.885193 35.9291228,33.8843509 35.9291228,33.8835088 C35.9315789,33.7360702 35.9248421,33.6021754 35.9153684,33.4919298 Z" id="Path" fill="#989AA2"></path>
                <path d="M35.2436491,27.4899649 C34.6635088,22.3400702 34.6885614,22.3997895 34.5964211,21.9537544 C34.4098947,21.0517895 33.8632281,20.3448421 33.1196491,19.8908772 C33.1122807,19.8890526 33.0861754,19.8825965 33.093614,19.8844211 C32.7741754,19.6930526 32.4180351,19.5422456 32.0356491,19.4320702 L28.3550175,18.5157895 C28.2353684,18.461614 28.1525614,18.2834386 28.1525614,18.0802807 L28.1525614,16.3049825 L28.1525614,16.3049825 L28.1525614,16.2957193 C26.7541053,16.9135439 25.1454737,16.8986667 23.7808421,16.2957193 L23.7808421,16.3049825 L23.7808421,16.3049825 L23.7808421,18.0802807 C23.7808421,18.2834386 23.6980351,18.461614 23.578386,18.5157895 C20.4647719,19.3452632 19.7722807,19.3258246 18.8397895,19.8844211 C18.8324211,19.8862456 18.8063158,19.8927018 18.8137544,19.8908772 C17.7929825,20.5140351 17.3854035,21.3742456 17.2483509,22.4979649 L16.6896842,27.4898947 L20.2109474,27.8593684 C20.3981754,27.8790175 20.5374035,28.041614 20.5279298,28.2296842 L20.1411228,35.9296842 C24.4513684,35.9296842 27.5049825,35.9296842 31.8134035,35.9296842 L31.4079298,28.2595088 C31.3971228,28.0549474 31.5484211,27.8776842 31.7522105,27.8562807 L35.2436491,27.4899649 Z" id="Path" fill="#989AA2"></path>
                <path d="M29.8289825,18.882807 L28.3549474,18.5158596 C28.2352982,18.4616842 28.1524912,18.2835088 28.1524912,18.0803509 L28.1524912,16.0881404 L28.1524912,16.0881404 L28.1524912,16.0788772 C26.742386,16.7018947 25.1317895,16.6757895 23.7807719,16.0788772 L23.7807719,16.0881404 L23.7807719,16.0881404 L23.7807719,18.0803509 C23.7807719,18.2835088 23.6979649,18.4616842 23.5783158,18.5158596 L22.0821053,18.8883509 C23.8803509,21.9127719 28.0321404,21.9139649 29.8289825,18.882807 Z" id="Path" fill="#E0E0E0"></path>
                <path d="M30.9112281,9.47396491 C31.2199298,9.48842105 31.4631579,9.74252632 31.4631579,10.0515789 L31.4631579,10.466386 L31.4631579,10.466386 L31.4631579,10.466386 C31.4616842,11.2030175 31.5129825,11.9183158 31.2301754,12.8554386 C30.9453333,13.8000702 30.4086316,14.6679298 29.6020351,15.3854737 C26.1989474,18.4160702 20.7306667,16.1282807 20.4990175,11.5489123 C20.4979649,11.5282105 20.4987368,11.554807 20.4959298,11.4847018 C20.4931228,11.4129123 20.4912982,11.3409825 20.4912982,11.2684912 C20.4912982,10.6151579 20.4912982,9.12407018 20.4912982,8.48575439 L20.4912982,8.48575439 L20.4912982,8.20785965 C20.4912982,7.88505263 20.7187368,7.60905263 21.0345263,7.54224561 C21.594807,7.42378947 22.5001404,7.10189474 23.3214035,6.22778947 C23.5277895,6.00814035 23.8798596,6.01957895 24.0717193,6.252 C24.8686316,7.21761404 27.0205614,9.29214035 30.9112281,9.47396491 Z" id="Path" fill="#E0E0E0"></path>
                <path d="M19.9104028,33.529797 C18.6338414,22.0750921 18.7057712,22.3983468 18.5914554,21.8384464 C18.4059817,20.9296216 17.86528,20.2126449 17.1146835,19.7481708 L17.0886484,19.7416289 C16.7692098,19.5477188 16.4130694,19.3949088 16.0306835,19.28327 L12.3500519,18.3548196 C12.2304028,18.2999246 12.1475958,18.1193827 12.1475958,17.9135265 L12.1475958,16.1146493 C10.7603677,16.727667 9.14359575,16.7179253 7.77587645,16.1052632 L7.77587645,17.9135976 C7.77587645,18.1194538 7.69306943,18.2999957 7.57342031,18.3548907 C4.45980628,19.1953812 3.76731505,19.1757555 2.83482382,19.7417 L2.80878873,19.7482419 C1.77875365,20.3856494 1.38064838,21.2495342 1.24338522,22.3899561 L0.0130694346,33.529797 C-0.110228811,34.9739901 0.645350136,36 2.00556066,36 C4.17012207,36 16.1878765,36 17.9179817,36 C19.4356659,36 19.9352449,34.754268 19.9241572,33.9291367 C19.9241572,33.9282834 19.9241572,33.9274301 19.9241572,33.9265768 C19.9266133,33.77718 19.9198765,33.6415069 19.9104028,33.529797 Z" id="Path" fill="#F4F4F4"></path>
                <path d="M12.3500519,18.3548196 C12.2304028,18.2999246 12.1475958,18.1193827 12.1475958,17.9135265 L12.1475958,16.1146493 C10.7603677,16.727667 9.14359575,16.7179253 7.77587645,16.1052632 L7.77587645,17.9135976 C7.77587645,18.1194538 7.69306943,18.2999957 7.57342031,18.3548907 C5.82480337,18.8269132 6.96376608,21.1653851 10.4210526,20.8421053 C10.8522381,20.8017865 11.4952379,19.9726913 12.3500519,18.3548196 Z" id="Path" fill="#E0E0E0"></path>
                <path d="M7.90851428,20.0842105 L9.43901206,22.533007 L7.04568449,32.1063173 L9.94736842,34.4276644 L12.8490523,32.1063173 L10.4557248,22.533007 L11.9862226,20.0842105 L7.90851428,20.0842105 Z M10.4069096,22.3377463 L10.3490518,22.7036837 L10.4557248,22.533007 L10.4069096,22.3377463 Z" id="Path-4" fill="#989AA2"></path>
                <path d="M3.09716237,8.73674374 L3.09716237,6.85225251 C3.09716237,1.30530514 9.36803956,-1.90395801 13.8670571,1.23021743 C17.3960396,3.69414725 16.7238992,7.3174455 16.8015132,8.73674374" id="SVGCleanerId_0_1_" fill="#989AA2"></path>
                <path d="M17.1425659,9.34951567 C17.1425659,10.1391999 16.3781448,10.7792701 15.4351975,10.7792701 L15.4351975,7.91983146 C16.3781448,7.91983146 17.1425659,8.55990164 17.1425659,9.34951567 Z" id="Path" fill="#E0E0E0"></path>
                <path d="M2.75610973,9.34951567 C2.75610973,10.1391999 3.52053079,10.7792701 4.46354833,10.7792701 L4.46354833,7.91983146 C3.52053079,7.91983146 2.75610973,8.55990164 2.75610973,9.34951567 Z" id="Path" fill="#E0E0E0"></path>
                <path d="M14.1712676,5.93330514 C14.1513378,5.38537532 13.7001097,5.08516479 13.2648115,5.15295427 C13.1630571,5.16874374 13.0507062,5.18523497 12.9787062,5.19541041 C10.8158992,5.50242795 8.75982903,5.48305953 6.63414482,5.15295427 C6.20214482,5.08565602 5.74733781,5.38102444 5.72768868,5.93337532 C5.69800447,6.74741041 5.35961851,7.35267357 4.84403956,7.72965602 C4.62923254,7.886849 4.4707764,7.94060339 4.46354833,7.94460339 C4.46354833,11.4956209 4.42116237,11.7329543 4.61140798,12.5373753 C4.79358342,13.3053753 5.13042552,13.9919016 5.5710571,14.5743578 C8.12354833,17.9500069 13.4676185,17.2909894 15.0521799,13.286849 C15.5766711,11.9618665 15.4353378,10.9559718 15.4353378,7.94460339 C15.4148466,7.92930514 14.2279694,7.50839286 14.1712676,5.93330514 Z" id="Path" fill="#E0E0E0"></path>
                <path d="M12.1483904,18.0803227 L9.94944307,20.1506385 L11.1364606,21.346849 C11.3631273,21.5752701 11.7387764,21.5530244 11.9369518,21.2994104 L13.8248817,18.8827788 L12.1483904,18.0803227 Z" id="Path" fill="#989AA2"></path>
                <path d="M7.76944307,18.0886034 L9.94951324,20.1506385 L8.7624957,21.346849 C8.53582903,21.5752701 8.16017991,21.5530244 7.96200447,21.2994104 L6.07407465,18.8827788 L7.76944307,18.0886034 Z" id="Path" fill="#989AA2"></path>
            </g>
        </g>
    </g>
</svg>